<svg width="191" height="39" viewBox="0 0 191 39" fill="none" xmlns="http://www.w3.org/2000/svg">
<path d="M19.5 1.54753e-07C15.6433 1.54753e-07 11.8731 1.14365 8.66639 3.28634C5.45963 5.42903 2.96027 8.47451 1.48436 12.0377C0.00844899 15.6008 -0.377716 19.5216 0.374696 23.3043C1.12711 27.0869 2.9843 30.5615 5.71143 33.2886C8.43855 36.0157 11.9131 37.8729 15.6957 38.6253C19.4784 39.3777 23.3992 38.9916 26.9623 37.5156C30.5255 36.0397 33.571 33.5404 35.7137 30.3336C37.8563 27.1269 39 23.3567 39 19.5C39.0003 16.9391 38.4962 14.4033 37.5163 12.0373C36.5365 9.6713 35.1001 7.5215 33.2893 5.7107C31.4785 3.89989 29.3287 2.46354 26.9627 1.48369C24.5967 0.50384 22.0609 -0.000322481 19.5 1.54753e-07ZM18.1662 10.2647V12.6452C18.1662 12.6452 17.5923 11.7166 17.1364 11.2607C16.6806 10.771 16.1234 10.2647 16.1234 10.2647H18.1662ZM6.98967 28.8363V26.4558C6.98967 26.4558 7.56366 27.3844 8.0195 27.8402C8.47533 28.3298 9.03252 28.8363 9.03252 28.8363H6.98967ZM16.5455 25.5609C16.4441 23.5856 15.0936 23.1804 11.4975 20.8164C10.113 19.9558 7.00648 18.7065 7.00648 15.1779C7.01692 13.8479 7.39054 12.546 8.08698 11.4129C8.08698 11.4129 7.2596 15.1948 12.409 17.5752C15.1779 18.8583 18.1489 20.496 18.1489 24.1425C18.1489 25.9151 16.4268 27.7724 16.4268 27.7724C16.4268 27.7724 16.5792 26.2869 16.5455 25.5609ZM18.0988 28.8363L19.1286 26.4558C19.1286 26.4558 19.5507 26.9623 20.1757 27.6376C20.6316 28.1441 21.3744 28.8363 21.3744 28.8363H18.0988ZM29.4779 28.9882L24.0078 13.4727L25.3922 10.2647L32.3143 28.9883L29.4779 28.9882Z" fill="white"/>
<path d="M55.9286 24.5165C56.1917 24.5208 56.4534 24.4789 56.702 24.3928C56.9442 24.3277 57.1741 24.2232 57.3824 24.0835C57.5779 23.9397 57.7457 23.7615 57.8774 23.5577C58.0035 23.3424 58.0676 23.0965 58.0629 22.8471C58.066 22.5405 57.98 22.2396 57.8154 21.981C57.6329 21.7151 57.4144 21.476 57.166 21.2704C56.873 21.0498 56.5627 20.8533 56.238 20.6828C55.8976 20.4971 55.5274 20.3114 55.1553 20.126C54.7832 19.9405 54.4448 19.7233 54.0727 19.5383C53.7456 19.3367 53.4353 19.1092 53.1447 18.8579C52.8766 18.6237 52.656 18.3402 52.495 18.0227C52.3299 17.6858 52.2452 17.3152 52.2475 16.9401C52.2385 16.5476 52.3123 16.1577 52.464 15.7956C52.6232 15.442 52.855 15.1258 53.1445 14.8676C53.4674 14.6012 53.8336 14.392 54.2271 14.249C54.7061 14.0926 55.2083 14.0194 55.7119 14.0325C56.7017 14.0325 57.5058 14.249 58.0937 14.6822C58.6984 15.1546 59.1415 15.8031 59.3618 16.5382L58.4338 16.9711C58.3374 16.6566 58.2022 16.3552 58.0312 16.0742C57.8698 15.8108 57.672 15.5715 57.4435 15.3636C57.2078 15.1653 56.9337 15.0179 56.6382 14.9306C56.3074 14.8294 55.9634 14.7773 55.6174 14.776C55.3216 14.7739 55.028 14.8263 54.7513 14.9306C54.5213 15.0097 54.3106 15.1361 54.1326 15.3018C53.9817 15.4562 53.8564 15.6337 53.7615 15.8276C53.6763 16.0116 53.6341 16.2125 53.6378 16.4152C53.6393 16.6922 53.7257 16.9622 53.8853 17.1885C54.0729 17.4427 54.3031 17.6625 54.5658 17.838C54.8696 18.0585 55.1902 18.255 55.5246 18.4256C55.8957 18.6111 56.2351 18.8283 56.6072 19.0132C56.9784 19.201 57.3397 19.4075 57.6899 19.6319C58.0325 19.8359 58.3537 20.074 58.6486 20.3424C58.9258 20.5757 59.1566 20.859 59.3291 21.1776C59.4906 21.4937 59.5754 21.8434 59.5766 22.1984C59.5753 22.613 59.4911 23.0231 59.3291 23.4047C59.1681 23.783 58.9255 24.121 58.6186 24.3945C58.268 24.6954 57.8565 24.9169 57.4123 25.0439C56.8724 25.2155 56.3084 25.299 55.742 25.2914C55.2817 25.2969 54.8231 25.2344 54.3811 25.1058C54.0065 24.9978 53.6515 24.8307 53.3294 24.611C53.0275 24.4012 52.7658 24.1387 52.5568 23.8362C52.3285 23.51 52.1415 23.1568 52 22.7846L52.9588 22.382C53.134 23.0385 53.5264 23.6164 54.072 24.0214C54.6435 24.3297 55.2795 24.4992 55.9286 24.5165Z" fill="white"/>
<path d="M70.0644 14.2163V14.8968H66.2288V24.9186H64.4347V14.8968H60.5994V14.2163H70.0644Z" fill="white"/>
<path d="M74.8587 14L79.8387 24.9498H78.0445L76.4361 21.3618H71.8582L70.188 24.9498H69.291L74.3951 14H74.8587ZM72.1688 20.6813H76.0661L74.1476 16.4436L72.1688 20.6813Z" fill="white"/>
<path d="M81.2307 14.2163H82.2205L89.1801 22.0421H89.2419V14.2163H90.0152V25.1969H89.6126L82.0961 16.4742H82.0343V24.9184H81.229L81.2307 14.2163Z" fill="white"/>
<path d="M92.6753 14.2165H96.2015C97.1493 14.1947 98.0958 14.2987 99.0163 14.5258C99.7328 14.7029 100.399 15.0414 100.965 15.5156C101.531 16.007 101.994 16.6063 102.326 17.2787C102.639 17.968 102.798 18.7176 102.79 19.4748C102.797 20.2057 102.66 20.9309 102.387 21.609C102.109 22.2559 101.71 22.8437 101.212 23.3411C100.657 23.8562 100.004 24.2558 99.2934 24.5166C98.449 24.813 97.5592 24.9596 96.6643 24.9496H92.6753V14.2165ZM94.4694 24.1455H96.3562C96.938 24.1535 97.5158 24.0485 98.0575 23.8361C98.583 23.6456 99.0588 23.339 99.4495 22.9392C99.863 22.5296 100.18 22.033 100.377 21.4854C100.608 20.8512 100.724 20.1807 100.718 19.5058C100.729 18.8836 100.624 18.2648 100.408 17.6809C100.202 17.1539 99.8981 16.671 99.5115 16.2579C99.131 15.853 98.6665 15.5363 98.1506 15.3301C97.601 15.1047 97.0125 14.9891 96.4185 14.9898H94.5317V24.1455H94.4694Z" fill="white"/>
<path d="M108.76 14L113.74 24.9498H111.946L110.337 21.3618H105.79L104.12 24.9498H103.223L108.327 14H108.76ZM106.101 20.6813H109.997L108.079 16.4436L106.101 20.6813Z" fill="white"/>
<path d="M115.132 14.2164H118.782C119.346 14.1998 119.91 14.2728 120.452 14.4329C120.892 14.5396 121.303 14.7401 121.658 15.0205C121.962 15.2599 122.205 15.5671 122.369 15.9175C122.531 16.2664 122.615 16.6461 122.616 17.0307C122.621 17.3496 122.558 17.6659 122.431 17.9587C122.304 18.2457 122.126 18.5076 121.906 18.732C121.666 18.9862 121.383 19.1957 121.07 19.3506C120.741 19.535 120.387 19.6706 120.019 19.7533L123.885 24.9498H121.813L118.132 19.9077H116.895V24.9496H115.101V14.2164H115.132ZM116.926 19.3819H117.947C118.323 19.3804 118.698 19.3283 119.06 19.2272C119.39 19.1423 119.697 18.9837 119.957 18.7632C120.201 18.5706 120.401 18.3285 120.545 18.0527C120.699 17.7575 120.774 17.4269 120.761 17.0939C120.76 16.7984 120.708 16.5053 120.606 16.2278C120.496 15.9738 120.339 15.7429 120.142 15.5473C119.936 15.351 119.695 15.1938 119.432 15.0833C119.147 14.9696 118.841 14.917 118.535 14.9286H116.958L116.926 19.3829L116.926 19.3819Z" fill="white"/>
<path d="M125.247 14.2165H128.773C129.721 14.1947 130.667 14.2987 131.588 14.5258C132.304 14.7029 132.971 15.0414 133.536 15.5156C134.102 16.007 134.565 16.6063 134.897 17.2787C135.21 17.968 135.369 18.7176 135.361 19.4748C135.377 20.193 135.246 20.9068 134.974 21.5719C134.703 22.2371 134.298 22.8393 133.784 23.3411C133.228 23.8562 132.576 24.2558 131.865 24.5166C131.021 24.813 130.131 24.9596 129.236 24.9496H125.278V14.2165H125.247ZM127.041 24.1455H128.927C129.509 24.1535 130.087 24.0485 130.629 23.8361C131.154 23.6456 131.63 23.339 132.021 22.9392C132.434 22.5296 132.751 22.033 132.949 21.4854C133.18 20.8512 133.295 20.1807 133.289 19.5058C133.3 18.8836 133.195 18.2648 132.98 17.6809C132.774 17.1539 132.469 16.671 132.083 16.2579C131.702 15.853 131.238 15.5363 130.722 15.3301C130.172 15.1047 129.584 14.9891 128.99 14.9898H127.103V24.1455H127.041Z" fill="white"/>
<path d="M145.507 14L150.487 24.9498H148.693L147.084 21.3618H142.537L140.866 24.9498H139.97L145.074 14H145.507ZM142.848 20.6813H146.744L144.825 16.4436L142.848 20.6813Z" fill="white"/>
<path d="M151.878 14.2163H153.673V24.2382H158.993V24.9186H151.878V14.2163Z" fill="white"/>
<path d="M160.477 14.2163H163.817C164.341 14.2057 164.863 14.2788 165.364 14.4328C165.818 14.5528 166.248 14.7521 166.633 15.0216C166.99 15.2631 167.278 15.5936 167.468 15.9804C167.686 16.3778 167.793 16.8266 167.777 17.2795C167.797 17.7231 167.689 18.163 167.468 18.5479C167.277 18.9084 167.001 19.2165 166.663 19.4448C166.324 19.6813 165.947 19.8591 165.55 19.9706C165.138 20.0949 164.711 20.1575 164.281 20.1563H163.694C163.477 20.1563 163.291 20.1253 163.106 20.1253C162.92 20.0943 162.735 20.0943 162.58 20.0635C162.426 20.0327 162.302 20.0327 162.209 20.0017V24.9518H160.416V14.2163H160.477ZM162.24 19.3818C162.451 19.4549 162.669 19.5067 162.89 19.5365C163.121 19.5996 163.36 19.6309 163.6 19.6293C163.949 19.6334 164.296 19.5704 164.621 19.4436C164.884 19.3332 165.125 19.176 165.332 18.9796C165.529 18.7791 165.677 18.536 165.765 18.2691C165.864 17.9908 165.916 17.6982 165.919 17.4029C165.924 17.064 165.86 16.7275 165.734 16.4131C165.624 16.1329 165.456 15.8797 165.239 15.6708C165.032 15.4599 164.777 15.301 164.497 15.2068C164.202 15.0906 163.885 15.0379 163.569 15.0522H162.301V19.3825L162.24 19.3818Z" fill="white"/>
<path d="M171.149 19.815V24.9497H169.386V14.2163H171.18V19.1035H176.5V14.2163H178.294V24.9186H176.5V19.7839H171.149V19.815Z" fill="white"/>
<path d="M185.192 14L190.172 24.9498H188.378L186.77 21.3618H182.222L180.552 24.9498H179.655L184.759 14H185.192ZM182.501 20.6813H186.398L184.48 16.4436L182.501 20.6813Z" fill="white"/>
</svg>
