<svg width="171" height="36" viewBox="0 0 171 36" fill="none" xmlns="http://www.w3.org/2000/svg">
<path opacity="0.8" d="M18.544 7.68115L19.0086 11.9355L12.1046 27.0777H9.31714L18.544 7.68115Z" fill="white"/>
<path opacity="0.8" d="M12.6982 9.50439L13.7435 12.3622L7.61376 25.888H4.89087L12.6982 9.50439Z" fill="white"/>
<path d="M21.1896 15.1423L19.9636 17.6897L24.3125 27.026L26.8676 27.0777L21.1896 15.1423Z" fill="white"/>
<path d="M33.2296 36H32.8424C31.0229 36 29.2936 35.9741 27.1127 35.9353C25.0351 35.9095 23.0736 35.8836 21.5637 35.8836H11.6013C8.03962 35.8836 6.46525 35.5216 3.93593 32.9871C1.40661 30.4526 0 27.6207 0 24.0517V0H21.5637C25.1254 0 26.7256 0.724138 29.2807 2.90948C32.0036 5.25 33.2038 8.10776 33.2038 11.6767V24.0517C33.2038 25.7457 33.2038 27.9828 33.2167 30.1293C33.2167 32.2112 33.2296 33.8405 33.2296 35.431V36ZM1.40661 1.46121V24.0517C1.40661 29.6897 5.97487 34.2672 11.6013 34.2672H21.5766C23.0994 34.2672 25.0738 34.2931 27.1644 34.319C28.7387 34.3448 30.3389 34.3578 31.7971 34.3707C31.7971 33.0647 31.7971 31.5905 31.7842 30.1422C31.7842 27.9828 31.7713 25.7586 31.7713 24.0517V11.6767C31.7713 6.03879 27.2031 1.46121 21.5766 1.46121H1.40661Z" fill="white"/>
<path d="M130.247 11.1467C127.86 11.1467 125.73 12.2717 124.363 14.0044V11.082H121.988V31.4743H124.363V23.3407C125.73 25.0863 127.86 26.1984 130.247 26.1984C134.389 26.1984 137.745 22.8234 137.745 18.6855C137.758 14.5217 134.389 11.1467 130.247 11.1467ZM135.615 18.6725C135.615 21.6467 133.215 24.0519 130.247 24.0519C127.279 24.0519 124.879 21.6467 124.879 18.6725C124.879 15.6984 127.279 13.2932 130.247 13.2932C133.215 13.2932 135.615 15.6984 135.615 18.6725Z" fill="white"/>
<path d="M164.457 13.5388C163.077 11.7155 160.973 10.5388 158.624 10.5388C154.456 10.5388 151.075 14.2112 151.075 18.7371C151.075 23.263 154.456 26.9224 158.624 26.9224C160.973 26.9224 163.077 25.7586 164.457 23.9224V26.9224H166.664V11.0819H164.457V13.5388ZM158.624 24.6078C155.643 24.6078 153.217 21.9828 153.217 18.75C153.217 15.5173 155.643 12.8923 158.624 12.8923C161.605 12.8923 164.032 15.5173 164.032 18.75C164.032 21.9828 161.605 24.6078 158.624 24.6078Z" fill="white"/>
<path d="M117.523 13.5388C116.142 11.7155 114.039 10.5388 111.69 10.5388C107.522 10.5388 104.141 14.2112 104.141 18.7371C104.141 23.263 107.522 26.9224 111.69 26.9224C114.039 26.9224 116.142 25.7586 117.523 23.9224V27.0388H119.717V11.0819H117.523V13.5388ZM111.69 24.6078C108.709 24.6078 106.283 21.9828 106.283 18.75C106.283 15.5173 108.709 12.8923 111.69 12.8923C114.671 12.8923 117.097 15.5173 117.097 18.75C117.097 21.9828 114.671 24.6078 111.69 24.6078Z" fill="white"/>
<path d="M149.294 25.0474C148.868 25.0474 148.546 24.9827 148.314 24.8534C148.094 24.7371 147.926 24.5431 147.823 24.3233C147.72 24.1034 147.668 23.1983 147.668 22.4224V12.9827H150.546V11.3017H147.668V5.22412L145.41 6.85343V11.2888H142.713V12.9698H145.41V22.2414C145.41 23.8836 145.526 24.9569 145.758 25.4741C146.016 26.0043 146.442 26.444 146.971 26.7155C147.539 27.0259 147.759 26.9871 148.791 26.9871C149.514 26.9741 150.249 26.8965 150.959 26.7414L150.546 24.931C150.133 24.9957 149.707 25.0345 149.294 25.0474Z" fill="white"/>
<path d="M171 4.65527H168.768V26.9225H171V4.65527Z" fill="white"/>
<path d="M141.022 5.35352H139.1V7.75868H141.022V5.35352Z" fill="white"/>
<path d="M141.022 10.345H139.1V27.0002H141.022V10.345Z" fill="white"/>
<path d="M102.205 23.2114C100.399 24.8925 98.4241 25.733 96.3206 25.733C91.6362 25.733 88.5004 22.6295 88.5004 18.0261C88.5004 13.4226 91.6491 10.2416 96.3464 10.2416C98.2563 10.2416 99.9469 10.9916 101.65 12.595L101.87 12.8019L103.199 11.2244L103.005 11.0433C101.754 9.82781 99.7146 8.21143 96.3206 8.21143C90.3716 8.21143 86.2034 12.2459 86.2034 18.0261C86.2034 20.9744 87.197 23.4571 89.0811 25.2028C90.8878 26.8838 93.3784 27.7632 96.269 27.7632C98.9403 27.7632 101.353 26.7545 103.47 24.7761L103.651 24.608L102.45 23.0045L102.205 23.2114Z" fill="white"/>
<path d="M75.2731 23.0043L75.0409 23.2112C73.2342 24.8922 71.2598 25.7327 69.1563 25.7327C64.4848 25.7327 61.3361 22.6293 61.3361 18.0258C61.3361 13.4224 64.4848 10.2414 69.1821 10.2414C71.092 10.2414 72.7825 10.9914 74.486 12.5948L74.7053 12.8017L76.0345 11.2241L75.841 11.0431C74.5892 9.82756 72.5503 8.21118 69.1563 8.21118C63.2073 8.21118 59.0391 12.2457 59.0391 18.0258C59.0391 20.9741 60.0327 23.4569 61.9168 25.2026C63.7235 26.8836 66.2141 27.7629 69.1047 27.7629C71.776 27.7629 74.1891 26.7543 76.3055 24.7758L76.4862 24.6077L75.2731 23.0043Z" fill="white"/>
<path d="M51.1155 14.5345L57.8517 28.5647H59.9036L52.1608 12.4138L51.1155 14.5345Z" fill="white"/>
<path d="M48.4056 22.1509H45.4504H43.3857H40.8176L39.7336 23.9354H42.5081L40.2498 28.5647H42.3017L44.5729 23.9354H49.3218L48.4056 22.1509Z" fill="white"/>
<path d="M51.6447 9.54306L50.5995 7.4353L43.7471 21.4008H45.8118L51.6447 9.54306Z" fill="white"/>
</svg>
