<svg width="132" height="88" viewBox="0 0 132 88" fill="none" xmlns="http://www.w3.org/2000/svg">
<g clip-path="url(#clip0_3773_7732)">
<path d="M57.0383 58.9571C49.1923 58.9571 41.3485 58.9744 33.5025 58.9506C27.9755 58.9354 23.5926 55.2863 22.6032 49.9124C22.4811 49.2428 22.4637 48.5473 22.4637 47.8647C22.4571 32.9868 22.4571 18.1067 22.4593 3.22871C22.4593 1.14415 23.4924 -0.0259758 25.2643 0.0173622C26.6526 0.0498657 27.751 1.02714 27.9145 2.40745C27.9602 2.79966 27.9428 3.20054 27.9428 3.59708C27.9428 18.2237 27.9428 32.8481 27.9428 47.4747C27.9428 51.3101 30.1571 53.503 34.03 53.503C42.0939 53.503 50.1578 53.5073 58.2196 53.503C63.7292 53.5008 68.4041 49.3859 68.9468 44.077C69.5222 38.443 65.9174 33.5198 60.3729 32.3887C59.8411 32.2803 59.294 32.211 58.7514 32.2088C53.7757 32.1958 48.7979 32.1655 43.8222 32.2153C41.4248 32.2392 39.7946 33.7387 39.6791 35.8146C39.5418 38.2675 41.2635 40.0509 43.8287 40.0639C47.2788 40.0834 50.7288 40.066 54.1811 40.0704C54.6518 40.0704 55.1269 40.0704 55.5955 40.1115C57.0034 40.2372 58.0082 41.299 58.0518 42.6793C58.0975 44.0986 57.1211 45.4529 55.7154 45.4638C51.1081 45.5028 46.4724 45.6978 41.8977 45.2753C37.1902 44.8397 34.0038 40.5297 34.1542 35.6759C34.2915 31.1991 37.8374 27.3745 42.3663 26.8349C43.0485 26.7548 43.7416 26.7114 44.4281 26.7114C49.042 26.7006 53.6536 26.7114 58.2675 26.7049C64.1978 26.6941 69.0122 21.9659 69.0187 16.1629C69.0252 10.2733 64.2109 5.47579 58.285 5.47145C53.4183 5.46712 48.5516 5.45845 43.6827 5.47795C42.0133 5.48445 40.7165 6.23853 40.0191 7.75537C39.35 9.21369 39.5222 10.6503 40.5814 11.9093C41.3137 12.7804 42.2595 13.2658 43.4277 13.2723C47.3137 13.2961 51.1974 13.3135 55.0834 13.3481C56.9533 13.3655 58.1193 14.4988 58.0518 16.1868C57.9951 17.5779 56.986 18.7242 55.589 18.7394C51.2672 18.7806 46.9366 18.9192 42.6257 18.6939C37.7721 18.4404 33.9232 14.0004 34.0932 9.25919C34.2762 4.10847 38.2254 0.138709 43.3405 0.0303636C46.0997 -0.0281427 48.8611 0.0195291 51.6224 0.0195291C61.1378 0.0195291 70.6533 0.0195291 80.1687 0.0195291C96.2617 0.0195291 109.269 13.1054 109.465 29.1037C109.635 42.987 100.084 55.139 86.609 58.1683C84.5712 58.6255 82.4462 58.8682 80.3562 58.8899C72.5843 58.9722 64.8102 58.9224 57.0383 58.9224C57.0383 58.9332 57.0383 58.9462 57.0383 58.9571ZM70.6293 5.47145C71.4488 6.80843 72.2508 7.93088 72.8502 9.15085C73.4451 10.3621 73.8353 11.6731 74.3344 12.9949C76.3939 12.9949 78.4644 12.9213 80.5283 13.0079C88.0561 13.3221 94.8429 19.7405 95.7016 27.2986C96.6344 35.5069 91.6696 43.065 83.9283 45.3251C81.0427 46.168 78.1048 45.9578 75.1734 45.9838C74.5894 45.9882 74.1644 46.0012 73.9965 46.7357C73.4669 49.0565 72.3685 51.1172 70.8996 52.9894C70.808 53.1064 70.7797 53.2755 70.6903 53.503C73.5607 53.503 76.3198 53.6005 79.0703 53.4726C81.3413 53.3665 83.6624 53.2494 85.8505 52.7012C98.0924 49.6351 105.705 37.884 103.62 25.4893C101.811 14.7523 93.302 6.69142 82.4419 5.64914C79.2032 5.3371 75.9166 5.51479 72.6518 5.47145C72.0133 5.46278 71.3725 5.47145 70.6293 5.47145ZM74.3235 40.5384C76.0539 40.5384 77.719 40.5991 79.3798 40.5276C84.1506 40.3174 87.5527 38.0075 89.4749 33.6802C91.2272 29.7364 90.229 24.9497 87.2432 21.8229C83.6319 18.0416 79.0354 18.2367 74.3496 18.4794C73.5345 23.1014 71.2526 26.7894 67.358 29.5371C71.2374 32.2934 73.504 35.9402 74.3235 40.5406V40.5384Z" fill="white"/>
<path d="M0 87.9827V73.7873C0.302942 73.7548 0.575372 73.7028 0.849982 73.7028C3.42608 73.6963 6.00218 73.6898 8.57828 73.7028C10.4243 73.7115 11.5292 74.8231 11.5619 76.678C11.5728 77.2912 11.6535 77.9218 11.5423 78.5133C11.3832 79.3541 11.0737 80.1645 10.7752 81.1656C12.0632 82.5741 11.7232 84.5027 11.2437 86.3879C11.0062 87.3196 10.1671 87.935 9.21686 87.9589C6.17871 88.0325 3.13839 87.9849 0 87.9849L0 87.9827ZM3.11442 79.3129C4.46132 79.3129 5.76244 79.3649 7.05485 79.2913C7.73701 79.2523 8.42136 78.8644 8.28623 78.08C8.20777 77.6249 7.70214 76.9315 7.33164 76.8925C5.94551 76.7516 4.5376 76.8362 3.11442 76.8362V79.3108V79.3129ZM3.09699 84.8342C4.52888 84.8342 5.86487 84.8775 7.19869 84.8169C7.87868 84.7844 8.45187 84.3293 8.28841 83.6207C8.18162 83.1592 7.67599 82.4831 7.29241 82.4419C5.90846 82.2989 4.50272 82.3856 3.09699 82.3856V84.8342Z" fill="white"/>
<path d="M17.0517 82.3531V87.9242H13.4033V73.6985C14.0223 73.6985 14.6238 73.6985 15.2253 73.6985C17.4767 73.6985 19.7259 73.6898 21.9772 73.7006C23.784 73.7115 24.8781 74.8079 24.8912 76.5935C24.8955 77.2067 24.8563 77.8221 24.8999 78.4332C24.9718 79.4364 24.7321 80.2902 23.9017 80.8666C25.7716 83.0096 24.4465 85.5319 24.9783 87.909H21.8748C21.8748 86.9556 21.8835 85.9631 21.8748 84.9707C21.8574 83.2805 20.9485 82.3704 19.266 82.3509C18.5795 82.3422 17.893 82.3509 17.0517 82.3509V82.3531ZM17.0953 79.3238C18.2635 79.3238 19.3488 79.3584 20.4277 79.3129C21.1905 79.2804 21.8661 78.8579 21.7767 78.0799C21.7244 77.6292 21.1251 76.951 20.6957 76.8903C19.5319 76.7256 18.3267 76.834 17.0953 76.834V79.3259V79.3238Z" fill="white"/>
<path d="M80.3342 73.7028C83.3767 73.7028 86.3146 73.6703 89.2525 73.718C90.6648 73.7418 91.7523 74.912 91.7959 76.3161C91.8221 77.1807 91.8962 78.0626 91.7719 78.9099C91.6695 79.6076 91.3077 80.2664 91.0113 81.079C92.6677 83.0097 91.384 85.5363 91.8744 87.9285H88.7861C88.7861 86.9231 88.797 85.9263 88.7839 84.9295C88.7643 83.3065 87.8468 82.3813 86.2405 82.3553C85.5213 82.3444 84.8021 82.3553 83.9695 82.3553V87.9415H80.3364V73.705L80.3342 73.7028ZM84.0044 79.3238C85.166 79.3238 86.247 79.3649 87.3259 79.3108C88.1344 79.2696 88.7556 78.8341 88.7185 77.9716C88.6837 77.1634 88.0821 76.8145 87.2866 76.8145C86.2078 76.8145 85.129 76.8145 84.0022 76.8145V79.3259L84.0044 79.3238Z" fill="white"/>
<path d="M53.5642 73.7028C56.6132 73.7028 59.5511 73.6703 62.489 73.7158C63.9187 73.7396 64.9845 74.8989 64.991 76.3226C65.0063 79.3541 65.0063 82.3855 64.991 85.417C64.9823 86.7995 63.9253 87.9588 62.574 87.9761C59.5991 88.0173 56.6241 87.9892 53.5664 87.9892V73.7006L53.5642 73.7028ZM56.6481 84.8536C58.043 84.8536 59.3746 84.8926 60.7019 84.8385C61.456 84.8081 61.9027 84.2751 61.9224 83.5535C61.9681 81.7528 62.003 79.9456 61.8962 78.1514C61.8701 77.7094 61.3143 76.9726 60.9438 76.9336C59.5293 76.7906 58.0909 76.8751 56.6503 76.8751V84.8536H56.6481Z" fill="white"/>
<path d="M118.588 87.9546H115.497V85.2134H110.225V87.9091H107.063C107.063 85.6967 107.063 83.5059 107.063 81.313C107.063 79.7247 107.052 78.1385 107.065 76.5502C107.08 74.8253 108.185 73.7159 109.922 73.7029C111.882 73.6877 113.843 73.6834 115.802 73.7029C117.271 73.718 118.535 74.704 118.562 76.0843C118.634 80.0085 118.588 83.935 118.588 87.9524V87.9546ZM110.201 82.0541C111.858 82.0541 113.37 82.0758 114.881 82.0281C115.083 82.0216 115.434 81.6706 115.443 81.469C115.482 80.3206 115.467 79.1678 115.412 78.0193C115.375 77.2631 114.911 76.8405 114.144 76.821C113.276 76.7994 112.407 76.7994 111.537 76.821C110.718 76.8405 110.24 77.2956 110.214 78.093C110.173 79.3476 110.203 80.6045 110.203 82.0541H110.201Z" fill="white"/>
<path d="M131.987 80.9121C131.987 82.2816 132.011 83.6532 131.982 85.0227C131.941 86.9838 130.895 87.9892 128.936 87.9935C127.05 87.9979 125.165 88.0022 123.278 87.9935C121.619 87.9849 120.532 86.9708 120.495 85.3369C120.434 82.5265 120.394 79.716 120.397 76.9055C120.397 74.7863 121.519 73.705 123.609 73.7007C125.422 73.6985 127.236 73.692 129.049 73.7007C130.812 73.7115 131.915 74.7278 131.974 76.4765C132.024 77.9521 131.985 79.4321 131.985 80.91L131.987 80.9121ZM123.616 80.8536C123.616 81.7182 123.624 82.5828 123.613 83.4474C123.603 84.3337 124.082 84.7974 124.921 84.8515C125.786 84.9057 126.662 84.9079 127.528 84.8559C128.369 84.806 128.846 84.3141 128.851 83.4496C128.859 81.7204 128.855 79.9912 128.853 78.262C128.853 77.3476 128.389 76.847 127.469 76.821C126.636 76.7972 125.802 76.7993 124.969 76.821C124.043 76.8448 123.596 77.3346 123.613 78.2642C123.629 79.1288 123.618 79.9933 123.618 80.8579L123.616 80.8536Z" fill="white"/>
<path d="M93.7485 87.9871V73.7245C96.8586 73.7245 99.9011 73.6638 102.939 73.7549C104.164 73.7917 105.134 74.9228 105.154 76.1883C105.204 79.2913 105.206 82.3986 105.154 85.5016C105.132 86.8321 104.105 87.9437 102.859 87.9697C99.851 88.0282 96.8433 87.9892 93.7507 87.9892L93.7485 87.9871ZM96.6821 80.8406C96.6821 81.9219 96.6951 83.0032 96.6755 84.0823C96.6668 84.598 96.7867 84.8992 97.3926 84.8819C98.4779 84.8516 99.5676 84.9014 100.653 84.8602C101.54 84.8277 102.057 84.3705 102.052 83.4301C102.046 81.7009 102.046 79.9717 102.052 78.2425C102.057 77.3042 101.568 76.8405 100.657 76.821C99.6069 76.7972 98.5542 76.8492 97.5059 76.8015C96.7954 76.769 96.6516 77.0941 96.6712 77.7095C96.7039 78.7539 96.6799 79.7983 96.6799 80.8428L96.6821 80.8406Z" fill="white"/>
<path d="M51.6637 84.9339V87.9112H40.2151V73.7852H51.6245V76.6823H43.2641V79.3194H48.983V82.3249H43.251V84.936H51.6659L51.6637 84.9339Z" fill="white"/>
<path d="M75.7008 79.313V82.338H70.0299V84.9253H78.4229V87.9026H67.0288V73.7549H78.4207V76.6954H70.0626V79.3108H75.7008V79.313Z" fill="white"/>
<path d="M26.8289 87.935V73.7787H38.2905V76.6888H29.8365V79.2826H35.503V82.3336H29.867V84.9296H38.2818V87.935H26.831H26.8289Z" fill="white"/>
<path d="M80.4234 32.341C78.669 32.3497 77.3918 31.1124 77.3809 29.394C77.37 27.641 78.7126 26.265 80.4212 26.278C82.0231 26.291 83.4594 27.732 83.4746 29.3377C83.4877 30.9781 82.1125 32.3324 80.4256 32.341H80.4234Z" fill="white"/>
</g>
<defs>
<clipPath id="clip0_3773_7732">
<rect width="132" height="88" fill="white"/>
</clipPath>
</defs>
</svg>
