<svg width="177" height="22" viewBox="0 0 177 22" fill="none" xmlns="http://www.w3.org/2000/svg">
<g clip-path="url(#clip0_389_1141)">
<path d="M90.8323 9.64117C89.7285 9.64117 88.5038 9.90665 88.3007 10.472V10.2046C88.3007 9.79969 87.9711 9.47119 87.5648 9.47119H85.3359L85.3436 20.8159C85.3436 21.2208 85.6732 21.5493 86.0795 21.5493H88.2873L88.2834 14.9487C88.2834 12.8994 89.4717 12.21 90.3801 12.2081C91.6564 12.2081 92.697 12.9625 92.697 14.859L92.7009 20.8102C92.7009 21.2151 93.0305 21.5436 93.4368 21.5436H95.6216L95.6177 14.7272C95.6158 11.4269 93.8393 9.63926 90.8323 9.64117Z" fill="white"/>
<path d="M80.9588 21.534H83.0688V6.48602C83.0688 6.0372 82.7047 5.67432 82.2543 5.67432H80.1443V20.7204C80.1443 21.1692 80.5084 21.5321 80.9588 21.5321V21.534Z" fill="white"/>
<path d="M27.4553 5.67041V11.9864H21.2038V6.48402C21.2038 6.0352 20.8397 5.67232 20.3893 5.67232H18.2793V20.7203C18.2793 21.1691 18.6434 21.532 19.0938 21.532H21.2038V14.5323H27.4553V20.7203C27.4553 21.1691 27.8194 21.532 28.2698 21.532H30.3798V6.48211C30.3798 6.03329 30.0157 5.67041 29.5653 5.67041H27.4553Z" fill="white"/>
<path d="M39.7244 9.40991V16.9272C39.7244 17.611 39.3756 18.2584 38.7815 18.6003C37.1257 19.5533 35.4104 18.3635 35.4104 16.7916V10.2216C35.4104 9.77279 35.0444 9.40991 34.596 9.40991H32.4783V17.059C32.4783 19.5209 34.4982 21.5339 36.9685 21.5339H38.1701C40.6405 21.5339 42.6604 19.5209 42.6604 17.059V10.2216C42.6604 9.77279 42.2963 9.40991 41.8459 9.40991H39.7282H39.7244Z" fill="white"/>
<path d="M72.0933 21.5338H74.2033V10.8881C74.2033 10.4393 73.8392 10.0764 73.3888 10.0764H71.2788V20.7221C71.2788 21.171 71.6429 21.5338 72.0933 21.5338Z" fill="white"/>
<path d="M72.7412 8.92291C73.643 8.92291 74.374 8.19437 74.374 7.29568C74.374 6.39699 73.643 5.66846 72.7412 5.66846C71.8394 5.66846 71.1084 6.39699 71.1084 7.29568C71.1084 8.19437 71.8394 8.92291 72.7412 8.92291Z" fill="white"/>
<path d="M50.3146 9.40234C47.2464 9.40234 44.7358 11.5892 44.7358 14.6469V16.3009C44.7358 19.3586 47.2464 21.532 50.3146 21.532C53.3829 21.532 55.8934 19.3586 55.8934 16.3009V14.6469C55.8934 11.5892 53.3829 9.40234 50.3146 9.40234ZM52.9536 16.4995C52.9536 17.9453 51.7654 18.9079 50.3146 18.9079C48.8639 18.9079 47.6757 17.9453 47.6757 16.4995V14.4349C47.6757 12.9891 48.8639 12.0265 50.3146 12.0265C51.7654 12.0265 52.9536 12.9891 52.9536 14.4349V16.4995Z" fill="white"/>
<path d="M63.592 9.40223C62.6338 9.40223 61.7292 9.61614 60.9377 10.0019V6.46673C60.9377 6.01791 60.5736 5.65503 60.1232 5.65503H58.0132V16.3007C58.0132 19.3585 60.5237 21.5319 63.592 21.5319C66.6602 21.5319 69.1708 19.3585 69.1708 16.3007V14.6468C69.1708 11.5891 66.6602 9.40223 63.592 9.40223ZM66.2309 16.4994C66.2309 17.9452 65.0427 18.9077 63.592 18.9077C62.1412 18.9077 60.953 17.9452 60.953 16.4994V14.4348C60.953 12.989 62.1412 12.0264 63.592 12.0264C65.0427 12.0264 66.2309 12.989 66.2309 14.4348V16.4994Z" fill="white"/>
<path d="M9.45393 6.7705C9.45393 3.61155 7.90927 0.89569 6.7364 0.0114115C6.73257 0.00950159 6.64633 -0.0382456 6.65399 0.087807C6.65399 0.087807 6.65399 0.0897169 6.65399 0.0916268C6.55625 6.1899 3.43051 7.84386 1.71145 10.0708C-2.25561 15.2103 1.43357 20.8445 5.18982 21.8854C7.29217 22.4679 4.70496 20.854 4.37149 17.4468C3.96904 13.3272 9.45777 10.1835 9.45777 6.77241L9.45393 6.7705Z" fill="white"/>
<path d="M11.2573 8.8466C11.2324 8.83132 11.1998 8.81986 11.1749 8.85806C11.1097 9.62583 10.324 11.2683 9.32549 12.7771C5.94295 17.8918 7.8709 20.3575 8.9537 21.683C9.5823 22.4526 8.9537 21.683 10.5271 20.898C10.6498 20.8369 13.5973 19.1886 13.9154 15.4376C14.224 11.805 12.0354 9.51315 11.2554 8.84851L11.2573 8.8466Z" fill="white"/>
<path d="M140.237 9.3335C139.593 9.33541 138.951 9.38124 138.312 9.4691C137.782 9.53976 137.032 9.64099 136.513 9.76322C136.302 9.81097 136.264 9.97713 136.264 10.1758V11.7533C136.264 12.0341 136.264 12.2881 136.559 12.2174C137.115 12.0818 138.196 11.8431 138.491 11.7934C138.987 11.7151 139.489 11.675 139.993 11.6788C140.823 11.6788 141.455 11.824 141.873 12.1181C142.264 12.3931 142.463 12.9126 142.463 13.667V13.7587C142.316 13.7434 142.155 13.732 141.977 13.7186C141.645 13.6976 141.222 13.6861 140.706 13.688C140.022 13.6861 139.34 13.7663 138.675 13.9249C138.058 14.07 137.469 14.3183 136.935 14.6602C136.434 14.981 136.015 15.4146 135.712 15.9245C135.405 16.4612 135.25 17.0685 135.261 17.6854C135.246 18.2909 135.378 18.8906 135.65 19.4311C135.911 19.92 136.293 20.3364 136.758 20.64C137.279 20.9704 137.86 21.1996 138.466 21.3142C139.181 21.4536 139.909 21.5205 140.639 21.5148C141.22 21.5148 145.398 21.4536 145.396 19.4731L145.392 13.7511C145.392 12.2308 144.938 11.1021 144.046 10.3916C143.155 9.6811 141.89 9.33732 140.235 9.33732L140.237 9.3335ZM142.571 19.2191C142.339 19.263 142.082 19.2993 141.806 19.326C141.143 19.3948 140.472 19.3986 139.807 19.3394C139.543 19.3184 139.286 19.2477 139.048 19.1312C138.828 19.0224 138.638 18.86 138.498 18.6576C138.339 18.394 138.265 18.0903 138.284 17.7828C138.284 17.1889 138.496 16.7649 138.933 16.4822C139.399 16.1843 140.102 16.0353 141.022 16.0353C141.271 16.0353 141.576 16.0487 141.936 16.0773C142.172 16.0945 142.385 16.1136 142.563 16.1327L142.571 19.2191Z" fill="white"/>
<path d="M104.002 9.51489C100.286 9.5168 97.6934 12.0722 97.6953 15.7297C97.6972 19.093 100.323 21.6274 103.803 21.6255C106.155 21.6255 107.607 20.6992 107.607 19.8436V17.8687H107.456C107.456 17.8687 106.25 19.0777 104.11 19.0777C101.927 19.0777 100.675 17.7389 100.673 15.4012C100.673 13.4378 102.048 12.0665 104.02 12.0646C104.987 12.0646 106.501 12.1601 107.419 13.2716L107.636 13.2793V10.9798C107.634 10.1853 105.969 9.5168 104 9.5168L104.002 9.51489Z" fill="white"/>
<path d="M174.566 9.30884C171.484 9.30884 170.248 11.5396 170.25 13.8754L170.254 20.688C170.254 21.1559 170.635 21.5359 171.105 21.5359H173.184L173.181 14.3949C173.181 13.2566 173.478 12.5595 174.033 12.2023C174.474 11.8566 175.335 11.6179 176.998 12.252V10.2848C176.998 9.91045 176.368 9.31075 174.566 9.31266V9.30884Z" fill="white"/>
<path d="M154.087 9.43672H150.702V6.35607C150.701 5.88242 150.313 5.49854 149.838 5.49854H147.68L147.688 17.019C147.688 19.8685 149.188 21.5435 152.276 21.5416C152.31 21.5416 152.381 21.5416 152.381 21.5416H154.955V19.7024C154.955 19.2268 154.568 18.8429 154.091 18.8448C153.646 18.8448 153.102 18.8487 152.638 18.8487C151.412 18.8487 150.708 18.2394 150.706 16.6561V12.1354H154.949V10.3C154.949 9.82634 154.562 9.44245 154.087 9.44245V9.43672Z" fill="white"/>
<path d="M168.159 16.2645V14.6162C168.156 11.57 165.655 9.40605 162.598 9.40796C159.541 9.40796 157.042 11.5776 157.044 14.6239V16.2721C157.048 19.3184 159.549 21.4956 162.605 21.4937C165.662 21.4937 168.161 19.3107 168.159 16.2645ZM165.231 16.4765C165.231 17.9165 164.051 18.8772 162.604 18.8772C161.157 18.8772 159.974 17.9203 159.974 16.4784V14.4214C159.972 12.9814 161.155 12.0207 162.6 12.0207C164.045 12.0207 165.229 12.9775 165.229 14.4195V16.4765H165.231Z" fill="white"/>
<path d="M116.99 9.48453L116.994 16.9446C116.994 17.6226 116.647 18.2643 116.059 18.6042C114.416 19.5516 112.714 18.3712 112.713 16.8109L112.709 10.2924C112.709 9.84741 112.346 9.48644 111.9 9.48644H109.798L109.801 17.0782C109.801 19.521 111.81 21.5168 114.259 21.5149H115.451C117.902 21.513 119.905 19.5134 119.905 17.0706L119.901 10.2867C119.901 9.84168 119.539 9.48071 119.092 9.48071H116.99V9.48453Z" fill="white"/>
<path d="M127.724 9.39087C126.762 9.39087 125.856 9.60669 125.064 9.99439V6.45155C125.062 6.00082 124.696 5.63794 124.244 5.63794H122.128L122.134 16.3104C122.134 19.3758 124.654 21.553 127.73 21.5511C130.806 21.5511 133.32 19.3681 133.318 16.3028V14.645C133.315 11.5796 130.798 9.38896 127.722 9.39087H127.724ZM130.375 16.5033C130.375 17.9529 129.186 18.9193 127.732 18.9193C126.277 18.9193 125.085 17.9567 125.085 16.5052V14.4368C125.083 12.9872 126.273 12.0208 127.728 12.0208C129.183 12.0208 130.375 12.9834 130.375 14.4349V16.5033Z" fill="white"/>
</g>
<defs>
<clipPath id="clip0_389_1141">
<rect width="177" height="22" fill="white"/>
</clipPath>
</defs>
</svg>
