<svg width="191" height="60" viewBox="0 0 191 60" fill="none" xmlns="http://www.w3.org/2000/svg">
<path d="M122.766 27.9075V24.6652H124.059V23.5186H119.983V24.6652H121.278V27.9075H122.766Z" fill="white"/>
<path d="M155.306 26.8039H155.709L156.46 27.9075H158.048L157.12 26.5533C157.39 26.4156 157.596 26.2299 157.739 25.9957C157.882 25.7609 157.954 25.4873 157.954 25.1737C157.954 24.8387 157.872 24.5469 157.707 24.2969C157.543 24.0464 157.31 23.8534 157.007 23.7194C156.703 23.5853 156.349 23.5186 155.939 23.5186H153.818V27.905H155.308V26.8039H155.306ZM155.306 24.6591H155.848C156.05 24.6591 156.201 24.7047 156.302 24.7932C156.404 24.8842 156.453 25.0104 156.453 25.1737C156.453 25.3375 156.404 25.4637 156.302 25.5522C156.201 25.6426 156.05 25.6863 155.848 25.6863H155.306V24.6591Z" fill="white"/>
<path d="M136.588 23.5186V25.9326C136.588 26.5885 136.778 27.0993 137.155 27.4621C137.535 27.8243 138.063 28.0076 138.739 28.0076C139.415 28.0076 139.943 27.8261 140.323 27.4621C140.701 27.0993 140.89 26.5885 140.89 25.9326V23.5186H139.426V25.8871C139.426 26.2087 139.368 26.4428 139.253 26.5885C139.138 26.7347 138.969 26.8075 138.751 26.8075C138.533 26.8075 138.364 26.7347 138.249 26.5885C138.134 26.4428 138.074 26.2087 138.074 25.8871V23.5186H136.588Z" fill="white"/>
<path d="M132.657 18.2554V8.73071H124.954C124.183 8.73071 123.528 9.00067 122.988 9.54067C122.444 10.077 122.172 10.7274 122.172 11.4937V18.2554H124.375V11.4803C124.375 11.3226 124.432 11.1885 124.545 11.0738C124.659 10.9598 124.795 10.9045 124.953 10.9045H130.451V18.2536H132.657V18.2554Z" fill="white"/>
<path d="M153.03 15.885C152.899 16.0149 152.742 16.0798 152.564 16.0798H145.434V18.2554H152.826C153.572 18.2554 154.221 17.9818 154.773 17.4321C155.302 16.9055 155.568 16.2454 155.568 15.453L155.562 12.4674H147.484V11.5331C147.484 11.3935 147.557 11.2491 147.7 11.1017C147.832 10.9713 147.988 10.9063 148.167 10.9063H155.56V8.73071H148.167C147.421 8.73071 146.772 9.00495 146.22 9.55462C145.689 10.0806 145.424 10.7407 145.424 11.5331V14.5132H153.239V15.5258C153.219 15.6423 153.147 15.7624 153.03 15.885Z" fill="white"/>
<path d="M190.703 12.5147V8.73071H182.803C182.031 8.73071 181.376 9.00495 180.836 9.55462C180.289 10.1085 180.015 10.7565 180.015 11.5015V18.2578H182.206V15.2661H186.791L188.397 18.2578H190.582L188.982 15.0829C189.323 14.9489 189.633 14.742 189.909 14.4617C190.436 13.9296 190.703 13.2816 190.703 12.5147ZM188.512 12.5147C188.512 12.684 188.462 12.8199 188.361 12.9206C188.248 13.0292 188.117 13.0844 187.972 13.0844H182.204V11.504C182.204 11.3462 182.265 11.2103 182.388 11.092C182.501 10.9694 182.641 10.9088 182.803 10.9088H188.512V12.5147Z" fill="white"/>
<path d="M163.186 18.2554V10.9063H167.159V8.73071H156.884V10.9063H160.995V18.2554H163.186Z" fill="white"/>
<path d="M189.355 26.8191C189.266 26.8586 189.119 26.878 188.913 26.878C188.673 26.878 188.422 26.8404 188.163 26.7676C187.902 26.6948 187.666 26.5983 187.456 26.4758L186.976 27.5539C187.198 27.6922 187.484 27.8026 187.831 27.8833C188.178 27.964 188.535 28.0052 188.9 28.0052C189.343 28.0052 189.718 27.9403 190.027 27.8081C190.337 27.6764 190.569 27.4987 190.724 27.276C190.881 27.0533 190.958 26.8034 190.958 26.5273C190.958 26.21 190.873 25.9594 190.702 25.7744C190.531 25.5911 190.331 25.4571 190.099 25.3764C189.867 25.2957 189.583 25.2223 189.248 25.1592C188.986 25.1082 188.799 25.0627 188.686 25.0178C188.573 24.9741 188.515 24.9074 188.515 24.8207C188.515 24.6374 188.706 24.5446 189.089 24.5446C189.476 24.5446 189.887 24.6532 190.319 24.8698L190.768 23.7977C190.546 23.6715 190.288 23.5769 189.994 23.512C189.702 23.4471 189.404 23.4155 189.101 23.4155C188.658 23.4155 188.284 23.4804 187.973 23.6103C187.664 23.7407 187.432 23.9179 187.277 24.1423C187.12 24.3692 187.043 24.6192 187.043 24.8953C187.043 25.2126 187.127 25.465 187.295 25.65C187.464 25.8357 187.662 25.9698 187.888 26.0504C188.115 26.1311 188.401 26.2082 188.74 26.2791C189.004 26.3344 189.194 26.3835 189.311 26.4284C189.426 26.4739 189.486 26.5431 189.486 26.6359C189.488 26.7184 189.444 26.7797 189.355 26.8191Z" fill="white"/>
<path d="M178.698 18.2554V8.73071H171.251C170.5 8.73071 169.845 9.01038 169.284 9.574C168.744 10.1103 168.474 10.7723 168.474 11.561V18.2578H170.665V15.8395H176.507V18.2578H178.698V18.2554ZM170.665 13.6639V11.4172C170.665 11.2831 170.723 11.1588 170.836 11.0447C170.937 10.9476 171.074 10.9009 171.251 10.9009H176.507V13.6639H170.665Z" fill="white"/>
<path d="M174.354 24.6337V23.5186H170.762V27.9075H174.435V26.7899H172.226V26.2141H174.094V25.1482H172.226V24.6337H174.354Z" fill="white"/>
<path d="M144.109 13.494H141.918V16.0877H136.162V11.5331C136.162 11.3675 136.226 11.2237 136.353 11.1017C136.479 10.9713 136.622 10.9063 136.779 10.9063H143.698V8.73071H136.779C136.011 8.73071 135.352 9.00495 134.799 9.55462C134.247 10.1025 133.97 10.7626 133.97 11.5331V18.2554H144.105V13.494H144.109Z" fill="white"/>
<path d="M92.7354 17.4139C93.2746 16.8781 93.5447 16.2157 93.5447 15.4275V8.73071H85.7818C85.0316 8.73071 84.3767 9.01038 83.8156 9.574C83.2759 10.1103 83.0063 10.7723 83.0063 11.561V15.4293C83.0063 16.218 83.2759 16.88 83.8156 17.4163C84.3767 17.9775 85.0316 18.2596 85.7818 18.2596H90.7683C91.5185 18.2554 92.1758 17.9757 92.7354 17.4139ZM86.4543 16.0816V16.0876H85.7842C85.6132 16.0876 85.4746 16.0403 85.3698 15.9439C85.254 15.8255 85.1983 15.7018 85.1983 15.5713V11.4172C85.1983 11.2868 85.256 11.163 85.3698 11.0447C85.4746 10.9476 85.6113 10.9009 85.7842 10.9009H86.4543V10.9063H91.356V15.5713C91.356 15.7018 91.2984 15.8255 91.1855 15.9439C91.0798 16.0403 90.9412 16.0876 90.7707 16.0876H90.1V16.0816H86.4543Z" fill="white"/>
<path d="M120.857 8.73071H118.666V18.2554H120.857V8.73071Z" fill="white"/>
<path d="M90.1002 24.6337V23.5186H86.5083V27.9075H90.1816V26.7899H87.9734V26.2141H89.8401V25.1482H87.9734V24.6337H90.1002Z" fill="white"/>
<path d="M70.5208 23.5186H68.9194L70.7866 27.9075H72.2512L74.1207 23.5186H72.6556L71.5763 26.0825L70.5208 23.5186Z" fill="white"/>
<path d="M81.6904 18.2554V8.73071H71.8622C71.0901 8.73071 70.4352 9.00067 69.8955 9.54067C69.3521 10.077 69.0801 10.7274 69.0801 11.4937V18.2554H71.2825V11.4803C71.2825 11.3226 71.3402 11.1885 71.4535 11.0738C71.5664 10.9598 71.7031 10.9045 71.8603 10.9045H74.2947V18.2536H76.4857V10.9045H79.4855V18.2536H81.6904V18.2554Z" fill="white"/>
<path d="M104.45 25.9126L106.129 27.9075H107.353V23.5186H105.903V25.5128L104.225 23.5186H103V27.9075H104.45V25.9126Z" fill="white"/>
<path d="M117.351 18.2554V8.73071H109.647C108.876 8.73071 108.221 9.00067 107.681 9.54067C107.137 10.077 106.865 10.7274 106.865 11.4937V18.2554H109.068V11.4803C109.068 11.3226 109.126 11.1885 109.239 11.0738C109.352 10.9598 109.489 10.9045 109.645 10.9045H115.144V18.2536H117.351V18.2554Z" fill="white"/>
<path d="M105.549 12.5147V8.73071H97.6501C96.8781 8.73071 96.2236 9.00495 95.6839 9.55462C95.1362 10.1085 94.8623 10.7565 94.8623 11.5015V18.2578H97.0529V15.2661H101.639L103.244 18.2578H105.428L103.829 15.0829C104.171 14.9489 104.48 14.742 104.756 14.4617C105.284 13.9296 105.549 13.2816 105.549 12.5147ZM103.359 12.5147C103.359 12.684 103.31 12.8199 103.208 12.9206C103.095 13.0292 102.964 13.0844 102.82 13.0844H97.0509V11.504C97.0509 11.3462 97.1124 11.2103 97.2358 11.092C97.3486 10.9694 97.4873 10.9088 97.6501 10.9088H103.359V12.5147Z" fill="white"/>
<path d="M38.639 23.6798L0 59.7848L36.3525 21.4095C38.2596 19.3953 38.3311 16.2755 36.5174 14.1788L24.5439 0.327637L38.6567 12.3617C40.6982 14.1017 43.7128 14.1017 45.7525 12.3617L59.8644 0.327637L47.7486 14.3438C45.9968 16.372 45.9968 19.3655 47.7486 21.3919L59.8644 35.4081L45.9193 23.516C43.8081 21.7129 40.6664 21.7839 38.639 23.6798Z" fill="white"/>
</svg>
