<svg width="161" height="32" viewBox="0 0 161 32" fill="none" xmlns="http://www.w3.org/2000/svg">
<g clip-path="url(#clip0_347_785)">
<path d="M129.721 32.0002V25.9859C135.221 25.9859 139.697 21.5106 139.697 16.0115C139.697 10.5123 135.221 6.03704 129.721 6.03704V0.0195312C138.537 0.0195312 145.711 7.19289 145.711 16.0083C145.711 24.8236 138.537 32.0002 129.721 32.0002Z" fill="white"/>
<path d="M129.711 31.984C129.019 31.984 123.452 31.8874 120.029 28.9382C116.941 26.7392 112.694 21.6296 110.314 18.6096H110.24L109.335 17.4537C105.703 12.811 102.319 9.15028 100.506 7.90428L100.338 7.79159L100.19 7.65636C98.8314 6.42646 95.7113 6.03045 94.3975 6.03045H94.3878L94.3782 0.0129395H94.3911C95.0834 0.0129395 100.651 0.106309 104.074 3.05872C106.904 5.07099 110.681 9.49478 113.16 12.5921H113.263L114.165 13.764C117.981 18.7223 121.684 22.7726 123.596 24.0894L123.764 24.2021L123.912 24.3373C125.271 25.5672 128.394 25.9665 129.705 25.9665H129.714L129.724 31.984H129.711Z" fill="white"/>
<path d="M94.3911 31.984H94.3782L94.3878 25.9665C95.9399 25.9601 98.8958 25.5125 100.19 24.3374L100.338 24.2021L100.506 24.0895C102.319 22.8435 105.7 19.1859 109.335 14.54L110.24 13.3842H110.314C112.697 10.3641 116.941 5.25456 120.029 3.05555C123.455 0.103135 129.019 0.00976562 129.711 0.00976562H129.724L129.718 3.02013V6.02727C128.162 6.03371 125.206 6.48124 123.909 7.65641L123.761 7.79164L123.593 7.90432C121.681 9.21794 117.981 13.2715 114.162 18.2297L113.257 19.4017H113.154C110.675 22.499 106.901 26.9195 104.067 28.935C100.651 31.8906 95.0866 31.984 94.3911 31.984Z" fill="white"/>
<path d="M18.9722 5.19006L15.1984 7.42771C14.4932 6.20425 13.8202 5.40578 13.1827 5.0323C12.5161 4.6073 11.6596 4.39481 10.6067 4.39481C9.31546 4.39481 8.2432 4.76185 7.39312 5.49271C6.53982 6.21069 6.11478 7.1154 6.11478 8.20686C6.11478 9.71043 7.23212 10.921 9.47002 11.8418L12.5451 13.1007C15.0471 14.1117 16.8792 15.348 18.0352 16.8033C19.1944 18.2618 19.774 20.0487 19.774 22.164C19.774 25.0005 18.8273 27.3412 16.9372 29.1925C15.0342 31.0566 12.6707 31.9871 9.84676 31.9871C7.17094 31.9871 4.96202 31.1951 3.21678 29.611C1.4973 28.027 0.42504 25.799 0 22.9238L4.71408 21.8871C4.9266 23.6966 5.30012 24.949 5.83142 25.6412C6.79098 26.9709 8.18846 27.6374 10.0239 27.6374C11.4761 27.6374 12.6804 27.1512 13.6399 26.1789C14.5995 25.2066 15.0793 23.9767 15.0793 22.486C15.0793 21.8871 14.9955 21.3366 14.8281 20.8375C14.6607 20.3385 14.4031 19.8781 14.0489 19.4595C13.6947 19.041 13.2406 18.6482 12.6804 18.2811C12.1201 17.9141 11.4568 17.5664 10.684 17.2315L7.70868 15.992C3.48726 14.2115 1.37816 11.6004 1.37816 8.16501C1.37816 5.85009 2.26366 3.91186 4.03466 2.35356C5.80566 0.785592 8.00814 0 10.6421 0C14.197 0 16.9726 1.73217 18.9722 5.19006Z" fill="white"/>
<path d="M38.3759 4.53647H25.5507V12.2218H38.0024V16.7582H25.5507V27.4474H38.3759V31.9839H20.7239V0H38.3759V4.53647Z" fill="white"/>
<path d="M60.4522 24.6785H47.5658L44.2137 31.9871H39.3193L54.2118 0L68.5795 31.9871H63.6078L60.4522 24.6785ZM58.5975 20.4093L54.1346 10.1741L49.4559 20.4061H58.5975V20.4093Z" fill="white"/>
<path d="M74.4401 18.9991V31.9903H69.6133V0H75.0841C77.7631 0 79.7885 0.186739 81.1538 0.560217C82.5351 0.933695 83.7491 1.6388 84.7988 2.6723C86.6342 4.46886 87.5551 6.73227 87.5551 9.46896C87.5551 12.3956 86.573 14.717 84.612 16.4298C82.6511 18.1427 80.0042 18.9991 76.678 18.9991H74.4401ZM74.4401 14.5238H76.2433C80.6772 14.5238 82.8958 12.8174 82.8958 9.40779C82.8958 5.99819 80.6096 4.45598 76.0372 4.45598H74.4433V14.5238H74.4401Z" fill="white"/>
<path d="M93.3832 0V31.9871H88.5564V0H93.3832Z" fill="white"/>
<path d="M136.618 13.5933V18.4195H131.792V13.5933H136.618Z" fill="white"/>
<path d="M151.594 0V27.4507H161V31.9871H146.764V0H151.594Z" fill="white"/>
</g>
<defs>
<clipPath id="clip0_347_785">
<rect width="161" height="32" fill="white"/>
</clipPath>
</defs>
</svg>
