<svg width="152" height="72" viewBox="0 0 152 72" fill="none" xmlns="http://www.w3.org/2000/svg">
<path d="M51.5773 57.6288L55.7415 48.5007L42.7344 21.5771H50.651L59.5415 41.168L67.854 21.5771H75.2877L55.9315 64.4848C52.4244 64.4848 50.1285 60.8463 51.5773 57.6288Z" fill="white"/>
<path d="M89.5692 21.5771C91.8017 21.5771 93.7967 21.9982 95.673 22.7926C97.5492 23.5871 99.1167 24.6755 100.51 26.0657C101.903 27.4639 102.925 29.1005 103.716 30.9754C104.5 32.8582 104.864 34.9793 104.864 37.2197C104.864 39.46 104.5 41.5891 103.716 43.4639C102.933 45.4024 101.903 47.0389 100.51 48.4371C99.1167 49.8354 97.5492 50.9237 95.673 51.7102C93.7967 52.4967 91.8017 52.9257 89.5692 52.9257C87.3921 52.9257 85.3971 52.5047 83.5288 51.7102C81.6525 50.9237 80.0217 49.8274 78.6917 48.4371C77.3617 47.0469 76.2771 45.4024 75.5488 43.4639C74.765 41.5255 74.4009 39.46 74.4009 37.2197C74.4009 34.9793 74.765 32.8502 75.5488 30.9754C76.3325 29.0925 77.3617 27.456 78.6917 26.0657C80.0217 24.6675 81.6525 23.5791 83.5288 22.7926C85.3971 21.9426 87.3921 21.5771 89.5692 21.5771ZM89.5692 46.6258C90.6538 46.6258 91.683 46.4431 92.6488 46.022C93.6146 45.601 94.525 44.9893 95.3088 44.2028C96.0925 43.4163 96.7021 42.4471 97.1217 41.2316C97.5413 40.0796 97.7867 38.6814 97.7867 37.172C97.7867 35.6626 97.5413 34.2643 97.1217 33.1124C96.7021 31.9605 96.0925 30.9913 95.3088 30.2048C94.525 29.4183 93.678 28.8065 92.6488 28.449C91.683 28.0836 90.6538 27.8453 89.5692 27.8453C88.4846 27.8453 87.4555 28.028 86.4896 28.449C85.5238 28.8145 84.6134 29.4183 83.893 30.2048C83.1646 30.9913 82.563 31.9605 82.08 33.1124C81.5971 34.2643 81.3517 35.599 81.3517 37.172C81.3517 38.6894 81.5971 40.0796 82.08 41.2316C82.563 42.3835 83.1646 43.4163 83.893 44.2028C84.6213 44.9893 85.5238 45.601 86.4896 46.022C87.4475 46.3795 88.4767 46.6258 89.5692 46.6258Z" fill="white"/>
<path d="M109.211 52.9335V12.6555C109.211 9.50157 111.752 6.95142 114.895 6.95142H116.225V47.4122C116.225 50.4469 113.747 52.9335 110.723 52.9335H109.211Z" fill="white"/>
<path d="M135.795 21.5771C138.027 21.5771 140.022 21.9982 141.899 22.7926C143.775 23.5871 145.342 24.6755 146.736 26.0657C148.129 27.4639 149.15 29.1005 149.942 30.9754C150.726 32.8582 151.09 34.9793 151.09 37.2197C151.09 39.46 150.726 41.5891 149.942 43.4639C149.158 45.4024 148.129 47.0389 146.736 48.4371C145.342 49.8354 143.775 50.9237 141.899 51.7102C140.022 52.4967 138.027 52.9257 135.795 52.9257C133.618 52.9257 131.623 52.5047 129.754 51.7102C127.878 50.9237 126.247 49.8274 124.917 48.4371C123.587 47.0389 122.503 45.4024 121.774 43.4639C120.991 41.5255 120.626 39.46 120.626 37.2197C120.626 34.9793 120.991 32.8502 121.774 30.9754C122.558 29.0925 123.587 27.456 124.917 26.0657C126.247 24.6675 127.878 23.5791 129.754 22.7926C131.631 21.9426 133.626 21.5771 135.795 21.5771ZM135.795 46.6258C136.879 46.6258 137.909 46.4431 138.874 46.022C139.84 45.601 140.751 44.9893 141.534 44.2028C142.318 43.4163 142.928 42.4471 143.347 41.2316C143.767 40.0796 144.012 38.6814 144.012 37.172C144.012 35.6626 143.767 34.2643 143.347 33.1124C142.928 31.9605 142.318 30.9913 141.534 30.2048C140.751 29.4183 139.904 28.8065 138.874 28.449C137.909 28.0836 136.879 27.8453 135.795 27.8453C134.71 27.8453 133.681 28.028 132.715 28.449C131.749 28.8145 130.839 29.4183 130.119 30.2048C129.39 30.9913 128.789 31.9605 128.306 33.1124C127.823 34.2643 127.577 35.599 127.577 37.172C127.577 38.6894 127.823 40.0796 128.306 41.2316C128.789 42.3835 129.39 43.4163 130.119 44.2028C130.847 44.9893 131.749 45.601 132.715 46.022C133.681 46.3795 134.71 46.6258 135.795 46.6258Z" fill="white"/>
<path d="M21.7155 36.9495C18.4143 37.0131 15.7147 34.2007 15.7147 30.8879V20.9336C15.7147 19.6943 15.0576 18.5424 13.9809 17.9227L3.8397 12.0438C0.981786 10.3835 -0.0948801 6.63371 1.6072 3.79757C3.26179 1.04881 6.80845 0.119317 9.59512 1.73203L24.8901 10.598C26.4972 11.5275 27.4868 13.2514 27.4868 15.1104V31.0389C27.4868 34.2643 24.9139 36.8859 21.7155 36.9495Z" fill="white"/>
<path d="M36.5514 12.7587C39.8043 12.7587 42.4414 10.1125 42.4414 6.84812C42.4414 3.58378 39.8043 0.9375 36.5514 0.9375C33.2984 0.9375 30.6614 3.58378 30.6614 6.84812C30.6614 10.1125 33.2984 12.7587 36.5514 12.7587Z" fill="white"/>
<path d="M74.3931 58.6772C74.3931 58.3674 74.496 58.1132 74.7097 57.9066C74.9235 57.7001 75.1689 57.5889 75.4697 57.5889C75.7706 57.5889 76.0318 57.6921 76.2376 57.9066C76.4435 58.1211 76.5543 58.3754 76.5543 58.6772C76.5543 58.9791 76.4514 59.2413 76.2376 59.4478C76.0318 59.6544 75.7706 59.7577 75.4697 59.7577C75.1768 59.7577 74.9235 59.6544 74.7097 59.4478C74.5039 59.2413 74.3931 58.9871 74.3931 58.6772ZM74.6543 68.1072V61.1241H76.301V68.1072H74.6543Z" fill="white"/>
<path d="M79.523 68.1072H77.8684V61.1241H79.4834V62.0536C79.713 61.6485 80.0138 61.3625 80.3938 61.1877C80.7659 61.0129 81.1538 60.9255 81.5417 60.9255C81.9692 60.9255 82.3413 60.997 82.658 61.14C82.9746 61.283 83.228 61.4816 83.4338 61.7359C83.6396 61.9901 83.7901 62.284 83.9009 62.6177C84.0038 62.9513 84.0592 63.3088 84.0592 63.6902V68.1072H82.4047V63.9762C82.4047 63.5472 82.2938 63.1817 82.0801 62.8798C81.8663 62.578 81.4942 62.427 80.9717 62.427C80.4967 62.427 80.1326 62.5859 79.8951 62.9037C79.6497 63.2215 79.5309 63.6107 79.5309 64.0715V68.1072H79.523Z" fill="white"/>
<path d="M89.0548 68.1071H87.4002L84.574 61.124H86.4027L88.2473 66.1131L90.0444 61.124H91.7861L89.0548 68.1071Z" fill="white"/>
<path d="M98.3647 66.1212C98.2697 66.431 98.1272 66.717 97.9531 66.9792C97.771 67.2493 97.5493 67.4797 97.2802 67.6783C97.011 67.8769 96.7101 68.0358 96.3618 68.1549C96.0214 68.2662 95.6414 68.3297 95.2218 68.3297C94.7468 68.3297 94.2956 68.2423 93.8681 68.0755C93.4406 67.9087 93.0606 67.6624 92.736 67.3446C92.4114 67.0268 92.1501 66.6296 91.9601 66.1688C91.7622 65.7081 91.6672 65.1758 91.6672 64.5879C91.6672 64.0318 91.7622 63.5313 91.9443 63.0864C92.1264 62.6415 92.3797 62.2522 92.6964 61.9345C93.0131 61.6167 93.3693 61.3625 93.781 61.1877C94.1926 61.0129 94.6122 60.9255 95.0556 60.9255C95.586 60.9255 96.0689 61.0129 96.4885 61.1798C96.916 61.3545 97.2722 61.5929 97.5572 61.9106C97.8502 62.2284 98.0718 62.6097 98.2222 63.0467C98.3726 63.4916 98.4518 63.9921 98.4518 64.5482C98.4518 64.6832 98.4439 64.8024 98.436 64.8977C98.4281 65.001 98.4201 65.0566 98.4043 65.0805H93.3218C93.3297 65.3506 93.3852 65.5889 93.496 65.8113C93.5989 66.0338 93.7414 66.2244 93.9076 66.3833C94.0818 66.5422 94.2797 66.6693 94.5014 66.7647C94.7231 66.8521 94.9685 66.8997 95.2218 66.8997C95.7285 66.8997 96.1164 66.7806 96.3856 66.5502C96.6547 66.3198 96.8527 66.0258 96.9635 65.6842L98.3647 66.1212ZM96.7814 63.857C96.7735 63.6584 96.7339 63.4598 96.6626 63.2771C96.5914 63.0944 96.4806 62.9275 96.3381 62.7845C96.1956 62.6415 96.0214 62.5303 95.8076 62.4429C95.5939 62.3555 95.3485 62.3158 95.0635 62.3158C94.8102 62.3158 94.5726 62.3635 94.3668 62.4509C94.161 62.5382 93.9868 62.6574 93.8443 62.8084C93.7018 62.9593 93.591 63.1261 93.5039 63.3089C93.4168 63.4916 93.3693 63.6822 93.3614 63.857H96.7814Z" fill="white"/>
<path d="M100.296 65.8191C100.328 66.1369 100.455 66.415 100.692 66.6533C100.93 66.8916 101.262 67.0108 101.713 67.0108C102.054 67.0108 102.315 66.9314 102.489 66.7725C102.663 66.6136 102.751 66.4229 102.751 66.2084C102.751 66.0178 102.687 65.8589 102.553 65.7238C102.418 65.5888 102.212 65.4934 101.935 65.4378L100.906 65.2074C100.288 65.0724 99.8214 64.8261 99.5047 64.4527C99.1881 64.0873 99.0297 63.6583 99.0297 63.1657C99.0297 62.8638 99.0931 62.5699 99.2277 62.2998C99.3622 62.0297 99.5443 61.7914 99.7739 61.5848C100.003 61.3783 100.273 61.2194 100.581 61.1002C100.89 60.981 101.223 60.9175 101.587 60.9175C102.07 60.9175 102.481 60.989 102.806 61.124C103.138 61.2591 103.4 61.4339 103.613 61.6325C103.827 61.8311 103.978 62.0456 104.081 62.268C104.183 62.4905 104.247 62.6891 104.271 62.8638L102.869 63.269C102.853 63.1737 102.814 63.0625 102.766 62.9353C102.719 62.8082 102.648 62.697 102.545 62.5937C102.442 62.4905 102.315 62.4031 102.157 62.3316C101.998 62.2601 101.808 62.2204 101.579 62.2204C101.286 62.2204 101.041 62.2998 100.858 62.4587C100.676 62.6176 100.581 62.8082 100.581 63.0227C100.581 63.2134 100.645 63.3723 100.763 63.4994C100.89 63.6265 101.056 63.706 101.278 63.7536L102.339 63.9681C102.996 64.1111 103.495 64.3733 103.835 64.7467C104.176 65.128 104.342 65.5729 104.342 66.0893C104.342 66.3594 104.286 66.6215 104.176 66.8837C104.065 67.1459 103.906 67.3842 103.693 67.5987C103.479 67.8132 103.202 67.988 102.869 68.123C102.537 68.2581 102.149 68.3216 101.713 68.3216C101.207 68.3216 100.779 68.2501 100.431 68.1071C100.075 67.9641 99.7897 67.7814 99.5602 67.5669C99.3306 67.3524 99.1564 67.122 99.0456 66.8757C98.9347 66.6295 98.8635 66.407 98.8477 66.2084L100.296 65.8191Z" fill="white"/>
<path d="M107.524 61.132H108.965V62.6097H107.524V65.851C107.524 66.1608 107.596 66.3753 107.738 66.5183C107.881 66.6534 108.102 66.7249 108.411 66.7249C108.522 66.7249 108.641 66.7169 108.751 66.7011C108.862 66.6852 108.941 66.6772 108.981 66.6613V68.0357C108.933 68.0516 108.831 68.0834 108.664 68.131C108.506 68.1708 108.268 68.1946 107.968 68.1946C107.318 68.1946 106.812 68.0119 106.44 67.6464C106.068 67.281 105.886 66.7726 105.886 66.1132V62.6018H104.603V61.1241H104.959C105.331 61.1241 105.601 61.0208 105.775 60.8063C105.949 60.5998 106.028 60.3376 106.028 60.0357V58.9871H107.524V61.132Z" fill="white"/>
<path d="M110.066 68.1072V61.1241H111.649V62.0139C111.847 61.6644 112.148 61.3943 112.536 61.2036C112.924 61.0129 113.319 60.9255 113.707 60.9255C114.167 60.9255 114.578 61.0288 114.95 61.2354C115.322 61.4419 115.599 61.7517 115.789 62.1569C116.067 61.6961 116.399 61.3784 116.779 61.1956C117.167 61.0129 117.587 60.9255 118.046 60.9255C118.362 60.9255 118.663 60.9811 118.956 61.0844C119.249 61.1877 119.51 61.3466 119.74 61.5611C119.969 61.7756 120.152 62.0536 120.286 62.3873C120.421 62.721 120.492 63.1182 120.492 63.5789V68.1072H118.909V63.8491C118.909 63.4359 118.798 63.0943 118.584 62.8242C118.37 62.5541 118.03 62.4191 117.563 62.4191C117.127 62.4191 116.771 62.57 116.51 62.8719C116.249 63.1738 116.114 63.5392 116.114 63.9682V68.1072H114.483V63.8491C114.483 63.4439 114.38 63.1102 114.167 62.8322C113.961 62.5541 113.612 62.4191 113.137 62.4191C112.686 62.4191 112.338 62.5621 112.077 62.856C111.823 63.15 111.689 63.5154 111.689 63.9682V68.1072H110.066Z" fill="white"/>
<path d="M128.124 66.1212C128.029 66.431 127.886 66.717 127.712 66.9792C127.53 67.2493 127.308 67.4797 127.039 67.6783C126.77 67.8769 126.469 68.0358 126.121 68.1549C125.78 68.2662 125.4 68.3297 124.981 68.3297C124.506 68.3297 124.054 68.2423 123.627 68.0755C123.199 67.9087 122.819 67.6624 122.495 67.3446C122.17 67.0268 121.909 66.6296 121.719 66.1688C121.521 65.7081 121.426 65.1758 121.426 64.5879C121.426 64.0318 121.521 63.5313 121.703 63.0864C121.885 62.6415 122.139 62.2522 122.455 61.9345C122.772 61.6167 123.128 61.3625 123.54 61.1877C123.951 61.0129 124.371 60.9255 124.814 60.9255C125.345 60.9255 125.828 61.0129 126.247 61.1798C126.675 61.3545 127.031 61.5929 127.316 61.9106C127.609 62.2284 127.831 62.6097 127.981 63.0467C128.131 63.4916 128.211 63.9921 128.211 64.5482C128.211 64.6832 128.203 64.8024 128.195 64.8977C128.187 65.001 128.179 65.0566 128.163 65.0805H123.081C123.089 65.3506 123.144 65.5889 123.255 65.8113C123.358 66.0338 123.5 66.2244 123.666 66.3833C123.841 66.5422 124.039 66.6693 124.26 66.7647C124.482 66.8521 124.727 66.8997 124.981 66.8997C125.487 66.8997 125.875 66.7806 126.144 66.5502C126.414 66.3198 126.611 66.0258 126.722 65.6842L128.124 66.1212ZM126.532 63.857C126.524 63.6584 126.485 63.4598 126.414 63.2771C126.342 63.0944 126.231 62.9275 126.089 62.7845C125.946 62.6415 125.772 62.5303 125.559 62.4429C125.353 62.3555 125.099 62.3158 124.814 62.3158C124.561 62.3158 124.324 62.3635 124.118 62.4509C123.912 62.5382 123.738 62.6574 123.595 62.8084C123.453 62.9593 123.342 63.1261 123.255 63.3089C123.168 63.4916 123.12 63.6822 123.112 63.857H126.532Z" fill="white"/>
<path d="M130.878 68.1072H129.224V61.1241H130.839V62.0536C131.068 61.6485 131.369 61.3625 131.749 61.1877C132.121 61.0129 132.509 60.9255 132.897 60.9255C133.325 60.9255 133.697 60.997 134.013 61.14C134.33 61.283 134.583 61.4816 134.789 61.7359C134.995 61.9901 135.146 62.284 135.256 62.6177C135.359 62.9513 135.415 63.3088 135.415 63.6902V68.1072H133.76V63.9762C133.76 63.5472 133.649 63.1817 133.436 62.8798C133.222 62.578 132.85 62.427 132.327 62.427C131.852 62.427 131.488 62.5859 131.251 62.9037C131.005 63.2215 130.886 63.6107 130.886 64.0715V68.1072H130.878Z" fill="white"/>
<path d="M138.946 61.132H140.386V62.6097H138.946V65.851C138.946 66.1608 139.017 66.3753 139.159 66.5183C139.302 66.6534 139.524 66.7249 139.832 66.7249C139.943 66.7249 140.062 66.7169 140.173 66.7011C140.284 66.6852 140.363 66.6772 140.402 66.6613V68.0357C140.355 68.0516 140.252 68.0834 140.086 68.131C139.927 68.1708 139.69 68.1946 139.389 68.1946C138.74 68.1946 138.233 68.0119 137.861 67.6464C137.489 67.281 137.307 66.7726 137.307 66.1132V62.6018H136.024V61.1241H136.381C136.753 61.1241 137.022 61.0208 137.196 60.8063C137.37 60.5998 137.449 60.3376 137.449 60.0357V58.9871H138.946V61.132Z" fill="white"/>
<path d="M142.318 65.8191C142.35 66.1369 142.476 66.415 142.714 66.6533C142.951 66.8916 143.284 67.0108 143.735 67.0108C144.076 67.0108 144.337 66.9314 144.511 66.7725C144.685 66.6136 144.772 66.4229 144.772 66.2084C144.772 66.0178 144.709 65.8589 144.574 65.7238C144.44 65.5888 144.234 65.4934 143.957 65.4378L142.928 65.2074C142.31 65.0724 141.843 64.8261 141.526 64.4527C141.21 64.0873 141.051 63.6583 141.051 63.1657C141.051 62.8638 141.115 62.5699 141.249 62.2998C141.384 62.0297 141.566 61.7914 141.796 61.5848C142.025 61.3783 142.294 61.2194 142.603 61.1002C142.912 60.981 143.244 60.9175 143.609 60.9175C144.091 60.9175 144.503 60.989 144.828 61.124C145.16 61.2591 145.421 61.4339 145.635 61.6325C145.849 61.8311 145.999 62.0456 146.102 62.268C146.205 62.4905 146.269 62.6891 146.292 62.8638L144.891 63.269C144.875 63.1737 144.836 63.0625 144.788 62.9353C144.741 62.8082 144.669 62.697 144.566 62.5937C144.464 62.4905 144.337 62.4031 144.179 62.3316C144.02 62.2601 143.83 62.2204 143.601 62.2204C143.308 62.2204 143.062 62.2998 142.88 62.4587C142.698 62.6176 142.603 62.8082 142.603 63.0227C142.603 63.2134 142.666 63.3723 142.785 63.4994C142.912 63.6265 143.078 63.706 143.3 63.7536L144.361 63.9681C145.018 64.1111 145.516 64.3733 145.857 64.7467C146.197 65.128 146.364 65.5729 146.364 66.0893C146.364 66.3594 146.308 66.6215 146.197 66.8837C146.086 67.1459 145.928 67.3842 145.714 67.5987C145.501 67.8132 145.224 67.988 144.891 68.123C144.559 68.2581 144.171 68.3216 143.735 68.3216C143.229 68.3216 142.801 68.2501 142.453 68.1071C142.096 67.9641 141.811 67.7814 141.582 67.5669C141.352 67.3524 141.178 67.122 141.067 66.8757C140.956 66.6295 140.885 66.407 140.869 66.2084L142.318 65.8191Z" fill="white"/>
</svg>
