<svg width="27" height="26" viewBox="0 0 27 26" fill="none" xmlns="http://www.w3.org/2000/svg">
<g clip-path="url(#clip0_1241_585)">
<path d="M22.0741 4.50191C20.4169 3.74154 18.6399 3.18133 16.7819 2.86048C16.748 2.85428 16.7142 2.86976 16.6968 2.90071C16.4682 3.30719 16.2151 3.83748 16.0378 4.25429C14.0394 3.95511 12.0512 3.95511 10.0938 4.25429C9.9165 3.82822 9.65416 3.30719 9.42459 2.90071C9.40716 2.87079 9.37336 2.85532 9.33952 2.86048C7.48253 3.18031 5.70549 3.74051 4.04731 4.50191C4.03296 4.5081 4.02065 4.51843 4.01249 4.53183C0.641806 9.56755 -0.281565 14.4795 0.17141 19.3306C0.17346 19.3543 0.186782 19.377 0.205229 19.3914C2.42911 21.0246 4.58331 22.0161 6.69752 22.6732C6.73135 22.6836 6.7672 22.6712 6.78874 22.6433C7.28885 21.9604 7.73466 21.2402 8.1169 20.4829C8.13945 20.4386 8.11792 20.386 8.07182 20.3684C7.36469 20.1002 6.69136 19.7731 6.04367 19.4017C5.99244 19.3718 5.98834 19.2985 6.03547 19.2635C6.17177 19.1613 6.3081 19.0551 6.43825 18.9478C6.4618 18.9282 6.49461 18.924 6.52229 18.9364C10.7774 20.8791 15.384 20.8791 19.5888 18.9364C19.6165 18.923 19.6493 18.9272 19.6739 18.9467C19.8041 19.054 19.9404 19.1613 20.0777 19.2635C20.1248 19.2985 20.1218 19.3718 20.0705 19.4017C19.4228 19.7804 18.7495 20.1002 18.0414 20.3674C17.9952 20.3849 17.9747 20.4386 17.9973 20.4829C18.3877 21.2392 18.8335 21.9593 19.3244 22.6423C19.3449 22.6712 19.3818 22.6836 19.4157 22.6732C21.5401 22.0161 23.6943 21.0246 25.9182 19.3914C25.9377 19.377 25.95 19.3553 25.952 19.3316C26.4941 13.7232 25.044 8.85156 22.1079 4.53286C22.1007 4.51843 22.0884 4.5081 22.0741 4.50191ZM8.75232 16.3768C7.47125 16.3768 6.41569 15.2007 6.41569 13.7563C6.41569 12.3119 7.45078 11.1358 8.75232 11.1358C10.0641 11.1358 11.1094 12.3222 11.0889 13.7563C11.0889 15.2007 10.0538 16.3768 8.75232 16.3768ZM17.3916 16.3768C16.1106 16.3768 15.055 15.2007 15.055 13.7563C15.055 12.3119 16.0901 11.1358 17.3916 11.1358C18.7034 11.1358 19.7487 12.3222 19.7282 13.7563C19.7282 15.2007 18.7034 16.3768 17.3916 16.3768Z" fill="white"/>
</g>
<defs>
<clipPath id="clip0_1241_585">
<rect width="26" height="26" fill="white" transform="translate(0.0639648)"/>
</clipPath>
</defs>
</svg>
