<svg width="48" height="48" viewBox="0 0 48 48" fill="none" xmlns="http://www.w3.org/2000/svg">
<g clip-path="url(#clip0_320_1082)">
<path d="M30.9845 17.421C29.6998 16.8323 28.3223 16.3986 26.882 16.1502C26.8557 16.1454 26.8295 16.1574 26.816 16.1814C26.6389 16.4961 26.4426 16.9066 26.3052 17.2293C24.756 16.9977 23.2148 16.9977 21.6974 17.2293C21.56 16.8994 21.3566 16.4961 21.1787 16.1814C21.1651 16.1582 21.1389 16.1462 21.1127 16.1502C19.6732 16.3978 18.2956 16.8315 17.0102 17.421C16.9991 17.4258 16.9896 17.4338 16.9832 17.4442C14.3703 21.3428 13.6545 25.1456 14.0057 28.9012C14.0072 28.9196 14.0176 28.9372 14.0319 28.9484C15.7558 30.2127 17.4257 30.9803 19.0647 31.4891C19.0909 31.4971 19.1187 31.4875 19.1354 31.466C19.5231 30.9372 19.8686 30.3797 20.1649 29.7934C20.1824 29.7591 20.1657 29.7183 20.13 29.7048C19.5818 29.4971 19.0599 29.2439 18.5578 28.9564C18.5181 28.9332 18.5149 28.8765 18.5514 28.8493C18.6571 28.7702 18.7628 28.688 18.8637 28.6049C18.8819 28.5897 18.9074 28.5865 18.9288 28.5961C22.2273 30.1001 25.7983 30.1001 29.0579 28.5961C29.0794 28.5857 29.1048 28.5889 29.1239 28.6041C29.2248 28.6872 29.3304 28.7702 29.4369 28.8493C29.4734 28.8765 29.471 28.9332 29.4313 28.9564C28.9292 29.2495 28.4073 29.4971 27.8583 29.704C27.8226 29.7175 27.8067 29.7591 27.8242 29.7934C28.1268 30.3789 28.4724 30.9364 28.853 31.4652C28.8689 31.4875 28.8974 31.4971 28.9237 31.4891C30.5705 30.9803 32.2405 30.2127 33.9644 28.9484C33.9795 28.9372 33.989 28.9204 33.9906 28.902C34.4109 24.5601 33.2867 20.7885 31.0107 17.445C31.0051 17.4338 30.9956 17.4258 30.9845 17.421ZM20.6575 26.6144C19.6644 26.6144 18.8462 25.7039 18.8462 24.5857C18.8462 23.4674 19.6486 22.5569 20.6575 22.5569C21.6744 22.5569 22.4847 23.4754 22.4688 24.5857C22.4688 25.7039 21.6664 26.6144 20.6575 26.6144ZM27.3546 26.6144C26.3616 26.6144 25.5433 25.7039 25.5433 24.5857C25.5433 23.4674 26.3457 22.5569 27.3546 22.5569C28.3715 22.5569 29.1819 23.4754 29.166 24.5857C29.166 25.7039 28.3715 26.6144 27.3546 26.6144Z" fill="white"/>
</g>
<circle cx="24" cy="24" r="23.5" stroke="white"/>
<defs>
<clipPath id="clip0_320_1082">
<rect width="20.155" height="20.129" fill="white" transform="translate(13.9224 13.9355)"/>
</clipPath>
</defs>
</svg>
