<svg width="25" height="25" viewBox="0 0 25 25" fill="none" xmlns="http://www.w3.org/2000/svg">
<path d="M12.4796 0.499146C9.22061 0.499146 8.8116 0.513396 7.53159 0.571649C6.25408 0.630151 5.38207 0.832409 4.61906 1.12917C3.8298 1.43568 3.16029 1.8457 2.49329 2.51298C1.82578 3.18 1.41578 3.84953 1.10827 4.63856C0.810769 5.40184 0.608267 6.27413 0.550766 7.55118C0.493516 8.83123 0.478516 9.2405 0.478516 12.4996C0.478516 15.7588 0.493016 16.1665 0.551017 17.4466C0.609767 18.7241 0.812019 19.5962 1.10852 20.3592C1.41528 21.1485 1.82528 21.818 2.49254 22.485C3.15929 23.1526 3.8288 23.5636 4.61756 23.8701C5.38107 24.1669 6.25333 24.3691 7.53059 24.4276C8.8106 24.4859 9.21936 24.5001 12.4781 24.5001C15.7374 24.5001 16.1452 24.4859 17.4252 24.4276C18.7027 24.3691 19.5757 24.1669 20.3392 23.8701C21.1282 23.5636 21.7967 23.1526 22.4635 22.485C23.131 21.818 23.541 21.1485 23.8485 20.3595C24.1435 19.5962 24.346 18.7239 24.406 17.4468C24.4635 16.1668 24.4785 15.7588 24.4785 12.4996C24.4785 9.2405 24.4635 8.83148 24.406 7.55143C24.346 6.27388 24.1435 5.40184 23.8485 4.63881C23.541 3.84953 23.131 3.18 22.4635 2.51298C21.796 1.84545 21.1285 1.43543 20.3385 1.12917C19.5735 0.832409 18.701 0.630151 17.4234 0.571649C16.1434 0.513396 15.7359 0.499146 12.4759 0.499146H12.4796ZM11.4031 2.66173C11.7226 2.66123 12.0791 2.66173 12.4796 2.66173C15.6837 2.66173 16.0634 2.67323 17.3287 2.73074C18.4987 2.78424 19.1337 2.97975 19.5567 3.144C20.1167 3.36151 20.516 3.62152 20.9357 4.04154C21.3557 4.46156 21.6157 4.86157 21.8337 5.4216C21.998 5.84411 22.1937 6.47914 22.247 7.64919C22.3045 8.91424 22.317 9.29425 22.317 12.4969C22.317 15.6995 22.3045 16.0795 22.247 17.3446C22.1935 18.5146 21.998 19.1497 21.8337 19.5722C21.6162 20.1322 21.3557 20.531 20.9357 20.9507C20.5157 21.3707 20.117 21.6308 19.5567 21.8483C19.1342 22.0133 18.4987 22.2083 17.3287 22.2618C16.0637 22.3193 15.6837 22.3318 12.4796 22.3318C9.27536 22.3318 8.8956 22.3193 7.63059 22.2618C6.46058 22.2078 5.82557 22.0123 5.40232 21.848C4.84231 21.6305 4.44231 21.3705 4.0223 20.9505C3.6023 20.5305 3.3423 20.1314 3.12429 19.5712C2.96004 19.1487 2.76429 18.5136 2.71104 17.3436C2.65354 16.0785 2.64204 15.6985 2.64204 12.4939C2.64204 9.28925 2.65354 8.91124 2.71104 7.64619C2.76454 6.47614 2.96004 5.84111 3.12429 5.4181C3.3418 4.85807 3.6023 4.45806 4.0223 4.03804C4.44231 3.61802 4.84231 3.35801 5.40232 3.14C5.82532 2.975 6.46058 2.77999 7.63059 2.72624C8.7376 2.67623 9.16661 2.66123 11.4031 2.65873V2.66173ZM18.8852 4.65431C18.0902 4.65431 17.4452 5.29859 17.4452 6.09387C17.4452 6.88891 18.0902 7.53393 18.8852 7.53393C19.6802 7.53393 20.3252 6.88891 20.3252 6.09387C20.3252 5.29884 19.6802 4.65381 18.8852 4.65381V4.65431ZM12.4796 6.33688C9.07635 6.33688 6.31708 9.09624 6.31708 12.4996C6.31708 15.903 9.07635 18.6611 12.4796 18.6611C15.8829 18.6611 18.6412 15.903 18.6412 12.4996C18.6412 9.09624 15.8827 6.33688 12.4794 6.33688H12.4796ZM12.4796 8.49947C14.6887 8.49947 16.4797 10.2903 16.4797 12.4996C16.4797 14.7087 14.6887 16.4998 12.4796 16.4998C10.2704 16.4998 8.4796 14.7087 8.4796 12.4996C8.4796 10.2903 10.2704 8.49947 12.4796 8.49947Z" fill="white"/>
</svg>
