<svg width="28" height="21" viewBox="0 0 28 21" fill="none" xmlns="http://www.w3.org/2000/svg">
<path d="M3.26565 4.28395C3.29919 3.95924 3.1728 3.6383 2.92531 3.41975L0.404301 0.444444V0H8.23203L14.2825 13L19.6018 0H27.064V0.444444L24.9085 2.46914C24.7227 2.60791 24.6305 2.83599 24.669 3.06173V17.9383C24.6305 18.164 24.7227 18.3921 24.9085 18.5309L27.0135 20.5556V21H16.4253V20.5556L18.606 18.4815C18.8203 18.2716 18.8203 18.2099 18.8203 17.8889V5.8642L12.7572 20.9506H11.9379L4.87909 5.8642V15.9753C4.82024 16.4004 4.96435 16.8284 5.26985 17.1358L8.10598 20.5062V20.9506H0.0639648V20.5062L2.9001 17.1358C3.20338 16.8279 3.33908 16.3971 3.26565 15.9753V4.28395Z" fill="white"/>
</svg>
