<svg width="49" height="49" viewBox="0 0 49 49" fill="none" xmlns="http://www.w3.org/2000/svg">
<path d="M13.4935 23.3515L13.5011 23.3484L13.5086 23.3451C18.6095 21.0868 22.0066 19.6 23.7037 18.8827C26.1349 17.8551 27.5912 17.2572 28.5204 16.9146C29.4585 16.5687 29.8065 16.5043 30.0443 16.5C30.0766 16.4995 30.1509 16.5039 30.232 16.5236C30.3162 16.544 30.3699 16.5717 30.3952 16.5926C30.4277 16.6194 30.4509 16.6626 30.4692 16.7713C30.4878 16.8816 30.5116 17.1512 30.4937 17.3415C30.2328 20.1275 29.0976 26.9287 28.5177 30.0789C28.2802 31.3689 27.8727 31.4844 27.7672 31.4942C27.4092 31.5277 27.0716 31.4137 26.6723 31.1753C26.4713 31.0553 26.2663 30.9111 26.0402 30.7478C26.0036 30.7214 25.9664 30.6945 25.9286 30.6671C25.7381 30.529 25.5332 30.3806 25.3194 30.2382C24.5534 29.728 23.954 29.314 23.3576 28.9014L23.2782 28.8464C22.7081 28.4519 22.1337 28.0544 21.416 27.5739C21.0108 27.3025 20.8396 27.1036 20.7743 26.9766C20.7269 26.8844 20.7279 26.8216 20.7684 26.7277C20.8232 26.6006 20.9448 26.443 21.157 26.2236C21.2478 26.1298 21.3459 26.0337 21.4533 25.9285C21.467 25.915 21.481 25.9013 21.495 25.8875C21.6167 25.7682 21.7477 25.639 21.8776 25.5019C21.9321 25.4444 22.2065 25.1853 22.6019 24.8119C23.0661 24.3736 23.6972 23.7776 24.3354 23.1652C24.9173 22.6068 25.4975 22.0416 25.939 21.591C26.1591 21.3663 26.3496 21.1652 26.4899 21.0052C26.5594 20.9259 26.6225 20.8501 26.6722 20.7827C26.6969 20.7493 26.7231 20.7114 26.7463 20.6717C26.7647 20.6402 26.8026 20.5724 26.8226 20.4858C26.8428 20.3982 26.8492 20.28 26.8319 20.1611C26.8147 20.0432 26.7622 19.8443 26.5891 19.688C26.4167 19.5322 26.2176 19.4982 26.0794 19.4971C25.9526 19.4961 25.8373 19.5228 25.7838 19.5351L25.7794 19.5362C25.6977 19.555 25.6231 19.5955 25.6024 19.6068C25.6011 19.6075 25.6001 19.608 25.5993 19.6085C25.5612 19.6289 25.5166 19.6548 25.468 19.6841C25.3699 19.7431 25.2374 19.8267 25.0725 19.9331C24.7418 20.1466 24.2679 20.4606 23.6523 20.8741C22.4202 21.7016 20.6123 22.9329 18.2293 24.5675L18.2293 24.5674L18.226 24.5697C17.5734 25.0251 17.0451 25.2012 16.6258 25.192C16.3751 25.1865 15.9664 25.1101 15.4792 24.9859C15.0038 24.8648 14.4918 24.7084 14.052 24.5632C13.9024 24.5137 13.7629 24.4691 13.6332 24.4276C13.254 24.3064 12.9578 24.2116 12.7314 24.1002C12.586 24.0286 12.5256 23.9751 12.5043 23.9485C12.5016 23.9451 12.5002 23.9446 12.4997 23.9436C12.4996 23.9434 12.4995 23.9433 12.4995 23.943C12.5053 23.9321 12.5367 23.8772 12.6608 23.7836C12.8276 23.6577 13.0975 23.5115 13.4935 23.3515Z" fill="white" stroke="white"/>
<circle cx="24.031" cy="24.031" r="23.531" stroke="white"/>
</svg>
