<svg width="18" height="15" viewBox="0 0 18 15" fill="none" xmlns="http://www.w3.org/2000/svg">
<path fill-rule="evenodd" clip-rule="evenodd" d="M1.18027 6.78289C5.78897 4.77495 8.86216 3.4512 10.3998 2.81163C14.7902 0.985516 15.7025 0.668301 16.2971 0.657827C16.4279 0.655523 16.7203 0.687934 16.9097 0.84163C17.0697 0.971407 17.1137 1.14672 17.1347 1.26976C17.1558 1.39281 17.182 1.6731 17.1612 1.89212C16.9233 4.39192 15.8938 10.4583 15.3701 13.2581C15.1484 14.4428 14.7121 14.8401 14.2896 14.8789C13.3716 14.9634 12.6744 14.2722 11.7852 13.6893C10.3938 12.7772 9.60776 12.2095 8.25715 11.3194C6.69629 10.2908 7.70813 9.72552 8.59766 8.80161C8.83046 8.55982 12.8755 4.88055 12.9538 4.54679C12.9636 4.50504 12.9727 4.34944 12.8802 4.26728C12.7878 4.18512 12.6514 4.21322 12.5529 4.23556C12.4134 4.26723 10.1905 5.73643 5.88449 8.64313C5.25355 9.07638 4.68207 9.28747 4.17004 9.27641C3.60557 9.26422 2.51976 8.95725 1.71257 8.69486C0.722515 8.37304 -0.0643598 8.20289 0.0041593 7.65633C0.0398483 7.37164 0.431884 7.0805 1.18027 6.78289Z" fill="white"/>
</svg>
