<svg width="21" height="25" viewBox="0 0 21 25" fill="none" xmlns="http://www.w3.org/2000/svg">
<path d="M7.59935 20.3885C9.52573 20.3885 11.0874 18.9549 11.0874 16.7627V0.500122H15.2705C15.0358 3.46596 17.8721 6.33089 21 6.26537V10.3543C18.325 10.3543 16.0503 9.17854 15.2586 8.526V16.7627C15.2586 20.3885 12.5146 24.5001 7.59935 24.5001C2.68408 24.5001 0 20.3885 0 16.7627C0 11.6451 5.20979 8.67717 8.66034 9.40258V13.5674C8.48676 13.5036 8.03911 13.4092 7.65782 13.4092C5.71544 13.3348 4.11134 14.9724 4.11134 16.7627C4.11134 18.7652 5.67297 20.3885 7.59935 20.3885Z" fill="white"/>
</svg>
