<svg width="28" height="22" viewBox="0 0 28 22" fill="none" xmlns="http://www.w3.org/2000/svg">
<path d="M13.174 5.85234L13.2325 6.80391L12.2571 6.68739C8.70645 6.24074 5.60452 4.72601 2.9708 2.18203L1.68321 0.919758L1.35156 1.8519C0.649235 3.9298 1.09794 6.12422 2.56112 7.60011C3.34148 8.41574 3.16589 8.53225 1.81977 8.04676C1.35156 7.89141 0.941869 7.77489 0.902851 7.83315C0.766288 7.96908 1.2345 9.73627 1.60518 10.4354C2.11241 11.4064 3.14639 12.3579 4.27791 12.9211L5.23385 13.3677L4.10233 13.3872C3.00982 13.3872 2.9708 13.4066 3.08786 13.8144C3.47804 15.0767 5.01925 16.4166 6.73604 16.9992L7.9456 17.407L6.89211 18.0285C5.33139 18.9218 3.49755 19.4267 1.6637 19.4655C0.785797 19.4849 0.0639648 19.5626 0.0639648 19.6209C0.0639648 19.8151 2.44406 20.9026 3.8292 21.3298C7.98461 22.5921 12.9204 22.0483 16.6271 19.8927C19.2608 18.3586 21.8945 15.3097 23.1236 12.3579C23.7869 10.7849 24.4502 7.91083 24.4502 6.53203C24.4502 5.63873 24.5087 5.52221 25.6012 4.45413C26.245 3.8327 26.8498 3.15302 26.9669 2.95882C27.162 2.58985 27.1424 2.58985 26.1475 2.91998C24.4892 3.50257 24.2551 3.42489 25.0745 2.55101C25.6793 1.92958 26.4011 0.80324 26.4011 0.473106C26.4011 0.414847 26.1085 0.511945 25.7768 0.686722C25.4257 0.880918 24.6453 1.17221 24.06 1.34699L23.0065 1.67712L22.0506 1.03628C21.5239 0.686722 20.7825 0.298329 20.3923 0.181812C19.3974 -0.0900634 17.8757 -0.0512241 16.9783 0.25949C14.5396 1.13337 12.9984 3.38605 13.174 5.85234Z" fill="white"/>
</svg>
