<svg width="48" height="48" viewBox="0 0 48 48" fill="none" xmlns="http://www.w3.org/2000/svg">
<path d="M24.077 20.377L24.119 21.0467L23.4189 20.9647C20.8703 20.6504 18.6439 19.5843 16.7534 17.7938L15.8292 16.9054L15.5912 17.5614C15.0871 19.0239 15.4092 20.5684 16.4594 21.6071C17.0195 22.1812 16.8935 22.2632 15.9273 21.9215C15.5912 21.8121 15.2971 21.7301 15.2691 21.7711C15.1711 21.8668 15.5072 23.1106 15.7732 23.6026C16.1373 24.286 16.8795 24.9557 17.6916 25.3521L18.3778 25.6664L17.5656 25.6801C16.7814 25.6801 16.7534 25.6938 16.8375 25.9808C17.1175 26.8692 18.2238 27.8123 19.456 28.2223L20.3242 28.5093L19.5681 28.9467C18.4478 29.5754 17.1315 29.9308 15.8152 29.9581C15.1851 29.9718 14.667 30.0265 14.667 30.0675C14.667 30.2041 16.3754 30.9695 17.3696 31.2702C20.3522 32.1586 23.895 31.7759 26.5556 30.2588C28.446 29.1791 30.3364 27.0332 31.2186 24.9557C31.6947 23.8486 32.1708 21.8258 32.1708 20.8554C32.1708 20.2267 32.2128 20.1447 32.997 19.3929C33.459 18.9556 33.8931 18.4772 33.9772 18.3405C34.1172 18.0808 34.1032 18.0808 33.389 18.3132C32.1988 18.7232 32.0307 18.6685 32.6189 18.0535C33.053 17.6161 33.5711 16.8234 33.5711 16.591C33.5711 16.55 33.361 16.6184 33.123 16.7414C32.8709 16.8781 32.3108 17.0831 31.8907 17.2061L31.1345 17.4384L30.4484 16.9874C30.0703 16.7414 29.5382 16.468 29.2581 16.386C28.544 16.1947 27.4518 16.222 26.8076 16.4407C25.0572 17.0557 23.951 18.6412 24.077 20.377Z" fill="white"/>
<circle cx="24" cy="24" r="23.5" stroke="white"/>
</svg>
