<svg width="231" height="128" viewBox="0 0 231 128" fill="none" xmlns="http://www.w3.org/2000/svg">
<path opacity="0.8" d="M48.544 53.6812L49.0086 57.9355L42.1046 73.0777H39.3171L48.544 53.6812Z" fill="white"/>
<path opacity="0.8" d="M42.6981 55.5043L43.7434 58.3621L37.6136 71.888H34.8907L42.6981 55.5043Z" fill="white"/>
<path d="M51.1893 61.1422L49.9634 63.6896L54.3123 73.0258L56.8674 73.0776L51.1893 61.1422Z" fill="white"/>
<path d="M63.2294 82H62.8423C61.0227 82 59.2935 81.9741 57.1126 81.9353C55.035 81.9095 53.0735 81.8836 51.5636 81.8836H41.6012C38.0395 81.8836 36.4651 81.5216 33.9358 78.9871C31.4065 76.4526 29.9999 73.6207 29.9999 70.0517V46H51.5636C55.1253 46 56.7255 46.7241 59.2806 48.9095C62.0035 51.25 63.2036 54.1078 63.2036 57.6767V70.0517C63.2036 71.7457 63.2036 73.9828 63.2165 76.1293C63.2165 78.2112 63.2294 79.8405 63.2294 81.431V82ZM31.4065 47.4612V70.0517C31.4065 75.6897 35.9747 80.2672 41.6012 80.2672H51.5765C53.0993 80.2672 55.0737 80.2931 57.1642 80.319C58.7386 80.3448 60.3388 80.3578 61.797 80.3707C61.797 79.0647 61.797 77.5905 61.7841 76.1422C61.7841 73.9828 61.7712 71.7586 61.7712 70.0517V57.6767C61.7712 52.0388 57.203 47.4612 51.5765 47.4612H31.4065Z" fill="white"/>
<path d="M160.247 57.1466C157.859 57.1466 155.73 58.2716 154.362 60.0044V57.082H151.988V77.4742H154.362V69.3406C155.73 71.0863 157.859 72.1983 160.247 72.1983C164.389 72.1983 167.744 68.8233 167.744 64.6854C167.757 60.5216 164.389 57.1466 160.247 57.1466ZM165.615 64.6725C165.615 67.6466 163.215 70.0518 160.247 70.0518C157.279 70.0518 154.878 67.6466 154.878 64.6725C154.878 61.6983 157.279 59.2932 160.247 59.2932C163.215 59.2932 165.615 61.6983 165.615 64.6725Z" fill="white"/>
<path d="M194.457 59.5389C193.076 57.7156 190.973 56.5389 188.624 56.5389C184.456 56.5389 181.075 60.2113 181.075 64.7372C181.075 69.263 184.456 72.9225 188.624 72.9225C190.973 72.9225 193.076 71.7587 194.457 69.9225V72.9225H196.664V57.082H194.457V59.5389ZM188.624 70.6078C185.643 70.6078 183.217 67.9828 183.217 64.7501C183.217 61.5173 185.643 58.8923 188.624 58.8923C191.605 58.8923 194.031 61.5173 194.031 64.7501C194.031 67.9828 191.605 70.6078 188.624 70.6078Z" fill="white"/>
<path d="M147.523 59.5389C146.142 57.7156 144.038 56.5389 141.69 56.5389C137.522 56.5389 134.141 60.2113 134.141 64.7372C134.141 69.263 137.522 72.9225 141.69 72.9225C144.038 72.9225 146.142 71.7587 147.523 69.9225V73.0389H149.717V57.082H147.523V59.5389ZM141.69 70.6078C138.709 70.6078 136.283 67.9828 136.283 64.7501C136.283 61.5173 138.709 58.8923 141.69 58.8923C144.671 58.8923 147.097 61.5173 147.097 64.7501C147.097 67.9828 144.671 70.6078 141.69 70.6078Z" fill="white"/>
<path d="M179.294 71.0474C178.868 71.0474 178.546 70.9827 178.314 70.8534C178.094 70.7371 177.926 70.5431 177.823 70.3233C177.72 70.1034 177.668 69.1983 177.668 68.4224V58.9827H180.546V57.3017H177.668V51.2241L175.41 52.8534V57.2888H172.713V58.9698H175.41V68.2414C175.41 69.8836 175.526 70.9569 175.758 71.4741C176.016 72.0043 176.442 72.444 176.971 72.7155C177.539 73.0259 177.759 72.9871 178.791 72.9871C179.514 72.9741 180.249 72.8965 180.959 72.7414L180.546 70.931C180.133 70.9957 179.707 71.0345 179.294 71.0474Z" fill="white"/>
<path d="M201 50.6553H198.768V72.9225H201V50.6553Z" fill="white"/>
<path d="M171.022 51.3536H169.099V53.7587H171.022V51.3536Z" fill="white"/>
<path d="M171.022 56.3449H169.099V73.0001H171.022V56.3449Z" fill="white"/>
<path d="M132.205 69.2114C130.398 70.8925 128.424 71.733 126.32 71.733C121.636 71.733 118.5 68.6295 118.5 64.0261C118.5 59.4226 121.649 56.2416 126.346 56.2416C128.256 56.2416 129.947 56.9916 131.65 58.595L131.869 58.8019L133.199 57.2244L133.005 57.0433C131.753 55.8278 129.714 54.2114 126.32 54.2114C120.371 54.2114 116.203 58.2459 116.203 64.0261C116.203 66.9744 117.197 69.4571 119.081 71.2028C120.888 72.8838 123.378 73.7632 126.269 73.7632C128.94 73.7632 131.353 72.7545 133.47 70.7761L133.65 70.608L132.45 69.0045L132.205 69.2114Z" fill="white"/>
<path d="M105.273 69.0043L105.04 69.2112C103.234 70.8922 101.259 71.7327 99.156 71.7327C94.4845 71.7327 91.3357 68.6293 91.3357 64.0258C91.3357 59.4224 94.4845 56.2414 99.1818 56.2414C101.092 56.2414 102.782 56.9914 104.486 58.5948L104.705 58.8017L106.034 57.2241L105.841 57.0431C104.589 55.8276 102.55 54.2112 99.156 54.2112C93.2069 54.2112 89.0387 58.2457 89.0387 64.0258C89.0387 66.9741 90.0324 69.4569 91.9164 71.2026C93.7231 72.8836 96.2137 73.7629 99.1043 73.7629C101.776 73.7629 104.189 72.7543 106.305 70.7758L106.486 70.6077L105.273 69.0043Z" fill="white"/>
<path d="M81.1152 60.5344L87.8515 74.5646H89.9034L82.1605 58.4138L81.1152 60.5344Z" fill="white"/>
<path d="M78.4052 68.1508H75.4501H73.3853H70.8173L69.7333 69.9353H72.5078L70.2495 74.5646H72.3013L74.5725 69.9353H79.3215L78.4052 68.1508Z" fill="white"/>
<path d="M81.6442 55.5431L80.599 53.4353L73.7466 67.4008H75.8113L81.6442 55.5431Z" fill="white"/>
</svg>
