<svg width="25" height="25" viewBox="0 0 25 25" fill="none" xmlns="http://www.w3.org/2000/svg">
<g clip-path="url(#clip0_3817_4912)">
<path d="M3.47067 8.0979C3.03992 8.0979 2.67445 8.24811 2.37402 8.54854C2.0736 8.84897 1.92334 9.20947 1.92334 9.63023V16.0905C1.92334 16.5218 2.07355 16.887 2.37402 17.1874C2.67445 17.4879 3.03992 17.6381 3.47067 17.6381C3.90111 17.6381 4.26437 17.4879 4.56014 17.1874C4.85532 16.887 5.00332 16.5218 5.00332 16.0905V9.63023C5.00332 9.20942 4.8531 8.84897 4.55263 8.54854C4.25216 8.24811 3.89143 8.0979 3.47067 8.0979Z" fill="black"/>
<path d="M15.9107 2.29848L16.9774 0.330657C17.0474 0.200379 17.0225 0.100479 16.9024 0.0302315C16.7721 -0.0303419 16.672 0.000351594 16.602 0.120142L15.5204 2.1037C14.5686 1.68289 13.562 1.4721 12.5004 1.4721C11.4387 1.4721 10.4319 1.68294 9.48053 2.1037L8.39884 0.120142C8.32855 0.000351594 8.22842 -0.0300707 8.09842 0.0302315C7.97808 0.100795 7.95318 0.200379 8.02347 0.330657L9.09024 2.29848C8.00855 2.8501 7.14705 3.61835 6.50606 4.60488C5.86507 5.59196 5.54443 6.67061 5.54443 7.84275H19.4413C19.4413 6.67088 19.1207 5.59218 18.4797 4.60488C17.8387 3.61835 16.9821 2.8501 15.9107 2.29848ZM9.74335 5.16071C9.62799 5.27634 9.4902 5.33389 9.33005 5.33389C9.16957 5.33389 9.03459 5.27634 8.92447 5.16071C8.81436 5.04562 8.7593 4.90838 8.7593 4.74768C8.7593 4.58752 8.81436 4.45001 8.92447 4.33465C9.03459 4.21956 9.16989 4.16202 9.33005 4.16202C9.4902 4.16202 9.62799 4.21956 9.74335 4.33465C9.85844 4.45028 9.91625 4.58752 9.91625 4.74768C9.91594 4.90811 9.85816 5.04562 9.74335 5.16071ZM16.0758 5.16071C15.9655 5.27634 15.8302 5.33389 15.6703 5.33389C15.5098 5.33389 15.372 5.27634 15.2569 5.16071C15.1416 5.04562 15.084 4.90838 15.084 4.74768C15.084 4.58752 15.1416 4.45001 15.2569 4.33465C15.372 4.21956 15.5098 4.16202 15.6703 4.16202C15.8304 4.16202 15.9654 4.21956 16.0758 4.33465C16.186 4.45028 16.241 4.58752 16.241 4.74768C16.241 4.90811 16.186 5.04562 16.0758 5.16071Z" fill="black"/>
<path d="M5.604 18.3892C5.604 18.8503 5.76416 19.2407 6.08452 19.5611C6.40516 19.8814 6.79554 20.0416 7.25639 20.0416H8.36823L8.38346 23.4524C8.38346 23.8831 8.53368 24.2489 8.8341 24.5493C9.13453 24.8498 9.4953 25 9.91579 25C10.3463 25 10.712 24.8498 11.0124 24.5493C11.3129 24.2489 11.4631 23.8832 11.4631 23.4524V20.0419H13.5364V23.4524C13.5364 23.8831 13.6865 24.2489 13.987 24.5493C14.2875 24.8498 14.6529 25 15.0837 25C15.5141 25 15.8798 24.8498 16.1803 24.5493C16.4808 24.2489 16.6309 23.8832 16.6309 23.4524V20.0419H17.7578C18.2084 20.0419 18.5938 19.8817 18.9147 19.5613C19.2351 19.241 19.3953 18.8506 19.3953 18.3895V8.38306H5.604V18.3892Z" fill="black"/>
<path d="M21.5299 8.0979C21.1091 8.0979 20.7487 8.2459 20.4482 8.54108C20.1478 8.83681 19.9976 9.20006 19.9976 9.63023V16.0905C19.9976 16.5218 20.1477 16.887 20.4482 17.1874C20.7487 17.4879 21.1094 17.6381 21.5299 17.6381C21.9604 17.6381 22.3261 17.4879 22.6266 17.1874C22.9271 16.887 23.0772 16.5218 23.0772 16.0905V9.63023C23.0772 9.20002 22.9271 8.83681 22.6266 8.54108C22.3261 8.2459 21.9604 8.0979 21.5299 8.0979Z" fill="black"/>
</g>
<defs>
<clipPath id="clip0_3817_4912">
<rect width="25" height="25" fill="white"/>
</clipPath>
</defs>
</svg>
