<svg width="200" height="58" viewBox="0 0 200 58" fill="none" xmlns="http://www.w3.org/2000/svg">
<path d="M198.889 51.311C198.889 54.4019 196.343 56.9056 193.194 56.9056H6.81403C3.66633 56.9056 1.11133 54.4019 1.11133 51.311V6.69611C1.11133 3.60668 3.66633 1.09424 6.81403 1.09424H193.192C196.343 1.09424 198.888 3.60668 198.888 6.69611L198.889 51.311Z" fill="white"/>
<path d="M192.593 1.16182C196.022 1.16182 198.813 3.89325 198.813 7.25V50.75C198.813 54.1068 196.022 56.8382 192.593 56.8382H7.40741C3.97778 56.8382 1.18704 54.1068 1.18704 50.75V7.25C1.18704 3.89325 3.97778 1.16182 7.40741 1.16182H192.593ZM192.593 3.8147e-06H7.40741C3.33519 3.8147e-06 0 3.26432 0 7.25V50.75C0 54.7357 3.33519 58 7.40741 58H192.593C196.665 58 200 54.7357 200 50.75V7.25C200 3.26432 196.665 3.8147e-06 192.593 3.8147e-06Z" fill="#A6A6A6"/>
<path d="M44.6343 28.6868C44.5913 24.0134 48.5439 21.7398 48.7246 21.634C46.4861 18.4396 43.0165 18.0032 41.7972 17.9684C38.8832 17.6682 36.0565 19.675 34.5721 19.675C33.058 19.675 30.7721 17.9974 28.3084 18.0467C25.138 18.0945 22.1721 19.8911 20.5454 22.6809C17.1884 28.3692 19.6921 36.7285 22.9084 41.3264C24.5172 43.5783 26.3972 46.0926 28.858 46.0041C31.2654 45.907 32.1646 44.5019 35.0698 44.5019C37.9484 44.5019 38.7928 46.0041 41.3024 45.9476C43.8861 45.907 45.5128 43.6856 47.0654 41.4134C48.9246 38.8324 49.6713 36.2906 49.7009 36.1601C49.6402 36.1398 44.6832 34.2881 44.6343 28.6868Z" fill="black"/>
<path d="M39.8935 14.9437C41.1884 13.3588 42.0743 11.2027 41.8284 9.01465C39.9543 9.09585 37.6106 10.2834 36.2609 11.8334C35.0669 13.1993 34.0002 15.4381 34.2758 17.5435C36.3809 17.6972 38.5424 16.5039 39.8935 14.9437Z" fill="black"/>
<path d="M72.6666 14.5129C72.6666 16.2195 72.1436 17.5042 71.0992 18.367C70.1318 19.163 68.7569 19.5618 66.9762 19.5618C66.0932 19.5618 65.3377 19.5241 64.7051 19.4487V10.1237C65.5303 9.99321 66.4192 9.92651 67.3792 9.92651C69.0755 9.92651 70.354 10.2876 71.2162 11.0097C72.1821 11.826 72.6666 12.9933 72.6666 14.5129ZM71.0295 14.5549C71.0295 13.4486 70.7303 12.6003 70.1318 12.0087C69.5332 11.4186 68.6592 11.1228 67.508 11.1228C67.0192 11.1228 66.6029 11.1547 66.2577 11.2214V18.3104C66.4488 18.3394 66.7984 18.3525 67.3066 18.3525C68.4947 18.3525 69.4118 18.0291 70.0577 17.3824C70.7036 16.7357 71.0295 15.7932 71.0295 14.5549Z" fill="black"/>
<path d="M81.3464 16.0035C81.3464 17.0547 81.0397 17.916 80.4263 18.5917C79.7834 19.2863 78.9315 19.6328 77.8678 19.6328C76.8426 19.6328 76.0264 19.3008 75.4175 18.6338C74.8101 17.9682 74.5063 17.1287 74.5063 16.1166C74.5063 15.0581 74.8189 14.1895 75.4471 13.5153C76.0752 12.841 76.9197 12.5032 77.9834 12.5032C79.0086 12.5032 79.8323 12.8352 80.456 13.5008C81.0486 14.1475 81.3464 14.9827 81.3464 16.0035ZM79.736 16.0528C79.736 15.422 79.5967 14.8812 79.3197 14.4302C78.9938 13.885 78.5301 13.6124 77.9271 13.6124C77.3034 13.6124 76.8293 13.885 76.5034 14.4302C76.2249 14.8812 76.0871 15.4307 76.0871 16.0803C76.0871 16.7111 76.2263 17.2519 76.5034 17.7029C76.8397 18.2481 77.3078 18.5207 77.9123 18.5207C78.5049 18.5207 78.9701 18.2437 79.3049 17.6884C79.5923 17.2287 79.736 16.6835 79.736 16.0528Z" fill="black"/>
<path d="M92.9852 12.6426L90.8 19.4779H89.3778L88.4726 16.5097C88.243 15.7688 88.0563 15.0322 87.9111 14.3014H87.883C87.7482 15.0525 87.5615 15.7876 87.3215 16.5097L86.36 19.4779H84.9215L82.8667 12.6426H84.4623L85.2519 15.892C85.443 16.6605 85.6 17.3928 85.726 18.0859H85.7541C85.8697 17.5146 86.0608 16.7867 86.3304 15.9065L87.3215 12.644H88.5867L89.5363 15.8369C89.766 16.6156 89.9526 17.3652 90.0963 18.0873H90.1393C90.2445 17.3841 90.403 16.6344 90.6134 15.8369L91.4608 12.644H92.9852V12.6426Z" fill="black"/>
<path d="M101.034 19.4779H99.4815V15.5629C99.4815 14.3565 99.0133 13.7533 98.0741 13.7533C97.6133 13.7533 97.2415 13.9186 96.9526 14.2506C96.6667 14.5827 96.5215 14.9742 96.5215 15.4222V19.4764H94.9689V14.5957C94.9689 13.9954 94.9496 13.3444 94.9126 12.6397H96.277L96.3496 13.7083H96.3926C96.5733 13.3763 96.843 13.1022 97.197 12.8833C97.6178 12.6281 98.0889 12.499 98.6044 12.499C99.2563 12.499 99.7985 12.7049 100.23 13.1182C100.766 13.6242 101.034 14.3797 101.034 15.3831V19.4779Z" fill="black"/>
<path d="M105.315 19.4778H103.764V9.5061H105.315V19.4778Z" fill="black"/>
<path d="M114.456 16.0035C114.456 17.0547 114.15 17.916 113.536 18.5917C112.893 19.2863 112.04 19.6328 110.978 19.6328C109.951 19.6328 109.135 19.3008 108.527 18.6338C107.92 17.9682 107.616 17.1287 107.616 16.1166C107.616 15.0581 107.929 14.1895 108.557 13.5153C109.185 12.841 110.03 12.5032 111.092 12.5032C112.118 12.5032 112.941 12.8352 113.566 13.5008C114.158 14.1475 114.456 14.9827 114.456 16.0035ZM112.844 16.0528C112.844 15.422 112.705 14.8812 112.428 14.4302C112.104 13.885 111.638 13.6124 111.037 13.6124C110.412 13.6124 109.938 13.885 109.613 14.4302C109.335 14.8812 109.197 15.4307 109.197 16.0803C109.197 16.7111 109.336 17.2519 109.613 17.7029C109.95 18.2481 110.418 18.5207 111.022 18.5207C111.615 18.5207 112.078 18.2437 112.413 17.6884C112.702 17.2287 112.844 16.6835 112.844 16.0528Z" fill="black"/>
<path d="M121.97 19.4777H120.576L120.461 18.6903H120.418C119.941 19.3182 119.261 19.6328 118.378 19.6328C117.718 19.6328 117.185 19.4255 116.783 19.0137C116.419 18.6396 116.237 18.1741 116.237 17.6217C116.237 16.7865 116.592 16.1499 117.308 15.7091C118.022 15.2683 119.026 15.0523 120.32 15.0624V14.9348C120.32 14.0344 119.837 13.5849 118.869 13.5849C118.181 13.5849 117.573 13.7545 117.049 14.0909L116.733 13.0933C117.382 12.7004 118.183 12.5032 119.129 12.5032C120.954 12.5032 121.869 13.4457 121.869 15.3307V17.8479C121.869 18.5308 121.903 19.0746 121.97 19.4777ZM120.358 17.1287V16.0745C118.646 16.0455 117.789 16.5052 117.789 17.452C117.789 17.8087 117.887 18.0755 118.087 18.2539C118.287 18.4322 118.542 18.5207 118.846 18.5207C119.186 18.5207 119.505 18.4148 119.795 18.2046C120.087 17.9929 120.266 17.7246 120.333 17.3955C120.349 17.3215 120.358 17.2316 120.358 17.1287Z" fill="black"/>
<path d="M130.793 19.4778H129.415L129.342 18.3801H129.299C128.859 19.2153 128.11 19.6329 127.056 19.6329C126.215 19.6329 125.514 19.3096 124.959 18.6629C124.403 18.0162 124.126 17.1766 124.126 16.1457C124.126 15.0393 124.427 14.1432 125.031 13.4588C125.616 12.8208 126.333 12.5018 127.187 12.5018C128.124 12.5018 128.781 12.8107 129.154 13.4298H129.184V9.5061H130.738V17.6363C130.738 18.3018 130.756 18.9152 130.793 19.4778ZM129.184 16.5952V15.4555C129.184 15.2583 129.169 15.0988 129.141 14.977C129.053 14.6116 128.865 14.3042 128.579 14.0562C128.29 13.8083 127.942 13.6836 127.541 13.6836C126.962 13.6836 126.508 13.9083 126.175 14.3593C125.844 14.8102 125.677 15.3859 125.677 16.0891C125.677 16.7648 125.836 17.3129 126.154 17.7349C126.49 18.1844 126.944 18.4091 127.511 18.4091C128.021 18.4091 128.428 18.2221 128.738 17.8465C129.037 17.5 129.184 17.0824 129.184 16.5952Z" fill="black"/>
<path d="M144.071 16.0035C144.071 17.0547 143.764 17.916 143.151 18.5917C142.508 19.2863 141.658 19.6328 140.592 19.6328C139.569 19.6328 138.752 19.3008 138.142 18.6338C137.535 17.9682 137.231 17.1287 137.231 16.1166C137.231 15.0581 137.544 14.1895 138.172 13.5153C138.8 12.841 139.644 12.5032 140.709 12.5032C141.733 12.5032 142.558 12.8352 143.181 13.5008C143.773 14.1475 144.071 14.9827 144.071 16.0035ZM142.462 16.0528C142.462 15.422 142.323 14.8812 142.046 14.4302C141.718 13.885 141.256 13.6124 140.652 13.6124C140.029 13.6124 139.555 13.885 139.228 14.4302C138.949 14.8812 138.812 15.4307 138.812 16.0803C138.812 16.7111 138.951 17.2519 139.228 17.7029C139.564 18.2481 140.032 18.5207 140.637 18.5207C141.229 18.5207 141.696 18.2437 142.031 17.6884C142.317 17.2287 142.462 16.6835 142.462 16.0528Z" fill="black"/>
<path d="M152.419 19.4779H150.868V15.5629C150.868 14.3565 150.4 13.7533 149.459 13.7533C148.999 13.7533 148.627 13.9186 148.339 14.2506C148.052 14.5827 147.908 14.9742 147.908 15.4222V19.4764H146.354V14.5957C146.354 13.9954 146.336 13.3444 146.299 12.6397H147.662L147.735 13.7083H147.778C147.96 13.3763 148.23 13.1022 148.582 12.8833C149.004 12.6281 149.474 12.499 149.991 12.499C150.642 12.499 151.184 12.7049 151.615 13.1182C152.153 13.6242 152.419 14.3797 152.419 15.3831V19.4779Z" fill="black"/>
<path d="M162.868 13.7807H161.158V17.1012C161.158 17.9451 161.462 18.3671 162.064 18.3671C162.342 18.3671 162.573 18.3439 162.755 18.296L162.795 19.4488C162.489 19.5619 162.086 19.6184 161.59 19.6184C160.976 19.6184 160.499 19.4357 160.154 19.0703C159.807 18.7049 159.635 18.0901 159.635 17.2274V13.7807H158.615V12.6425H159.635V11.3897L161.157 10.9402V12.641H162.867V13.7807H162.868Z" fill="black"/>
<path d="M171.087 19.4778H169.533V15.5918C169.533 14.3665 169.065 13.7532 168.127 13.7532C167.407 13.7532 166.915 14.1084 166.646 14.8189C166.6 14.9683 166.573 15.151 166.573 15.3656V19.4763H165.022V9.5061H166.573V13.6256H166.603C167.092 12.8759 167.792 12.5018 168.701 12.5018C169.343 12.5018 169.875 12.7077 170.298 13.121C170.823 13.6357 171.087 14.4013 171.087 15.4134V19.4778Z" fill="black"/>
<path d="M179.566 15.7368C179.566 16.0094 179.545 16.2385 179.508 16.4255H174.852C174.872 17.1012 175.095 17.616 175.526 17.9727C175.92 18.2917 176.428 18.4512 177.05 18.4512C177.739 18.4512 178.367 18.3439 178.933 18.1278L179.176 19.1834C178.514 19.4647 177.735 19.6054 176.832 19.6054C175.751 19.6054 174.899 19.2936 174.283 18.6701C173.664 18.0466 173.357 17.21 173.357 16.1602C173.357 15.1292 173.643 14.2708 174.219 13.5864C174.821 12.8556 175.634 12.4902 176.661 12.4902C177.665 12.4902 178.428 12.8556 178.944 13.5864C179.36 14.1664 179.566 14.8842 179.566 15.7368ZM178.084 15.3438C178.096 14.8929 177.994 14.5043 177.784 14.1766C177.514 13.7546 177.104 13.5429 176.548 13.5429C176.041 13.5429 175.628 13.7488 175.312 14.1621C175.055 14.4912 174.902 14.8842 174.852 15.3438H178.084Z" fill="black"/>
<path d="M79.474 45.6809H76.1096L74.2666 40.0128H67.8607L66.1051 45.6809H62.8296L69.1763 26.3843H73.0963L79.474 45.6809ZM73.7111 37.6348L72.0444 32.5961C71.8681 32.0813 71.5377 30.8691 71.0503 28.9609H70.9911C70.797 29.7816 70.4844 30.9938 70.0548 32.5961L68.4177 37.6348H73.7111Z" fill="black"/>
<path d="M95.7953 38.5526C95.7953 40.919 95.142 42.7895 93.8353 44.1627C92.665 45.385 91.2116 45.9955 89.4768 45.9955C87.6042 45.9955 86.2591 45.3372 85.4398 44.0206H85.3805V51.3503H82.222V36.3472C82.222 34.8595 82.182 33.3326 82.105 31.7666H84.8828L85.0591 33.9721H85.1183C86.1716 32.3104 87.7702 31.481 89.9153 31.481C91.5924 31.481 92.9924 32.1291 94.1124 33.4269C95.2353 34.7261 95.7953 36.4342 95.7953 38.5526ZM92.5776 38.6657C92.5776 37.3114 92.2665 36.1949 91.6413 35.3162C90.9583 34.3998 90.0413 33.9416 88.8916 33.9416C88.1124 33.9416 87.4042 34.1968 86.7716 34.7C86.1376 35.2075 85.7228 35.8701 85.5287 36.6908C85.4309 37.0736 85.382 37.3868 85.382 37.6333V39.9533C85.382 40.9654 85.6991 41.8195 86.3331 42.5169C86.9672 43.2144 87.7909 43.5624 88.8042 43.5624C89.9939 43.5624 90.9198 43.1129 91.582 42.2168C92.2457 41.3192 92.5776 40.136 92.5776 38.6657Z" fill="black"/>
<path d="M112.146 38.5526C112.146 40.919 111.493 42.7895 110.185 44.1627C109.016 45.385 107.563 45.9955 105.828 45.9955C103.955 45.9955 102.61 45.3372 101.792 44.0206H101.733V51.3503H98.5746V36.3472C98.5746 34.8595 98.5346 33.3326 98.4575 31.7666H101.235L101.412 33.9721H101.471C102.523 32.3104 104.121 31.481 106.268 31.481C107.943 31.481 109.343 32.1291 110.466 33.4269C111.585 34.7261 112.146 36.4342 112.146 38.5526ZM108.929 38.6657C108.929 37.3114 108.616 36.1949 107.991 35.3162C107.308 34.3998 106.394 33.9416 105.243 33.9416C104.462 33.9416 103.755 34.1968 103.121 34.7C102.487 35.2075 102.074 35.8701 101.88 36.6908C101.783 37.0736 101.733 37.3868 101.733 37.6333V39.9533C101.733 40.9654 102.05 41.8195 102.681 42.5169C103.315 43.2129 104.139 43.5624 105.155 43.5624C106.345 43.5624 107.271 43.1129 107.933 42.2168C108.597 41.3192 108.929 40.136 108.929 38.6657Z" fill="black"/>
<path d="M130.428 40.2695C130.428 41.9109 129.846 43.2464 128.677 44.2773C127.392 45.404 125.604 45.9666 123.306 45.9666C121.185 45.9666 119.484 45.5664 118.197 44.7645L118.929 42.1879C120.315 43.0086 121.837 43.4204 123.495 43.4204C124.684 43.4204 125.61 43.1565 126.275 42.6316C126.938 42.1067 127.268 41.402 127.268 40.5233C127.268 39.7403 126.995 39.0805 126.449 38.5455C125.905 38.0104 124.997 37.5131 123.729 37.0534C120.277 35.7934 118.552 33.9475 118.552 31.5202C118.552 29.9339 119.157 28.6333 120.367 27.6212C121.573 26.6076 123.182 26.1016 125.194 26.1016C126.988 26.1016 128.478 26.4075 129.668 27.018L128.878 29.5381C127.767 28.9465 126.511 28.6507 125.105 28.6507C123.994 28.6507 123.126 28.9189 122.503 29.4525C121.978 29.9296 121.714 30.511 121.714 31.1998C121.714 31.9625 122.015 32.5932 122.619 33.0891C123.145 33.5473 124.1 34.0432 125.487 34.5783C127.183 35.2467 128.429 36.0283 129.231 36.9244C130.029 37.8176 130.428 38.9355 130.428 40.2695Z" fill="black"/>
<path d="M140.871 34.0868H137.39V40.8423C137.39 42.5606 138.003 43.419 139.233 43.419C139.797 43.419 140.265 43.3711 140.636 43.2754L140.723 45.623C140.101 45.8506 139.282 45.9652 138.267 45.9652C137.019 45.9652 136.044 45.5925 135.341 44.8487C134.64 44.1034 134.287 42.8535 134.287 41.0975V34.0839H132.213V31.7639H134.287V29.2162L137.39 28.2998V31.7639H140.871V34.0868Z" fill="black"/>
<path d="M156.579 38.6092C156.579 40.7479 155.954 42.5039 154.707 43.877C153.398 45.2908 151.662 45.9955 149.498 45.9955C147.412 45.9955 145.751 45.3183 144.513 43.964C143.274 42.6097 142.655 40.9002 142.655 38.8397C142.655 36.6836 143.292 34.9175 144.57 33.5443C145.846 32.1697 147.567 31.4824 149.732 31.4824C151.818 31.4824 153.496 32.1596 154.763 33.5153C155.975 34.8305 156.579 36.5284 156.579 38.6092ZM153.302 38.7092C153.302 37.426 153.022 36.3254 152.455 35.4076C151.793 34.2969 150.846 33.743 149.619 33.743C148.35 33.743 147.385 34.2983 146.723 35.4076C146.156 36.3269 145.876 37.4448 145.876 38.7672C145.876 40.0505 146.156 41.151 146.723 42.0674C147.406 43.1781 148.36 43.732 149.591 43.732C150.797 43.732 151.744 43.1665 152.427 42.0384C153.009 41.1032 153.302 39.991 153.302 38.7092Z" fill="black"/>
<path d="M166.846 34.4854C166.533 34.4288 166.2 34.3998 165.85 34.3998C164.739 34.3998 163.88 34.8102 163.275 35.6323C162.749 36.3573 162.486 37.2737 162.486 38.3801V45.6808H159.329L159.358 36.1485C159.358 34.5448 159.318 33.0847 159.24 31.7681H161.991L162.106 34.4303H162.194C162.527 33.5153 163.053 32.7787 163.773 32.2263C164.477 31.7289 165.237 31.481 166.056 31.481C166.348 31.481 166.612 31.5013 166.846 31.5375V34.4854Z" fill="black"/>
<path d="M180.972 38.0656C180.972 38.6195 180.935 39.0864 180.856 39.4678H171.381C171.418 40.8424 171.876 41.8936 172.756 42.6186C173.554 43.2668 174.587 43.5916 175.855 43.5916C177.258 43.5916 178.538 43.3726 179.689 42.9333L180.184 45.0793C178.839 45.6535 177.25 45.9391 175.418 45.9391C173.213 45.9391 171.483 45.304 170.224 44.0353C168.968 42.7665 168.338 41.0628 168.338 38.9255C168.338 36.8273 168.923 35.0801 170.095 33.6866C171.322 32.1989 172.979 31.4551 175.065 31.4551C177.114 31.4551 178.665 32.1989 179.719 33.6866C180.553 34.8684 180.972 36.33 180.972 38.0656ZM177.96 37.2638C177.981 36.3474 177.775 35.5557 177.347 34.8872C176.8 34.0274 175.96 33.5982 174.83 33.5982C173.797 33.5982 172.957 34.0172 172.316 34.8582C171.79 35.5267 171.477 36.3285 171.381 37.2623H177.96V37.2638Z" fill="black"/>
</svg>
