<svg width="20" height="25" viewBox="0 0 20 25" fill="none" xmlns="http://www.w3.org/2000/svg">
<g clip-path="url(#clip0_3817_4902)">
<path d="M0 14.0164C0 13.5791 0 13.1422 0 12.7049C0.067623 12.241 0.111475 11.7717 0.207787 11.3139C0.569262 9.59711 1.36885 8.1344 2.82213 7.10449C4.25615 6.0885 5.83607 5.72047 7.55533 6.24506C8.12131 6.41801 8.66967 6.65121 9.22008 6.87047C9.83279 7.11473 10.4373 7.12867 11.052 6.87744C11.5254 6.68399 12.0041 6.50367 12.4848 6.3299C14.1742 5.71883 15.823 5.82785 17.4193 6.64342C18.2111 7.04793 18.8451 7.64014 19.3586 8.38154C19.2648 8.44711 19.1799 8.50326 19.0979 8.5635C17.5979 9.66391 16.7443 11.111 16.7094 13.0012C16.6598 15.675 18.4086 17.3504 20.0004 18.0328V18.1147C19.9811 18.1569 19.9574 18.1979 19.9426 18.2422C19.5561 19.3934 19.0299 20.477 18.3447 21.4795C17.7939 22.2856 17.2365 23.0881 16.4914 23.7369C15.7557 24.3774 14.9193 24.6676 13.9389 24.516C13.391 24.4311 12.8955 24.2069 12.3947 23.9914C11.2041 23.4791 9.99877 23.4467 8.78525 23.893C8.10328 24.1438 7.45082 24.4799 6.72131 24.5901H6.10656C5.04098 24.402 4.31598 23.711 3.66762 22.9188C3.31393 22.4865 2.97869 22.0373 2.65656 21.5807C1.32295 19.6922 0.534016 17.584 0.165164 15.3115C0.0954918 14.8824 0.0540984 14.4483 0 14.0164Z" fill="black"/>
<path d="M14.877 0C15.1671 2.45369 13.3839 5.01066 10.9753 5.57992C10.7134 5.6418 10.4352 5.63361 10.1651 5.66352C9.96919 5.68525 9.92534 5.57951 9.91509 5.41025C9.87697 4.77828 9.98763 4.17008 10.2233 3.58893C10.9893 1.70123 12.3704 0.52623 14.3536 0.0594262C14.4458 0.0381148 14.5385 0.0196721 14.6311 0C14.713 0 14.795 0 14.877 0Z" fill="black"/>
</g>
<defs>
<clipPath id="clip0_3817_4902">
<rect width="20" height="24.5902" fill="white"/>
</clipPath>
</defs>
</svg>
