<svg width="156" height="28" viewBox="0 0 156 28" fill="none" xmlns="http://www.w3.org/2000/svg">
<path d="M47.0085 9.71826H49.8174L53.068 16.865L56.2903 9.71826H59.0709V18.9304H57.2372L57.3149 11.3173H57.2902L53.8594 18.9304H52.1953L48.7893 11.3173H48.7646L48.8423 18.9304H47.0085V9.71826V9.71826Z" fill="white"/>
<path d="M64.8726 9.71826H72.9318V11.163H66.8229V13.4845H72.6845V14.9292H66.8229V17.4821H73.0378V18.9269H64.8726V9.71475V9.71826Z" fill="white"/>
<path d="M80.9415 11.163H77.4578V9.71826H86.3756V11.163H82.8918V18.9304H80.9415V11.163Z" fill="white"/>
<path d="M93.8131 9.71826H96.1273L100.261 18.9304H98.0883L97.1131 16.6475H92.746L91.785 18.9304H89.6792L93.8131 9.71826V9.71826ZM96.5301 15.2028L94.9437 11.3208L93.3325 15.2028H96.5301Z" fill="white"/>
<path d="M104.996 9.71826H111.133C113.253 9.71826 113.797 10.8404 113.797 12.0152C113.797 13.3302 113.03 13.7054 112.535 13.9368C113.249 14.1578 114.224 14.6733 114.224 16.2197C114.224 17.2507 113.574 18.9304 111.066 18.9304H104.996V9.71826V9.71826ZM106.946 13.4599H110.585C111.133 13.4599 111.847 13.3302 111.847 12.2852C111.847 11.5242 111.38 11.163 110.246 11.163H106.942V13.4599H106.946ZM106.946 17.4856H110.444C111.313 17.4856 112.2 17.3173 112.2 16.1321C112.2 15.2799 111.603 14.8276 110.73 14.8276H106.946V17.4856Z" fill="white"/>
<path d="M122.796 9.71826H125.11L129.244 18.9304H127.071L126.096 16.6475H121.729L120.768 18.9304H118.662L122.796 9.71826V9.71826ZM125.513 15.2028L123.927 11.3208L122.315 15.2028H125.513Z" fill="white"/>
<path d="M137.575 9.46228C139.006 9.46228 141.865 9.72178 142.112 12.3904H140.006C139.943 11.682 139.293 10.907 137.667 10.907C136.367 10.907 135.508 11.3068 135.508 12.173C135.508 14.3401 142.423 12.2641 142.423 16.1987C142.423 18.5727 139.939 19.1934 137.964 19.1934C134.625 19.1934 133.283 17.8889 133.258 15.9567H135.364C135.417 17.1701 136.431 17.7487 138.028 17.7487C139.211 17.7487 140.317 17.4015 140.317 16.3951C140.317 14.1122 133.48 16.097 133.48 12.3168C133.48 10.2653 135.314 9.46579 137.575 9.46579V9.46228Z" fill="white"/>
<path d="M147.511 9.71826H155.57V11.163H149.461V13.4845H155.323V14.9292H149.461V17.4821H155.676V18.9269H147.511V9.71475V9.71826Z" fill="white"/>
<path d="M23.4561 16.1742C23.3113 17.0298 23.0003 17.8013 22.5304 18.4711C22.1806 18.969 21.7461 19.4109 21.2302 19.7826C21.0606 19.9088 20.8769 20.0245 20.6861 20.1332L20.3151 20.3472L19.8628 20.6066H19.8593L17.2412 19.1058L18.0291 18.6534L18.5167 18.3729L19.3753 17.8819C19.7886 17.647 20.1243 17.3454 20.3787 16.9842C20.626 16.623 20.7956 16.2092 20.8733 15.7428C20.9511 15.2694 20.9334 14.8206 20.8133 14.4068C20.6967 13.986 20.4776 13.5897 20.1632 13.232L17.9302 10.6756L17.3437 10.0023L17.2412 9.88309L15.5099 7.89829L15.4781 7.85972L15.3297 7.69139L11.9131 3.77439C11.5598 3.37462 11.1287 3.08707 10.6588 2.93628C10.1854 2.78549 9.65892 2.77146 9.13954 2.8942C8.62369 3.01693 8.16437 3.26942 7.81105 3.61658C7.45773 3.96024 7.20687 4.41612 7.07614 4.93511L2.81862 22.0128C2.70909 22.5318 2.74089 23.0508 2.91048 23.5242C3.07301 23.9731 3.3592 24.3799 3.73726 24.6955C3.78319 24.7341 3.83265 24.7691 3.87858 24.8077C4.33084 25.1443 4.85375 25.3442 5.3908 25.3758C5.92785 25.4074 6.47196 25.2741 6.96308 24.9936L12.7328 21.6867L13.3441 21.336L14.6196 20.6066L17.2377 22.1075L16.0116 22.8089L15.8668 22.893L8.17851 27.294C7.35527 27.7463 6.45076 27.9813 5.5392 27.9813C5.4332 27.9813 5.33074 27.9778 5.22827 27.9708C4.17891 27.9076 3.16488 27.5289 2.29924 26.8837L2.27804 26.8697C2.27804 26.8697 2.24624 26.8451 2.22857 26.8311C1.39474 26.1894 0.77289 25.3477 0.430168 24.3974C0.083913 23.4331 0.0309146 22.3775 0.274706 21.3501L0.285306 21.301L4.52163 4.30741C4.76542 3.33254 5.26007 2.45235 5.95258 1.76854C6.64509 1.08473 7.53546 0.600802 8.52123 0.365852C9.49993 0.130902 10.5069 0.162462 11.4361 0.457027C12.3618 0.748085 13.1992 1.30215 13.8599 2.04908L13.8776 2.06661L16.8949 5.52424L17.0787 5.73464L17.2306 5.90647L18.9619 7.89128L19.2092 8.17883L19.665 8.69782L22.1312 11.5207C22.7 12.1765 23.1028 12.9059 23.3254 13.6914C23.548 14.4804 23.5869 15.3115 23.442 16.1601L23.4561 16.1742Z" fill="url(#paint0_linear_106_281)"/>
<path d="M34.0452 24.4009C33.7661 25.1759 33.3174 25.8632 32.7061 26.4453C32.5471 26.5961 32.3705 26.7434 32.1797 26.8907C31.3105 27.5359 30.3 27.9147 29.2471 27.9778C28.2331 28.0374 27.2155 27.8024 26.2969 27.2975L26.2086 27.2484L18.8559 23.0368L18.0928 22.5985L17.2413 22.111L14.6231 20.6102L14.5631 20.5751L13.7964 20.1368C13.6374 20.0456 13.4855 19.9474 13.3371 19.8457C12.7859 19.4635 12.3195 19.0006 11.952 18.4746C11.4857 17.8048 11.1712 17.0333 11.0263 16.1777C10.8815 15.329 10.9203 14.4979 11.1429 13.7089C11.3655 12.9234 11.7683 12.194 12.3372 11.5383L14.7751 8.74342L15.5065 7.90531L17.2377 9.89012L16.7678 10.4301L16.4463 10.7984L14.3158 13.239C14.0013 13.5967 13.7822 13.993 13.6656 14.4103C13.5491 14.8241 13.5279 15.2729 13.6091 15.7463C13.6868 16.2092 13.8529 16.6265 14.1073 16.9877C14.3582 17.3454 14.6973 17.647 15.1072 17.8819L15.5029 18.1099L16.8349 18.8743L17.2413 19.1093L19.8594 20.6102L20.4777 20.9643H20.4848L21.3893 21.4798L27.5229 24.9971C28.0211 25.2811 28.5546 25.4109 29.0952 25.3793C29.6322 25.3477 30.1552 25.1479 30.6109 24.8112C30.7099 24.7376 30.7911 24.6674 30.8689 24.5973C31.1939 24.2922 31.4306 23.931 31.579 23.5278C31.7486 23.0508 31.7804 22.5213 31.6674 21.9988L31.6497 21.9287L27.4134 4.93512C27.2862 4.41963 27.0318 3.96376 26.6785 3.6201C26.3216 3.27293 25.8623 3.02395 25.3465 2.89771C24.8271 2.77498 24.3042 2.78901 23.8307 2.93979C23.3608 3.08708 22.9262 3.37813 22.5764 3.7779L22.5658 3.78842L19.6898 7.08474L19.5591 7.23553L18.9761 7.90531L17.2448 5.92051L17.7748 5.31735L17.9126 5.15955L20.6155 2.05961C21.2691 1.31267 22.1136 0.76212 23.0428 0.467556C23.972 0.172991 24.9825 0.14143 25.9577 0.376381C26.9435 0.611331 27.8303 1.09526 28.5263 1.77907C29.2189 2.46288 29.717 3.34307 29.9573 4.31794L34.2042 21.3606C34.448 22.3881 34.395 23.4401 34.0488 24.4044L34.0452 24.4009Z" fill="url(#paint1_linear_106_281)"/>
<defs>
<linearGradient id="paint0_linear_106_281" x1="0.129845" y1="14.1017" x2="23.5409" y2="14.1017" gradientUnits="userSpaceOnUse">
<stop stop-color="#D329F8"/>
<stop offset="1" stop-color="#09FDF8"/>
</linearGradient>
<linearGradient id="paint1_linear_106_281" x1="10.9415" y1="14.1017" x2="34.3491" y2="14.1017" gradientUnits="userSpaceOnUse">
<stop stop-color="#D329F8"/>
<stop offset="1" stop-color="#09FDF8"/>
</linearGradient>
</defs>
</svg>
