<svg width="123" height="22" viewBox="0 0 123 22" fill="none" xmlns="http://www.w3.org/2000/svg">
<g clip-path="url(#clip0_2504_2838)">
<path d="M50.6982 0.230165H43.9516L40.8973 9.46002H30.1196L32.4842 14.214H35.3815C34.5766 16.108 32.915 17.0541 30.3984 17.0541C28.4379 17.0541 26.9166 16.4778 25.8328 15.3251C24.749 14.1724 24.208 12.7632 24.208 11.0958C24.208 9.36674 24.754 7.94753 25.8479 6.83481C26.9417 5.72377 28.3444 5.16741 30.0561 5.16741C31.1082 5.16741 32.0517 5.37396 32.8883 5.7854C33.7233 6.19684 34.3579 6.74153 34.792 7.42115L39.4963 4.73599C38.5477 3.23349 37.2318 2.02916 35.5502 1.12467C33.8686 0.218504 32.0166 -0.23291 29.9943 -0.23291C26.7964 -0.23291 24.1145 0.858148 21.9469 3.0386C20.8748 4.118 20.0682 5.32066 19.5271 6.64159C19.5305 6.55331 19.5338 6.46335 19.5338 6.37174C19.5338 4.4778 18.8842 2.98196 17.5833 1.87924C16.2841 0.778191 14.5507 0.2285 12.3831 0.2285H5.90378H3.84141H-0.226562L2.13807 5.45225H3.84141V21.8381H12.971C15.1786 21.8381 16.9421 21.2618 18.263 20.1091C19.2917 19.2112 19.9179 18.0819 20.145 16.721C20.6293 17.5572 21.2321 18.3367 21.9602 19.0597C24.1362 21.2201 26.9166 22.3012 30.3016 22.3012C33.1588 22.3012 35.5352 21.5033 37.4339 19.9125L36.7976 21.8381H42.8011L43.7295 18.7199H50.9403L51.8688 21.8381H57.8422L50.6982 0.230165ZM9.3856 5.17074H12.2328C12.7489 5.17074 13.1714 5.32566 13.502 5.63382C13.831 5.94198 13.9963 6.35508 13.9963 6.86813C13.9963 7.40283 13.826 7.82093 13.4853 8.1191C13.1446 8.41727 12.7271 8.56718 12.2312 8.56718H9.38393V5.17074H9.3856ZM14.1833 16.3912C13.8326 16.731 13.3784 16.9009 12.8223 16.9009H9.38727V13.2579H12.8223C13.3801 13.2579 13.8326 13.4228 14.1833 13.7526C14.534 14.0824 14.7094 14.5239 14.7094 15.0802C14.7094 15.6149 14.534 16.0513 14.1833 16.3912ZM17.5249 10.6643C18.0793 10.2313 18.5168 9.73153 18.8425 9.16685C18.7506 9.77817 18.7005 10.4112 18.7005 11.0658C18.7005 11.234 18.7055 11.3989 18.7105 11.5655C18.3715 11.2324 17.9774 10.9309 17.5249 10.6643ZM45.159 13.9675L47.3249 6.61994L49.5226 13.9675H45.159Z" fill="white" fill-opacity="0.5"/>
<path d="M78.4424 4.80975H76.3332V0.208984H74.7668V6.32058H78.4424V4.80975Z" fill="white" fill-opacity="0.5"/>
<path d="M81.682 6.45221C82.5804 6.45221 83.3402 6.14572 83.9615 5.53106C84.5827 4.9164 84.8933 4.16183 84.8933 3.26566C84.8933 2.36949 84.5827 1.61491 83.9615 1.00025C83.3402 0.385597 82.5804 0.0791016 81.682 0.0791016C80.7836 0.0791016 80.0237 0.385597 79.4025 1.00025C78.7813 1.61491 78.4707 2.36949 78.4707 3.26566C78.4707 4.16183 78.7813 4.9164 79.4025 5.53106C80.0221 6.14405 80.7819 6.45221 81.682 6.45221ZM80.4997 2.07299C80.8153 1.7615 81.2094 1.60658 81.682 1.60658C82.1546 1.60658 82.5487 1.76316 82.8643 2.07299C83.1799 2.38448 83.3369 2.78093 83.3369 3.26399C83.3369 3.74706 83.1799 4.14517 82.8643 4.455C82.5487 4.76649 82.1546 4.9214 81.682 4.9214C81.2094 4.9214 80.8153 4.76649 80.4997 4.455C80.1841 4.1435 80.0271 3.74706 80.0271 3.26399C80.0271 2.78259 80.1841 2.38448 80.4997 2.07299Z" fill="white" fill-opacity="0.5"/>
<path d="M88.5789 6.45201C89.1383 6.45201 89.6543 6.32209 90.1236 6.0639C90.5928 5.80571 90.9619 5.45091 91.2307 5.00282L89.8747 4.21659C89.7578 4.43814 89.5842 4.61138 89.3537 4.73631C89.1233 4.86124 88.8644 4.92453 88.5789 4.92453C88.0879 4.92453 87.6938 4.77128 87.3932 4.46645C87.0926 4.16162 86.9423 3.76018 86.9423 3.26546C86.9423 2.77073 87.0926 2.37096 87.3932 2.06446C87.6938 1.75963 88.0896 1.60638 88.5789 1.60638C88.8644 1.60638 89.1233 1.66968 89.3537 1.79461C89.5842 1.91954 89.7578 2.08945 89.8747 2.30599L91.2307 1.52976C90.9619 1.08834 90.5911 0.735202 90.1185 0.473681C89.646 0.21216 89.1316 0.0805664 88.5789 0.0805664C87.6571 0.0805664 86.8939 0.385398 86.2894 0.993393C85.6849 1.60139 85.3843 2.3593 85.3843 3.26712C85.3843 4.17495 85.6865 4.93286 86.2894 5.54086C86.8939 6.14719 87.6554 6.45201 88.5789 6.45201Z" fill="white" fill-opacity="0.5"/>
<path d="M93.3567 3.5871L95.1168 6.32058H96.8669L94.8362 3.17733L96.7801 0.208984H95.0283L93.3567 2.77589V0.208984H91.7903V6.32058H93.3567V3.5871Z" fill="white" fill-opacity="0.5"/>
<path d="M101.335 6.06243C101.805 5.80424 102.174 5.44944 102.443 5.00136L101.087 4.21513C100.97 4.43667 100.796 4.60991 100.566 4.73484C100.335 4.85977 100.076 4.92307 99.7908 4.92307C99.2998 4.92307 98.9057 4.76982 98.6051 4.46499C98.3045 4.16016 98.1542 3.75872 98.1542 3.26399C98.1542 2.76927 98.3045 2.36949 98.6051 2.063C98.9057 1.75817 99.3015 1.60492 99.7908 1.60492C100.076 1.60492 100.335 1.66822 100.566 1.79315C100.796 1.91808 100.97 2.08798 101.087 2.30453L102.443 1.52829C102.174 1.08687 101.803 0.733737 101.33 0.472216C100.858 0.210695 100.344 0.0791016 99.7908 0.0791016C98.869 0.0791016 98.1058 0.383931 97.5013 0.991925C96.8968 1.59992 96.5962 2.35783 96.5962 3.26566C96.5962 4.17349 96.8984 4.9314 97.5013 5.53939C98.1058 6.14738 98.8673 6.45221 99.7908 6.45221C100.35 6.45221 100.865 6.32229 101.335 6.06243Z" fill="white" fill-opacity="0.5"/>
<path d="M104.569 3.97188H106.294V6.32058H107.852V0.208984H106.294V2.47106H104.569V0.208984H103.002V6.32058H104.569V3.97188Z" fill="white" fill-opacity="0.5"/>
<path d="M110.32 0.208984L108.298 6.32058H109.996L110.258 5.4394H112.297L112.559 6.32058H114.249L112.227 0.208984H110.32ZM110.661 4.09349L111.273 2.01631L111.895 4.09349H110.661Z" fill="white" fill-opacity="0.5"/>
<path d="M116.261 0.208984H114.695V6.32058H116.261V0.208984Z" fill="white" fill-opacity="0.5"/>
<path d="M120.603 0.208984V3.28227L118.441 0.208984H117.225V6.32058H118.792V3.24729L120.954 6.32058H122.161V0.208984H120.603Z" fill="white" fill-opacity="0.5"/>
<path d="M72.4556 7.84473C71.5505 7.84473 70.7923 8.15289 70.1795 8.77088C69.5666 9.3872 69.261 10.1451 69.261 11.0413C69.261 11.9374 69.5682 12.692 70.1845 13.3017C70.8007 13.913 71.5855 14.2178 72.5441 14.2178C73.4425 14.2178 74.1739 13.9397 74.7367 13.3833C75.2995 12.8269 75.5817 12.1007 75.5817 11.2045V10.5849H72.4923L73.202 11.9291H73.9802C73.7531 12.4655 73.2822 12.732 72.5708 12.732C72.0164 12.732 71.5855 12.5688 71.2799 12.2439C70.9743 11.9175 70.8207 11.5193 70.8207 11.0479C70.8207 10.5599 70.976 10.1568 71.285 9.84361C71.5939 9.52879 71.9913 9.37221 72.4756 9.37221C72.7729 9.37221 73.0401 9.43051 73.2772 9.54711C73.5143 9.66371 73.693 9.81696 73.8149 10.0102L75.1458 9.25061C74.877 8.82585 74.5063 8.48604 74.0303 8.22951C73.5511 7.97132 73.0284 7.84473 72.4556 7.84473Z" fill="white" fill-opacity="0.5"/>
<path d="M81.5151 14.0862L79.4928 7.97461H77.5841L75.5618 14.0862H77.2601L77.5223 13.205H79.5613L79.8235 14.0862H81.5151ZM77.9264 11.8591L78.5393 9.78193L79.1605 11.8591H77.9264Z" fill="white" fill-opacity="0.5"/>
<path d="M85.1655 13.2483L86.6535 10.7947V14.0862H88.2115V7.97461H86.6535L85.0854 10.5848L83.5273 7.97461H81.9609V14.0862H83.5273V10.803L85.0069 13.2483H85.1655Z" fill="white" fill-opacity="0.5"/>
<path d="M93.0779 9.43213V7.97461H89.1819V14.0862H93.1213V12.6187H90.7483V11.7209H92.8591V10.28H90.7483V9.43213H93.0779Z" fill="white" fill-opacity="0.5"/>
<path d="M70.9945 15.7402L68.9722 21.8518H70.6705L70.9327 20.9706H72.9717L73.2338 21.8518H74.9238L72.9015 15.7402H70.9945ZM71.3368 19.6264L71.9497 17.5492L72.5709 19.6264H71.3368Z" fill="white" fill-opacity="0.5"/>
<path d="M76.9377 15.7402H75.3713V21.8518H79.0469V20.341H76.9377V15.7402Z" fill="white" fill-opacity="0.5"/>
<path d="M81.1829 15.7402H79.6165V21.8518H83.292V20.341H81.1829V15.7402Z" fill="white" fill-opacity="0.5"/>
<path d="M85.426 15.7402H83.8596V21.8518H85.426V15.7402Z" fill="white" fill-opacity="0.5"/>
<path d="M87.8858 15.7402L85.8635 21.8518H87.5618L87.824 20.9706H89.863L90.1252 21.8518H91.8152L89.7929 15.7402H87.8858ZM88.2282 19.6264L88.841 17.5492L89.4622 19.6264H88.2282Z" fill="white" fill-opacity="0.5"/>
<path d="M95.641 18.8135L93.4784 15.7402H92.2627V21.8518H93.8291V18.7785L95.9917 21.8518H97.199V15.7402H95.641V18.8135Z" fill="white" fill-opacity="0.5"/>
<path d="M101.128 17.1381C101.414 17.1381 101.673 17.2014 101.903 17.3264C102.134 17.4513 102.307 17.6212 102.424 17.8377L103.78 17.0615C103.511 16.6184 103.141 16.2669 102.668 16.0054C102.196 15.7439 101.681 15.6123 101.128 15.6123C100.207 15.6123 99.4435 15.9171 98.8389 16.5251C98.2344 17.1331 97.9338 17.891 97.9338 18.7989C97.9338 19.7067 98.2361 20.4646 98.8389 21.0726C99.4435 21.6806 100.205 21.9854 101.128 21.9854C101.688 21.9854 102.204 21.8555 102.673 21.5973C103.142 21.3391 103.511 20.9843 103.78 20.5362L102.424 19.75C102.307 19.9715 102.134 20.1448 101.903 20.2697C101.673 20.3946 101.414 20.4579 101.128 20.4579C100.637 20.4579 100.243 20.3047 99.9428 19.9999C99.6422 19.695 99.4919 19.2936 99.4919 18.7989C99.4919 18.3041 99.6422 17.9044 99.9428 17.5979C100.243 17.2914 100.639 17.1381 101.128 17.1381Z" fill="white" fill-opacity="0.5"/>
<path d="M105.908 19.4865H108.017V18.0456H105.908V17.1978H108.236V15.7402H104.342V21.8518H108.279V20.386H105.908V19.4865Z" fill="white" fill-opacity="0.5"/>
<path d="M69.4982 1.69835V6.32078H72.08C72.7045 6.32078 73.2038 6.15753 73.5762 5.83105C73.9503 5.50456 74.1356 5.07147 74.1356 4.53011C74.1356 3.91878 73.8785 3.46237 73.3658 3.15921C73.7449 2.86271 73.9353 2.45793 73.9353 1.94488C73.9353 1.41018 73.7516 0.98542 73.3842 0.673927C73.0168 0.362434 72.5258 0.20752 71.913 0.20752H70.1144H69.4982H68.3677L69.0407 1.69669H69.4982V1.69835ZM71.0646 1.60674H71.8695C72.0148 1.60674 72.1351 1.65005 72.2286 1.73833C72.3221 1.82495 72.3689 1.94155 72.3689 2.08814C72.3689 2.23972 72.3204 2.35799 72.2252 2.44127C72.1284 2.52623 72.0115 2.56787 71.8712 2.56787H71.0663V1.60674H71.0646ZM71.0646 3.8938H72.0365C72.1935 3.8938 72.3221 3.94044 72.4223 4.03372C72.5208 4.127 72.5709 4.25193 72.5709 4.40851C72.5709 4.56009 72.5208 4.68336 72.4223 4.77997C72.3238 4.87658 72.1952 4.92322 72.0365 4.92322H71.0646V3.8938Z" fill="white" fill-opacity="0.5"/>
</g>
<defs>
<clipPath id="clip0_2504_2838">
<rect width="122.375" height="22" fill="white"/>
</clipPath>
</defs>
</svg>
