<svg width="231" height="128" viewBox="0 0 231 128" fill="none" xmlns="http://www.w3.org/2000/svg">
<g clip-path="url(#clip0_4118_7744)">
<path d="M106.538 78.9571C98.6922 78.9571 90.8484 78.9744 83.0024 78.9506C77.4754 78.9354 73.0925 75.2863 72.103 69.9124C71.981 69.2428 71.9635 68.5473 71.9635 67.8647C71.957 52.9868 71.957 38.1067 71.9592 23.2287C71.9592 21.1442 72.9922 19.974 74.7641 20.0174C76.1524 20.0499 77.2509 21.0271 77.4143 22.4075C77.4601 22.7997 77.4427 23.2005 77.4427 23.5971C77.4427 38.2237 77.4427 52.8481 77.4427 67.4747C77.4427 71.3101 79.657 73.503 83.5298 73.503C91.5938 73.503 99.6577 73.5073 107.719 73.503C113.229 73.5008 117.904 69.3859 118.447 64.077C119.022 58.443 115.417 53.5198 109.873 52.3887C109.341 52.2803 108.794 52.211 108.251 52.2088C103.276 52.1958 98.2977 52.1655 93.3221 52.2153C90.9247 52.2392 89.2945 53.7387 89.1789 55.8146C89.0416 58.2675 90.7634 60.0509 93.3286 60.0639C96.7787 60.0834 100.229 60.066 103.681 60.0704C104.152 60.0704 104.627 60.0704 105.095 60.1115C106.503 60.2372 107.508 61.299 107.552 62.6793C107.597 64.0986 106.621 65.4529 105.215 65.4638C100.608 65.5028 95.9723 65.6978 91.3976 65.2753C86.69 64.8397 83.5037 60.5297 83.6541 55.6759C83.7914 51.1991 87.3373 47.3745 91.8662 46.8349C92.5484 46.7548 93.2414 46.7114 93.928 46.7114C98.5418 46.7006 103.154 46.7114 107.767 46.7049C113.698 46.6941 118.512 41.9659 118.519 36.1629C118.525 30.2733 113.711 25.4758 107.785 25.4715C102.918 25.4671 98.0515 25.4585 93.1826 25.478C91.5131 25.4845 90.2164 26.2385 89.5189 27.7554C88.8499 29.2137 89.022 30.6503 90.0812 31.9093C90.8135 32.7804 91.7594 33.2658 92.9276 33.2723C96.8135 33.2961 100.697 33.3135 104.583 33.3481C106.453 33.3655 107.619 34.4988 107.552 36.1868C107.495 37.5779 106.486 38.7242 105.089 38.7394C100.767 38.7806 96.4365 38.9192 92.1256 38.6939C87.2719 38.4404 83.423 34.0004 83.593 29.2592C83.7761 24.1085 87.7253 20.1387 92.8404 20.0304C95.5996 19.9719 98.3609 20.0195 101.122 20.0195C110.638 20.0195 120.153 20.0195 129.669 20.0195C145.762 20.0195 158.768 33.1054 158.965 49.1037C159.135 62.987 149.584 75.139 136.109 78.1683C134.071 78.6255 131.946 78.8682 129.856 78.8899C122.084 78.9722 114.31 78.9224 106.538 78.9224C106.538 78.9332 106.538 78.9462 106.538 78.9571ZM120.129 25.4715C120.949 26.8084 121.751 27.9309 122.35 29.1508C122.945 30.3621 123.335 31.6731 123.834 32.9949C125.894 32.9949 127.964 32.9213 130.028 33.0079C137.556 33.3221 144.343 39.7405 145.201 47.2986C146.134 55.5069 141.17 63.065 133.428 65.3251C130.543 66.168 127.605 65.9578 124.673 65.9838C124.089 65.9882 123.664 66.0012 123.496 66.7357C122.967 69.0565 121.868 71.1172 120.399 72.9894C120.308 73.1064 120.28 73.2755 120.19 73.503C123.061 73.503 125.82 73.6005 128.57 73.4726C130.841 73.3665 133.162 73.2494 135.35 72.7012C147.592 69.6351 155.205 57.884 153.119 45.4893C151.31 34.7523 142.802 26.6914 131.942 25.6491C128.703 25.3371 125.417 25.5148 122.152 25.4715C121.513 25.4628 120.872 25.4715 120.129 25.4715ZM123.823 60.5384C125.554 60.5384 127.219 60.5991 128.88 60.5276C133.65 60.3174 137.053 58.0075 138.975 53.6802C140.727 49.7364 139.729 44.9497 136.743 41.8229C133.132 38.0416 128.535 38.2367 123.849 38.4794C123.034 43.1014 120.753 46.7894 116.858 49.5371C120.737 52.2934 123.004 55.9402 123.823 60.5406V60.5384Z" fill="white"/>
<path d="M49.5 107.983V93.7873C49.8029 93.7548 50.0754 93.7028 50.35 93.7028C52.9261 93.6963 55.5022 93.6898 58.0783 93.7028C59.9243 93.7115 61.0292 94.8231 61.0619 96.678C61.0728 97.2912 61.1535 97.9218 61.0423 98.5133C60.8832 99.3541 60.5737 100.165 60.2752 101.166C61.5632 102.574 61.2232 104.503 60.7437 106.388C60.5062 107.32 59.6671 107.935 58.7169 107.959C55.6787 108.033 52.6384 107.985 49.5 107.985V107.983ZM52.6144 99.3129C53.9613 99.3129 55.2624 99.3649 56.5548 99.2913C57.237 99.2523 57.9214 98.8644 57.7862 98.08C57.7078 97.6249 57.2021 96.9315 56.8316 96.8925C55.4455 96.7516 54.0376 96.8362 52.6144 96.8362V99.3108V99.3129ZM52.597 104.834C54.0289 104.834 55.3649 104.878 56.6987 104.817C57.3787 104.784 57.9519 104.329 57.7884 103.621C57.6816 103.159 57.176 102.483 56.7924 102.442C55.4085 102.299 54.0027 102.386 52.597 102.386V104.834Z" fill="white"/>
<path d="M66.5519 102.353V107.924H62.9036V93.6985C63.5225 93.6985 64.1241 93.6985 64.7256 93.6985C66.9769 93.6985 69.2261 93.6898 71.4775 93.7006C73.2842 93.7115 74.3783 94.8079 74.3914 96.5935C74.3958 97.2067 74.3565 97.8221 74.4001 98.4332C74.472 99.4364 74.2323 100.29 73.4019 100.867C75.2719 103.01 73.9468 105.532 74.4786 107.909H71.3751C71.3751 106.956 71.3838 105.963 71.3751 104.971C71.3576 103.281 70.4488 102.37 68.7663 102.351C68.0797 102.342 67.3932 102.351 66.5519 102.351V102.353ZM66.5955 99.3238C67.7637 99.3238 68.8491 99.3584 69.9279 99.3129C70.6907 99.2804 71.3663 98.8579 71.277 98.0799C71.2247 97.6292 70.6253 96.951 70.196 96.8903C69.0322 96.7256 67.8269 96.834 66.5955 96.834V99.3259V99.3238Z" fill="white"/>
<path d="M129.834 93.7028C132.877 93.7028 135.815 93.6703 138.752 93.718C140.165 93.7418 141.252 94.912 141.296 96.3161C141.322 97.1807 141.396 98.0626 141.272 98.9099C141.169 99.6076 140.808 100.266 140.511 101.079C142.168 103.01 140.884 105.536 141.374 107.929H138.286C138.286 106.923 138.297 105.926 138.284 104.93C138.264 103.307 137.347 102.381 135.741 102.355C135.021 102.344 134.302 102.355 133.47 102.355V107.942H129.836V93.705L129.834 93.7028ZM133.504 99.3238C134.666 99.3238 135.747 99.3649 136.826 99.3108C137.634 99.2696 138.256 98.8341 138.219 97.9716C138.184 97.1634 137.582 96.8145 136.787 96.8145C135.708 96.8145 134.629 96.8145 133.502 96.8145V99.3259L133.504 99.3238Z" fill="white"/>
<path d="M103.064 93.7028C106.113 93.7028 109.051 93.6703 111.989 93.7158C113.419 93.7396 114.484 94.8989 114.491 96.3226C114.506 99.3541 114.506 102.386 114.491 105.417C114.482 106.8 113.425 107.959 112.074 107.976C109.099 108.017 106.124 107.989 103.066 107.989V93.7006L103.064 93.7028ZM106.148 104.854C107.543 104.854 108.874 104.893 110.202 104.838C110.956 104.808 111.403 104.275 111.422 103.554C111.468 101.753 111.503 99.9456 111.396 98.1514C111.37 97.7094 110.814 96.9726 110.444 96.9336C109.029 96.7906 107.591 96.8751 106.15 96.8751V104.854H106.148Z" fill="white"/>
<path d="M168.088 107.955H164.997V105.213H159.725V107.909H156.563C156.563 105.697 156.563 103.506 156.563 101.313C156.563 99.7247 156.552 98.1385 156.565 96.5502C156.58 94.8253 157.685 93.7159 159.422 93.7029C161.382 93.6877 163.343 93.6834 165.302 93.7029C166.771 93.718 168.035 94.704 168.062 96.0843C168.134 100.009 168.088 103.935 168.088 107.952V107.955ZM159.701 102.054C161.358 102.054 162.87 102.076 164.381 102.028C164.583 102.022 164.934 101.671 164.943 101.469C164.982 100.321 164.967 99.1678 164.912 98.0193C164.875 97.2631 164.411 96.8405 163.644 96.821C162.776 96.7994 161.907 96.7994 161.037 96.821C160.218 96.8405 159.74 97.2956 159.714 98.093C159.673 99.3476 159.703 100.604 159.703 102.054H159.701Z" fill="white"/>
<path d="M181.487 100.912C181.487 102.282 181.511 103.653 181.483 105.023C181.441 106.984 180.395 107.989 178.436 107.994C176.551 107.998 174.665 108.002 172.778 107.994C171.119 107.985 170.032 106.971 169.995 105.337C169.934 102.526 169.895 99.716 169.897 96.9055C169.897 94.7863 171.019 93.705 173.109 93.7007C174.922 93.6985 176.736 93.692 178.549 93.7007C180.312 93.7115 181.415 94.7278 181.474 96.4765C181.524 97.9521 181.485 99.4321 181.485 100.91L181.487 100.912ZM173.116 100.854C173.116 101.718 173.124 102.583 173.114 103.447C173.103 104.334 173.582 104.797 174.421 104.852C175.286 104.906 176.163 104.908 177.028 104.856C177.869 104.806 178.346 104.314 178.351 103.45C178.359 101.72 178.355 99.9912 178.353 98.262C178.353 97.3476 177.889 96.847 176.969 96.821C176.136 96.7972 175.302 96.7993 174.469 96.821C173.543 96.8448 173.096 97.3346 173.114 98.2642C173.129 99.1288 173.118 99.9933 173.118 100.858L173.116 100.854Z" fill="white"/>
<path d="M143.249 107.987V93.7245C146.359 93.7245 149.401 93.6638 152.439 93.7549C153.664 93.7917 154.634 94.9228 154.654 96.1883C154.704 99.2913 154.706 102.399 154.654 105.502C154.632 106.832 153.605 107.944 152.359 107.97C149.351 108.028 146.343 107.989 143.251 107.989L143.249 107.987ZM146.182 100.841C146.182 101.922 146.195 103.003 146.176 104.082C146.167 104.598 146.287 104.899 146.893 104.882C147.978 104.852 149.068 104.901 150.153 104.86C151.04 104.828 151.557 104.371 151.552 103.43C151.546 101.701 151.546 99.9717 151.552 98.2425C151.557 97.3042 151.068 96.8405 150.157 96.821C149.107 96.7972 148.054 96.8492 147.006 96.8015C146.296 96.769 146.152 97.0941 146.171 97.7095C146.204 98.7539 146.18 99.7983 146.18 100.843L146.182 100.841Z" fill="white"/>
<path d="M101.164 104.934V107.911H89.7151V93.7852H101.124V96.6823H92.7641V99.3194H98.483V102.325H92.751V104.936H101.166L101.164 104.934Z" fill="white"/>
<path d="M125.201 99.313V102.338H119.53V104.925H127.923V107.903H116.529V93.7549H127.921V96.6954H119.562V99.3108H125.201V99.313Z" fill="white"/>
<path d="M76.3289 107.935V93.7787H87.7905V96.6888H79.3365V99.2826H85.003V102.334H79.367V104.93H87.7818V107.935H76.331H76.3289Z" fill="white"/>
<path d="M129.924 52.341C128.169 52.3497 126.892 51.1124 126.881 49.394C126.87 47.641 128.213 46.265 129.921 46.278C131.523 46.291 132.96 47.732 132.975 49.3377C132.988 50.9781 131.613 52.3324 129.926 52.341H129.924Z" fill="white"/>
</g>
<defs>
<clipPath id="clip0_4118_7744">
<rect width="132" height="88" fill="white" transform="translate(49.5 20)"/>
</clipPath>
</defs>
</svg>
