<svg width="231" height="128" viewBox="0 0 231 128" fill="none" xmlns="http://www.w3.org/2000/svg">
<g clip-path="url(#clip0_4154_7897)">
<path fill-rule="evenodd" clip-rule="evenodd" d="M47.836 45.2482H47.8451C47.879 45.2485 47.879 45.2485 47.9123 45.2496L47.9622 45.252L48.0644 45.2541L48.0719 45.2555L48.0801 45.2557L48.0882 45.2566L58.0939 45.2135L62.7522 45.1919L63.9876 45.1876L64.7534 45.1833L66.0316 45.172L66.0262 45.9555L66.0176 47.2275L66.0089 48.6308L65.9785 52.6162L65.9091 63.0156C65.9091 63.0653 65.9067 63.1064 65.8997 63.1467L65.896 63.7865L65.8917 64.4833L65.89 64.5297C65.8894 64.5381 65.8892 64.5429 65.8886 64.5552L65.8845 64.662L65.8825 64.6966C65.8604 65.3108 65.8075 65.931 65.7246 66.5646L65.7242 66.5675C65.1802 70.6054 63.3363 74.3654 60.3784 77.3148C53.0162 84.6558 41.0693 84.6572 33.7057 77.3148C26.3416 69.9721 26.3416 58.0761 33.7057 50.7333C36.6548 47.7927 40.4272 45.9552 44.4867 45.4021C45.6104 45.2525 46.7265 45.2003 47.836 45.2482Z" stroke="white"/>
<path d="M62.6738 69.0164C61.9054 71.3684 60.5739 73.5771 58.6966 75.443C52.5234 81.5789 42.6393 81.7785 36.2303 76.0332L41.0021 71.2902C46.5597 76.0679 55.8763 75.0698 62.6738 69.0164ZM42.0673 48.5345C35.9902 55.2692 34.9817 64.4991 39.7404 70.0275L34.9642 74.7748C29.232 68.4002 29.4459 58.6062 35.6016 52.4877C37.4789 50.6217 39.7055 49.3026 42.0673 48.5345ZM63.6998 56.4973C63.6474 56.5841 63.595 56.6708 63.5382 56.7533C63.5295 56.7707 63.5164 56.7837 63.5077 56.801L63.464 63.3969C63.4815 63.7961 63.4771 64.1997 63.464 64.5946C63.4509 64.9461 63.4247 65.2932 63.3854 65.6447C63.0362 66.0526 62.6476 66.4735 62.2547 66.8641C56.0815 73 47.3499 74.1803 42.3118 69.9797L47.6905 64.6336C50.6636 66.5126 56.2037 64.7464 60.635 60.342C60.766 60.2118 60.8969 60.0816 61.0235 59.9471C61.4558 59.4914 61.8661 59.0228 62.2416 58.5541L62.4381 58.3068C62.4424 58.3025 62.4468 58.2981 62.4512 58.2938L62.4879 58.2456L62.5629 58.151C62.5753 58.1351 62.5876 58.1191 62.5996 58.1028C62.927 57.6732 63.2283 57.235 63.5033 56.7967C63.512 56.788 63.5164 56.775 63.5251 56.7663C63.5906 56.6752 63.6474 56.5841 63.6998 56.4973ZM54.6146 47.493L54.6189 47.4974C54.5098 47.5625 54.4007 47.6276 54.2915 47.6977L54.226 47.7404C53.7458 48.0441 53.2656 48.3826 52.7941 48.7471L52.5583 48.9294C52.0824 49.3069 51.6153 49.7105 51.1569 50.1401C51.0216 50.2659 50.8906 50.3961 50.7596 50.5263C46.3371 54.9221 44.5558 60.4157 46.4331 63.3752L41.0545 68.7213C36.8721 63.705 38.077 55.0609 44.2284 48.9467C44.6213 48.5562 45.0448 48.17 45.4552 47.8228C46.1755 47.7491 46.8959 47.7187 47.6162 47.7404C47.7778 47.7447 47.9349 47.7534 48.0921 47.7621L54.2217 47.736C54.226 47.7317 54.2304 47.7274 54.2391 47.7274C54.3657 47.6449 54.4923 47.5712 54.6146 47.493H54.6146ZM63.5819 47.6927V47.7013L63.5732 48.8469L63.547 52.2924C63.5426 52.2967 63.5426 52.3054 63.5382 52.3098C63.5339 52.3315 63.5251 52.3575 63.5208 52.3792C63.3199 53.0909 63.0274 53.8242 62.6476 54.5576C62.342 55.1651 61.9709 55.7769 61.5562 56.3801C61.3553 56.6752 61.1414 56.9659 60.9144 57.2523C60.5389 57.7297 60.1373 58.1983 59.7051 58.6539C59.5785 58.7885 59.4475 58.9186 59.3165 59.0488C57.1948 61.1578 54.7543 62.6462 52.5408 63.2494C50.5937 63.7874 49.105 63.5661 48.3148 62.7807C47.5246 61.9953 47.3063 60.5112 47.8433 58.5628C48.4545 56.3584 49.9519 53.9327 52.0693 51.8281C52.2003 51.6979 52.3313 51.5677 52.4666 51.4419C52.925 51.0123 53.3965 50.6044 53.8768 50.2399C54.1605 50.0186 54.4531 49.8059 54.7412 49.6063C55.348 49.1941 55.9636 48.8252 56.5704 48.5171C57.2253 48.1873 57.8802 47.9183 58.5176 47.7187C58.522 47.7144 58.5263 47.7187 58.5307 47.7144L62.5385 47.697L63.5557 47.6927H63.5819Z" fill="white"/>
<path d="M84.7426 77.4372C86.8268 77.4372 88.6571 77.0553 90.2333 76.2915C91.8095 75.5277 93.034 74.4467 93.9068 73.0486C94.7795 71.6505 95.2159 70.0323 95.2159 68.194C95.2159 68.0904 95.1703 67.9998 95.0791 67.9222C94.9879 67.8445 94.8772 67.8056 94.747 67.8056L89.1977 67.5338C88.885 67.5338 88.7287 67.6762 88.7287 67.961C88.7287 69.152 88.364 70.11 87.6345 70.8349C86.905 71.5599 85.941 71.9224 84.7426 71.9224C83.5442 71.9224 82.5802 71.5599 81.8507 70.8349C81.1212 70.11 80.7565 69.152 80.7565 67.961V59.145C80.7565 57.954 81.1212 56.9896 81.8507 56.2517C82.5802 55.5138 83.5442 55.1448 84.7426 55.1448C85.941 55.1448 86.905 55.5073 87.6345 56.2323C88.364 56.9572 88.7287 57.9281 88.7287 59.145C88.7287 59.4298 88.885 59.5722 89.1977 59.5722L94.747 59.2227C94.8772 59.2227 94.9879 59.1839 95.0791 59.1062C95.1703 59.0285 95.2159 58.925 95.2159 58.7955C95.2159 56.9831 94.7795 55.3843 93.9068 53.9991C93.034 52.614 91.8095 51.5395 90.2333 50.7757C88.6571 50.0119 86.8268 49.63 84.7426 49.63C82.6584 49.63 80.8281 50.0313 79.2519 50.8339C77.6757 51.6366 76.4512 52.7693 75.5784 54.2322C74.7057 55.695 74.2693 57.3844 74.2693 59.3004V67.6891C74.2693 69.631 74.7057 71.3398 75.5784 72.8156C76.4512 74.2914 77.6757 75.4306 79.2519 76.2332C80.8281 77.0359 82.6584 77.4372 84.7426 77.4372ZM107.783 77.4372C109.842 77.4372 111.646 77.1071 113.196 76.4468C114.746 75.7866 115.951 74.8481 116.811 73.6312C117.67 72.4143 118.1 70.9644 118.1 69.2814C118.1 67.5726 117.651 66.1939 116.752 65.1453C115.853 64.0967 114.896 63.3394 113.88 62.8734C112.864 62.4073 111.444 61.8636 109.62 61.2422C108.031 60.7244 106.852 60.3037 106.083 59.98C105.315 59.6564 104.748 59.3069 104.383 58.9314C104.019 58.556 103.836 58.0835 103.836 57.5139C103.836 56.763 104.123 56.1805 104.696 55.7662C105.269 55.352 106.064 55.1448 107.08 55.1448C108.435 55.1448 109.516 55.4944 110.324 56.1934C111.131 56.8925 111.535 57.6951 111.535 58.6013V58.8732C111.535 59.0026 111.581 59.1127 111.672 59.2033C111.763 59.2939 111.874 59.3392 112.004 59.3392H117.436C117.566 59.3392 117.677 59.2939 117.768 59.2033C117.859 59.1127 117.905 59.0026 117.905 58.8732V58.3295C117.905 56.6206 117.449 55.106 116.537 53.7855C115.625 52.4651 114.368 51.4424 112.766 50.7174C111.164 49.9925 109.36 49.63 107.353 49.63C105.452 49.63 103.745 49.9536 102.234 50.6009C100.723 51.2482 99.5441 52.1738 98.6973 53.3778C97.8506 54.5817 97.4273 55.9863 97.4273 57.5916C97.4273 59.2486 97.8702 60.6402 98.756 61.7665C99.6418 62.8928 100.71 63.7731 101.96 64.4074C103.211 65.0418 104.683 65.6308 106.376 66.1745C106.507 66.2263 106.65 66.2716 106.806 66.3104C106.963 66.3493 107.119 66.4075 107.275 66.4852C108.422 66.8736 109.268 67.1778 109.815 67.3979C110.363 67.6179 110.799 67.8898 111.125 68.2134C111.45 68.5371 111.613 68.9578 111.613 69.4756C111.613 70.1229 111.34 70.6925 110.792 71.1845C110.245 71.6764 109.399 71.9224 108.252 71.9224C106.793 71.9224 105.634 71.6052 104.774 70.9708C103.914 70.3365 103.485 69.5921 103.485 68.7377V68.2717C103.485 68.1422 103.439 68.0322 103.348 67.9416C103.257 67.851 103.146 67.8056 103.016 67.8056H97.5836C97.4533 67.8056 97.3426 67.851 97.2514 67.9416C97.1602 68.0322 97.1146 68.1422 97.1146 68.2717V69.0096C97.1146 70.6925 97.551 72.1748 98.4238 73.4564C99.2966 74.738 100.534 75.7219 102.136 76.408C103.739 77.0941 105.621 77.4372 107.783 77.4372ZM126.525 77.1265C126.656 77.1265 126.766 77.0812 126.857 76.9906C126.949 76.8999 126.994 76.7899 126.994 76.6604V67.3008C126.994 67.1713 127.059 67.1066 127.19 67.1066H131.957C133.807 67.1066 135.435 66.7571 136.842 66.058C138.249 65.3589 139.337 64.3621 140.105 63.0676C140.874 61.773 141.258 60.2842 141.258 58.6013C141.258 56.8925 140.887 55.3843 140.145 54.0768C139.402 52.7693 138.347 51.7531 136.979 51.0281C135.611 50.3032 134.042 49.9407 132.27 49.9407H120.976C120.846 49.9407 120.735 49.986 120.644 50.0766C120.553 50.1672 120.507 50.2773 120.507 50.4067V76.6604C120.507 76.7899 120.553 76.8999 120.644 76.9906C120.735 77.0812 120.846 77.1265 120.976 77.1265H126.525ZM131.215 61.9801H127.19C127.059 61.9801 126.994 61.9154 126.994 61.7859V55.6497C126.994 55.5203 127.059 55.4555 127.19 55.4555H131.215C132.283 55.4555 133.149 55.7598 133.814 56.3682C134.478 56.9766 134.81 57.7728 134.81 58.7567C134.81 59.7146 134.478 60.4914 133.814 61.0869C133.149 61.6824 132.283 61.9801 131.215 61.9801Z" fill="white"/>
<path d="M194.901 49.5718C197.533 49.5718 199.624 50.3042 201.174 51.7691C202.725 53.234 203.5 55.1851 203.5 57.6222C203.5 58.2445 203.474 58.7241 203.422 59.0612L202.327 67.9283L202.301 68.1303C202.049 69.9402 201.445 71.5452 200.49 72.9453C199.5 74.3972 198.223 75.5186 196.66 76.3094C195.097 77.1002 193.364 77.4955 191.462 77.4955C188.856 77.4955 186.784 76.7631 185.247 75.2982C183.71 73.8333 182.941 71.8693 182.941 69.4062C182.941 68.758 182.967 68.2654 183.019 67.9283L184.114 59.0612L184.14 58.862C184.392 57.0766 184.989 55.4902 185.931 54.1026C186.908 52.6636 188.172 51.5487 189.722 50.758C191.273 49.9672 192.999 49.5718 194.901 49.5718ZM150.884 49.8829L151.064 49.884C153.455 49.913 155.363 50.5219 156.786 51.7108C158.245 52.9294 158.975 54.5887 158.975 56.6888C158.975 56.9481 158.949 57.337 158.897 57.8556L157.529 69.134L157.507 69.2957C157.168 71.657 156.107 73.5412 154.324 74.9482C152.5 76.3871 150.233 77.1066 147.523 77.1066H138.26L138.212 77.1045C138.104 77.0946 138.015 77.0499 137.947 76.9705C137.869 76.8798 137.843 76.7696 137.869 76.6399L139.074 66.8705C140.157 66.1009 141.038 65.1432 141.717 63.9973C142.669 62.3922 143.145 60.5465 143.145 58.4599C143.145 56.3413 142.685 54.4714 141.766 52.8504C141.522 52.4212 141.252 52.0174 140.954 51.6389L141.113 50.3496L141.126 50.2952C141.156 50.1889 141.211 50.0968 141.289 50.019C141.38 49.9283 141.491 49.8829 141.621 49.8829H150.884ZM174.515 49.8829L174.56 49.8846C174.768 49.9008 174.896 50.0298 174.945 50.2718L179.987 76.5622V76.6788L179.985 76.7277C179.968 76.9803 179.812 77.1066 179.518 77.1066H175.726L175.681 77.1049C175.473 77.0888 175.345 76.9597 175.296 76.7177L174.554 72.5564L174.551 72.5357C174.547 72.5138 174.534 72.4883 174.515 72.4592C174.489 72.4203 174.45 72.4008 174.398 72.4008H164.392L164.371 72.4032C164.32 72.4146 164.248 72.4656 164.157 72.5564L162.398 76.7177L162.381 76.7678C162.295 76.9937 162.119 77.1066 161.851 77.1066H158.06L158.009 77.1047C157.879 77.0945 157.785 77.0433 157.728 76.9511C157.662 76.8474 157.669 76.7177 157.747 76.5622L169.238 50.2718L169.267 50.2182C169.395 49.9947 169.568 49.8829 169.785 49.8829H174.515ZM194.432 53.4609C192.843 53.4609 191.514 53.9665 190.445 54.9776C189.377 55.9888 188.739 57.337 188.53 59.0223L187.397 68.0839L187.384 68.1855C187.341 68.5499 187.319 68.8272 187.319 69.0173C187.319 70.4174 187.736 71.5323 188.569 72.3619C189.403 73.1916 190.524 73.6064 191.931 73.6064C193.52 73.6064 194.862 73.1073 195.957 72.1091C197.051 71.1109 197.702 69.7692 197.911 68.0839L199.005 59.0223L199.018 58.9208C199.061 58.5563 199.083 58.279 199.083 58.0889C199.083 56.6888 198.666 55.5675 197.833 54.7248C196.999 53.8822 195.865 53.4609 194.432 53.4609ZM150.532 53.772H145.256L145.225 53.7743C145.186 53.7806 145.15 53.7992 145.119 53.8303C145.08 53.8692 145.061 53.9146 145.061 53.9665L142.715 73.0231L142.705 73.0518C142.672 73.1623 142.727 73.2175 142.872 73.2175H148.187C149.516 73.2175 150.637 72.7832 151.549 71.9147C152.461 71.0461 153.008 69.8859 153.19 68.4339L154.441 58.5945L154.448 58.5428C154.469 58.3628 154.48 58.1078 154.48 57.7778C154.48 56.5333 154.128 55.5545 153.425 54.8415C152.721 54.1285 151.757 53.772 150.532 53.772ZM171.427 55.4443C171.375 55.4443 171.336 55.4962 171.31 55.5999L165.838 68.6284L165.823 68.6605C165.766 68.7947 165.81 68.8617 165.955 68.8617H173.655C173.811 68.8617 173.863 68.784 173.811 68.6284L171.544 55.5999L171.534 55.5634C171.508 55.484 171.473 55.4443 171.427 55.4443Z" fill="white"/>
</g>
<defs>
<clipPath id="clip0_4154_7897">
<rect width="176" height="39" fill="white" transform="translate(27.5 44.5)"/>
</clipPath>
</defs>
</svg>
