<svg width="90" height="80" viewBox="0 0 90 80" fill="none" xmlns="http://www.w3.org/2000/svg">
<path d="M0.00982584 34.9436C0.00982584 32.9503 -0.0201808 30.9569 0.0198281 28.9636C0.0831755 25.6347 2.58706 23.1197 5.93781 23.0267C7.62152 22.9802 9.30856 22.9636 10.9889 23.0367C11.8525 23.0732 12.2025 22.741 12.5193 21.9802C17.1003 11.03 25.1721 3.97686 36.6546 1.06323C53.4484 -3.19922 70.8556 5.71108 77.3803 21.7609C77.7904 22.7676 78.2539 23.1031 79.2974 23.04C80.7978 22.947 82.3114 22.9968 83.8185 23.02C87.4059 23.0732 89.9465 25.5749 89.9765 29.1264C90.0098 33.0666 90.0098 37.0101 89.9765 40.9503C89.9431 44.4021 87.4926 46.8739 84.0352 46.9702C82.3948 47.0167 80.7511 47.04 79.1174 46.9636C78.2139 46.9204 77.8138 47.236 77.4637 48.0632C72.7693 59.1961 64.5275 66.1994 52.7782 69.0433C51.2379 69.4154 49.6409 69.6048 48.0605 69.7709C47.2837 69.8506 46.9569 70.0832 46.9903 70.8905C47.0303 71.8174 47.0169 72.7543 46.9269 73.6779C46.5935 77.1596 43.9429 79.8008 40.4655 79.9104C36.8347 80.0234 33.1939 80.0267 29.5631 79.9104C25.8089 79.7908 22.9349 76.6347 22.9816 72.9204C23.0283 69.1762 25.9389 66.1097 29.6931 66.0466C34.6575 65.9636 39.622 66.0134 44.5864 66.0101C59.8831 65.9968 72.3026 55.8838 75.4166 40.9038C78.9674 23.8041 66.748 6.64131 49.4008 4.36224C32.8471 2.1928 17.9872 12.6313 14.5097 28.9171C13.4661 33.8107 13.6895 38.6845 15.1132 43.4918C15.8867 46.1064 15.2199 46.9868 12.4426 46.9901C10.3588 46.9901 8.275 47.0167 6.1912 46.9835C2.48704 46.9204 0.0465007 44.4686 0.0131599 40.7908C-0.00684453 38.8406 0.00982584 36.8938 0.0131599 34.9436H0.00982584ZM10.8689 42.9669C9.70865 37.5682 9.75199 32.3556 10.8589 27.0267C9.09851 27.0267 7.46815 26.9569 5.84779 27.0499C4.75421 27.1131 4.03405 27.8174 4.02405 28.9569C3.99404 32.9769 3.99404 36.9968 4.02405 41.0167C4.03072 42.143 4.6742 42.8838 5.80778 42.9403C7.43148 43.02 9.06184 42.9602 10.8722 42.9602L10.8689 42.9669ZM79.1207 27.02C80.2643 32.4021 80.2577 37.618 79.1374 42.9436C80.9578 42.9436 82.6782 43.0367 84.3819 42.9104C85.4288 42.834 85.9756 42.02 85.9789 40.9569C85.9923 36.9802 85.9989 33.0034 85.9723 29.03C85.9656 27.8274 85.2388 27.1097 84.0818 27.0433C82.5015 26.9536 80.9111 27.02 79.1207 27.02ZM42.936 70.0466C38.3783 70.0466 33.954 69.9968 29.5297 70.0765C28.0594 70.1031 26.9858 71.5084 26.9925 73.0001C26.9992 74.5616 28.1094 75.8838 29.6798 75.9137C33.2239 75.9835 36.7713 75.9769 40.3155 75.9137C41.7658 75.8872 42.7827 74.8473 42.916 73.3789C43.0094 72.329 42.936 71.2626 42.936 70.0433V70.0466Z" fill="url(#paint0_linear_4141_8909)"/>
<path d="M26.0157 51.2657C23.4018 48.1129 21.6447 44.7408 20.7045 40.9368C17.0871 26.3122 27.3794 11.6976 42.3827 10.1959C57.7861 8.65106 70.749 20.9766 69.9722 36.4285C69.3253 49.279 58.5396 59.774 45.6601 59.9501C37.905 60.0564 30.1466 59.97 22.3916 59.9866C21.428 59.9866 20.6479 59.7474 20.2244 58.8006C19.7743 57.7906 20.1544 57.0132 20.8812 56.3055C22.5616 54.671 24.232 53.0198 26.0157 51.269V51.2657ZM26.8326 55.9102C27.5794 55.9434 28.0028 55.9766 28.4263 55.98C33.8775 55.9833 39.332 55.9932 44.7832 55.9733C45.8868 55.97 47.007 55.9301 48.0906 55.7374C56.8059 54.1992 62.7039 49.2092 65.1311 40.7507C67.5616 32.2756 65.2711 24.7707 58.5396 19.063C51.7648 13.3188 43.9697 12.382 35.9213 16.1295C23.0684 22.1162 20.0044 38.8006 29.6765 49.2723C31.0635 50.774 31.0635 51.7075 29.6465 53.1361C28.7863 54.0032 27.9061 54.8504 26.8292 55.9102H26.8326Z" fill="url(#paint1_linear_4141_8909)"/>
<path d="M36.9915 35.0631C36.9615 36.1462 35.9546 37.0764 34.8844 37.0066C33.8275 36.9402 33.0006 36.0399 33.0206 34.9734C33.0406 33.8472 33.9608 33.0033 35.1044 33.0598C36.1647 33.113 37.0215 34.0199 36.9915 35.0598V35.0631Z" fill="url(#paint2_linear_4141_8909)"/>
<path d="M54.9722 33.0597C56.0557 33.0464 56.9259 33.8637 56.9726 34.9302C57.0193 36.0398 56.1191 36.9999 55.0222 37.0165C53.9419 37.0298 52.9817 36.0631 53.0051 34.98C53.0251 33.9302 53.9053 33.073 54.9755 33.0597H54.9722Z" fill="url(#paint3_linear_4141_8909)"/>
<path d="M45.0032 33.063C46.1001 33.0663 46.927 33.8703 46.957 34.9633C46.987 36.0696 46.0734 37.0198 44.9865 37.0132C43.8963 37.0098 42.9928 36.053 43.0328 34.9467C43.0694 33.857 43.903 33.0597 45.0032 33.063Z" fill="url(#paint4_linear_4141_8909)"/>
<defs>
<linearGradient id="paint0_linear_4141_8909" x1="-0.000976227" y1="39.999" x2="90.0015" y2="39.999" gradientUnits="userSpaceOnUse">
<stop stop-color="#BE3FF8"/>
<stop offset="1" stop-color="#19EDF8"/>
</linearGradient>
<linearGradient id="paint1_linear_4141_8909" x1="19.9773" y1="35.0345" x2="70.0054" y2="35.0345" gradientUnits="userSpaceOnUse">
<stop stop-color="#BE3FF8"/>
<stop offset="1" stop-color="#19EDF8"/>
</linearGradient>
<linearGradient id="paint2_linear_4141_8909" x1="33.0203" y1="35.0337" x2="36.9923" y2="35.0337" gradientUnits="userSpaceOnUse">
<stop stop-color="#BE3FF8"/>
<stop offset="1" stop-color="#19EDF8"/>
</linearGradient>
<linearGradient id="paint3_linear_4141_8909" x1="53.0046" y1="35.0381" x2="56.9743" y2="35.0381" gradientUnits="userSpaceOnUse">
<stop stop-color="#BE3FF8"/>
<stop offset="1" stop-color="#19EDF8"/>
</linearGradient>
<linearGradient id="paint4_linear_4141_8909" x1="43.0315" y1="35.0381" x2="46.9577" y2="35.0381" gradientUnits="userSpaceOnUse">
<stop stop-color="#BE3FF8"/>
<stop offset="1" stop-color="#19EDF8"/>
</linearGradient>
</defs>
</svg>
