<svg width="139" height="139" viewBox="0 0 139 139" fill="none" xmlns="http://www.w3.org/2000/svg">
<circle cx="69.3431" cy="69.3431" r="58.0547" fill="url(#paint0_linear_2434_2344)" fill-opacity="0.2"/>
<circle cx="69.3432" cy="69.3432" r="69.3432" fill="url(#paint1_linear_2434_2344)" fill-opacity="0.2"/>
<circle cx="69.3431" cy="69.3431" r="45.1537" fill="url(#paint2_linear_2434_2344)" fill-opacity="0.8"/>
<path d="M99.0521 76.4267C99.4119 79.4599 99.1462 82.0516 97.5601 84.3736C95.7491 87.0144 92.9121 87.6071 90.2999 85.743C89.2125 84.9663 88.1578 83.9893 87.4425 82.8774C84.5768 78.4134 80.3785 76.3163 75.2768 76.1691C70.4572 76.0301 65.6171 76.1405 60.8056 76.4675C56.8894 76.7333 53.7703 78.72 51.4157 81.9331C50.4223 83.2862 49.2859 84.6229 47.9614 85.6367C45.2552 87.7052 42.1524 87.1288 40.5173 84.1324C39.6384 82.5217 38.9761 80.5473 39.0007 78.7445C39.111 70.9652 40.7258 63.4639 44.6052 56.6411C45.8602 54.4296 47.5117 52.3407 49.3594 50.591C52.5807 47.5414 56.4969 47.2962 60.4704 49.2665C62.4653 50.2558 64.5174 51.286 66.6636 51.7888C69.9544 52.5573 73.1143 51.7397 76.1067 50.1536C82.8231 46.589 87.4179 47.6518 91.8451 53.9063C96.2029 60.0627 98.0588 67.1307 98.9254 74.5094C99.0113 75.2534 99.0194 76.0056 99.0481 76.4267H99.0521ZM53.0549 59.6539C51.3625 60.1281 48.9466 58.9753 48.6768 61.6897C48.317 65.3157 51.5506 63.6928 53.1081 64.4C53.5823 66.0924 52.4254 68.6596 55.2215 68.8681C58.778 69.1338 57.1142 65.8962 57.8296 64.351C59.5138 63.7786 62.2527 65.2339 62.3427 62.1476C62.4408 58.82 59.4484 60.2344 57.8378 59.6499C57.1265 58.0842 58.7698 55.3044 55.5976 55.2145C52.3641 55.1245 53.6436 57.9534 53.0549 59.6499V59.6539ZM80.0515 66.1292C80.121 67.8134 80.9999 68.7046 82.5411 68.8845C83.9228 69.0439 85.3617 67.6703 85.2677 66.2437C85.1614 64.7066 84.2825 63.7173 82.6841 63.7051C81.0858 63.6928 80.2559 64.6535 80.0556 66.1292H80.0515ZM82.5124 55.1613C81.0408 55.3739 80.0801 56.1997 80.0842 57.7939C80.0842 59.4046 81.0898 60.259 82.6187 60.3979C83.9923 60.5206 85.4353 59.0448 85.2677 57.6713C85.0796 56.1547 84.1762 55.2635 82.5124 55.1613ZM89.5355 62.0535C89.3679 60.402 88.4481 59.519 86.9192 59.4046C85.513 59.2983 84.1313 60.7618 84.3029 62.1598C84.491 63.6805 85.3699 64.6208 86.9969 64.5758C88.6402 64.5308 89.3474 63.5007 89.5355 62.0576V62.0535ZM80.9713 62.0781C80.8568 60.308 79.8716 59.4986 78.3591 59.4005C76.9733 59.3106 75.5671 60.8313 75.7756 62.2007C76.0004 63.6887 76.8588 64.6657 78.5104 64.5676C80.1333 64.4736 80.8773 63.5048 80.9713 62.0781Z" fill="white"/>
<path d="M52.6625 59.7357C52.9077 59.6989 53.108 59.5149 53.1571 59.2696C53.4841 57.565 52.5971 55.1327 55.6017 55.2185C58.5572 55.3003 57.335 57.7162 57.7274 59.3146C57.7805 59.5354 57.9604 59.703 58.1811 59.7438C59.8368 60.0668 62.4408 59.0448 62.3467 62.1475C62.2609 65.0295 59.8695 63.9503 58.1771 64.261C57.9522 64.3019 57.7683 64.4736 57.7151 64.6943C57.3227 66.3295 58.5327 69.1133 55.2215 68.864C52.6216 68.6678 53.4351 66.4398 53.1857 64.7638C53.1489 64.5267 52.9772 64.3264 52.7442 64.2733C51.1009 63.8931 48.3456 65.0459 48.6767 61.6815C48.9261 59.1715 51.0109 59.9687 52.6625 59.7275V59.7357Z" fill="#2EAED2"/>
<path d="M82.6104 60.4307C84.0892 60.4307 85.288 59.2319 85.288 57.7531C85.288 56.2743 84.0892 55.0755 82.6104 55.0755C81.1317 55.0755 79.9329 56.2743 79.9329 57.7531C79.9329 59.2319 81.1317 60.4307 82.6104 60.4307Z" fill="#2EAED2"/>
<path d="M82.6104 69.0602C84.0892 69.0602 85.288 67.8615 85.288 66.3827C85.288 64.9039 84.0892 63.7051 82.6104 63.7051C81.1317 63.7051 79.9329 64.9039 79.9329 66.3827C79.9329 67.8615 81.1317 69.0602 82.6104 69.0602Z" fill="#2EAED2"/>
<path d="M78.4369 64.7474C79.9157 64.7474 81.1144 63.5486 81.1144 62.0699C81.1144 60.5911 79.9157 59.3923 78.4369 59.3923C76.9581 59.3923 75.7593 60.5911 75.7593 62.0699C75.7593 63.5486 76.9581 64.7474 78.4369 64.7474Z" fill="#2EAED2"/>
<path d="M86.9601 64.7474C88.4388 64.7474 89.6376 63.5486 89.6376 62.0699C89.6376 60.5911 88.4388 59.3923 86.9601 59.3923C85.4813 59.3923 84.2825 60.5911 84.2825 62.0699C84.2825 63.5486 85.4813 64.7474 86.9601 64.7474Z" fill="#2EAED2"/>
<defs>
<linearGradient id="paint0_linear_2434_2344" x1="69.3431" y1="11.2884" x2="69.3431" y2="127.398" gradientUnits="userSpaceOnUse">
<stop stop-color="#2BDAF8"/>
<stop offset="1" stop-color="#5078C2"/>
</linearGradient>
<linearGradient id="paint1_linear_2434_2344" x1="69.3432" y1="0" x2="69.3432" y2="138.686" gradientUnits="userSpaceOnUse">
<stop stop-color="#2BDAF8"/>
<stop offset="1" stop-color="#5078C2"/>
</linearGradient>
<linearGradient id="paint2_linear_2434_2344" x1="69.3431" y1="24.1895" x2="69.3431" y2="114.497" gradientUnits="userSpaceOnUse">
<stop stop-color="#2BDAF8"/>
<stop offset="1" stop-color="#5078C2"/>
</linearGradient>
</defs>
</svg>
