<svg width="139" height="139" viewBox="0 0 139 139" fill="none" xmlns="http://www.w3.org/2000/svg">
<circle cx="69.3431" cy="69.3431" r="58.0547" fill="url(#paint0_linear_492_1373)" fill-opacity="0.2"/>
<circle cx="69.3432" cy="69.3432" r="69.3432" fill="url(#paint1_linear_492_1373)" fill-opacity="0.2"/>
<circle cx="69.3431" cy="69.3431" r="45.1537" fill="url(#paint2_linear_492_1373)" fill-opacity="0.8"/>
<path d="M46.0292 69.3988C41.7876 65.7448 42.9036 60.4916 45.5598 58.0996C48.5185 55.4365 53.1111 55.5686 55.8577 58.4612C58.4896 61.2356 58.8337 66.1342 55.0963 69.4962C55.298 69.451 55.5726 69.4753 55.6943 69.3502C57.9785 66.9791 60.6972 65.3276 63.9445 64.3229C60.5026 61.8614 58.8546 58.6107 59.4074 54.4283C59.7481 51.8451 61.0171 49.7278 63.0683 48.1111C67.2821 44.784 73.4219 45.4689 76.8221 49.6061C80.2118 53.7329 79.9406 60.5646 74.4301 64.3055C74.6978 64.4028 74.9203 64.4828 75.1463 64.5593C77.9763 65.5328 80.4621 67.059 82.5169 69.2389C83.0106 69.7639 83.393 69.8265 83.9145 69.3919C79.8676 65.95 80.6047 60.8462 83.2678 58.2665C86.1257 55.4991 90.6453 55.4991 93.5205 58.2352C96.1385 60.7315 97.0146 65.863 92.8913 69.4023C94.786 70.1081 96.4688 71.1198 97.8907 72.5348C100.453 75.0832 101.802 78.1774 101.965 81.7793C102.018 82.9127 101.607 83.3194 100.495 83.3194C79.8085 83.3194 59.1223 83.3194 38.4396 83.3194C37.3131 83.3194 36.8994 82.93 36.9759 81.7897C37.3548 76.1053 40.1466 72.0724 45.3269 69.6978C45.5563 69.5935 45.7893 69.4996 46.0326 69.3953L46.0292 69.3988Z" fill="white"/>
<defs>
<linearGradient id="paint0_linear_492_1373" x1="69.3431" y1="11.2884" x2="69.3431" y2="127.398" gradientUnits="userSpaceOnUse">
<stop stop-color="#2BDAF8"/>
<stop offset="1" stop-color="#5078C2"/>
</linearGradient>
<linearGradient id="paint1_linear_492_1373" x1="69.3432" y1="0" x2="69.3432" y2="138.686" gradientUnits="userSpaceOnUse">
<stop stop-color="#2BDAF8"/>
<stop offset="1" stop-color="#5078C2"/>
</linearGradient>
<linearGradient id="paint2_linear_492_1373" x1="69.3431" y1="24.1895" x2="69.3431" y2="114.497" gradientUnits="userSpaceOnUse">
<stop stop-color="#2BDAF8"/>
<stop offset="1" stop-color="#5078C2"/>
</linearGradient>
</defs>
</svg>
