<svg width="139" height="139" viewBox="0 0 139 139" fill="none" xmlns="http://www.w3.org/2000/svg">
<circle cx="69.3431" cy="69.3432" r="58.0547" fill="url(#paint0_linear_432_1639)" fill-opacity="0.2"/>
<circle cx="69.3432" cy="69.3432" r="69.3432" fill="url(#paint1_linear_432_1639)" fill-opacity="0.2"/>
<circle cx="69.3431" cy="69.3431" r="45.1537" fill="url(#paint2_linear_432_1639)" fill-opacity="0.8"/>
<path d="M73.9663 64.2299L79.6744 61.8462L76.8222 69.9872H60.6345L58.2017 61.9406L63.9099 64.3735L68.7756 56.512L73.9663 64.2299Z" fill="white"/>
<path d="M87.5927 44.6989V49.0358H50.3137V44.6989C50.3137 44.3136 50.6273 44 51.0126 44H86.8938C87.2791 44 87.5927 44.3136 87.5927 44.6989Z" fill="white"/>
<path d="M70.7816 90.3796V79.4959L86.6444 85.5478C87.1016 85.7216 87.5927 85.3854 87.5927 84.8943V52.5264H50.3137V85.0152C50.3137 85.5063 50.8048 85.8425 51.2619 85.6687L67.1248 79.5903V90.3796H50.3515V93.3036H87.7173V90.3796H70.7816ZM60.6346 69.9872L58.2017 61.9406L63.9099 64.3735L68.7756 56.512L73.9663 64.2299L79.6745 61.8462L76.8223 69.9872H60.6346Z" fill="white"/>
<path d="M79.6744 62.5942L76.8222 71.8723H60.6345L58.2017 62.6999L63.9099 65.4728L68.7756 56.512L73.9663 65.3104L79.6744 62.5942Z" fill="#802DB9"/>
<defs>
<linearGradient id="paint0_linear_432_1639" x1="69.3431" y1="11.2884" x2="69.3431" y2="127.398" gradientUnits="userSpaceOnUse">
<stop stop-color="#BE3FF8"/>
<stop offset="1" stop-color="#491D92"/>
</linearGradient>
<linearGradient id="paint1_linear_432_1639" x1="69.3432" y1="0" x2="69.3432" y2="138.686" gradientUnits="userSpaceOnUse">
<stop stop-color="#BE3FF8"/>
<stop offset="1" stop-color="#491D92"/>
</linearGradient>
<linearGradient id="paint2_linear_432_1639" x1="69.3431" y1="24.1895" x2="69.3431" y2="114.497" gradientUnits="userSpaceOnUse">
<stop stop-color="#BE3FF8"/>
<stop offset="1" stop-color="#491D92"/>
</linearGradient>
</defs>
</svg>
