<svg width="139" height="139" viewBox="0 0 139 139" fill="none" xmlns="http://www.w3.org/2000/svg">
<circle cx="69.3433" cy="69.3432" r="58.0547" fill="url(#paint0_linear_198_224)" fill-opacity="0.2"/>
<circle cx="69.3432" cy="69.3432" r="69.3432" fill="url(#paint1_linear_198_224)" fill-opacity="0.2"/>
<circle cx="69.3431" cy="69.3432" r="45.1537" fill="url(#paint2_linear_198_224)" fill-opacity="0.8"/>
<path d="M47.3135 90.9349V57.4984H49.0952C60.4611 57.4984 71.8269 57.4984 83.1927 57.4984C86.67 57.4984 87.5788 58.4108 87.5788 61.8738C87.5788 63.9932 87.5788 66.1126 87.5788 68.4368C85.19 68.4368 82.9125 68.426 80.6386 68.4368C77.0069 68.4583 74.5749 70.7358 74.5139 74.152C74.4528 77.5215 76.8955 79.9139 80.5129 79.975C82.7976 80.0145 85.0822 79.9822 87.5465 79.9822C87.5465 82.8488 87.6363 85.5753 87.5106 88.291C87.4423 89.8249 86.0593 90.8487 84.3135 90.917C82.97 90.9708 81.6265 90.9313 80.283 90.9313C69.923 90.9313 59.5666 90.9313 49.2066 90.9313H47.3135V90.9349Z" fill="white"/>
<path d="M76.3712 46.3086C78.9899 45.1231 79.9742 45.5111 81.1812 48.1729C82.1439 50.296 83.1066 52.4226 84.1555 54.7395H58.0508L76.3712 46.3086Z" fill="white"/>
<path d="M63.0364 39.7061C64.9079 37.5256 65.9641 37.4609 68.1841 39.3648C69.955 40.8843 71.726 42.4002 73.655 44.0562L49.9966 55.0916L63.0364 39.7061Z" fill="white"/>
<path d="M90.675 69.8199V78.5346C86.9032 78.5346 83.2247 78.646 79.5535 78.4915C77.4736 78.4053 75.9217 76.2931 75.9576 74.1233C75.9972 71.9105 77.6208 69.9564 79.8983 69.8594C83.4546 69.7085 87.0217 69.8199 90.675 69.8199ZM83.6522 74.1952C83.487 72.9307 82.7865 72.1332 81.4645 72.1728C80.1462 72.2123 79.4421 73.0205 79.4349 74.3425C79.4277 75.5099 80.4623 76.5373 81.5903 76.426C82.8727 76.3002 83.5804 75.5387 83.6522 74.1952Z" fill="white"/>
<path d="M81.5507 76.8677C82.9454 76.8677 84.0761 75.7371 84.0761 74.3424C84.0761 72.9476 82.9454 71.817 81.5507 71.817C80.156 71.817 79.0254 72.9476 79.0254 74.3424C79.0254 75.7371 80.156 76.8677 81.5507 76.8677Z" fill="#7A2CB4"/>
<defs>
<linearGradient id="paint0_linear_198_224" x1="69.3433" y1="11.2884" x2="69.3433" y2="127.398" gradientUnits="userSpaceOnUse">
<stop stop-color="#BE3FF8"/>
<stop offset="1" stop-color="#491D92"/>
</linearGradient>
<linearGradient id="paint1_linear_198_224" x1="69.3432" y1="0" x2="69.3432" y2="138.686" gradientUnits="userSpaceOnUse">
<stop stop-color="#BE3FF8"/>
<stop offset="1" stop-color="#491D92"/>
</linearGradient>
<linearGradient id="paint2_linear_198_224" x1="69.3431" y1="24.1895" x2="69.3431" y2="114.497" gradientUnits="userSpaceOnUse">
<stop stop-color="#BE3FF8"/>
<stop offset="1" stop-color="#491D92"/>
</linearGradient>
</defs>
</svg>
