<svg width="139" height="139" viewBox="0 0 139 139" fill="none" xmlns="http://www.w3.org/2000/svg">
<circle cx="69.3432" cy="69.3431" r="58.0547" fill="url(#paint0_linear_3773_8777)" fill-opacity="0.2"/>
<circle cx="69.3432" cy="69.3432" r="69.3432" fill="url(#paint1_linear_3773_8777)" fill-opacity="0.2"/>
<circle cx="69.3432" cy="69.3431" r="45.1537" fill="url(#paint2_linear_3773_8777)" fill-opacity="0.8"/>
<g clip-path="url(#clip0_3773_8777)">
<path d="M69.9783 40.5873L72.9935 39.1128C73.4223 38.9048 73.9324 38.9952 74.2664 39.339L76.5955 41.7587C76.8303 42.0029 77.1643 42.125 77.4983 42.0889L80.834 41.7361C81.308 41.6863 81.7594 41.9487 81.9535 42.3828L83.3166 45.4539C83.452 45.7614 83.7274 45.9921 84.0524 46.0735L87.3069 46.8831C87.7673 46.9961 88.1013 47.3987 88.1374 47.8736L88.3676 51.225C88.3902 51.5642 88.5707 51.8718 88.8506 52.0617L91.6311 53.9387C92.0238 54.2055 92.2043 54.694 92.0735 55.1553L91.1481 58.3847C91.0533 58.7103 91.1165 59.0586 91.3151 59.3344L93.2877 62.0527C93.5675 62.4371 93.5675 62.9618 93.2877 63.3462L91.3151 66.0644C91.1165 66.3403 91.0533 66.6886 91.1481 67.0142L92.0735 70.2435C92.2043 70.7003 92.0283 71.1933 91.6311 71.4602L88.8506 73.3372C88.5707 73.5271 88.3947 73.8347 88.3676 74.1739L88.1374 77.5253C88.1058 78.0002 87.7673 78.4027 87.3069 78.5158L84.0524 79.3254C83.7229 79.4068 83.452 79.6375 83.3166 79.945L81.9535 83.016C81.7594 83.4502 81.308 83.7126 80.834 83.6628L77.4983 83.31C77.1643 83.2738 76.8303 83.396 76.5955 83.6402L74.2664 86.0599C73.9369 86.4036 73.4223 86.4941 72.9935 86.2861L69.9783 84.8116C69.6759 84.6623 69.3193 84.6623 69.0168 84.8116L66.0016 86.2861C65.5728 86.4941 65.0627 86.4036 64.7287 86.0599L62.3996 83.6402C62.1649 83.396 61.8308 83.2738 61.4968 83.31L58.1611 83.6628C57.6871 83.7126 57.2358 83.4502 57.0417 83.016L55.6785 79.945C55.5431 79.6375 55.2677 79.4068 54.9427 79.3254L51.6883 78.5158C51.2279 78.4027 50.8938 78.0002 50.8577 77.5253L50.6275 74.1739C50.605 73.8347 50.4244 73.5271 50.1445 73.3372L47.364 71.4602C46.9713 71.1933 46.7908 70.7049 46.9217 70.2435L47.847 67.0142C47.9418 66.6886 47.8786 66.3403 47.68 66.0644L45.7075 63.3462C45.4276 62.9618 45.4276 62.4371 45.7075 62.0527L47.68 59.3344C47.8786 59.0586 47.9418 58.7103 47.847 58.3847L46.9217 55.1553C46.7908 54.6985 46.9668 54.2055 47.364 53.9387L50.1445 52.0617C50.4244 51.8718 50.6004 51.5642 50.6275 51.225L50.8577 47.8736C50.8893 47.3987 51.2279 46.9961 51.6883 46.8831L54.9427 46.0735C55.2722 45.9921 55.5431 45.7614 55.6785 45.4539L57.0417 42.3828C57.2358 41.9487 57.6871 41.6863 58.1611 41.7361L61.4968 42.0889C61.8308 42.125 62.1649 42.0029 62.3996 41.7587L64.7332 39.3344C65.0627 38.9907 65.5773 38.9003 66.0061 39.1083L69.0214 40.5828C69.3238 40.732 69.6804 40.732 69.9828 40.5828L69.9783 40.5873Z" fill="white"/>
<path d="M60.5942 98.8281L57.3352 93.2153C57.2585 93.0796 57.096 93.0162 56.9425 93.0569L50.6006 94.8932C50.3298 94.9701 50.0815 94.7033 50.1854 94.4364L57.5339 75.7526C57.6016 75.5762 57.8002 75.4902 57.9762 75.5581L68.3535 79.6558C68.5295 79.7236 68.6153 79.9226 68.5476 80.099L61.2036 98.7738C61.0998 99.0407 60.7342 99.0678 60.5897 98.819L60.5942 98.8281Z" fill="white"/>
<path d="M79.0829 98.8281L82.3418 93.2153C82.4186 93.0796 82.5811 93.0162 82.7345 93.0569L89.0765 94.8932C89.3473 94.9701 89.5956 94.7033 89.4917 94.4364L82.1432 75.7526C82.0755 75.5762 81.8769 75.4902 81.7009 75.5581L71.3236 79.6558C71.1476 79.7236 71.0618 79.9226 71.1295 80.099L78.4735 98.7738C78.5773 99.0407 78.9429 99.0678 79.0874 98.819L79.0829 98.8281Z" fill="white"/>
<path d="M69.5181 80.7955C79.0535 80.7955 86.7834 73.0501 86.7834 63.4957C86.7834 53.9412 79.0535 46.1958 69.5181 46.1958C59.9827 46.1958 52.2527 53.9412 52.2527 63.4957C52.2527 73.0501 59.9827 80.7955 69.5181 80.7955Z" stroke="#34A1CC" stroke-width="2" stroke-miterlimit="10"/>
<path d="M66.6157 70.0898C66.2681 70.0898 65.9205 69.9587 65.6587 69.6918L60.3866 64.4091C59.8585 63.88 59.8585 63.0206 60.3866 62.4915C60.9147 61.9623 61.7723 61.9623 62.3005 62.4915L66.6157 66.8153L77.4443 55.965C77.9724 55.4358 78.8301 55.4358 79.3582 55.965C79.8863 56.4942 79.8863 57.3535 79.3582 57.8827L67.5726 69.6918C67.3063 69.9587 66.9632 70.0898 66.6157 70.0898Z" fill="#35A0CB"/>
</g>
<defs>
<linearGradient id="paint0_linear_3773_8777" x1="69.3432" y1="11.2883" x2="69.3432" y2="127.398" gradientUnits="userSpaceOnUse">
<stop stop-color="#2BDAF8"/>
<stop offset="1" stop-color="#5078C2"/>
</linearGradient>
<linearGradient id="paint1_linear_3773_8777" x1="69.3432" y1="0" x2="69.3432" y2="138.686" gradientUnits="userSpaceOnUse">
<stop stop-color="#2BDAF8"/>
<stop offset="1" stop-color="#5078C2"/>
</linearGradient>
<linearGradient id="paint2_linear_3773_8777" x1="69.3432" y1="24.1895" x2="69.3432" y2="114.497" gradientUnits="userSpaceOnUse">
<stop stop-color="#2BDAF8"/>
<stop offset="1" stop-color="#5078C2"/>
</linearGradient>
<clipPath id="clip0_3773_8777">
<rect width="48" height="60" fill="white" transform="translate(45.5 39)"/>
</clipPath>
</defs>
</svg>
