<svg width="140" height="22" viewBox="0 0 140 22" fill="none" xmlns="http://www.w3.org/2000/svg">
<g opacity="0.5" clip-path="url(#clip0_2504_8518)">
<path d="M75.6899 4.20106V9.03742C76.4512 7.98222 77.5509 7.45461 78.989 7.45461C79.6657 7.45461 80.2579 7.54255 80.7654 7.80635C81.3576 7.98222 81.8651 8.33395 82.2881 8.77362C82.7957 9.21329 83.134 9.7409 83.3878 10.3564C83.6416 10.972 83.7262 11.7634 83.7262 12.6427C83.7262 13.61 83.557 14.4893 83.2186 15.3687C82.8802 16.1601 82.3727 16.8635 81.6114 17.3911C80.85 17.9187 80.0041 18.1825 78.9044 18.1825C77.3818 18.1825 76.2821 17.6549 75.6053 16.6877V17.9187H72.6446V4.20106H75.6899ZM64.4392 7.19081C70.1914 7.19081 69.6839 13.61 69.6839 13.61H61.9014C62.2398 14.8411 63.2549 15.7204 64.6929 15.7204C66.4694 15.7204 67.3999 14.6652 67.3999 14.6652L69.0917 16.4239C68.2458 17.3032 67.0615 18.0946 64.6929 18.0946C61.0555 18.0946 59.1099 15.5445 59.1099 12.9065C59.1099 10.2685 60.4633 7.19081 64.4392 7.19081ZM135.581 7.10288C138.034 7.10288 139.642 8.07015 139.642 8.07015L138.542 10.3564C135.243 8.59775 133.805 9.82883 133.805 10.4444C133.805 11.0599 134.397 11.1478 136.681 11.5875C138.965 12.0272 139.98 12.9944 139.98 14.5773C139.98 16.1601 138.626 17.9187 135.412 17.9187C132.197 17.9187 130.759 16.8635 130.759 16.8635L131.775 14.6652C134.312 16.3359 137.188 15.8083 137.188 14.8411C137.188 14.1376 136.258 13.9617 135.243 13.7859L134.82 13.6979C134.651 13.6979 134.397 13.61 134.228 13.61C132.959 13.4341 131.013 12.6427 131.013 10.6202C130.929 8.50982 133.128 7.10288 135.581 7.10288ZM121.2 3.40966V11.6754L125.515 7.45461H128.983L124.753 11.6754L129.406 18.0067H125.938L122.723 13.6979L121.2 15.1928V18.0067H118.324V3.40966H121.2ZM110.965 7.10288C112.995 7.10288 114.771 8.15809 115.787 9.7409L113.333 11.2358C112.91 10.3564 111.98 9.7409 110.965 9.7409C109.442 9.7409 108.258 10.972 108.258 12.5548C108.258 14.1376 109.442 15.3687 110.965 15.3687C111.98 15.3687 112.826 14.8411 113.249 13.9617L115.702 15.3687C114.687 16.8635 112.995 17.9187 110.965 17.9187C107.835 17.9187 105.382 15.4566 105.382 12.4668C105.297 9.47709 107.835 7.10288 110.965 7.10288ZM97.6839 7.10288C100.814 7.10288 103.267 9.56503 103.267 12.5548C103.267 15.5445 100.729 18.0067 97.6839 18.0067C94.554 18.0067 92.1008 15.5445 92.1008 12.5548C92.0162 9.47709 94.554 7.10288 97.6839 7.10288ZM46.844 7.36668V17.8308H43.7141V7.36668H46.844ZM41.0071 4.20106V6.83908H34.0706V10.3564H40.1612V12.9065H34.0706V17.8308H30.9407V4.20106H41.0071ZM53.5268 8.68569C53.5268 8.68569 54.6265 6.92701 56.9105 7.19081V10.0926C56.9105 10.0926 54.4573 9.47709 53.5268 12.1151V17.9187H50.5661V7.36668H53.3576L53.5268 8.68569ZM89.0555 3.40966V17.8308H85.9256V3.40966H89.0555ZM78.1431 9.7409C76.4512 9.7409 75.6053 10.7961 75.6053 12.9944C75.6053 13.7859 75.8591 14.4893 76.2821 15.1049C76.705 15.6325 77.3818 15.8963 78.3123 15.8963C78.9044 15.8963 79.412 15.7204 79.7503 15.4566C80.0887 15.1049 80.3425 14.7531 80.5117 14.3135C80.6809 13.8738 80.7654 13.3462 80.7654 12.9065C80.7654 12.0272 80.5963 11.2358 80.1733 10.7082C79.6657 10.0047 78.989 9.7409 78.1431 9.7409ZM97.6839 9.65296C96.1612 9.65296 94.9769 10.884 94.9769 12.4668C94.9769 14.0497 96.1612 15.2807 97.6839 15.2807C99.2065 15.2807 100.391 14.0497 100.391 12.4668C100.306 10.972 99.1219 9.65296 97.6839 9.65296ZM64.4392 9.38916C62.9165 9.38916 62.0706 10.3564 61.8168 11.5875H66.8923C66.8923 11.3237 66.3848 9.38916 64.4392 9.38916ZM45.3213 2.44238C46.3364 2.44238 47.1824 3.23379 47.1824 4.20106C47.1824 5.16833 46.3364 5.95974 45.3213 5.95974C44.3062 5.95974 43.4603 5.16833 43.4603 4.20106C43.4603 3.23379 44.3062 2.44238 45.3213 2.44238Z" fill="white"/>
<path d="M20.5559 0C21.0634 0 21.4018 0.351736 21.4018 0.879339V21.1041C21.4018 21.6317 21.0634 21.9835 20.5559 21.9835H0.845921C0.338369 21.9835 0 21.6317 0 21.1041V0.879339C0 0.351736 0.338369 0 0.845921 0H20.5559ZM10.7432 6.06744L4.82175 15.8281H16.7492L10.7432 6.06744Z" fill="white"/>
</g>
<defs>
<clipPath id="clip0_2504_8518">
<rect width="140" height="21.9835" fill="white"/>
</clipPath>
</defs>
</svg>
