<svg width="140" height="139" viewBox="0 0 140 139" fill="none" xmlns="http://www.w3.org/2000/svg">
<circle cx="70.0298" cy="69.3432" r="58.0547" fill="url(#paint0_linear_198_377)" fill-opacity="0.2"/>
<circle cx="70.0297" cy="69.3432" r="69.3432" fill="url(#paint1_linear_198_377)" fill-opacity="0.2"/>
<circle cx="70.0297" cy="69.3431" r="45.1537" fill="url(#paint2_linear_198_377)" fill-opacity="0.8"/>
<g clip-path="url(#clip0_198_377)">
<path d="M43.5884 95C43.956 94.0448 44.3189 93.0849 44.6959 92.1345C48.6361 82.1451 52.5809 72.1605 56.5258 62.1758C56.9641 61.0701 57.393 59.9549 57.8643 58.8633C58.5383 57.287 59.8485 56.6706 61.4698 56.6095C62.978 56.553 64.373 57.0282 65.7398 57.5976C65.8718 57.654 66.0038 57.7105 66.1829 57.7858C66.263 57.1835 66.3573 56.6189 66.4185 56.0448C66.5646 54.6144 66.6495 53.1793 66.4421 51.7442C66.4091 51.523 66.3667 51.3066 66.3101 51.0901C65.9284 49.6127 65.0046 48.8739 63.4728 48.8363C63.0157 48.8269 62.5585 48.8363 62.1013 48.8269C61.63 48.8175 61.3661 48.5728 61.3614 48.107C61.352 45.9896 61.3567 43.8722 61.3614 41.7548C61.3614 41.3596 61.597 41.082 61.9505 41.0678C63.6001 41.0114 65.2308 41.0584 66.7814 41.7407C69.1521 42.7806 70.5755 44.6251 71.3248 47.0483C71.8339 48.6998 71.815 50.389 71.6265 52.083C71.3437 54.6473 70.5613 57.0612 69.3595 59.3432C69.3359 59.3903 69.3218 59.4468 69.3171 59.4609L73.4504 62.5805C73.7615 62.3499 74.115 62.0817 74.4779 61.8276C76.3254 60.5431 78.352 59.6303 80.4918 58.9527C80.7604 58.868 80.8453 58.7551 80.85 58.4728C80.8735 57.24 80.8735 55.9978 80.9961 54.7697C81.1139 53.5887 81.5522 52.497 82.3723 51.603C83.3243 50.5678 84.5592 50.1914 85.9213 50.1303C86.2559 50.1161 86.5905 50.1303 86.9346 50.1303C87.0288 49.5233 87.1137 48.9398 87.2079 48.3611C87.5755 46.1731 88.6454 44.451 90.6108 43.3452C91.9116 42.6159 93.3255 42.3618 94.796 42.3571C95.5124 42.3571 96.224 42.3571 96.9404 42.3571C97.4542 42.3571 97.6992 42.5971 97.6992 43.1147C97.704 44.7662 97.704 46.4131 97.6992 48.0646C97.6992 48.5587 97.4542 48.794 96.9546 48.8081C96.4644 48.8222 95.9695 48.8128 95.4841 48.8457C94.3907 48.9163 93.8062 49.5562 93.8062 50.6478C93.8062 51.2501 93.8062 51.8524 93.8062 52.4547C93.8062 54.1674 92.9909 55.3484 91.4638 56.0683C90.672 56.4401 89.8331 56.5859 88.9612 56.6047C88.6313 56.6095 88.2966 56.6047 87.9526 56.6047C87.962 56.6706 87.9573 56.7036 87.9714 56.7271C89.1544 58.5622 88.4569 60.6937 87.4012 61.9406C86.3831 63.1451 85.0776 63.9356 83.6071 64.4155C82.1885 64.8767 80.7227 65.1872 79.2805 65.5683C78.5406 65.766 77.7959 65.9683 77.0041 66.18C77.268 66.4906 77.5084 66.7541 77.7252 67.0317C78.4086 67.8975 79.092 68.7632 79.7565 69.6431C79.8885 69.8172 79.9828 69.8643 80.1901 69.7749C83.051 68.5703 86.0344 68.081 89.1214 68.3209C91.5581 68.5092 93.8157 69.2761 95.8187 70.7065C97.8736 72.1746 99.033 74.1273 98.9671 76.7152C98.9576 77.1057 98.9859 77.4963 98.9906 77.8868C98.9906 78.3668 98.755 78.6208 98.279 78.6208C96.5917 78.6208 94.9044 78.6208 93.2218 78.6208C92.7552 78.6208 92.5101 78.3621 92.5007 77.8915C92.5007 77.7033 92.4819 77.5104 92.5007 77.3222C92.5761 76.6634 92.2368 76.2447 91.7136 75.9294C90.9454 75.4683 90.0923 75.2424 89.2251 75.0778C87.0807 74.6637 84.9174 74.7013 82.7494 74.8048C82.7305 74.8048 82.7116 74.819 82.7069 74.8237C82.8955 75.5577 83.1123 76.2823 83.2678 77.021C83.4422 77.8351 83.4657 78.6632 83.2866 79.4772C82.9803 80.8888 82.1367 81.8252 80.7604 82.2957C77.1266 83.5285 73.5023 84.7754 69.8685 86.0129C61.2813 88.949 52.6893 91.8804 44.1021 94.8165C43.9466 94.8682 43.7957 94.9388 43.6402 95.0047H43.5742L43.5884 95ZM65.7068 60.3549C64.7077 60.0067 63.7745 59.6397 62.813 59.3621C62.3417 59.2256 61.8186 59.2115 61.3237 59.2209C60.5507 59.2397 60.1313 59.6679 60.0794 60.4349C60.0559 60.7548 60.0653 61.0842 60.1124 61.3994C60.3528 62.9663 61.022 64.3732 61.795 65.733C63.4446 68.6362 65.589 71.1488 68.0021 73.4403C70.1371 75.4683 72.4418 77.2704 75.0812 78.6161C76.2971 79.2372 77.5461 79.7736 78.927 79.9007C80.374 80.0371 80.9631 79.4349 80.8123 77.9856C80.7133 77.021 80.4069 76.1176 80.0346 75.2283C79.9686 75.0683 79.8791 75.0213 79.7047 75.0401C77.7959 75.2566 75.906 75.5671 74.0631 76.1364C73.606 76.2776 73.3373 76.2164 73.1441 75.9153C72.9603 75.6283 73.0263 75.3177 73.3609 75.0025C74.7607 73.6803 75.9955 72.1793 77.6309 71.0971C77.565 70.9983 77.5178 70.9136 77.4566 70.8383C76.5469 69.7372 75.6515 68.6315 74.723 67.5446C74.3035 67.0505 74.4496 67.0599 73.8935 67.394C72.8047 68.048 71.7537 68.7632 70.698 69.4643C70.0947 69.8643 69.5103 70.2925 68.907 70.6971C68.5913 70.9089 68.2896 70.8853 68.0492 70.6548C67.8089 70.4242 67.7853 70.1325 67.9833 69.7984C68.0304 69.7231 68.0822 69.6478 68.1294 69.5726C69.2464 67.8551 70.3587 66.1377 71.4945 64.392C70.3964 63.4463 69.1992 62.524 67.9597 61.7382C67.281 62.5428 66.6306 63.3051 65.9802 64.0674C65.7728 64.3073 65.523 64.425 65.2073 64.3214C64.8538 64.2038 64.7124 63.8556 64.8255 63.4463C65.1083 62.4534 65.3864 61.4559 65.7021 60.3455L65.7068 60.3549Z" fill="white"/>
<path d="M55.3144 48.2152L50.3421 53.184L45.3462 48.1917L50.3279 43.2182L55.3144 48.2152Z" fill="white"/>
<path d="M86.7177 84.6577C88.3532 86.2905 90.0216 87.9609 91.6712 89.6077C90.0074 91.264 88.3296 92.9391 86.6753 94.5906C85.0493 92.9626 83.3761 91.2828 81.7266 89.6312C83.3573 88.0126 85.0351 86.3375 86.7224 84.6624L86.7177 84.6577Z" fill="white"/>
<path d="M72.5737 42.9876C74.2422 41.3219 75.9106 39.6516 77.5649 38C79.238 39.6751 80.9206 41.3549 82.589 43.03C80.9489 44.6674 79.271 46.3472 77.6026 48.0129C75.9342 46.3472 74.2563 44.6674 72.5784 42.9876H72.5737Z" fill="white"/>
<path d="M45.1342 65.5778L42 62.444L45.1672 59.315C46.1711 60.3266 47.2362 61.3947 48.2825 62.4393L45.1342 65.5778Z" fill="white"/>
<path d="M95.7338 64.2885C94.7016 63.258 93.6412 62.1946 92.5996 61.1501L95.7762 57.9787C96.8131 59.0186 97.8735 60.082 98.9151 61.1265L95.7338 64.2885Z" fill="white"/>
</g>
<defs>
<linearGradient id="paint0_linear_198_377" x1="70.0298" y1="11.2884" x2="70.0298" y2="127.398" gradientUnits="userSpaceOnUse">
<stop stop-color="#BE3FF8"/>
<stop offset="1" stop-color="#491D92"/>
</linearGradient>
<linearGradient id="paint1_linear_198_377" x1="70.0297" y1="0" x2="70.0297" y2="138.686" gradientUnits="userSpaceOnUse">
<stop stop-color="#BE3FF8"/>
<stop offset="1" stop-color="#491D92"/>
</linearGradient>
<linearGradient id="paint2_linear_198_377" x1="70.0297" y1="24.1895" x2="70.0297" y2="114.497" gradientUnits="userSpaceOnUse">
<stop stop-color="#BE3FF8"/>
<stop offset="1" stop-color="#491D92"/>
</linearGradient>
<clipPath id="clip0_198_377">
<rect width="57" height="57" fill="white" transform="translate(42 38)"/>
</clipPath>
</defs>
</svg>
