<svg width="139" height="139" viewBox="0 0 139 139" fill="none" xmlns="http://www.w3.org/2000/svg">
<circle cx="69.3438" cy="69.3432" r="58.0547" fill="url(#paint0_linear_1745_1742)" fill-opacity="0.2"/>
<circle cx="69.3432" cy="69.3432" r="69.3432" fill="url(#paint1_linear_1745_1742)" fill-opacity="0.2"/>
<circle cx="69.3431" cy="69.3432" r="45.1537" fill="url(#paint2_linear_1745_1742)" fill-opacity="0.8"/>
<g clip-path="url(#clip0_1745_1742)">
<path d="M79.4658 57.6896C79.6792 57.6896 79.831 57.6896 79.9828 57.6896C82.8919 57.6896 85.801 57.7138 88.706 57.6855C91.8859 57.6532 94.5571 60.2336 94.9264 62.9553C95.2054 65.0066 94.7048 66.8642 93.3877 68.4915C93.2318 68.6854 93.1907 68.8388 93.2687 69.0771C94.0155 71.3586 93.7816 73.5149 92.3865 75.5219C92.3168 75.6228 92.2881 75.7884 92.3127 75.9055C92.842 78.3607 92.3291 80.5413 90.6099 82.4271C90.5114 82.5361 90.4745 82.7421 90.4827 82.8995C90.5401 84.1635 90.4416 85.4032 89.9616 86.5904C89.1122 88.6942 87.5407 90.0228 85.3374 90.58C84.4347 90.8102 83.491 90.9515 82.5595 90.9717C80.5695 91.0162 78.5754 91.0323 76.5936 90.9233C73.9799 90.7779 71.4319 90.2005 68.9372 89.4332C66.6805 88.7387 64.4443 87.9755 62.1876 87.2849C61.4449 87.0588 60.6612 86.9336 59.8898 86.8246C58.7204 86.655 57.9326 85.8191 57.9326 84.6521C57.9326 77.7954 57.9326 70.9386 57.9326 64.0819C57.9326 62.8422 58.6425 62.0709 59.8734 61.8165C60.296 61.7277 60.7515 61.5096 61.0551 61.2148C62.1055 60.1892 63.1395 59.1433 64.0996 58.0368C65.5849 56.3247 67.0005 54.5519 68.4448 52.8075C68.4735 52.7752 68.4982 52.7388 68.531 52.7106C70.004 51.4224 70.6359 49.7143 71.0134 47.881C71.2021 46.9522 71.3826 46.0234 71.6083 45.1027C71.9037 43.9075 72.3797 42.7889 73.2003 41.8359C73.6804 41.2625 74.2877 40.9839 75.0508 41C76.29 41.0242 77.4922 41.2342 78.6411 41.6986C80.43 42.4214 81.4312 43.8267 81.8702 45.5914C82.7073 48.9591 82.3216 52.1977 80.5901 55.2546C80.2249 55.9007 79.9212 56.575 79.5971 57.2413C79.5397 57.3544 79.5191 57.4877 79.4617 57.6855L79.4658 57.6896Z" fill="white"/>
<path d="M55.7619 74.3347C55.7619 77.7388 55.7619 81.147 55.7619 84.5511C55.7619 85.9564 54.9125 86.8125 53.4764 86.8165C50.4237 86.8246 47.3751 86.8246 44.3224 86.8165C42.874 86.8165 42 85.9523 42 84.539C42 77.7348 42 70.9346 42 64.1384C42 62.9593 42.6893 62.0709 43.7397 61.8771C43.8792 61.8528 44.0269 61.8488 44.1664 61.8488C47.2848 61.8488 50.4032 61.869 53.5175 61.8327C54.6786 61.8205 55.7742 62.7372 55.766 64.0254C55.7372 67.4618 55.7578 70.9023 55.7578 74.3387L55.7619 74.3347ZM48.3762 78.4859C47.1781 78.4818 46.2139 79.4106 46.2098 80.5736C46.2057 81.7325 47.1453 82.6734 48.3188 82.6815C49.5333 82.6895 50.4935 81.781 50.5017 80.6139C50.5099 79.4389 49.5662 78.4899 48.3721 78.4859H48.3762Z" fill="white"/>
</g>
<defs>
<linearGradient id="paint0_linear_1745_1742" x1="69.3438" y1="11.2884" x2="69.3438" y2="127.398" gradientUnits="userSpaceOnUse">
<stop stop-color="#2BDAF8"/>
<stop offset="1" stop-color="#5078C2"/>
</linearGradient>
<linearGradient id="paint1_linear_1745_1742" x1="69.3432" y1="0" x2="69.3432" y2="138.686" gradientUnits="userSpaceOnUse">
<stop stop-color="#2BDAF8"/>
<stop offset="1" stop-color="#5078C2"/>
</linearGradient>
<linearGradient id="paint2_linear_1745_1742" x1="69.3431" y1="24.1895" x2="69.3431" y2="114.497" gradientUnits="userSpaceOnUse">
<stop stop-color="#2BDAF8"/>
<stop offset="1" stop-color="#5078C2"/>
</linearGradient>
<clipPath id="clip0_1745_1742">
<rect width="53" height="50" fill="white" transform="translate(42 41)"/>
</clipPath>
</defs>
</svg>
