<svg width="139" height="139" viewBox="0 0 139 139" fill="none" xmlns="http://www.w3.org/2000/svg">
<circle cx="69.3438" cy="69.3432" r="58.0547" fill="url(#paint0_linear_513_1333)" fill-opacity="0.2"/>
<circle cx="69.3432" cy="69.3432" r="69.3432" fill="url(#paint1_linear_513_1333)" fill-opacity="0.2"/>
<circle cx="69.3431" cy="69.3432" r="45.1537" fill="url(#paint2_linear_513_1333)" fill-opacity="0.8"/>
<path d="M68.5012 80.6844C71.4699 80.6844 73.8731 78.2753 73.8731 75.3126C73.8731 72.3498 71.4522 69.9407 68.5012 69.9407C65.5502 69.9407 63.1294 72.3498 63.1294 75.3126C63.1294 78.2753 65.5385 80.6844 68.5012 80.6844ZM84.6286 56.4992C87.5973 56.4992 90.0005 58.9083 90.0005 61.8711V88.7422C90.0005 91.7109 87.5914 94.1141 84.6286 94.1141H52.3738C49.4052 94.1141 47.002 91.705 47.002 88.7422V61.8711C47.002 58.8906 49.4228 56.4992 52.3738 56.4992H55.0598V51.1273C55.0657 43.6998 61.0796 37.6859 68.5012 37.6859C75.9229 37.6859 81.9368 43.6998 81.9368 51.1215V56.4933H84.6227L84.6286 56.4992ZM68.5012 43.0578C64.0482 43.0578 60.4375 46.6685 60.4375 51.1215V56.4933H76.5649V51.1215C76.5649 46.6685 72.9542 43.0578 68.5012 43.0578Z" fill="white"/>
<defs>
<linearGradient id="paint0_linear_513_1333" x1="69.3438" y1="11.2884" x2="69.3438" y2="127.398" gradientUnits="userSpaceOnUse">
<stop stop-color="#2BDAF8"/>
<stop offset="1" stop-color="#5078C2"/>
</linearGradient>
<linearGradient id="paint1_linear_513_1333" x1="69.3432" y1="0" x2="69.3432" y2="138.686" gradientUnits="userSpaceOnUse">
<stop stop-color="#2BDAF8"/>
<stop offset="1" stop-color="#5078C2"/>
</linearGradient>
<linearGradient id="paint2_linear_513_1333" x1="69.3431" y1="24.1895" x2="69.3431" y2="114.497" gradientUnits="userSpaceOnUse">
<stop stop-color="#2BDAF8"/>
<stop offset="1" stop-color="#5078C2"/>
</linearGradient>
</defs>
</svg>
