<svg width="140" height="139" viewBox="0 0 140 139" fill="none" xmlns="http://www.w3.org/2000/svg">
<circle cx="70.0293" cy="69.3432" r="58.0547" fill="url(#paint0_linear_513_1345)" fill-opacity="0.2"/>
<circle cx="70.0297" cy="69.3432" r="69.3432" fill="url(#paint1_linear_513_1345)" fill-opacity="0.2"/>
<circle cx="70.0297" cy="69.3432" r="45.1537" fill="url(#paint2_linear_513_1345)" fill-opacity="0.8"/>
<g clip-path="url(#clip0_513_1345)">
<path d="M79.165 85.151C87.8704 85.151 94.9276 78.1333 94.9276 69.4766C94.9276 60.8198 87.8704 53.8021 79.165 53.8021C70.4595 53.8021 63.4023 60.8198 63.4023 69.4766C63.4023 78.1333 70.4595 85.151 79.165 85.151Z" fill="white"/>
<path d="M76.234 48.1307C77.1541 50.5823 81.0288 50.895 82.2052 48.1616C92.7421 49.1461 101.419 59.2766 100.981 70.0827C100.511 81.6571 91.1464 90.8301 79.6272 91C67.8635 91.1699 58.3089 82.4215 57.4625 70.7043C56.6666 59.6742 65.0371 49.5746 76.234 48.1346V48.1307ZM79.1497 86.6297C88.6966 86.6644 96.5002 79.0048 96.5468 69.5576C96.5934 60.0217 88.8752 52.308 79.2506 52.2733C69.6417 52.2385 61.8535 59.9329 61.8496 69.4611C61.8496 78.916 69.5873 86.5988 79.1497 86.6335V86.6297Z" fill="white"/>
<path d="M46.3084 70.3375C44.2274 70.3375 42.1425 70.3414 40.0616 70.3375C38.7765 70.3337 38 69.7314 38 68.7662C38 67.8358 38.7377 67.2489 39.9723 67.2489C44.2158 67.2412 48.4592 67.2374 52.7066 67.2489C53.9451 67.2489 54.6595 67.8474 54.64 68.7971C54.6245 69.743 53.8869 70.3298 52.6755 70.3337C50.5519 70.3414 48.4321 70.3337 46.3084 70.3337V70.3375Z" fill="white"/>
<path d="M48.7855 78.3137C47.0151 78.3137 45.2486 78.3215 43.4782 78.3137C42.2669 78.306 41.5215 77.7192 41.4866 76.781C41.4516 75.839 42.1738 75.1634 43.3851 75.1557C46.9996 75.1287 50.618 75.1287 54.2325 75.1557C55.44 75.1673 56.1466 75.8467 56.1 76.8042C56.0534 77.7115 55.3468 78.2983 54.2092 78.3099C52.4 78.3292 50.5947 78.3137 48.7855 78.3137V78.3137Z" fill="white"/>
<path d="M48.7929 62.4038C46.9876 62.4038 45.1784 62.4192 43.373 62.3999C42.1734 62.3883 41.4474 61.7436 41.4901 60.7938C41.5328 59.8904 42.2471 59.3075 43.3847 59.3036C46.9992 59.292 50.6137 59.292 54.2283 59.3036C55.3775 59.3036 56.0685 59.8866 56.0996 60.8054C56.1345 61.7745 55.4357 62.3845 54.2127 62.3999C52.4074 62.4192 50.5982 62.4038 48.7929 62.4038V62.4038Z" fill="white"/>
<path d="M53.9718 51.5667C55.4666 51.5667 56.9652 51.5513 58.4599 51.5706C59.6091 51.5899 60.3196 52.1767 60.3623 53.0763C60.405 54.0183 59.6596 54.7287 58.4871 54.7403C55.4549 54.7673 52.4266 54.7673 49.3945 54.7403C48.1909 54.7287 47.4843 54.0685 47.5115 53.0995C47.5348 52.169 48.2103 51.5861 49.3712 51.5706C50.9047 51.5474 52.4422 51.5629 53.9757 51.5629L53.9718 51.5667Z" fill="white"/>
<path d="M53.9912 82.8115C55.486 82.8115 56.9807 82.7999 58.4754 82.8153C59.6091 82.8269 60.3235 83.4176 60.3584 84.321C60.3934 85.2784 59.679 85.9077 58.4599 85.9155C55.4316 85.9309 52.4033 85.9309 49.3712 85.9155C48.1793 85.9077 47.5348 85.3672 47.5076 84.4252C47.4804 83.4407 48.1715 82.8308 49.3867 82.8153C50.9203 82.7999 52.4538 82.8115 53.9874 82.8115H53.9912Z" fill="white"/>
<path d="M79.2937 44.7758C78.1523 44.7758 77.0109 44.7989 75.8733 44.768C74.6581 44.7372 74.3165 44.3125 74.3087 42.9497C74.301 41.5058 74.6504 41.0347 75.8889 41.0193C78.2067 40.9884 80.5283 40.9884 82.85 41.0193C84.0691 41.0347 84.4496 41.5482 84.4379 42.9612C84.4263 44.2855 84.0458 44.7333 82.8345 44.7642C81.6543 44.7912 80.474 44.7719 79.2976 44.7719L79.2937 44.7758Z" fill="white"/>
<path d="M77.3252 45.4553H80.9242C80.7689 46.6405 81.5143 47.9763 80.3263 48.8141C79.8177 49.1731 78.7112 49.1886 78.1483 48.8758C76.7778 48.1153 77.7328 46.71 77.3252 45.4591V45.4553Z" fill="white"/>
<path d="M78.8893 61.6471C78.8893 60.0063 78.8621 58.3655 78.9126 56.7247C78.9242 56.3888 79.2193 56.0568 79.3862 55.7247C79.5299 56.0722 79.79 56.4158 79.7939 56.7671C79.825 60.0101 79.8211 63.2492 79.8055 66.4922C79.8055 67.1447 79.8482 67.6196 80.5626 68.0018C81.475 68.4882 81.7933 69.3955 81.4478 70.4263C81.1023 71.4455 80.3219 71.932 79.2853 71.9088C78.2953 71.8857 77.5421 71.3683 77.2587 70.4031C76.9636 69.4032 77.2237 68.4805 78.1788 67.9825C78.8388 67.6389 78.9087 67.1872 78.9009 66.5695C78.8776 64.9287 78.8932 63.2879 78.8932 61.6471H78.8893Z" fill="#8B31C4"/>
<path d="M85.2334 62.9056L86.1419 64.1256C85.0703 65.2182 83.8862 66.4266 82.8418 67.4922C82.5002 67.1447 82.0654 66.7084 81.7354 66.3726C82.737 65.3804 83.9095 64.2183 85.2334 62.9056V62.9056Z" fill="#8B31C4"/>
</g>
<defs>
<linearGradient id="paint0_linear_513_1345" x1="70.0293" y1="11.2884" x2="70.0293" y2="127.398" gradientUnits="userSpaceOnUse">
<stop stop-color="#BE3FF8"/>
<stop offset="1" stop-color="#491D92"/>
</linearGradient>
<linearGradient id="paint1_linear_513_1345" x1="70.0297" y1="0" x2="70.0297" y2="138.686" gradientUnits="userSpaceOnUse">
<stop stop-color="#BE3FF8"/>
<stop offset="1" stop-color="#491D92"/>
</linearGradient>
<linearGradient id="paint2_linear_513_1345" x1="70.0297" y1="24.1895" x2="70.0297" y2="114.497" gradientUnits="userSpaceOnUse">
<stop stop-color="#BE3FF8"/>
<stop offset="1" stop-color="#491D92"/>
</linearGradient>
<clipPath id="clip0_513_1345">
<rect width="63" height="50" fill="white" transform="translate(38 41)"/>
</clipPath>
</defs>
</svg>
