<svg width="139" height="139" viewBox="0 0 139 139" fill="none" xmlns="http://www.w3.org/2000/svg">
<circle cx="69.3433" cy="69.3432" r="58.0547" fill="url(#paint0_linear_198_365)" fill-opacity="0.2"/>
<circle cx="69.3432" cy="69.3432" r="69.3432" fill="url(#paint1_linear_198_365)" fill-opacity="0.2"/>
<circle cx="69.3431" cy="69.3432" r="45.1537" fill="url(#paint2_linear_198_365)" fill-opacity="0.8"/>
<g clip-path="url(#clip0_198_365)">
<path d="M66.7934 101C66.4809 100.897 66.1589 100.817 65.8653 100.681C65.1882 100.376 64.6437 99.9025 64.3122 99.2412C63.7914 98.2094 62.9627 97.7263 61.8169 97.6888C61.154 97.6654 60.6284 97.3511 60.3585 96.7367C60.098 96.1458 60.1691 95.5642 60.581 95.0483C60.8793 94.6684 61.2818 94.4527 61.7742 94.4433C62.4372 94.4292 63.1001 94.4339 63.763 94.4339C67.4563 94.4339 71.1497 94.4339 74.843 94.4339C75.0798 94.4339 75.3213 94.4339 75.5485 94.4902C76.3204 94.6778 76.8507 95.4048 76.7891 96.1599C76.7228 97.0041 76.1073 97.6044 75.2597 97.7029C74.8051 97.7545 74.3458 97.8295 73.9197 97.989C73.4083 98.1766 73.0437 98.5799 72.7927 99.063C72.2671 100.09 71.4432 100.733 70.2926 100.948C70.2595 100.953 70.2358 100.986 70.2074 101.005H66.7934V101Z" fill="white"/>
<path d="M61.7644 86.1935C61.6082 84.7771 61.2294 83.4545 60.647 82.1882C59.752 80.2465 58.4357 78.5909 57.072 76.9635C55.8125 75.4674 54.534 73.99 53.4781 72.3391C51.6172 69.4219 50.8596 66.2327 51.1342 62.8089C51.5462 57.678 53.8237 53.5133 57.9148 50.3475C60.6138 48.2604 63.7011 47.0785 67.1198 46.8487C72.6646 46.4735 77.3854 48.2885 81.2161 52.2751C83.7919 54.9531 85.2835 58.1752 85.7665 61.8475C86.382 66.5 85.1036 70.6179 82.1583 74.2573C80.8609 75.8566 79.5257 77.4278 78.2614 79.0553C76.8077 80.9266 75.7613 82.9996 75.3493 85.354C75.3114 85.5744 75.2783 85.7949 75.2499 86.0153C75.2404 86.0716 75.2499 86.1279 75.2499 86.2076C75.3683 86.2357 75.4819 86.2592 75.5956 86.292C76.3248 86.4984 76.8361 87.2066 76.7888 87.9335C76.7367 88.7261 76.1638 89.3546 75.3777 89.4719C75.2262 89.4953 75.07 89.5047 74.9184 89.5047C70.6332 89.5047 66.3432 89.5047 62.058 89.5047C61.1063 89.5047 60.4244 89.0216 60.254 88.2337C60.0598 87.3473 60.5712 86.5171 61.4519 86.2826C61.5419 86.2592 61.6319 86.2357 61.7644 86.2029V86.1935ZM54.4251 60.6374C54.4251 61.3785 54.8891 61.8897 55.5284 61.9788C56.1392 62.0632 56.7027 61.6646 56.8921 60.9986C57.9717 57.2606 60.306 54.6107 63.9 53.0442C64.6481 52.7206 64.9559 52.0218 64.6623 51.3558C64.3735 50.7039 63.6632 50.4553 62.9245 50.7743C58.7293 52.5893 55.9593 55.6801 54.5908 59.9996C54.5151 60.2435 54.4677 60.4967 54.4298 60.6374H54.4251Z" fill="white"/>
<path d="M68.5072 93.6085C66.3054 93.6085 64.1036 93.6085 61.9018 93.6085C61.2152 93.6085 60.6896 93.2989 60.3866 92.6845C60.0883 92.0842 60.1593 91.4979 60.5665 90.9633C60.9311 90.4849 61.4472 90.3207 62.0344 90.3207C64.3072 90.3207 66.58 90.3207 68.8529 90.3207C70.9031 90.3207 72.9487 90.3207 74.999 90.3207C75.9128 90.3207 76.5805 90.8179 76.7509 91.6105C76.9782 92.6658 76.2017 93.5991 75.0795 93.6038C72.8871 93.6085 70.6995 93.6038 68.5072 93.6038V93.6085Z" fill="white"/>
<path d="M41.9673 61.5707C43.0422 61.5707 44.1217 61.5707 45.1966 61.5707C46.1862 61.5707 46.9249 62.2602 46.9438 63.1841C46.9628 64.0987 46.2336 64.8397 45.2487 64.8491C43.0611 64.8632 40.8688 64.8678 38.6812 64.8491C37.6821 64.8397 36.986 64.1221 37.0002 63.1841C37.0097 62.2555 37.7436 61.5754 38.738 61.5707C39.8128 61.5707 40.8924 61.5707 41.9673 61.5707Z" fill="white"/>
<path d="M95.0803 61.5707C96.1362 61.5707 97.1874 61.5707 98.2433 61.5707C99.2471 61.5707 99.981 62.2414 99.9953 63.17C100.014 64.1268 99.3039 64.8444 98.2906 64.8538C96.122 64.8678 93.9581 64.8678 91.7894 64.8538C90.7761 64.8491 90.0374 64.1127 90.0611 63.1841C90.0848 62.2555 90.8187 61.5754 91.8131 61.5754C92.9021 61.5754 93.9912 61.5754 95.0803 61.5754V61.5707Z" fill="white"/>
<path d="M91.2595 42.3087C91.2595 42.7683 91.089 43.1576 90.767 43.4812C89.2139 45.0243 87.6608 46.572 86.0935 48.1056C85.4117 48.7716 84.3794 48.7575 83.7355 48.1056C83.0915 47.4584 83.0962 46.4407 83.7686 45.77C85.3122 44.2316 86.8606 42.698 88.4137 41.169C88.9393 40.6531 89.6401 40.5171 90.2746 40.8079C90.9138 41.1034 91.2358 41.6099 91.2595 42.3087Z" fill="white"/>
<path d="M53.7341 46.9378C53.7152 47.6366 53.4027 48.1572 52.754 48.4386C52.0958 48.7247 51.4707 48.6262 50.9452 48.1384C50.4338 47.6647 49.9508 47.1676 49.4583 46.6751C48.3882 45.6152 47.3134 44.5552 46.248 43.4906C45.7176 42.9606 45.5898 42.2571 45.8881 41.6146C46.1722 41.0002 46.802 40.5922 47.4886 40.6813C47.8342 40.7282 48.232 40.8595 48.4735 41.0893C50.1071 42.6558 51.7028 44.2551 53.3032 45.8544C53.5968 46.1499 53.7294 46.5251 53.7294 46.9425L53.7341 46.9378Z" fill="white"/>
<path d="M53.734 79.4633C53.7434 79.9229 53.5777 80.3169 53.2557 80.6405C51.6931 82.1929 50.1353 83.75 48.5585 85.2883C47.8767 85.9496 46.8397 85.9215 46.2005 85.2649C45.5754 84.6223 45.5754 83.614 46.2383 82.9527C47.7867 81.405 49.3446 79.8619 50.9071 78.3283C51.4185 77.8265 52.1098 77.6951 52.7396 77.9765C53.3836 78.2626 53.7103 78.7692 53.7387 79.468L53.734 79.4633Z" fill="white"/>
<path d="M83.2666 79.482C83.2855 78.7832 83.6028 78.2673 84.2468 77.9812C84.8907 77.6951 85.5252 77.7795 86.0271 78.2673C87.6418 79.8338 89.2375 81.419 90.8238 83.0136C91.4535 83.6515 91.4062 84.688 90.7717 85.2977C90.1182 85.9215 89.1097 85.9309 88.4373 85.2742C87.1967 84.0642 85.9751 82.8401 84.7439 81.6207C84.4172 81.2971 84.0905 80.9782 83.7638 80.6499C83.4418 80.3262 83.2666 79.9417 83.2666 79.482Z" fill="white"/>
<path d="M70.1458 36.9152C70.1458 38.0267 70.16 39.1429 70.1458 40.2545C70.1316 41.0893 69.5066 41.7553 68.6827 41.8491C67.8825 41.9382 67.1248 41.4317 66.9118 40.6437C66.8739 40.5077 66.8597 40.367 66.8597 40.2263C66.8597 38.022 66.8502 35.8177 66.8597 33.6181C66.8597 32.9052 67.3048 32.3142 67.9629 32.0891C68.6069 31.8687 69.3172 32.061 69.767 32.5769C70.0464 32.9052 70.16 33.2851 70.16 33.7119C70.1553 34.7765 70.16 35.8458 70.16 36.9105L70.1458 36.9152Z" fill="white"/>
</g>
<defs>
<linearGradient id="paint0_linear_198_365" x1="69.3433" y1="11.2884" x2="69.3433" y2="127.398" gradientUnits="userSpaceOnUse">
<stop stop-color="#2BDAF8"/>
<stop offset="1" stop-color="#5078C2"/>
</linearGradient>
<linearGradient id="paint1_linear_198_365" x1="69.3432" y1="0" x2="69.3432" y2="138.686" gradientUnits="userSpaceOnUse">
<stop stop-color="#2BDAF8"/>
<stop offset="1" stop-color="#5078C2"/>
</linearGradient>
<linearGradient id="paint2_linear_198_365" x1="69.3431" y1="24.1895" x2="69.3431" y2="114.497" gradientUnits="userSpaceOnUse">
<stop stop-color="#2BDAF8"/>
<stop offset="1" stop-color="#5078C2"/>
</linearGradient>
<clipPath id="clip0_198_365">
<rect width="63" height="69" fill="white" transform="translate(37 32)"/>
</clipPath>
</defs>
</svg>
