<svg width="139" height="139" viewBox="0 0 139 139" fill="none" xmlns="http://www.w3.org/2000/svg">
<circle cx="69.3433" cy="69.3432" r="58.0547" fill="url(#paint0_linear_198_343)" fill-opacity="0.2"/>
<circle cx="69.3432" cy="69.3432" r="69.3432" fill="url(#paint1_linear_198_343)" fill-opacity="0.2"/>
<circle cx="69.3431" cy="69.3432" r="45.1537" fill="url(#paint2_linear_198_343)" fill-opacity="0.8"/>
<g clip-path="url(#clip0_198_343)">
<path d="M69.5183 37.7198L72.7848 36.1225C73.2494 35.8971 73.802 35.9951 74.1638 36.3675L76.687 38.9888C76.9413 39.2534 77.3032 39.3857 77.665 39.3465L81.2787 38.9643C81.7922 38.9105 82.2812 39.1946 82.4915 39.665L83.9682 42.9919C84.1149 43.3251 84.4132 43.575 84.7653 43.6632L88.291 44.5403C88.7897 44.6627 89.1516 45.0988 89.1907 45.6133L89.4401 49.244C89.4646 49.6115 89.6602 49.9447 89.9633 50.1505L92.9756 52.1839C93.401 52.4729 93.5966 53.0021 93.4548 53.5019L92.4523 57.0003C92.3496 57.3531 92.4181 57.7304 92.6333 58.0292L94.7702 60.974C95.0734 61.3905 95.0734 61.9588 94.7702 62.3753L92.6333 65.3201C92.4181 65.619 92.3496 65.9962 92.4523 66.349L93.4548 69.8474C93.5966 70.3423 93.4059 70.8764 92.9756 71.1655L89.9633 73.1989C89.6602 73.4046 89.4694 73.7378 89.4401 74.1053L89.1907 77.736C89.1565 78.2505 88.7897 78.6866 88.291 78.8091L84.7653 79.6861C84.4083 79.7743 84.1149 80.0242 83.9682 80.3574L82.4915 83.6843C82.2812 84.1547 81.7922 84.4389 81.2787 84.385L77.665 84.0028C77.3032 83.9636 76.9413 84.0959 76.687 84.3605L74.1638 86.9818C73.8069 87.3542 73.2494 87.4522 72.7848 87.2268L69.5183 85.6295C69.1907 85.4678 68.8044 85.4678 68.4768 85.6295L65.2103 87.2268C64.7457 87.4522 64.1932 87.3542 63.8313 86.9818L61.3081 84.3605C61.0538 84.0959 60.6919 83.9636 60.3301 84.0028L56.7164 84.385C56.2029 84.4389 55.7139 84.1547 55.5037 83.6843L54.0269 80.3574C53.8802 80.0242 53.5819 79.7743 53.2298 79.6861L49.7042 78.8091C49.2054 78.6866 48.8435 78.2505 48.8044 77.736L48.555 74.1053C48.5306 73.7378 48.335 73.4046 48.0318 73.1989L45.0196 71.1655C44.5941 70.8764 44.3985 70.3472 44.5403 69.8474L45.5428 66.349C45.6455 65.9962 45.577 65.619 45.3619 65.3201L43.2249 62.3753C42.9218 61.9588 42.9218 61.3905 43.2249 60.974L45.3619 58.0292C45.577 57.7304 45.6455 57.3531 45.5428 57.0003L44.5403 53.5019C44.3985 53.007 44.5892 52.4729 45.0196 52.1839L48.0318 50.1505C48.335 49.9447 48.5257 49.6115 48.555 49.244L48.8044 45.6133C48.8386 45.0988 49.2054 44.6627 49.7042 44.5403L53.2298 43.6632C53.5868 43.575 53.8802 43.3251 54.0269 42.9919L55.5037 39.665C55.7139 39.1946 56.2029 38.9105 56.7164 38.9643L60.3301 39.3465C60.6919 39.3857 61.0538 39.2534 61.3081 38.9888L63.8362 36.3626C64.1932 35.9902 64.7506 35.8922 65.2152 36.1176L68.4817 37.7149C68.8093 37.8766 69.1956 37.8766 69.5232 37.7149L69.5183 37.7198Z" fill="white"/>
<path d="M59.3522 100.814L55.8217 94.7332C55.7386 94.5862 55.5625 94.5176 55.3963 94.5617L48.5258 96.551C48.2324 96.6343 47.9635 96.3452 48.076 96.0562L56.0368 75.8153C56.1102 75.6242 56.3253 75.5311 56.5161 75.6046L67.7581 80.0438C67.9488 80.1173 68.0417 80.3329 67.9684 80.524L60.0124 100.755C59.8999 101.044 59.5038 101.073 59.3474 100.804L59.3522 100.814Z" fill="white"/>
<path d="M79.3814 100.814L82.912 94.7332C82.9951 94.5862 83.1712 94.5176 83.3374 94.5617L90.2078 96.551C90.5012 96.6343 90.7702 96.3452 90.6577 96.0562L82.6968 75.8153C82.6235 75.6242 82.4083 75.5311 82.2176 75.6046L70.9756 80.0438C70.7849 80.1173 70.6919 80.3329 70.7653 80.524L78.7213 100.755C78.8338 101.044 79.2298 101.073 79.3863 100.804L79.3814 100.814Z" fill="white"/>
<path d="M69.0196 81.2785C79.3496 81.2785 87.7237 72.8877 87.7237 62.537C87.7237 52.1864 79.3496 43.7955 69.0196 43.7955C58.6896 43.7955 50.3154 52.1864 50.3154 62.537C50.3154 72.8877 58.6896 81.2785 69.0196 81.2785Z" stroke="#34A1CC" stroke-width="2" stroke-miterlimit="10"/>
<path d="M65.8755 69.6808C65.499 69.6808 65.1224 69.5387 64.8388 69.2496L59.1273 63.5267C58.5552 62.9535 58.5552 62.0225 59.1273 61.4493C59.6995 60.876 60.6286 60.876 61.2007 61.4493L65.8755 66.1334L77.6066 54.3789C78.1787 53.8057 79.1078 53.8057 79.6799 54.3789C80.252 54.9522 80.252 55.8831 79.6799 56.4564L66.9122 69.2496C66.6237 69.5387 66.252 69.6808 65.8755 69.6808Z" fill="#35A0CB"/>
</g>
<defs>
<linearGradient id="paint0_linear_198_343" x1="69.3433" y1="11.2884" x2="69.3433" y2="127.398" gradientUnits="userSpaceOnUse">
<stop stop-color="#2BDAF8"/>
<stop offset="1" stop-color="#5078C2"/>
</linearGradient>
<linearGradient id="paint1_linear_198_343" x1="69.3432" y1="0" x2="69.3432" y2="138.686" gradientUnits="userSpaceOnUse">
<stop stop-color="#2BDAF8"/>
<stop offset="1" stop-color="#5078C2"/>
</linearGradient>
<linearGradient id="paint2_linear_198_343" x1="69.3431" y1="24.1895" x2="69.3431" y2="114.497" gradientUnits="userSpaceOnUse">
<stop stop-color="#2BDAF8"/>
<stop offset="1" stop-color="#5078C2"/>
</linearGradient>
<clipPath id="clip0_198_343">
<rect width="52" height="65" fill="white" transform="translate(43 36)"/>
</clipPath>
</defs>
</svg>
