<svg width="140" height="139" viewBox="0 0 140 139" fill="none" xmlns="http://www.w3.org/2000/svg">
<circle cx="70.0297" cy="69.3433" r="58.0547" fill="url(#paint0_linear_4141_9724)" fill-opacity="0.2"/>
<circle cx="70.0297" cy="69.3432" r="69.3432" fill="url(#paint1_linear_4141_9724)" fill-opacity="0.2"/>
<circle cx="70.0297" cy="69.3431" r="45.1537" fill="url(#paint2_linear_4141_9724)" fill-opacity="0.8"/>
<g clip-path="url(#clip0_4141_9724)">
<path d="M47.3375 91C47.6471 90.1956 47.9527 89.3873 48.2702 88.5869C51.5882 80.1748 54.9102 71.7667 58.2322 63.3586C58.6013 62.4274 58.9625 61.4884 59.3594 60.5691C59.9269 59.2417 61.0303 58.7226 62.3956 58.6711C63.6656 58.6236 64.8404 59.0238 65.9914 59.5032C66.1025 59.5508 66.2137 59.5983 66.3645 59.6617C66.432 59.1545 66.5113 58.679 66.5629 58.1956C66.686 56.9911 66.7574 55.7826 66.5828 54.574C66.555 54.3878 66.5193 54.2055 66.4716 54.0233C66.1502 52.7791 65.3723 52.157 64.0824 52.1253C63.6974 52.1174 63.3124 52.1253 62.9274 52.1174C62.5305 52.1095 62.3083 51.9034 62.3043 51.5111C62.2964 49.7281 62.3003 47.945 62.3043 46.162C62.3043 45.8291 62.5027 45.5953 62.8004 45.5835C64.1895 45.5359 65.5628 45.5755 66.8685 46.1501C68.8649 47.0257 70.0635 48.579 70.6946 50.6196C71.1232 52.0104 71.1073 53.4329 70.9486 54.8593C70.7104 57.0188 70.0516 59.0515 69.0395 60.9732C69.0197 61.0129 69.0078 61.0604 69.0038 61.0723L72.4845 63.6994C72.7465 63.5052 73.0442 63.2793 73.3498 63.0654C74.9056 61.9837 76.6122 61.215 78.4141 60.6444C78.6403 60.5731 78.7118 60.478 78.7157 60.2402C78.7356 59.2021 78.7356 58.156 78.8388 57.1218C78.938 56.1273 79.3071 55.208 79.9977 54.4552C80.7994 53.5835 81.8393 53.2665 82.9863 53.215C83.2681 53.2031 83.5499 53.215 83.8396 53.215C83.919 52.7038 83.9904 52.2125 84.0698 51.7251C84.3794 49.8826 85.2803 48.4324 86.9354 47.5012C88.0308 46.8871 89.2214 46.6731 90.4597 46.6691C91.063 46.6691 91.6623 46.6691 92.2656 46.6691C92.6982 46.6691 92.9046 46.8712 92.9046 47.3071C92.9086 48.6979 92.9086 50.0847 92.9046 51.4755C92.9046 51.8915 92.6982 52.0896 92.2775 52.1015C91.8647 52.1134 91.448 52.1055 91.0392 52.1332C90.1184 52.1927 89.6263 52.7315 89.6263 53.6508C89.6263 54.158 89.6263 54.6652 89.6263 55.1724C89.6263 56.6147 88.9397 57.6092 87.6537 58.2154C86.9869 58.5285 86.2805 58.6513 85.5462 58.6672C85.2684 58.6711 84.9866 58.6672 84.6969 58.6672C84.7048 58.7226 84.7009 58.7504 84.7128 58.7702C85.709 60.3155 85.1216 62.1104 84.2325 63.1605C83.3752 64.1748 82.2758 64.8405 81.0375 65.2447C79.8429 65.633 78.6086 65.8945 77.3941 66.2154C76.771 66.3819 76.1439 66.5522 75.4771 66.7306C75.6994 66.9921 75.9018 67.214 76.0844 67.4477C76.6598 68.1768 77.2353 68.9059 77.795 69.6469C77.9061 69.7935 77.9855 69.8331 78.1601 69.7578C80.5692 68.7434 83.0815 68.3313 85.6812 68.5334C87.7331 68.6919 89.6342 69.3378 91.321 70.5423C93.0514 71.7786 94.0278 73.423 93.9722 75.6023C93.9643 75.9311 93.9881 76.26 93.9921 76.5889C93.9921 76.9931 93.7936 77.207 93.3928 77.207C91.9719 77.207 90.551 77.207 89.1341 77.207C88.7412 77.207 88.5348 76.9891 88.5269 76.5929C88.5269 76.4344 88.511 76.2719 88.5269 76.1134C88.5904 75.5587 88.3046 75.206 87.8641 74.9406C87.2171 74.5522 86.4988 74.3621 85.7685 74.2234C83.9626 73.8747 82.1409 73.9064 80.3152 73.9936C80.2993 73.9936 80.2835 74.0054 80.2795 74.0094C80.4382 74.6275 80.6208 75.2377 80.7518 75.8598C80.8986 76.5453 80.9185 77.2427 80.7677 77.9282C80.5097 79.1169 79.7992 79.9054 78.6403 80.3016C75.5803 81.3398 72.5282 82.3898 69.4682 83.4319C62.2368 85.9044 55.0015 88.373 47.7701 90.8455C47.6392 90.889 47.5122 90.9485 47.3812 91.004H47.3256L47.3375 91ZM65.9636 61.8252C65.1222 61.5319 64.3364 61.2229 63.5267 60.9891C63.1298 60.8742 62.6893 60.8623 62.2725 60.8702C61.6216 60.8861 61.2684 61.2467 61.2247 61.8925C61.2049 62.162 61.2128 62.4393 61.2525 62.7048C61.4549 64.0243 62.0185 65.209 62.6694 66.3541C64.0585 68.7989 65.8644 70.9148 67.8965 72.8445C69.6944 74.5522 71.6352 76.0698 73.8578 77.2031C74.8818 77.7261 75.9335 78.1778 77.0964 78.2848C78.3149 78.3997 78.811 77.8925 78.684 76.6721C78.6006 75.8598 78.3427 75.0991 78.0291 74.3502C77.9736 74.2154 77.8981 74.1758 77.7513 74.1917C76.1439 74.3739 74.5524 74.6355 73.0005 75.1149C72.6155 75.2338 72.3893 75.1823 72.2266 74.9287C72.0718 74.687 72.1273 74.4255 72.4091 74.16C73.5879 73.0466 74.6278 71.7826 76.005 70.8712C75.9494 70.788 75.9097 70.7167 75.8581 70.6533C75.0921 69.7261 74.338 68.7949 73.5562 67.8796C73.2029 67.4636 73.326 67.4715 72.8576 67.7528C71.9408 68.3036 71.0557 68.9059 70.1667 69.4963C69.6587 69.8331 69.1665 70.1937 68.6585 70.5344C68.3926 70.7127 68.1386 70.6929 67.9362 70.4988C67.7338 70.3046 67.7139 70.0589 67.8806 69.7776C67.9203 69.7142 67.964 69.6508 68.0036 69.5874C68.9443 68.1412 69.8809 66.6949 70.8375 65.2249C69.9127 64.4284 68.9046 63.6518 67.8608 62.9901C67.2892 63.6677 66.7415 64.3096 66.1938 64.9515C66.0192 65.1535 65.8088 65.2526 65.5429 65.1654C65.2453 65.0664 65.1262 64.7732 65.2214 64.4284C65.4596 63.5924 65.6937 62.7523 65.9597 61.8172L65.9636 61.8252Z" fill="white"/>
<path d="M57.2122 51.6023L53.025 55.7866L48.8179 51.5825L53.0131 47.3943L57.2122 51.6023Z" fill="white"/>
<path d="M83.657 82.2908C85.0342 83.6657 86.4392 85.0723 87.8283 86.4592C86.4273 87.8539 85.0144 89.2645 83.6213 90.6553C82.252 89.2843 80.843 87.8698 79.4539 86.479C80.8272 85.1159 82.2401 83.7053 83.661 82.2947L83.657 82.2908Z" fill="white"/>
<path d="M71.7463 47.2001C73.1513 45.7974 74.5563 44.3908 75.9494 43C77.3584 44.4106 78.7753 45.8252 80.1803 47.2358C78.7991 48.6147 77.3862 50.0292 75.9812 51.4319C74.5762 50.0292 73.1632 48.6147 71.7503 47.2001H71.7463Z" fill="white"/>
<path d="M48.6393 66.2234L46 63.5844L48.6671 60.9495C49.5125 61.8014 50.4095 62.7008 51.2906 63.5805L48.6393 66.2234Z" fill="white"/>
<path d="M91.2496 65.1377C90.3804 64.27 89.4874 63.3745 88.6102 62.4948L91.2853 59.8242C92.1584 60.6999 93.0514 61.5954 93.9286 62.475L91.2496 65.1377Z" fill="white"/>
</g>
<defs>
<linearGradient id="paint0_linear_4141_9724" x1="70.0297" y1="11.2886" x2="70.0297" y2="127.398" gradientUnits="userSpaceOnUse">
<stop stop-color="#BE3FF8"/>
<stop offset="1" stop-color="#491D92"/>
</linearGradient>
<linearGradient id="paint1_linear_4141_9724" x1="70.0297" y1="0" x2="70.0297" y2="138.686" gradientUnits="userSpaceOnUse">
<stop stop-color="#BE3FF8"/>
<stop offset="1" stop-color="#491D92"/>
</linearGradient>
<linearGradient id="paint2_linear_4141_9724" x1="70.0297" y1="24.1895" x2="70.0297" y2="114.497" gradientUnits="userSpaceOnUse">
<stop stop-color="#BE3FF8"/>
<stop offset="1" stop-color="#491D92"/>
</linearGradient>
<clipPath id="clip0_4141_9724">
<rect width="48" height="48" fill="white" transform="translate(46 43)"/>
</clipPath>
</defs>
</svg>
