<svg width="20" height="21" viewBox="0 0 20 21" fill="none" xmlns="http://www.w3.org/2000/svg">
<path d="M17.0715 3.41679C15.2554 1.62356 12.7581 0.48877 10.0112 0.48877C7.24148 0.48877 4.74433 1.62373 2.92853 3.41696C1.11179 5.23284 0 7.73034 0 10.5C0 13.2697 1.11196 15.7669 2.9287 17.5831C4.74459 19.399 7.24209 20.5113 10.0113 20.5113C12.7583 20.5113 15.2558 19.3992 17.0716 17.5831C18.8879 15.7669 20 13.2697 20 10.5C20 7.73034 18.8879 5.23276 17.0716 3.41696L17.0715 3.41679ZM3.38205 3.89416C4.56236 2.71316 6.03856 1.85057 7.71822 1.41971C7.10478 1.94145 6.58291 2.64503 6.12866 3.50779C5.58392 4.55192 5.15271 5.80092 4.90283 7.20877H1.22553C1.70227 5.95929 2.45137 4.82498 3.38197 3.89421L3.38205 3.89416ZM0.634884 10.5001C0.634884 9.59179 0.771404 8.70633 1.02093 7.86639H4.78958C4.67589 8.70633 4.60822 9.59179 4.60822 10.5001C4.60822 11.4089 4.67589 12.3161 4.78958 13.1562H1.02111C0.771409 12.3161 0.634889 11.4312 0.634889 10.5001H0.634884ZM3.38205 17.1292C2.45159 16.1986 1.70253 15.0634 1.22579 13.7921H4.90291C5.15311 15.1996 5.58418 16.4714 6.12875 17.4926C6.58296 18.3553 7.10487 19.0594 7.7183 19.5812C6.03843 19.1724 4.56241 18.3097 3.38214 17.1292H3.38205ZM9.67071 19.8528C8.53576 19.6945 7.4906 18.7182 6.697 17.1974C6.19727 16.2436 5.81189 15.086 5.56153 13.7919H9.67089L9.67071 19.8528ZM9.67071 13.1562H5.44804C5.31202 12.3161 5.24368 11.4312 5.24368 10.5001C5.24368 9.59179 5.31202 8.70633 5.44804 7.86639H9.67071V13.1562ZM9.67071 7.2089H5.56135C5.81156 5.91458 6.19693 4.75675 6.69683 3.80329C7.49077 2.30495 8.53554 1.32883 9.67054 1.16944L9.67071 7.2089ZM16.6179 3.89434C17.5484 4.82528 18.2975 5.95976 18.7742 7.2089H15.0962C14.8465 5.80105 14.4155 4.55187 13.8699 3.50792C13.4162 2.64516 12.8943 1.94154 12.2811 1.41984C13.9614 1.8504 15.4375 2.71316 16.6181 3.89429L16.6179 3.89434ZM10.3293 1.16948C11.4646 1.32883 12.5085 2.30495 13.3033 3.80333C13.8029 4.75662 14.1885 5.91424 14.4383 7.20894H10.3293V1.16948ZM10.3293 7.86652H14.5515C14.6877 8.70646 14.7563 9.59192 14.7563 10.5002C14.7563 11.4313 14.6877 12.3163 14.5515 13.1564H10.3293V7.86652ZM10.3293 19.8528V13.7919H14.4383C14.1881 15.0856 13.8026 16.2432 13.3033 17.1974C12.5088 18.7182 11.4646 19.6942 10.3293 19.8528V19.8528ZM16.6179 17.1291C15.4375 18.3099 13.9614 19.1727 12.2814 19.5813C12.8944 19.0595 13.4163 18.3554 13.8702 17.4927C14.4158 16.4715 14.8469 15.1997 15.0965 13.7922H18.7745C18.2974 15.0632 17.5484 16.1985 16.6179 17.1291H16.6179ZM15.2101 13.1563C15.3234 12.3162 15.3915 11.4087 15.3915 10.5001C15.3915 9.59183 15.3236 8.70637 15.2101 7.86644H18.9782C19.2281 8.70637 19.3646 9.59183 19.3646 10.5001C19.3646 11.4312 19.2281 12.3162 18.9782 13.1563H15.2101Z" fill="white"/>
</svg>
