<?xml version="1.0" standalone="yes"?>
<svg xmlns="http://www.w3.org/2000/svg" width="141" height="42">
<path style="fill:#242424; stroke:none;" d="M0 3L4 1C1.58778 -0.354805 0.567618 0.351116 0 3z"/>
<path style="fill:#ffc809; stroke:none;" d="M0 5L1 5C7.86008 -2.77375 27.3075 1 37 1L137 1C128.404 -2.60722 114.322 0 105 0L32 0C23.4473 0 4.56961 -3.70769 0 5z"/>
<path style="fill:#242424; stroke:none;" d="M137 0L137 1L141 3L137 0z"/>
<path style="fill:#f1f1f1; stroke:none;" d="M4.11265 1.74228C-2.33555 4.55311 0.957878 25.7684 1.00077 32C1.02213 35.1023 0.7869 38.9291 4.14815 40.3966C11.7411 43.7118 25.7436 41 34 41L106 41C113.676 41 131.225 44.2809 137.682 39.9722C140.516 38.0813 139.994 33.946 140 31C140.013 24.8177 143.339 3.34946 135.941 1.3179C127.156 -1.0947 115.107 1 106 1L40 1C30.0524 1 13.2627 -2.24631 4.11265 1.74228z"/>
<path style="fill:#ffc809; stroke:none;" d="M138 1L139 2L138 1M139 2L140 3L139 2M140 3C140 10.6984 143.866 34.1861 137.682 39.3966C132.368 43.8743 116.683 41 110 41L33 41C25.9505 41 8.89923 44.099 3.3179 39.3966C-2.56489 34.4402 1 13.2591 1 6L0 6L0 31C0.00128441 33.8534 -0.655848 38.0461 1.6034 40.2577C6.7875 45.3325 26.0471 42 33 42L110 42C117.198 42 132.567 44.9015 138.682 40.821C141.73 38.7869 140.999 34.1516 141 31C141.004 22.7318 143.205 10.6368 140 3M46 7L47 8L46 7M74 7L75 8L74 7z"/>
<path style="fill:#05dcd7; stroke:none;" d="M11 8L11 33L28 16L11 8z"/>
<path style="fill:#242424; stroke:none;" d="M50 11L48 13L44 12L44 10L48 9C42.2221 7.0393 44.2483 16.6375 50 11z"/>
<path style="fill:#ee4855; stroke:none;" d="M48 8L49 9L48 8z"/>
<path style="fill:#ffc809; stroke:none;" d="M50 8L50 14L51 14L50 8z"/>
<path style="fill:#242424; stroke:none;" d="M51 8C51.0135 11.1942 50.5971 13.2708 54 14L54 13L54 9L51 8z"/>
<path style="fill:#ffc809; stroke:none;" d="M54 8L55 9L54 8z"/>
<path style="fill:#242424; stroke:none;" d="M55 8L55 9L57 14L58 14L59 8L55 8z"/>
<path style="fill:#ee4855; stroke:none;" d="M59 8L60 9L59 8M62 8L62 14L64 14L65 8L62 8z"/>
<path style="fill:#242424; stroke:none;" d="M65 8L66 14L67 14L69 9L65 8z"/>
<path style="fill:#ee4855; stroke:none;" d="M72 8L73 9L72 8z"/>
<path style="fill:#242424; stroke:none;" d="M78 10L77 10L72 12L72 10L77 9C68.9819 6.448 74.5047 18.6615 78 10M79 8L79 14L80 14L80 10L81 10L84 14L84 8L83 8L83 12L82 12L79 8z"/>
<path style="fill:#ee4855; stroke:none;" d="M80 8L81 9L80 8M43 9L44 10L43 9z"/>
<path style="fill:#ffc809; stroke:none;" d="M71 9L72 10L71 9z"/>
<path style="fill:#f1f1f1; stroke:none;" d="M73 9L73 13L77 12L77 10L73 9z"/>
<path style="fill:#ee4855; stroke:none;" d="M76.6667 9.33333L77.3333 9.66667L76.6667 9.33333z"/>
<path style="fill:#ffc809; stroke:none;" d="M47.6667 10.3333L48.3333 10.6667L47.6667 10.3333z"/>
<path style="fill:#ee4855; stroke:none;" d="M52.6667 10.3333L53.3333 10.6667L52.6667 10.3333z"/>
<path style="fill:#ffc809; stroke:none;" d="M72.3333 10.6667L72.6667 11.3333L72.3333 10.6667z"/>
<path style="fill:#ee4855; stroke:none;" d="M80 10L81 11L80 10z"/>
<path style="fill:#ffc809; stroke:none;" d="M46 11L47 12L46 11M52.6667 11.3333L53.3333 11.6667L52.6667 11.3333z"/>
<path style="fill:#ee4855; stroke:none;" d="M82 11L83 12L82 11M43 12L44 13L43 12z"/>
<path style="fill:#ffc809; stroke:none;" d="M71 12L72 13L71 12z"/>
<path style="fill:#ee4855; stroke:none;" d="M77 12L78 13L77 12M44 13L45 14L44 13M48 13L49 14L48 13M54 13L55 14L54 13M72 13L73 14L72 13M82 13L83 14L82 13z"/>
<path style="fill:#ffc809; stroke:none;" d="M24 20C26.7207 25.1677 31.2793 25.1677 34 20C30.0457 17.9098 27.9852 18.0135 24 20z"/>
<path style="fill:#ee4855; stroke:none;" d="M47 18L48 19L47 18z"/>
<path style="fill:#242424; stroke:none;" d="M56 24L50 24L50 26L54 26C47.0477 34.1157 41.5965 19.0943 54 21C50.4239 15.9604 42.2868 19.8304 43.4923 25.9815C45.1178 34.2753 55.4502 31.2072 56 24z"/>
<path style="fill:#ffc809; stroke:none;" d="M52 18L53 19L52 18M86.6667 18.3333L87.3333 18.6667L86.6667 18.3333M102 32L103 32L102 19L107 19C99.2168 16.043 100.691 27.5706 102 32M112 18L113 19L112 18M45 19L46 20L45 19z"/>
<path style="fill:#242424; stroke:none;" d="M86 19L86 31L88 31L88 19L86 19M102 19L102 31L104 31L104 26C113.086 25.2976 109.281 19.0862 102 19M112 19L112 31L114 31L114 19L112 19z"/>
<path style="fill:#ee4855; stroke:none;" d="M44 20L45 21L44 20M47 20L48 21L47 20z"/>
<path style="fill:#ffc809; stroke:none;" d="M104 20L104 21L107 21L104 20z"/>
<path style="fill:#ee4855; stroke:none;" d="M23 21L11 34L28 26L28 24L23 21z"/>
<path style="fill:#ffc809; stroke:none;" d="M46 21L47 22L46 21z"/>
<path style="fill:#f1f1f1; stroke:none;" d="M104 21L104 25L108 21L104 21z"/>
<path style="fill:#ee4855; stroke:none;" d="M110 21L111 22L110 21z"/>
<path style="fill:#ffc809; stroke:none;" d="M108 22L109 23L108 22z"/>
<path style="fill:#242424; stroke:none;" d="M59.3187 24.0471C55.1419 26.6995 59.7276 32.9426 63.6674 30.1489C67.6333 27.3368 63.3046 21.5158 59.3187 24.0471M69.314 24.0718C65.3227 26.4684 68.4714 32.6308 72.7616 30.6319C77.4337 28.4552 73.7459 21.4106 69.314 24.0718z"/>
<path style="fill:#ee4855; stroke:none;" d="M73 23L74 24L73 23M78 23L77 25L78 23z"/>
<path style="fill:#242424; stroke:none;" d="M83 31L82 34L77 33L77 34C85.1952 36.1641 84.9993 29.2216 85 23C78.1667 23.5565 73.9379 30.2939 83 31z"/>
<path style="fill:#ee4855; stroke:none;" d="M82 23L83 24L82 23z"/>
<path style="fill:#242424; stroke:none;" d="M97 30L97 29L92 30L97 26C89.8057 18.7446 86.9468 33.7523 97 30z"/>
<path style="fill:#ee4855; stroke:none;" d="M95 23L96 24L95 23M110 23L111 24L110 23z"/>
<path style="fill:#242424; stroke:none;" d="M115 24L115 25L120 25L120 26C113.074 27.1545 117.022 30.8365 122 31C121.936 25.6318 120.953 22.4149 115 24M123 23L124 35L131 23L128 28L123 23z"/>
<path style="fill:#ffc809; stroke:none;" d="M67 24L68 25L67 24z"/>
<path style="fill:#ee4855; stroke:none;" d="M96 24L97 25L96 24z"/>
<path style="fill:#ffc809; stroke:none;" d="M106 24L107 25L106 24z"/>
<path style="fill:#ee4855; stroke:none;" d="M107 24L108 25L107 24z"/>
<path style="fill:#ffc809; stroke:none;" d="M56 25L57 26L56 25z"/>
<path style="fill:#ee4855; stroke:none;" d="M59 25L60 26L59 25z"/>
<path style="fill:#f1f1f1; stroke:none;" d="M59 29L64 26C60.8628 25.5057 60.0004 25.9641 59 29z"/>
<path style="fill:#ee4855; stroke:none;" d="M65 25L66 26L65 25M69 25L70 26L69 25z"/>
<path style="fill:#f1f1f1; stroke:none;" d="M70 30L72 30L73 25C69.9641 26.0004 69.5057 26.8628 70 30M79 25L80 30L82 30C82.4943 26.8628 82.0359 26.0004 79 25z"/>
<path style="fill:#ffc809; stroke:none;" d="M82 25L83 26L82 25M89 25L90 26L89 25z"/>
<path style="fill:#f1f1f1; stroke:none;" d="M91 27L94 26L91 27z"/>
<path style="fill:#ffc809; stroke:none;" d="M94 25L95 26L94 25M116 25L117 26L116 25z"/>
<path style="fill:#f1f1f1; stroke:none;" d="M117 25L117 26L120 26L117 25z"/>
<path style="fill:#ee4855; stroke:none;" d="M123 25L124 26L123 25M125 25L126 26L125 25z"/>
<path style="fill:#ffc809; stroke:none;" d="M130 25L131 26L130 25M26 26L27 27L26 26z"/>
<path style="fill:#ee4855; stroke:none;" d="M73 26L74 27L73 26M75 26L77 28L77 26L75 26M78 26L79 27L78 26M92 26L93 27L92 26M96 26L97 27L96 26M104 26L104 27L107 27L104 26z"/>
<path style="fill:#ffc809; stroke:none;" d="M107 26L108 27L107 26M122 26L122 31L123 31L122 26M24 27L25 28L24 27z"/>
<path style="fill:#ee4855; stroke:none;" d="M43 27L44 28L43 27z"/>
<path style="fill:#ffc809; stroke:none;" d="M73 27L74 28L73 27M78 27L79 28L78 27M94 27L95 28L94 27z"/>
<path style="fill:#ee4855; stroke:none;" d="M118.667 27.3333L119.333 27.6667L118.667 27.3333M124 27L125 28L124 27M126.667 27.3333L127.333 27.6667L126.667 27.3333M129 27L130 28L129 27M46 28L47 29L46 28z"/>
<path style="fill:#ffc809; stroke:none;" d="M63 28L64 29L63 28M75.6667 28.3333L76.3333 28.6667L75.6667 28.3333z"/>
<path style="fill:#ee4855; stroke:none;" d="M89 28L90 29L89 28z"/>
<path style="fill:#f1f1f1; stroke:none;" d="M117 30L120 28L117 30z"/>
<path style="fill:#ee4855; stroke:none;" d="M48 29L49 30L48 29z"/>
<path style="fill:#ffc809; stroke:none;" d="M50 29L51 30L50 29z"/>
<path style="fill:#ee4855; stroke:none;" d="M51 29L52 30L51 29z"/>
<path style="fill:#ffc809; stroke:none;" d="M57 29L58 30L57 29M60 29L61 30L60 29z"/>
<path style="fill:#ee4855; stroke:none;" d="M62 29L63 30L62 29z"/>
<path style="fill:#ffc809; stroke:none;" d="M65 29L66 30L65 29z"/>
<path style="fill:#ee4855; stroke:none;" d="M72 29L73 30L72 29M79 29L80 30L79 29z"/>
<path style="fill:#ffc809; stroke:none;" d="M92 29L93 30L92 29z"/>
<path style="fill:#ee4855; stroke:none;" d="M119 29L120 30L119 29z"/>
<path style="fill:#ffc809; stroke:none;" d="M19 30L20 31L19 30z"/>
<path style="fill:#ee4855; stroke:none;" d="M58 30L59 31L58 30M64 30L65 31L64 30z"/>
<path style="fill:#ffc809; stroke:none;" d="M90 30L91 31L90 30z"/>
<path style="fill:#ee4855; stroke:none;" d="M96 30L97 31L96 30M115 30L116 31L115 30z"/>
<path style="fill:#ffc809; stroke:none;" d="M17 31L18 32L17 31z"/>
<path style="fill:#ee4855; stroke:none;" d="M48 31L48 32L52 32L48 31M60 31L61 32L60 31M62 31L63 32L62 31M70 31L71 32L70 31M72 31L73 32L72 31z"/>
<path style="fill:#ffc809; stroke:none;" d="M79 31L80 32L79 31z"/>
<path style="fill:#ee4855; stroke:none;" d="M80.6667 31.3333L81.3333 31.6667L80.6667 31.3333z"/>
<path style="fill:#f1f1f1; stroke:none;" d="M82 31L79 33C81.0485 33.2421 82.8684 33.3157 82 31z"/>
<path style="fill:#ffc809; stroke:none;" d="M87 31L88 32L87 31z"/>
<path style="fill:#ee4855; stroke:none;" d="M92 31L93 32L92 31M94 31L95 32L94 31z"/>
<path style="fill:#ffc809; stroke:none;" d="M112 31L113 32L112 31z"/>
<path style="fill:#ee4855; stroke:none;" d="M117.667 31.3333L118.333 31.6667L117.667 31.3333z"/>
<path style="fill:#ffc809; stroke:none;" d="M15 32L16 33L15 32M77 32L78 33L77 32z"/>
<path style="fill:#ee4855; stroke:none;" d="M78 32L79 33L78 32z"/>
<path style="fill:#ffc809; stroke:none;" d="M81 33L82 34L81 33M84 33L85 34L84 33z"/>
<path style="fill:#ee4855; stroke:none;" d="M83 34L84 35L83 34z"/>
<path style="fill:#ffc809; stroke:none;" d="M126 34L127 35L126 34M79 35L80 36L79 35z"/>
<path style="fill:#ee4855; stroke:none;" d="M80.6667 35.3333L81.3333 35.6667L80.6667 35.3333z"/>
<path style="fill:#242424; stroke:none;" d="M0 40L3 42L3 41L0 40M140 40L138 41L138 42L140 40z"/>
</svg>
