<svg width="200" height="59" viewBox="0 0 200 59" fill="none" xmlns="http://www.w3.org/2000/svg">
<path d="M192.593 59H7.40741C3.33519 59 0 55.6794 0 51.625V7.375C0 3.32059 3.33519 -9.53674e-07 7.40741 -9.53674e-07H192.593C196.665 -9.53674e-07 200 3.32059 200 7.375V51.625C200 55.6794 196.665 59 192.593 59Z" fill="white"/>
<path d="M192.593 1.18184C196.022 1.18184 198.813 3.96037 198.813 7.375V51.625C198.813 55.0396 196.022 57.8182 192.593 57.8182H7.40741C3.97778 57.8182 1.18704 55.0396 1.18704 51.625V7.375C1.18704 3.96037 3.97778 1.18184 7.40741 1.18184H192.593ZM192.593 -9.53674e-07H7.40741C3.33519 -9.53674e-07 0 3.32059 0 7.375V51.625C0 55.6794 3.33519 59 7.40741 59H192.593C196.665 59 200 55.6794 200 51.625V7.375C200 3.32059 196.665 -9.53674e-07 192.593 -9.53674e-07Z" fill="#A6A6A6"/>
<path d="M15.4595 11.1197C15.0243 11.5732 14.7725 12.2794 14.7725 13.1939V45.8135C14.7725 46.728 15.0243 47.4342 15.4595 47.8877L15.5669 47.9873L33.9262 29.7157V29.2843L15.5669 11.0127L15.4595 11.1197Z" fill="url(#paint0_linear_4118_6803)"/>
<path d="M40.0392 35.8093L33.9263 29.7157V29.2843L40.0466 23.1907L40.1837 23.27L47.4318 27.376C49.5003 28.5413 49.5003 30.4588 47.4318 31.6314L40.1837 35.73L40.0392 35.8093Z" fill="url(#paint1_linear_4118_6803)"/>
<path d="M40.1835 35.7301L33.9261 29.5001L15.4595 47.8878C16.1465 48.6069 17.2669 48.6936 18.541 47.9745L40.1835 35.7301Z" fill="url(#paint2_linear_4118_6803)"/>
<path d="M40.1835 23.27L18.541 11.0256C17.2669 10.3139 16.1465 10.4006 15.4595 11.1197L33.9261 29.5L40.1835 23.27Z" fill="url(#paint3_linear_4118_6803)"/>
<path d="M70.2484 15.1094C70.2484 16.341 69.878 17.3274 69.1484 18.0631C68.3095 18.9352 67.2169 19.374 65.878 19.374C64.5984 19.374 63.5058 18.9278 62.6095 18.0483C61.7113 17.156 61.2632 16.0608 61.2632 14.7499C61.2632 13.439 61.7113 12.3438 62.6095 11.4588C63.5058 10.5719 64.5984 10.1257 65.878 10.1257C66.515 10.1257 67.1224 10.2566 67.7021 10.5C68.2798 10.7452 68.7502 11.0771 69.091 11.4864L68.3169 12.2645C67.7224 11.5657 66.9132 11.2209 65.878 11.2209C64.9447 11.2209 64.1354 11.5454 63.4484 12.2C62.7687 12.8563 62.428 13.7063 62.428 14.7499C62.428 15.7934 62.7687 16.6508 63.4484 17.3071C64.1354 17.9543 64.9447 18.2862 65.878 18.2862C66.8687 18.2862 67.7021 17.9543 68.3595 17.2998C68.7928 16.8665 69.0391 16.2691 69.1039 15.5058H65.878V14.4401H70.1817C70.2336 14.6706 70.2484 14.8937 70.2484 15.1094Z" fill="black" stroke="black" stroke-width="0.16" stroke-miterlimit="10"/>
<path d="M77.0762 11.4146H73.0336V14.2171H76.6781V15.2828H73.0336V18.0853H77.0762V19.1712H71.8892V10.3286H77.0762V11.4146Z" fill="black" stroke="black" stroke-width="0.16" stroke-miterlimit="10"/>
<path d="M81.8946 19.1712H80.7501V11.4146H78.2705V10.3286H84.3761V11.4146H81.8946V19.1712Z" fill="black" stroke="black" stroke-width="0.16" stroke-miterlimit="10"/>
<path d="M88.7949 19.1712V10.3286H89.9375V19.1712H88.7949Z" fill="black" stroke="black" stroke-width="0.16" stroke-miterlimit="10"/>
<path d="M95.002 19.1712H93.8668V11.4146H91.3779V10.3286H97.4909V11.4146H95.002V19.1712Z" fill="black" stroke="black" stroke-width="0.16" stroke-miterlimit="10"/>
<path d="M109.05 18.0336C108.175 18.9278 107.089 19.374 105.795 19.374C104.493 19.374 103.408 18.9278 102.532 18.0336C101.658 17.1412 101.223 16.046 101.223 14.7499C101.223 13.4537 101.658 12.3585 102.532 11.4661C103.408 10.5719 104.493 10.1257 105.795 10.1257C107.082 10.1257 108.167 10.5719 109.043 11.4735C109.925 12.3733 110.36 13.4611 110.36 14.7499C110.36 16.046 109.925 17.1412 109.05 18.0336ZM103.378 17.2924C104.037 17.9543 104.839 18.2862 105.795 18.2862C106.743 18.2862 107.552 17.9543 108.204 17.2924C108.862 16.6305 109.195 15.7805 109.195 14.7499C109.195 13.7192 108.862 12.8692 108.204 12.2073C107.552 11.5454 106.743 11.2135 105.795 11.2135C104.839 11.2135 104.037 11.5454 103.378 12.2073C102.721 12.8692 102.387 13.7192 102.387 14.7499C102.387 15.7805 102.721 16.6305 103.378 17.2924Z" fill="black" stroke="black" stroke-width="0.16" stroke-miterlimit="10"/>
<path d="M111.965 19.1712V10.3286H113.354L117.672 17.2058H117.722L117.672 15.5059V10.3286H118.815V19.1712H117.622L113.1 11.9548H113.05L113.1 13.6621V19.1712H111.965Z" fill="black" stroke="black" stroke-width="0.16" stroke-miterlimit="10"/>
<path d="M100.941 32.085C97.4609 32.085 94.6183 34.7216 94.6183 38.3593C94.6183 41.9675 97.4609 44.6317 100.941 44.6317C104.428 44.6317 107.27 41.9675 107.27 38.3593C107.27 34.7216 104.428 32.085 100.941 32.085ZM100.941 42.1611C99.0313 42.1611 97.3887 40.5921 97.3887 38.3593C97.3887 36.097 99.0313 34.5557 100.941 34.5557C102.85 34.5557 104.5 36.097 104.5 38.3593C104.5 40.5921 102.85 42.1611 100.941 42.1611ZM87.1461 32.085C83.6591 32.085 80.8239 34.7216 80.8239 38.3593C80.8239 41.9675 83.6591 44.6317 87.1461 44.6317C90.6313 44.6317 93.4683 41.9675 93.4683 38.3593C93.4683 34.7216 90.6313 32.085 87.1461 32.085ZM87.1461 42.1611C85.235 42.1611 83.5868 40.5921 83.5868 38.3593C83.5868 36.097 85.235 34.5557 87.1461 34.5557C89.0553 34.5557 90.6979 36.097 90.6979 38.3593C90.6979 40.5921 89.0553 42.1611 87.1461 42.1611ZM70.7313 34.0081V36.6741H77.1257C76.9387 38.1639 76.4387 39.2591 75.672 40.0224C74.7387 40.9443 73.285 41.9675 70.7313 41.9675C66.7961 41.9675 63.7146 38.8055 63.7146 34.8875C63.7146 30.9696 66.7961 27.8075 70.7313 27.8075C72.8591 27.8075 74.4072 28.6354 75.5498 29.7084L77.4368 27.8297C75.8387 26.3104 73.7128 25.1433 70.7313 25.1433C65.335 25.1433 60.7998 29.5148 60.7998 34.8875C60.7998 40.2602 65.335 44.6317 70.7313 44.6317C73.6479 44.6317 75.8387 43.6804 77.5609 41.8956C79.3257 40.1385 79.8757 37.6679 79.8757 35.673C79.8757 35.0535 79.8239 34.4838 79.7313 34.0081H70.7313ZM137.853 36.0749C137.333 34.6718 135.728 32.085 132.457 32.085C129.216 32.085 126.518 34.6276 126.518 38.3593C126.518 41.8735 129.189 44.6317 132.768 44.6317C135.663 44.6317 137.333 42.8747 138.02 41.8514L135.872 40.4262C135.155 41.4697 134.179 42.1611 132.768 42.1611C131.366 42.1611 130.361 41.5213 129.716 40.2602L138.144 36.7884L137.853 36.0749ZM129.261 38.1639C129.189 35.7449 131.148 34.5059 132.552 34.5059C133.652 34.5059 134.585 35.0535 134.896 35.8371L129.261 38.1639ZM122.411 44.2501H125.181V25.8126H122.411V44.2501ZM117.874 33.4826H117.781C117.159 32.7488 115.972 32.085 114.468 32.085C111.313 32.085 108.428 34.8433 108.428 38.3796C108.428 41.8956 111.313 44.6317 114.468 44.6317C115.972 44.6317 117.159 43.9625 117.781 43.2065H117.874V44.1063C117.874 46.505 116.587 47.7938 114.511 47.7938C112.818 47.7938 111.768 46.5769 111.335 45.5536L108.926 46.5548C109.62 48.2178 111.459 50.2644 114.511 50.2644C117.759 50.2644 120.5 48.3617 120.5 43.732V32.4667H117.874V33.4826ZM114.705 42.1611C112.796 42.1611 111.198 40.57 111.198 38.3796C111.198 36.1689 112.796 34.5557 114.705 34.5557C116.587 34.5557 118.07 36.1689 118.07 38.3796C118.07 40.57 116.587 42.1611 114.705 42.1611ZM150.824 25.8126H144.198V44.2501H146.961V37.2641H150.824C153.892 37.2641 156.902 35.0535 156.902 31.5374C156.902 28.0233 153.885 25.8126 150.824 25.8126ZM150.896 34.6995H146.961V28.3773H150.896C152.959 28.3773 154.137 30.0827 154.137 31.5374C154.137 32.9645 152.959 34.6995 150.896 34.6995ZM167.976 32.05C165.979 32.05 163.903 32.9276 163.05 34.8728L165.502 35.8961C166.029 34.8728 167 34.5409 168.026 34.5409C169.459 34.5409 170.913 35.3983 170.935 36.912V37.1056C170.435 36.8179 169.365 36.392 168.048 36.392C165.407 36.392 162.716 37.8394 162.716 40.5405C162.716 43.0111 164.879 44.6022 167.311 44.6022C169.17 44.6022 170.196 43.767 170.841 42.7954H170.935V44.2206H173.603V37.148C173.603 33.879 171.152 32.05 167.976 32.05ZM167.642 42.1538C166.739 42.1538 165.479 41.7076 165.479 40.5921C165.479 39.165 167.05 38.6174 168.409 38.6174C169.626 38.6174 170.196 38.8848 170.935 39.2369C170.718 40.9443 169.242 42.1538 167.642 42.1538ZM183.326 32.4538L180.15 40.4464H180.055L176.772 32.4538H173.792L178.726 43.6232L175.911 49.8385H178.798L186.4 32.4538H183.326ZM158.42 44.2501H161.191V25.8126H158.42V44.2501Z" fill="black"/>
<defs>
<linearGradient id="paint0_linear_4118_6803" x1="32.2961" y1="46.1532" x2="7.54228" y2="21.2907" gradientUnits="userSpaceOnUse">
<stop stop-color="#00A0FF"/>
<stop offset="0.0066" stop-color="#00A1FF"/>
<stop offset="0.2601" stop-color="#00BEFF"/>
<stop offset="0.5122" stop-color="#00D2FF"/>
<stop offset="0.7604" stop-color="#00DFFF"/>
<stop offset="1" stop-color="#00E3FF"/>
</linearGradient>
<linearGradient id="paint1_linear_4118_6803" x1="50.1254" y1="29.4979" x2="14.2781" y2="29.4979" gradientUnits="userSpaceOnUse">
<stop stop-color="#FFE000"/>
<stop offset="0.4087" stop-color="#FFBD00"/>
<stop offset="0.7754" stop-color="#FFA500"/>
<stop offset="1" stop-color="#FF9C00"/>
</linearGradient>
<linearGradient id="paint2_linear_4118_6803" x1="36.7809" y1="26.1134" x2="3.21278" y2="-7.6023" gradientUnits="userSpaceOnUse">
<stop stop-color="#FF3A44"/>
<stop offset="1" stop-color="#C31162"/>
</linearGradient>
<linearGradient id="paint3_linear_4118_6803" x1="10.811" y1="58.7401" x2="25.8007" y2="43.6847" gradientUnits="userSpaceOnUse">
<stop stop-color="#32A071"/>
<stop offset="0.0685" stop-color="#2DA771"/>
<stop offset="0.4762" stop-color="#15CF74"/>
<stop offset="0.8009" stop-color="#06E775"/>
<stop offset="1" stop-color="#00F076"/>
</linearGradient>
</defs>
</svg>
