<svg width="231" height="128" viewBox="0 0 231 128" fill="none" xmlns="http://www.w3.org/2000/svg">
<g clip-path="url(#clip0_3773_7598)">
<path d="M91.9012 51.403V66.3317H76.8957V53.326C76.8957 52.2652 76.0217 51.4075 74.9407 51.4075H69.876V86.9755C69.876 88.0363 70.75 88.894 71.831 88.894H76.8957V72.3492H91.9012V86.9755C91.9012 88.0363 92.7752 88.894 93.8563 88.894H98.921V53.3215C98.921 52.2607 98.047 51.403 96.9659 51.403H91.9012Z" fill="white"/>
<path d="M121.351 60.2416V78.0098C121.351 79.626 120.514 81.1563 119.088 81.9644C115.113 84.217 110.996 81.4046 110.996 77.6893V62.1602C110.996 61.0994 110.118 60.2416 109.041 60.2416H103.958V78.3213C103.958 84.1402 108.807 88.8983 114.736 88.8983H117.62C123.55 88.8983 128.398 84.1402 128.398 78.3213V62.1602C128.398 61.0994 127.524 60.2416 126.443 60.2416H121.36H121.351Z" fill="white"/>
<path d="M199.047 88.8983H204.111V63.7357C204.111 62.6749 203.237 61.8171 202.156 61.8171H197.092V86.9797C197.092 88.0406 197.966 88.8983 199.047 88.8983Z" fill="white"/>
<path d="M200.601 59.0905C202.766 59.0905 204.521 57.3685 204.521 55.2444C204.521 53.1202 202.766 51.3982 200.601 51.3982C198.437 51.3982 196.682 53.1202 196.682 55.2444C196.682 57.3685 198.437 59.0905 200.601 59.0905Z" fill="white"/>
<path d="M146.771 60.2239C139.406 60.2239 133.38 65.3927 133.38 72.6201V76.5295C133.38 83.7568 139.406 88.8941 146.771 88.8941C154.136 88.8941 160.162 83.7568 160.162 76.5295V72.6201C160.162 65.3927 154.136 60.2239 146.771 60.2239ZM153.105 76.9989C153.105 80.4163 150.253 82.6915 146.771 82.6915C143.289 82.6915 140.437 80.4163 140.437 76.9989V72.119C140.437 68.7017 143.289 66.4265 146.771 66.4265C150.253 66.4265 153.105 68.7017 153.105 72.119V76.9989Z" fill="white"/>
<path d="M178.641 60.2236C176.34 60.2236 174.169 60.7292 172.269 61.6411V53.2851C172.269 52.2243 171.395 51.3666 170.314 51.3666H165.25V76.5292C165.25 83.7565 171.276 88.8938 178.641 88.8938C186.005 88.8938 192.031 83.7565 192.031 76.5292V72.6198C192.031 65.3924 186.005 60.2236 178.641 60.2236ZM184.975 76.9987C184.975 80.416 182.123 82.6912 178.641 82.6912C175.158 82.6912 172.306 80.416 172.306 76.9987V72.1187C172.306 68.7014 175.158 66.4262 178.641 66.4262C182.123 66.4262 184.975 68.7014 184.975 72.1187V76.9987Z" fill="white"/>
<path d="M48.6927 54.0033C48.6927 46.5367 44.985 40.1174 42.1698 38.0273C42.1606 38.0228 41.9536 37.9099 41.972 38.2079C41.972 38.2079 41.972 38.2124 41.972 38.2169C41.7374 52.631 34.2346 56.5404 30.1083 61.804C20.5861 73.9519 29.4413 87.2691 38.4575 89.7293C43.5038 91.1062 37.2937 87.2916 36.4932 79.2382C35.5272 69.5009 48.7019 62.0703 48.7019 54.0078L48.6927 54.0033Z" fill="white"/>
<path d="M53.0211 58.9101C52.9613 58.874 52.8831 58.8469 52.8233 58.9372C52.6669 60.752 50.7808 64.6342 48.3842 68.2005C40.265 80.2898 44.8927 86.1177 47.4917 89.2506C49.0006 91.0699 47.4917 89.2506 51.2684 87.3952C51.5628 87.2508 58.6378 83.355 59.4014 74.4889C60.142 65.9028 54.8887 60.4856 53.0165 58.9147L53.0211 58.9101Z" fill="white"/>
</g>
<defs>
<clipPath id="clip0_3773_7598">
<rect width="179" height="52" fill="white" transform="translate(26 38)"/>
</clipPath>
</defs>
</svg>
