<svg width="126" height="31" viewBox="0 0 126 31" fill="none" xmlns="http://www.w3.org/2000/svg">
<path d="M5.39746 1.5157V4.82859C5.39746 5.5665 4.79887 6.17025 4.0558 6.17025H1.34666C0.608747 6.17025 0.00499773 5.57166 0.00499773 4.82859V4.22484C-0.000162601 1.99045 1.81625 0.179199 4.0558 0.179199C4.79371 0.179199 5.39746 0.777788 5.39746 1.5157Z" fill="#CE2EF8"/>
<path d="M5.39258 20.526V23.8389C5.39258 24.5768 4.79399 25.1805 4.05091 25.1805C1.81652 25.1805 0.000115395 23.3641 0.000115395 21.1297V20.526C0.000115395 19.7881 0.598703 19.1843 1.34178 19.1843H4.05091C4.78883 19.1843 5.39258 19.7829 5.39258 20.526Z" fill="#CE2EF8"/>
<path d="M25.5791 4.23V4.83375C25.5791 5.57166 24.9805 6.17541 24.2374 6.17541H21.5283C20.7904 6.17541 20.1866 5.57682 20.1866 4.83375V1.52087C20.1866 0.78295 20.7852 0.179199 21.5283 0.179199C23.7627 0.179199 25.5791 1.99561 25.5791 4.23Z" fill="#CE2EF8"/>
<path d="M25.5791 20.526V21.1297C25.5791 23.3641 23.7627 25.1805 21.5283 25.1805C20.7904 25.1805 20.1866 24.5819 20.1866 23.8389V20.526C20.1866 19.7881 20.7852 19.1843 21.5283 19.1843H24.2374C24.9754 19.1843 25.5791 19.7829 25.5791 20.526Z" fill="#CE2EF8"/>
<path d="M3.98887 7.73877H1.40359C0.628408 7.73877 0 8.36718 0 9.14236V16.2171C0 16.9922 0.628408 17.6207 1.40359 17.6207H3.98887C4.76405 17.6207 5.39246 16.9922 5.39246 16.2171V9.14236C5.39246 8.36718 4.76405 7.73877 3.98887 7.73877Z" fill="#0DF9F8"/>
<path d="M14.0821 15.2988H11.4969C10.7217 15.2988 10.0933 15.9272 10.0933 16.7024V23.7771C10.0933 24.5523 10.7217 25.1807 11.4969 25.1807H14.0821C14.8573 25.1807 15.4857 24.5523 15.4857 23.7771V16.7024C15.4857 15.9272 14.8573 15.2988 14.0821 15.2988Z" fill="#0DF9F8"/>
<path d="M14.0821 0.179199H11.4969C10.7217 0.179199 10.0933 0.807607 10.0933 1.58279V8.65749C10.0933 9.43267 10.7217 10.0611 11.4969 10.0611H14.0821C14.8573 10.0611 15.4857 9.43267 15.4857 8.65749V1.58279C15.4857 0.807607 14.8573 0.179199 14.0821 0.179199Z" fill="#0DF9F8"/>
<path d="M24.1754 7.73877H21.5901C20.8149 7.73877 20.1865 8.36718 20.1865 9.14236V16.2171C20.1865 16.9922 20.8149 17.6207 21.5901 17.6207H24.1754C24.9506 17.6207 25.579 16.9922 25.579 16.2171V9.14236C25.579 8.36718 24.9506 7.73877 24.1754 7.73877Z" fill="#0DF9F8"/>
<path d="M50.9317 9.16306C52.2218 10.4222 52.8668 12.2902 52.8668 14.7671V24.4632H47.9543V15.5257C47.9543 14.184 47.6601 13.1829 47.0719 12.5172C46.4836 11.8567 45.6322 11.5265 44.5227 11.5265C43.2843 11.5265 42.2986 11.9083 41.5659 12.6772C40.8331 13.4461 40.4668 14.5813 40.4668 16.0933V24.4684H35.5542V1.10791H40.4668V9.29207C41.1169 8.64188 41.9065 8.14133 42.8302 7.7956C43.7538 7.44986 44.7601 7.27441 45.8541 7.27441C47.9543 7.27441 49.6468 7.90396 50.9369 9.16306H50.9317Z" fill="white"/>
<path d="M73.2806 7.52734L65.6331 25.5005C64.8591 27.4511 63.8941 28.8237 62.7537 29.6235C61.6081 30.4182 60.2303 30.8207 58.6152 30.8207C57.7328 30.8207 56.8607 30.6866 56.0041 30.4131C55.1423 30.1396 54.4405 29.7629 53.8936 29.2778L55.6893 25.7843C56.066 26.1197 56.5046 26.3829 56.9949 26.5687C57.4902 26.7596 57.9753 26.8525 58.4604 26.8525C59.1312 26.8525 59.6782 26.6874 60.0962 26.3623C60.5142 26.0372 60.8909 25.4953 61.2314 24.7419L61.2934 24.5871L53.9606 7.52734H59.028L63.7806 19.0141L68.5641 7.52734H73.2858H73.2806Z" fill="white"/>
<path d="M82.2291 7.90388H86.574V11.6812H82.3581V24.4631H77.4456V11.6812H74.8345V7.90388H77.4456V7.15049C77.4456 5.22055 78.0183 3.68796 79.1639 2.5527C80.3095 1.41745 81.9195 0.85498 83.9939 0.85498C84.7267 0.85498 85.4285 0.932384 86.089 1.09235C86.7495 1.25232 87.3016 1.47421 87.7403 1.76834L86.4502 5.32376C85.8826 4.92642 85.2221 4.72517 84.4687 4.72517C82.9773 4.72517 82.2343 5.54565 82.2343 7.18145V7.90388H82.2291Z" fill="white"/>
<path d="M105.3 17.3833H92.4873C92.7195 18.4308 93.2613 19.2616 94.1231 19.8706C94.9848 20.4795 96.053 20.7839 97.3327 20.7839C98.2151 20.7839 98.9943 20.6549 99.6755 20.3917C100.357 20.1286 100.991 19.7157 101.58 19.1481L104.191 21.9811C102.596 23.8078 100.269 24.7212 97.2037 24.7212C95.2944 24.7212 93.607 24.3497 92.1364 23.6014C90.6657 22.8583 89.5356 21.8211 88.7358 20.5001C87.9359 19.1791 87.5386 17.6774 87.5386 16.0004C87.5386 14.3233 87.9307 12.8475 88.7203 11.5161C89.5098 10.1848 90.5883 9.14755 91.9609 8.39932C93.3335 7.65624 94.8713 7.27954 96.5742 7.27954C98.2771 7.27954 99.7322 7.6356 101.074 8.34771C102.416 9.05983 103.473 10.0867 104.237 11.4181C105.001 12.7494 105.388 14.2975 105.388 16.0623C105.388 16.1242 105.357 16.568 105.295 17.3833H105.3ZM93.8083 11.9392C93.0549 12.5688 92.5905 13.4306 92.4253 14.5194H100.769C100.599 13.4512 100.14 12.5946 99.3865 11.9547C98.6331 11.3149 97.7094 10.9949 96.6155 10.9949C95.5215 10.9949 94.572 11.3097 93.8134 11.9392H93.8083Z" fill="white"/>
<path d="M123.531 9.16307C124.821 10.4222 125.466 12.2902 125.466 14.7671V24.4632H120.554V15.5257C120.554 14.184 120.26 13.1829 119.671 12.5172C119.083 11.8567 118.232 11.5265 117.122 11.5265C115.884 11.5265 114.898 11.9083 114.166 12.6772C113.433 13.4461 113.066 14.5813 113.066 16.0933V24.4684H108.154V7.52727H112.844V9.5088C113.495 8.79669 114.305 8.24454 115.27 7.85752C116.235 7.4705 117.293 7.27441 118.449 7.27441C120.549 7.27441 122.241 7.90396 123.531 9.16307Z" fill="white"/>
</svg>
