<svg width="54" height="53" viewBox="0 0 54 53" fill="none" xmlns="http://www.w3.org/2000/svg">
<path d="M27.577 35.3413C27.577 35.3413 28.2785 35.9974 28.1488 36.3673C27.8512 37.2181 26.5189 37.6134 25.6536 37.3782C24.2724 37.0026 23.0094 35.4061 23.0218 33.9668C23.0399 31.8543 25.1872 30.1445 26.9694 29.028C28.8042 27.8786 31.1351 27.5663 33.2958 27.6022C35.6483 27.6417 38.1589 28.0894 40.1285 29.3843C41.2246 30.105 42.1296 31.2452 42.5578 32.4901C42.8005 33.1958 42.5578 34.7304 42.5578 34.7304C42.5578 34.7304 44.4906 32.0458 45.1895 30.5551C46.0224 28.7784 47.2455 26.9042 47.0114 24.954C46.9043 24.0611 46.3174 23.194 45.5942 22.6625C43.2748 20.9652 40.1103 20.6707 37.2437 20.575C34.2804 20.4763 31.267 21.1116 28.4882 22.1534C26.5952 22.8617 24.742 23.863 23.2753 25.2592C21.6234 26.8316 20.0402 28.7449 19.4795 30.9621C19.116 32.3991 19.1936 34.0822 19.8844 35.3922C20.5082 36.5748 21.7371 37.4389 22.9715 37.9382C24.1805 38.4271 25.6286 38.6465 26.8685 38.2436C27.6888 37.9775 28.8153 37.4301 28.8424 36.563C28.8822 35.2866 27.5772 35.3409 27.5772 35.3409L27.577 35.3413Z" fill="#18D1FF"/>
<path d="M26.8897 36.0925C26.8897 36.0925 26.7066 35.5248 26.863 35.3211C27.1169 34.9912 27.6886 34.9017 28.079 35.0481C28.6427 35.2627 29.1472 35.9066 29.1483 36.5119C29.1496 37.2893 28.4707 38.0438 27.7819 38.396C26.2778 39.165 24.3168 38.9461 22.7208 38.396C21.3672 37.9296 20.0413 36.997 19.33 35.7482C18.2974 33.9367 18.0563 31.5714 18.5201 29.5363C18.9938 27.4577 20.5324 25.7166 22.0125 24.1897C23.6036 22.5482 25.529 21.1569 27.6304 20.2689C30.0375 19.2522 32.7196 18.9805 35.3234 18.7922C37.5635 18.6304 39.8484 18.6772 42.0549 19.0977C43.4389 19.3617 44.839 19.754 46.0529 20.4724C46.5304 20.7551 47.2867 21.5928 47.2867 21.5928C47.2867 21.5928 46.9547 17.3065 46.3062 15.2789C45.7444 13.5231 45.1482 11.6178 43.8263 10.3401C42.8904 9.4352 41.5527 8.98747 40.2836 8.71423C37.8728 8.19567 35.3183 8.32038 32.8946 8.76145C30.0631 9.27658 27.327 10.3862 24.7902 11.7528C22.4157 13.0321 20.1793 14.6429 18.2676 16.5521C16.7016 18.1161 15.2249 19.8738 14.3199 21.8987C13.4081 23.9388 12.9385 26.23 12.9535 28.4669C12.9654 30.2581 13.3336 32.1033 14.1175 33.7116C14.8507 35.2162 16.0258 36.5098 17.306 37.5815C18.4201 38.5138 19.7308 39.2414 21.1018 39.7136C22.3933 40.1584 23.7877 40.4091 25.151 40.3309C26.7457 40.2397 28.5606 40.1142 29.7766 39.0725C30.487 38.4638 31.0005 37.4413 30.9282 36.5055C30.8774 35.8498 30.4104 35.2005 29.8547 34.8541C29.2477 34.4755 28.4168 34.2424 27.7268 34.4287C27.0868 34.6012 26.55 34.9466 26.4692 35.4847C26.4308 35.7401 26.8925 36.0927 26.8925 36.0927L26.8897 36.0925Z" fill="#0166FE"/>
<path d="M27.1032 36.5475C27.1032 36.5475 26.1218 36.3479 25.8663 35.9788C25.4993 35.445 25.5249 34.6922 25.885 34.1544C26.4781 33.2688 27.7481 32.9294 28.8086 32.888C30.6018 32.814 32.7928 33.2057 33.9107 34.618C34.8436 35.797 35.0322 37.7725 34.3548 39.1167C33.6751 40.4657 31.9112 40.9896 30.4712 41.4236C28.2171 42.103 25.7444 42.1384 23.4199 41.7696C21.0185 41.3886 18.6731 40.449 16.5981 39.1725C14.312 37.768 12.2155 35.9283 10.6364 33.7513C8.94244 31.416 7.67776 28.6784 7.08212 25.8527C6.54343 23.2949 6.61853 20.5726 7.13972 18.0092C7.73553 15.104 8.88396 12.3421 10.5218 9.8754C11.7713 8.00163 13.4518 6.39831 15.2797 5.0886C16.9233 3.91239 18.8147 3.0839 20.7256 2.4357C22.2772 1.9092 23.9055 1.54217 25.5407 1.45524C27.5723 1.34728 29.6311 1.58832 31.6171 2.03197C33.2811 2.40372 34.9238 2.96027 36.4321 3.76193C38.2092 4.70783 41.3048 7.33777 41.3048 7.33777C41.3048 7.33777 35.0279 6.73421 31.9605 7.27981C28.3465 7.92308 24.7784 9.22613 21.6423 11.1439C19.3071 12.5719 17.2475 14.5137 15.566 16.6804C14.2192 18.4158 13.1476 20.4117 12.4726 22.5056C11.786 24.6305 11.4234 26.91 11.5552 29.1379C11.6448 30.6459 12.0374 32.166 12.7017 33.5207C13.3643 34.873 14.328 36.1013 15.4534 37.0966C16.9155 38.3861 18.608 39.3842 20.4406 40.0379C21.9165 40.5608 23.5191 40.7497 25.0839 40.7299C26.422 40.7128 27.848 40.6509 29.0393 40.0379C30.0377 39.5241 31.1057 38.7501 31.4468 37.6733C31.7246 36.7987 31.5562 35.6572 30.9591 34.9625C30.3699 34.2769 29.298 34.0975 28.3973 34.0975C27.736 34.0973 26.9953 34.2728 26.5167 34.7319C26.2496 34.9882 26.112 35.3172 26.2095 35.6753C26.3205 36.0814 27.1043 36.5488 27.1043 36.5488L27.1032 36.5475Z" fill="#0100CC"/>
<path d="M16.2853 48.4887C16.2853 48.037 16.2424 47.6383 16.1565 47.2927C16.0706 46.9407 15.9054 46.6086 15.6611 46.2962C15.4167 45.984 15.1129 45.7448 14.7497 45.5787C14.3931 45.4127 14.0101 45.3297 13.6007 45.3297C12.7355 45.3297 12.0521 45.6353 11.5505 46.2466C11.0552 46.8512 10.8076 47.6618 10.8076 48.6784C10.8076 49.655 11.0718 50.4224 11.6002 50.9806C12.0954 51.4989 12.7326 51.758 13.5117 51.758C14.4428 51.758 15.1659 51.3527 15.6809 50.5421C16.0837 49.9111 16.2851 49.2267 16.2851 48.4891L16.2853 48.4887ZM13.482 52.086C12.3792 52.086 11.4944 51.7671 10.8275 51.1294C10.1671 50.4849 9.83691 49.6278 9.83691 48.558C9.83691 47.4884 10.1902 46.6213 10.8968 45.9566C11.5769 45.3189 12.4453 45 13.5021 45C14.5322 45 15.3907 45.269 16.0775 45.807C16.8633 46.4249 17.2562 47.292 17.2562 48.4084C17.2562 49.5114 16.9062 50.4016 16.2062 51.0791C15.5061 51.7517 14.598 52.0879 13.4818 52.0879L13.482 52.086Z" fill="white"/>
<path d="M24.9721 45.0026H25.1801C25.3188 46.3247 25.4046 47.1353 25.4376 47.4344C25.5433 48.411 25.6291 49.1717 25.6951 49.7166C25.7662 50.2546 25.862 50.9556 25.9825 51.8194L25.5169 51.7894L25.0514 51.8194C24.992 51.155 24.9351 50.5204 24.8808 49.9156C24.8345 49.311 24.7777 48.7131 24.7101 48.1217C24.6506 47.5304 24.5938 47.0487 24.5394 46.6765C24.1366 47.4073 23.7866 48.0451 23.4894 48.59C23.146 49.2278 22.8587 49.7792 22.6275 50.2444C22.3766 50.756 22.1487 51.2443 21.9439 51.7093H21.8373L21.2924 50.5831C21.0546 50.0849 20.8432 49.6556 20.6583 49.2953C20.4735 48.9298 20.2456 48.488 19.9748 47.9699C19.7437 47.5381 19.5158 47.1062 19.2913 46.6744C19.1775 47.6245 19.0685 48.5845 18.9644 49.5544C18.8588 50.5245 18.8059 51.2786 18.8059 51.8166L18.4592 51.7866L18.1025 51.8166C18.2412 50.9529 18.4228 49.7271 18.6474 48.1393C18.8721 46.5447 19.0075 45.4982 19.0536 45H19.3096C19.6529 45.6777 19.9336 46.2324 20.1517 46.6643C20.4158 47.1758 20.7287 47.7638 21.0904 48.4282C21.4866 49.1522 21.8267 49.7502 22.1106 50.2221C23.0615 48.4814 24.0124 46.7407 24.9633 45L24.9721 45.0026ZM27.4199 51.8231V45.0062L27.8558 45.0363L28.2916 45.0062V51.8231L27.8558 51.793L27.4199 51.8231ZM35.9672 45.0026V51.8194H35.67L35.155 51.2116L30.8758 46.4479H30.7768V51.8196L30.4995 51.7896L30.2222 51.8196V45.0028H30.6062L35.3114 50.1352H35.4104V45.0028L35.6877 45.0328L35.9672 45.0026ZM37.8232 51.8231V45.0062H41.3397L41.3099 45.3052L41.3397 45.6042C41.1416 45.5641 40.9798 45.5375 40.8544 45.5244C40.7289 45.5043 40.5935 45.4943 40.4482 45.4943L39.4576 45.4743H38.6949V47.9738H40.2304C40.3558 47.9738 40.5209 47.9671 40.7257 47.9538C40.9371 47.9338 41.0651 47.9238 41.1097 47.9238L41.0799 48.1828L41.1097 48.4619C40.9908 48.4619 40.8257 48.4552 40.6144 48.4419C40.403 48.4219 40.275 48.4118 40.2304 48.4118H38.6949V51.8203L38.2591 51.7902L37.8232 51.8231Z" fill="white"/>
<path d="M48.757 48.4887C48.757 48.037 48.714 47.6383 48.6281 47.2927C48.5422 46.9407 48.3771 46.6086 48.1328 46.2962C47.8884 45.984 47.5846 45.7448 47.2214 45.5787C46.8648 45.4127 46.4818 45.3297 46.0723 45.3297C45.2072 45.3297 44.5238 45.6353 44.0221 46.2466C43.5269 46.8512 43.2793 47.6618 43.2793 48.6784C43.2793 49.655 43.5435 50.4224 44.0718 50.9806C44.5671 51.4989 45.2043 51.758 45.9834 51.758C46.9145 51.758 47.6376 51.3527 48.1526 50.5421C48.5554 49.9111 48.7568 49.2267 48.7568 48.4891L48.757 48.4887ZM45.9537 52.086C44.8509 52.086 43.966 51.7671 43.2991 51.1294C42.6388 50.4849 42.3086 49.6278 42.3086 48.558C42.3086 47.4884 42.6619 46.6213 43.3685 45.9566C44.0486 45.3189 44.917 45 45.9738 45C47.0039 45 47.8624 45.269 48.5492 45.807C49.335 46.4249 49.7279 47.292 49.7279 48.4084C49.7279 49.5114 49.3779 50.4016 48.6779 51.0791C47.9778 51.7517 47.0697 52.0879 45.9535 52.0879L45.9537 52.086Z" fill="white"/>
<path d="M9.36436 45.0024L7.11576 47.1749L6.27371 48.0319C7.07274 48.9489 7.87511 49.8625 8.68082 50.7728L9.48298 51.7694V51.8192L8.93811 51.7891L8.38342 51.8192C8.27775 51.6664 8.16539 51.5135 8.04635 51.3607C7.93257 51.2013 7.81701 51.0511 7.69967 50.91L6.61996 49.6394L5.54024 48.3687C5.50725 48.3422 5.4643 48.3256 5.41139 48.3189C5.38493 48.3252 5.37171 48.3319 5.37171 48.3389V51.8168L4.93585 51.7868L4.5 51.8168V45L4.93585 45.03L5.37171 45V48.0794C5.37825 48.1059 5.40797 48.1125 5.46088 48.0993C5.52033 48.086 5.57722 48.0594 5.63155 48.0195C5.68418 47.973 5.79312 47.87 5.95839 47.7104C6.01784 47.6506 6.08056 47.5908 6.14656 47.531L8.58396 45.0004L8.98014 45.0305L9.36436 45.0024Z" fill="white"/>
</svg>
