<svg width="231" height="128" viewBox="0 0 231 128" fill="none" xmlns="http://www.w3.org/2000/svg">
<g clip-path="url(#clip0_4118_7569)">
<path d="M142.766 61.9075V58.6652H144.059V57.5186H139.983V58.6652H141.278V61.9075H142.766Z" fill="white"/>
<path d="M175.306 60.8039H175.709L176.46 61.9075H178.048L177.12 60.5533C177.39 60.4156 177.596 60.2299 177.739 59.9957C177.882 59.7609 177.954 59.4873 177.954 59.1737C177.954 58.8387 177.872 58.5469 177.707 58.2969C177.543 58.0464 177.31 57.8534 177.007 57.7194C176.703 57.5853 176.349 57.5186 175.939 57.5186H173.818V61.905H175.308V60.8039H175.306ZM175.306 58.6591H175.848C176.05 58.6591 176.201 58.7047 176.302 58.7932C176.404 58.8842 176.453 59.0104 176.453 59.1737C176.453 59.3375 176.404 59.4637 176.302 59.5522C176.201 59.6426 176.05 59.6863 175.848 59.6863H175.306V58.6591Z" fill="white"/>
<path d="M156.588 57.5186V59.9326C156.588 60.5885 156.778 61.0993 157.155 61.4621C157.535 61.8243 158.063 62.0076 158.739 62.0076C159.415 62.0076 159.943 61.8261 160.323 61.4621C160.701 61.0993 160.89 60.5885 160.89 59.9326V57.5186H159.426V59.8871C159.426 60.2087 159.368 60.4428 159.253 60.5885C159.138 60.7347 158.969 60.8075 158.751 60.8075C158.533 60.8075 158.364 60.7347 158.249 60.5885C158.134 60.4428 158.074 60.2087 158.074 59.8871V57.5186H156.588Z" fill="white"/>
<path d="M152.657 52.2554V42.7307H144.954C144.183 42.7307 143.528 43.0007 142.988 43.5407C142.444 44.077 142.172 44.7274 142.172 45.4937V52.2554H144.375V45.4803C144.375 45.3226 144.432 45.1885 144.545 45.0738C144.659 44.9598 144.795 44.9045 144.953 44.9045H150.451V52.2536H152.657V52.2554Z" fill="white"/>
<path d="M173.03 49.885C172.899 50.0149 172.742 50.0798 172.564 50.0798H165.434V52.2554H172.826C173.572 52.2554 174.221 51.9818 174.773 51.4321C175.302 50.9055 175.568 50.2454 175.568 49.453L175.562 46.4674H167.484V45.5331C167.484 45.3935 167.557 45.2491 167.7 45.1017C167.832 44.9713 167.988 44.9063 168.167 44.9063H175.56V42.7307H168.167C167.421 42.7307 166.772 43.005 166.22 43.5546C165.689 44.0806 165.424 44.7407 165.424 45.5331V48.5132H173.239V49.5258C173.219 49.6423 173.147 49.7624 173.03 49.885Z" fill="white"/>
<path d="M210.703 46.5147V42.7307H202.803C202.031 42.7307 201.376 43.005 200.836 43.5546C200.289 44.1085 200.015 44.7565 200.015 45.5015V52.2578H202.206V49.2661H206.791L208.397 52.2578H210.582L208.982 49.0829C209.323 48.9489 209.633 48.742 209.909 48.4617C210.436 47.9296 210.703 47.2816 210.703 46.5147ZM208.512 46.5147C208.512 46.684 208.462 46.8199 208.361 46.9206C208.248 47.0292 208.117 47.0844 207.972 47.0844H202.204V45.504C202.204 45.3462 202.265 45.2103 202.388 45.092C202.501 44.9694 202.641 44.9088 202.803 44.9088H208.512V46.5147Z" fill="white"/>
<path d="M183.186 52.2554V44.9063H187.159V42.7307H176.884V44.9063H180.995V52.2554H183.186Z" fill="white"/>
<path d="M209.355 60.819C209.266 60.8585 209.119 60.8779 208.913 60.8779C208.673 60.8779 208.422 60.8403 208.163 60.7675C207.902 60.6946 207.666 60.5982 207.456 60.4756L206.976 61.5537C207.198 61.6921 207.484 61.8025 207.831 61.8832C208.178 61.9639 208.535 62.0051 208.9 62.0051C209.343 62.0051 209.718 61.9402 210.027 61.8079C210.337 61.6763 210.569 61.4985 210.724 61.2759C210.881 61.0532 210.959 60.8033 210.959 60.5272C210.959 60.2099 210.873 59.9593 210.702 59.7743C210.531 59.591 210.331 59.457 210.099 59.3763C209.867 59.2956 209.583 59.2222 209.248 59.1591C208.986 59.1081 208.799 59.0626 208.686 59.0177C208.573 58.974 208.516 58.9073 208.516 58.8205C208.516 58.6373 208.706 58.5445 209.089 58.5445C209.476 58.5445 209.887 58.6531 210.319 58.8696L210.768 57.7976C210.546 57.6714 210.288 57.5768 209.994 57.5119C209.702 57.4469 209.404 57.4154 209.101 57.4154C208.659 57.4154 208.284 57.4803 207.974 57.6102C207.664 57.7406 207.432 57.9177 207.277 58.1422C207.121 58.3691 207.043 58.6191 207.043 58.8952C207.043 59.2125 207.127 59.4648 207.295 59.6499C207.464 59.8355 207.662 59.9696 207.888 60.0503C208.115 60.131 208.401 60.2081 208.74 60.279C209.004 60.3343 209.194 60.3834 209.312 60.4283C209.426 60.4738 209.486 60.543 209.486 60.6358C209.488 60.7183 209.444 60.7796 209.355 60.819Z" fill="white"/>
<path d="M198.698 52.2554V42.7307H191.251C190.5 42.7307 189.845 43.0104 189.284 43.574C188.744 44.1103 188.474 44.7723 188.474 45.561V52.2578H190.665V49.8395H196.507V52.2578H198.698V52.2554ZM190.665 47.6639V45.4172C190.665 45.2831 190.723 45.1588 190.836 45.0447C190.937 44.9476 191.074 44.9009 191.251 44.9009H196.507V47.6639H190.665Z" fill="white"/>
<path d="M194.354 58.6337V57.5186H190.762V61.9075H194.435V60.7899H192.226V60.2141H194.094V59.1482H192.226V58.6337H194.354Z" fill="white"/>
<path d="M164.109 47.494H161.918V50.0877H156.162V45.5331C156.162 45.3675 156.226 45.2237 156.353 45.1017C156.479 44.9713 156.622 44.9063 156.779 44.9063H163.698V42.7307H156.779C156.011 42.7307 155.352 43.005 154.799 43.5546C154.247 44.1025 153.97 44.7626 153.97 45.5331V52.2554H164.105V47.494H164.109Z" fill="white"/>
<path d="M112.736 51.4139C113.275 50.8781 113.545 50.2157 113.545 49.4275V42.7307H105.782C105.032 42.7307 104.377 43.0104 103.816 43.574C103.276 44.1103 103.006 44.7723 103.006 45.561V49.4293C103.006 50.218 103.276 50.88 103.816 51.4163C104.377 51.9775 105.032 52.2596 105.782 52.2596H110.768C111.519 52.2554 112.176 51.9757 112.736 51.4139ZM106.454 50.0816V50.0876H105.784C105.613 50.0876 105.475 50.0403 105.37 49.9439C105.254 49.8255 105.198 49.7018 105.198 49.5713V45.4172C105.198 45.2868 105.256 45.163 105.37 45.0447C105.475 44.9476 105.611 44.9009 105.784 44.9009H106.454V44.9063H111.356V49.5713C111.356 49.7018 111.299 49.8255 111.186 49.9439C111.08 50.0403 110.941 50.0876 110.771 50.0876H110.1V50.0816H106.454Z" fill="white"/>
<path d="M140.857 42.7307H138.666V52.2554H140.857V42.7307Z" fill="white"/>
<path d="M110.1 58.6337V57.5186H106.508V61.9075H110.182V60.7899H107.973V60.2141H109.84V59.1482H107.973V58.6337H110.1Z" fill="white"/>
<path d="M90.5208 57.5186H88.9194L90.7866 61.9075H92.2512L94.1207 57.5186H92.6556L91.5763 60.0825L90.5208 57.5186Z" fill="white"/>
<path d="M101.69 52.2554V42.7307H91.8622C91.0901 42.7307 90.4352 43.0007 89.8955 43.5407C89.3521 44.077 89.0801 44.7274 89.0801 45.4937V52.2554H91.2825V45.4803C91.2825 45.3226 91.3402 45.1885 91.4535 45.0738C91.5664 44.9598 91.7031 44.9045 91.8603 44.9045H94.2947V52.2536H96.4857V44.9045H99.4855V52.2536H101.69V52.2554Z" fill="white"/>
<path d="M124.45 59.9126L126.129 61.9075H127.353V57.5186H125.903V59.5128L124.225 57.5186H123V61.9075H124.45V59.9126Z" fill="white"/>
<path d="M137.351 52.2554V42.7307H129.647C128.876 42.7307 128.221 43.0007 127.681 43.5407C127.137 44.077 126.865 44.7274 126.865 45.4937V52.2554H129.068V45.4803C129.068 45.3226 129.126 45.1885 129.239 45.0738C129.352 44.9598 129.489 44.9045 129.645 44.9045H135.144V52.2536H137.351V52.2554Z" fill="white"/>
<path d="M125.549 46.5147V42.7307H117.65C116.878 42.7307 116.223 43.005 115.684 43.5546C115.136 44.1085 114.862 44.7565 114.862 45.5015V52.2578H117.053V49.2661H121.639L123.244 52.2578H125.428L123.829 49.0829C124.171 48.9489 124.48 48.742 124.756 48.4617C125.284 47.9296 125.549 47.2816 125.549 46.5147ZM123.359 46.5147C123.359 46.684 123.31 46.8199 123.208 46.9206C123.095 47.0292 122.964 47.0844 122.819 47.0844H117.051V45.504C117.051 45.3462 117.112 45.2103 117.236 45.092C117.349 44.9694 117.487 44.9088 117.65 44.9088H123.359V46.5147Z" fill="white"/>
<path d="M58.639 57.6798L20 93.7848L56.3525 55.4095C58.2596 53.3953 58.3311 50.2755 56.5174 48.1788L44.5439 34.3276L58.6567 46.3617C60.6982 48.1017 63.7128 48.1017 65.7525 46.3617L79.8644 34.3276L67.7486 48.3438C65.9968 50.372 65.9968 53.3655 67.7486 55.3919L79.8644 69.4081L65.9193 57.516C63.8081 55.7129 60.6664 55.7839 58.639 57.6798Z" fill="white"/>
</g>
<defs>
<clipPath id="clip0_4118_7569">
<rect width="191" height="60" fill="white" transform="translate(20 34)"/>
</clipPath>
</defs>
</svg>
