<svg width="90" height="80" viewBox="0 0 90 80" fill="none" xmlns="http://www.w3.org/2000/svg">
<g clip-path="url(#clip0_4141_8929)">
<path d="M53.078 45.1608C53.8137 45.4589 54.6507 45.1041 54.9483 44.3688C56.911 39.5218 61.556 36.3902 66.7821 36.3902C72.0082 36.3902 76.6532 39.5218 78.616 44.3688C78.8421 44.9273 79.3796 45.2663 79.9476 45.2663C80.127 45.2663 80.3095 45.2324 80.4862 45.1608C81.2214 44.863 81.576 44.0258 81.2782 43.2905C78.8743 37.3537 73.1842 33.5178 66.7823 33.5178C60.3804 33.5178 54.6903 37.3537 52.2864 43.2905C51.988 44.0258 52.3429 44.863 53.078 45.1608Z" fill="url(#paint0_linear_4141_8929)"/>
<path d="M66.782 30.6454C72.3252 30.6454 76.8351 26.1355 76.8351 20.5923C76.8351 15.049 72.3252 10.5391 66.782 10.5391C61.2387 10.5391 56.7288 15.049 56.7288 20.5923C56.7288 26.1355 61.2387 30.6454 66.782 30.6454ZM66.782 13.4114C70.7416 13.4114 73.9628 16.6326 73.9628 20.5923C73.9628 24.5519 70.7416 27.7731 66.782 27.7731C62.8223 27.7731 59.6011 24.5519 59.6011 20.5923C59.6011 16.6326 62.8223 13.4114 66.782 13.4114Z" fill="url(#paint1_linear_4141_8929)"/>
<path d="M9.51415 45.1608C10.2497 45.4589 11.0869 45.1041 11.3844 44.3688C13.3472 39.5218 17.9921 36.3902 23.2183 36.3902C28.4444 36.3902 33.0894 39.5218 35.0521 44.3688C35.2783 44.9273 35.8158 45.2663 36.3837 45.2663C36.5632 45.2663 36.7457 45.2324 36.9224 45.1608C37.6575 44.863 38.0122 44.0258 37.7144 43.2905C35.3104 37.3537 29.6203 33.5178 23.2185 33.5178C16.8166 33.5178 11.1265 37.3537 8.72253 43.2905C8.42419 44.0258 8.77902 44.863 9.51415 45.1608Z" fill="url(#paint2_linear_4141_8929)"/>
<path d="M23.2181 30.6454C28.7613 30.6454 33.2713 26.1355 33.2713 20.5923C33.2713 15.049 28.7613 10.5391 23.2181 10.5391C17.6749 10.5391 13.1649 15.049 13.1649 20.5923C13.1649 26.1355 17.6749 30.6454 23.2181 30.6454ZM23.2181 13.4114C27.1777 13.4114 30.399 16.6326 30.399 20.5923C30.399 24.5519 27.1777 27.7731 23.2181 27.7731C19.2585 27.7731 16.0373 24.5519 16.0373 20.5923C16.0373 16.6326 19.2585 13.4114 23.2181 13.4114Z" fill="url(#paint3_linear_4141_8929)"/>
<path d="M84.734 0.265869H5.26596C2.3624 0.265869 0 2.62827 0 5.53183V57.234C0 60.1375 2.3624 62.4999 5.26596 62.4999H84.734C87.6376 62.4999 90 60.1375 90 57.234V5.53183C90 2.62827 87.6376 0.265869 84.734 0.265869ZM87.1277 5.53183V48.1382H46.4362V3.13821H84.734C86.054 3.13821 87.1277 4.21189 87.1277 5.53183ZM5.26596 3.13821H43.5638V48.1382H2.87234V5.53183C2.87234 4.21189 3.94602 3.13821 5.26596 3.13821ZM84.734 59.6276H5.26596C3.94602 59.6276 2.87234 58.5539 2.87234 57.234V51.0106H87.1277V57.234C87.1277 58.5539 86.054 59.6276 84.734 59.6276Z" fill="url(#paint4_linear_4141_8929)"/>
<path d="M45 56.7552C45.7932 56.7552 46.4362 56.1122 46.4362 55.319C46.4362 54.5258 45.7932 53.8828 45 53.8828C44.2068 53.8828 43.5638 54.5258 43.5638 55.319C43.5638 56.1122 44.2068 56.7552 45 56.7552Z" fill="url(#paint5_linear_4141_8929)"/>
<path d="M73.7234 76.8617H56.0107V66.8085C56.0107 66.0151 55.3678 65.3723 54.5745 65.3723C53.7812 65.3723 53.1383 66.0151 53.1383 66.8085V76.8617H36.8617V66.8085C36.8617 66.0151 36.2189 65.3723 35.4256 65.3723C34.6322 65.3723 33.9894 66.0151 33.9894 66.8085V76.8617H16.2766C15.4833 76.8617 14.8405 77.5045 14.8405 78.2978C14.8405 79.0912 15.4833 79.734 16.2766 79.734H73.7234C74.5168 79.734 75.1596 79.0912 75.1596 78.2978C75.1596 77.5045 74.5168 76.8617 73.7234 76.8617Z" fill="url(#paint6_linear_4141_8929)"/>
</g>
<defs>
<linearGradient id="paint0_linear_4141_8929" x1="52.1807" y1="39.3921" x2="81.3837" y2="39.3921" gradientUnits="userSpaceOnUse">
<stop stop-color="#BE3FF8"/>
<stop offset="1" stop-color="#19EDF8"/>
</linearGradient>
<linearGradient id="paint1_linear_4141_8929" x1="56.7288" y1="20.5923" x2="76.8351" y2="20.5923" gradientUnits="userSpaceOnUse">
<stop stop-color="#BE3FF8"/>
<stop offset="1" stop-color="#19EDF8"/>
</linearGradient>
<linearGradient id="paint2_linear_4141_8929" x1="8.61682" y1="39.3921" x2="37.8198" y2="39.3921" gradientUnits="userSpaceOnUse">
<stop stop-color="#BE3FF8"/>
<stop offset="1" stop-color="#19EDF8"/>
</linearGradient>
<linearGradient id="paint3_linear_4141_8929" x1="13.1649" y1="20.5923" x2="33.2713" y2="20.5923" gradientUnits="userSpaceOnUse">
<stop stop-color="#BE3FF8"/>
<stop offset="1" stop-color="#19EDF8"/>
</linearGradient>
<linearGradient id="paint4_linear_4141_8929" x1="3.35276e-07" y1="31.3829" x2="90" y2="31.3829" gradientUnits="userSpaceOnUse">
<stop stop-color="#BE3FF8"/>
<stop offset="1" stop-color="#19EDF8"/>
</linearGradient>
<linearGradient id="paint5_linear_4141_8929" x1="43.5638" y1="55.319" x2="46.4362" y2="55.319" gradientUnits="userSpaceOnUse">
<stop stop-color="#BE3FF8"/>
<stop offset="1" stop-color="#19EDF8"/>
</linearGradient>
<linearGradient id="paint6_linear_4141_8929" x1="14.8405" y1="72.5532" x2="75.1596" y2="72.5532" gradientUnits="userSpaceOnUse">
<stop stop-color="#BE3FF8"/>
<stop offset="1" stop-color="#19EDF8"/>
</linearGradient>
<clipPath id="clip0_4141_8929">
<rect width="90" height="80" fill="white"/>
</clipPath>
</defs>
</svg>
