<svg width="231" height="128" viewBox="0 0 231 128" fill="none" xmlns="http://www.w3.org/2000/svg">
<g clip-path="url(#clip0_4118_7659)">
<path d="M164.721 80.0002V73.9859C170.22 73.9859 174.696 69.5106 174.696 64.0115C174.696 58.5123 170.22 54.037 164.721 54.037V48.0195C173.537 48.0195 180.711 55.1929 180.711 64.0083C180.711 72.8236 173.537 80.0002 164.721 80.0002Z" fill="white"/>
<path d="M164.711 79.984C164.019 79.984 158.451 79.8874 155.028 76.9382C151.94 74.7392 147.693 69.6296 145.314 66.6096H145.24L144.335 65.4537C140.703 60.811 137.318 57.1503 135.506 55.9043L135.338 55.7916L135.19 55.6564C133.831 54.4265 130.711 54.0304 129.397 54.0304H129.388L129.378 48.0129H129.391C130.083 48.0129 135.65 48.1063 139.073 51.0587C141.904 53.071 145.681 57.4948 148.16 60.5921H148.263L149.165 61.764C152.981 66.7223 156.684 70.7726 158.596 72.0894L158.764 72.2021L158.912 72.3373C160.271 73.5672 163.394 73.9665 164.705 73.9665H164.714L164.724 79.984H164.711Z" fill="white"/>
<path d="M129.391 79.984H129.378L129.388 73.9665C130.94 73.9601 133.896 73.5125 135.19 72.3374L135.338 72.2021L135.506 72.0895C137.318 70.8435 140.699 67.1859 144.335 62.54L145.24 61.3842H145.314C147.697 58.3641 151.94 53.2546 155.028 51.0555C158.455 48.1031 164.019 48.0098 164.711 48.0098H164.724L164.717 51.0201V54.0273C163.162 54.0337 160.206 54.4812 158.909 55.6564L158.76 55.7916L158.593 55.9043C156.68 57.2179 152.981 61.2715 149.162 66.2297L148.257 67.4017H148.154C145.674 70.499 141.901 74.9195 139.067 76.935C135.65 79.8906 130.086 79.984 129.391 79.984Z" fill="white"/>
<path d="M53.9722 53.1901L50.1984 55.4277C49.4932 54.2042 48.8202 53.4058 48.1827 53.0323C47.5161 52.6073 46.6596 52.3948 45.6067 52.3948C44.3155 52.3948 43.2432 52.7618 42.3931 53.4927C41.5398 54.2107 41.1148 55.1154 41.1148 56.2069C41.1148 57.7104 42.2321 58.921 44.47 59.8418L47.5451 61.1007C50.0471 62.1117 51.8792 63.348 53.0352 64.8033C54.1944 66.2618 54.774 68.0487 54.774 70.164C54.774 73.0005 53.8273 75.3412 51.9372 77.1925C50.0342 79.0566 47.6707 79.9871 44.8468 79.9871C42.1709 79.9871 39.962 79.1951 38.2168 77.611C36.4973 76.027 35.425 73.799 35 70.9238L39.7141 69.8871C39.9266 71.6966 40.3001 72.949 40.8314 73.6412C41.791 74.9709 43.1885 75.6374 45.0239 75.6374C46.4761 75.6374 47.6804 75.1512 48.6399 74.1789C49.5995 73.2066 50.0793 71.9767 50.0793 70.486C50.0793 69.8871 49.9955 69.3366 49.8281 68.8375C49.6607 68.3385 49.4031 67.8781 49.0489 67.4595C48.6947 67.041 48.2406 66.6482 47.6804 66.2811C47.1201 65.9141 46.4568 65.5664 45.684 65.2315L42.7087 63.992C38.4873 62.2115 36.3782 59.6004 36.3782 56.165C36.3782 53.8501 37.2637 51.9119 39.0347 50.3536C40.8057 48.7856 43.0081 48 45.6421 48C49.197 48 51.9726 49.7322 53.9722 53.1901Z" fill="white"/>
<path d="M73.3759 52.5365H60.5507V60.2218H73.0024V64.7582H60.5507V75.4474H73.3759V79.9839H55.7239V48H73.3759V52.5365Z" fill="white"/>
<path d="M95.4523 72.6785H82.5659L79.2139 79.9871H74.3195L89.212 48L103.58 79.9871H98.6079L95.4523 72.6785ZM93.5976 68.4093L89.1347 58.1741L84.456 68.4061H93.5976V68.4093Z" fill="white"/>
<path d="M109.44 66.9991V79.9903H104.613V48H110.084C112.763 48 114.788 48.1867 116.154 48.5602C117.535 48.9337 118.749 49.6388 119.799 50.6723C121.634 52.4689 122.555 54.7323 122.555 57.469C122.555 60.3956 121.573 62.717 119.612 64.4298C117.651 66.1427 115.004 66.9991 111.678 66.9991H109.44ZM109.44 62.5238H111.243C115.677 62.5238 117.896 60.8174 117.896 57.4078C117.896 53.9982 115.609 52.456 111.037 52.456H109.443V62.5238H109.44Z" fill="white"/>
<path d="M128.383 48V79.9871H123.556V48H128.383Z" fill="white"/>
<path d="M171.618 61.5933V66.4195H166.792V61.5933H171.618Z" fill="white"/>
<path d="M186.594 48V75.4507H196V79.9871H181.764V48H186.594Z" fill="white"/>
</g>
<defs>
<clipPath id="clip0_4118_7659">
<rect width="161" height="32" fill="white" transform="translate(35 48)"/>
</clipPath>
</defs>
</svg>
