<svg width="139" height="139" viewBox="0 0 139 139" fill="none" xmlns="http://www.w3.org/2000/svg">
<circle cx="69.3431" cy="69.3431" r="58.0547" fill="url(#paint0_linear_4141_9740)" fill-opacity="0.2"/>
<circle cx="69.3432" cy="69.3432" r="69.3432" fill="url(#paint1_linear_4141_9740)" fill-opacity="0.2"/>
<circle cx="69.3431" cy="69.3431" r="45.1537" fill="url(#paint2_linear_4141_9740)" fill-opacity="0.8"/>
<g clip-path="url(#clip0_4141_9740)">
<path d="M67.6995 95.5714C67.4614 95.4928 67.2161 95.4321 66.9924 95.3284C66.4765 95.0962 66.0616 94.7352 65.8091 94.2314C65.4122 93.4453 64.7809 93.0772 63.9078 93.0486C63.4028 93.0307 63.0023 92.7913 62.7967 92.3232C62.5982 91.873 62.6524 91.4299 62.9662 91.0368C63.1935 90.7474 63.5002 90.583 63.8754 90.5758C64.3804 90.5651 64.8855 90.5687 65.3906 90.5687C68.2046 90.5687 71.0185 90.5687 73.8325 90.5687C74.0129 90.5687 74.1969 90.5687 74.3701 90.6116C74.9581 90.7545 75.3622 91.3084 75.3153 91.8837C75.2648 92.5269 74.7958 92.9843 74.15 93.0593C73.8037 93.0986 73.4537 93.1558 73.129 93.2773C72.7394 93.4202 72.4616 93.7276 72.2704 94.0956C71.8699 94.8782 71.2422 95.3677 70.3655 95.5321C70.3403 95.5357 70.3223 95.5607 70.3006 95.575H67.6995V95.5714Z" fill="white"/>
<path d="M63.8681 84.2904C63.7491 83.2112 63.4605 82.2035 63.0167 81.2387C62.3349 79.7593 61.3319 78.4979 60.2929 77.258C59.3333 76.1181 58.3592 74.9924 57.5547 73.7346C56.1369 71.512 55.5597 69.0821 55.7689 66.4735C56.0828 62.5643 57.8181 59.3911 60.9351 56.9791C62.9915 55.3889 65.3437 54.4884 67.9484 54.3133C72.173 54.0275 75.7698 55.4104 78.6884 58.4477C80.651 60.4881 81.7874 62.943 82.1554 65.741C82.6244 69.2858 81.6503 72.4232 79.4063 75.1961C78.4178 76.4146 77.4005 77.6117 76.4372 78.8517C75.3297 80.2775 74.5324 81.8569 74.2185 83.6507C74.1897 83.8187 74.1644 83.9866 74.1428 84.1546C74.1355 84.1974 74.1428 84.2403 74.1428 84.3011C74.233 84.3225 74.3195 84.3404 74.4061 84.3654C74.9617 84.5226 75.3513 85.0622 75.3153 85.6161C75.2756 86.22 74.839 86.6988 74.2402 86.7881C74.1247 86.806 74.0057 86.8132 73.8902 86.8132C70.6253 86.8132 67.3567 86.8132 64.0918 86.8132C63.3667 86.8132 62.8472 86.4451 62.7173 85.8448C62.5694 85.1694 62.959 84.5369 63.63 84.3582C63.6986 84.3404 63.7671 84.3225 63.8681 84.2975V84.2904ZM58.2762 64.8191C58.2762 65.3837 58.6298 65.7731 59.1168 65.841C59.5822 65.9054 60.0115 65.6016 60.1558 65.0942C60.9784 62.2462 62.757 60.2273 65.4952 59.0338C66.0652 58.7872 66.2997 58.2548 66.076 57.7474C65.856 57.2507 65.3148 57.0613 64.752 57.3043C61.5556 58.6872 59.4451 61.042 58.4025 64.3331C58.3448 64.5189 58.3087 64.7119 58.2799 64.8191H58.2762Z" fill="white"/>
<path d="M69.0054 89.9398C67.3279 89.9398 65.6503 89.9398 63.9727 89.9398C63.4496 89.9398 63.0492 89.7039 62.8183 89.2358C62.591 88.7784 62.6451 88.3317 62.9554 87.9244C63.2332 87.5599 63.6264 87.4348 64.0738 87.4348C65.8054 87.4348 67.5371 87.4348 69.2688 87.4348C70.8309 87.4348 72.3894 87.4348 73.9515 87.4348C74.6478 87.4348 75.1565 87.8136 75.2864 88.4175C75.4595 89.2215 74.8679 89.9326 74.0129 89.9362C72.3425 89.9398 70.6758 89.9362 69.0054 89.9362V89.9398Z" fill="white"/>
<path d="M48.7845 65.53C49.6034 65.53 50.426 65.53 51.2449 65.53C51.9989 65.53 52.5617 66.0553 52.5761 66.7593C52.5906 67.4561 52.035 68.0207 51.2846 68.0278C49.6179 68.0385 47.9475 68.0421 46.2808 68.0278C45.5195 68.0207 44.9892 67.4739 45 66.7593C45.0073 66.0517 45.5664 65.5336 46.3241 65.53C47.143 65.53 47.9655 65.53 48.7845 65.53Z" fill="white"/>
<path d="M89.2517 65.53C90.0562 65.53 90.8571 65.53 91.6616 65.53C92.4264 65.53 92.9856 66.041 92.9964 66.7486C93.0109 67.4775 92.4697 68.0242 91.6977 68.0314C90.0454 68.0421 88.3967 68.0421 86.7443 68.0314C85.9723 68.0278 85.4095 67.4668 85.4275 66.7593C85.4456 66.0517 86.0048 65.5336 86.7624 65.5336C87.5921 65.5336 88.4219 65.5336 89.2517 65.5336V65.53Z" fill="white"/>
<path d="M86.3403 50.8543C86.3403 51.2045 86.2104 51.5011 85.9651 51.7477C84.7818 52.9233 83.5984 54.1025 82.4043 55.271C81.8848 55.7784 81.0983 55.7677 80.6077 55.271C80.117 54.7779 80.1207 54.0025 80.6329 53.4915C81.809 52.3194 82.9888 51.1509 84.1721 49.986C84.5725 49.5929 85.1065 49.4893 85.5899 49.7109C86.0769 49.936 86.3222 50.3219 86.3403 50.8543Z" fill="white"/>
<path d="M57.7495 54.3812C57.7351 54.9136 57.497 55.3102 57.0027 55.5246C56.5012 55.7426 56.025 55.6676 55.6246 55.2959C55.235 54.935 54.867 54.5562 54.4918 54.181C53.6764 53.3735 52.8575 52.5659 52.0458 51.7547C51.6417 51.3509 51.5443 50.8149 51.7716 50.3254C51.9881 49.8573 52.4679 49.5464 52.991 49.6143C53.2543 49.65 53.5574 49.7501 53.7414 49.9252C54.986 51.1187 56.2018 52.3372 57.4212 53.5557C57.6449 53.7808 57.7459 54.0667 57.7459 54.3847L57.7495 54.3812Z" fill="white"/>
<path d="M57.7495 79.1624C57.7567 79.5126 57.6304 79.8128 57.3851 80.0593C56.1946 81.2421 55.0077 82.4285 53.8063 83.6005C53.2868 84.1044 52.4967 84.0829 52.0097 83.5827C51.5335 83.0931 51.5335 82.3248 52.0386 81.821C53.2183 80.6418 54.4052 79.4661 55.5957 78.2977C55.9853 77.9153 56.5121 77.8152 56.9919 78.0296C57.4825 78.2476 57.7315 78.6335 57.7531 79.166L57.7495 79.1624Z" fill="white"/>
<path d="M80.2505 79.1768C80.2649 78.6443 80.5066 78.2513 80.9973 78.0333C81.4879 77.8153 81.9713 77.8796 82.3538 78.2513C83.584 79.4448 84.7998 80.6526 86.0083 81.8675C86.4881 82.3535 86.4521 83.1432 85.9686 83.6077C85.4708 84.083 84.7023 84.0901 84.1901 83.5899C83.2449 82.6679 82.3141 81.7353 81.3761 80.8062C81.1272 80.5597 80.8782 80.3167 80.6293 80.0665C80.384 79.82 80.2505 79.5269 80.2505 79.1768Z" fill="white"/>
<path d="M70.2537 46.7449C70.2537 47.5918 70.2645 48.4422 70.2537 49.2891C70.2429 49.9252 69.7667 50.4326 69.1389 50.5041C68.5292 50.572 67.952 50.1861 67.7897 49.5857C67.7608 49.4821 67.75 49.3749 67.75 49.2677C67.75 47.5882 67.7428 45.9087 67.75 44.2328C67.75 43.6897 68.0891 43.2394 68.5906 43.0679C69.0812 42.8999 69.6223 43.0465 69.9651 43.4395C70.1779 43.6897 70.2645 43.9791 70.2645 44.3043C70.2609 45.1154 70.2645 45.9302 70.2645 46.7413L70.2537 46.7449Z" fill="white"/>
</g>
<defs>
<linearGradient id="paint0_linear_4141_9740" x1="69.3431" y1="11.2883" x2="69.3431" y2="127.398" gradientUnits="userSpaceOnUse">
<stop stop-color="#2BDAF8"/>
<stop offset="1" stop-color="#5078C2"/>
</linearGradient>
<linearGradient id="paint1_linear_4141_9740" x1="69.3432" y1="0" x2="69.3432" y2="138.686" gradientUnits="userSpaceOnUse">
<stop stop-color="#2BDAF8"/>
<stop offset="1" stop-color="#5078C2"/>
</linearGradient>
<linearGradient id="paint2_linear_4141_9740" x1="69.3431" y1="24.1895" x2="69.3431" y2="114.497" gradientUnits="userSpaceOnUse">
<stop stop-color="#2BDAF8"/>
<stop offset="1" stop-color="#5078C2"/>
</linearGradient>
<clipPath id="clip0_4141_9740">
<rect width="48" height="52.5714" fill="white" transform="translate(45 43)"/>
</clipPath>
</defs>
</svg>
