<svg width="233" height="129" viewBox="0 0 233 129" fill="none" xmlns="http://www.w3.org/2000/svg">
<path d="M40.5 45C36.6433 45 32.8731 46.1437 29.6664 48.2863C26.4596 50.429 23.9603 53.4745 22.4844 57.0377C21.0084 60.6008 20.6223 64.5216 21.3747 68.3043C22.1271 72.0869 23.9843 75.5615 26.7114 78.2886C29.4385 81.0157 32.9131 82.8729 36.6957 83.6253C40.4784 84.3777 44.3992 83.9916 47.9623 82.5156C51.5255 81.0397 54.571 78.5404 56.7137 75.3336C58.8563 72.1269 60 68.3567 60 64.5C60.0003 61.9391 59.4962 59.4033 58.5163 57.0373C57.5365 54.6713 56.1001 52.5215 54.2893 50.7107C52.4785 48.8999 50.3287 47.4635 47.9627 46.4837C45.5967 45.5038 43.0609 44.9997 40.5 45ZM39.1662 55.2647V57.6452C39.1662 57.6452 38.5923 56.7166 38.1364 56.2607C37.6806 55.771 37.1234 55.2647 37.1234 55.2647H39.1662ZM27.9897 73.8363V71.4558C27.9897 71.4558 28.5637 72.3844 29.0195 72.8402C29.4753 73.3298 30.0325 73.8363 30.0325 73.8363H27.9897ZM37.5455 70.5609C37.4441 68.5856 36.0936 68.1804 32.4975 65.8164C31.113 64.9558 28.0065 63.7065 28.0065 60.1779C28.0169 58.8479 28.3905 57.546 29.087 56.4129C29.087 56.4129 28.2596 60.1948 33.409 62.5752C36.1779 63.8583 39.1489 65.496 39.1489 69.1425C39.1489 70.9151 37.4268 72.7724 37.4268 72.7724C37.4268 72.7724 37.5792 71.2869 37.5455 70.5609ZM39.0988 73.8363L40.1286 71.4558C40.1286 71.4558 40.5507 71.9623 41.1757 72.6376C41.6316 73.1441 42.3744 73.8363 42.3744 73.8363H39.0988ZM50.4779 73.9882L45.0078 58.4727L46.3922 55.2647L53.3143 73.9883L50.4779 73.9882Z" fill="white"/>
<path d="M76.9286 69.5166C77.1917 69.5209 77.4534 69.4791 77.702 69.393C77.9442 69.3278 78.1741 69.2233 78.3824 69.0836C78.5779 68.9398 78.7457 68.7616 78.8774 68.5578C79.0035 68.3425 79.0676 68.0967 79.0629 67.8473C79.066 67.5407 78.98 67.2398 78.8154 66.9811C78.6329 66.7153 78.4144 66.4761 78.166 66.2706C77.873 66.0499 77.5627 65.8534 77.238 65.6829C76.8976 65.4972 76.5274 65.3115 76.1553 65.1261C75.7832 64.9406 75.4448 64.7234 75.0727 64.5385C74.7456 64.3368 74.4353 64.1093 74.1447 63.858C73.8766 63.6239 73.656 63.3403 73.495 63.0229C73.3299 62.686 73.2452 62.3154 73.2475 61.9402C73.2385 61.5478 73.3123 61.1578 73.464 60.7958C73.6232 60.4421 73.855 60.1259 74.1445 59.8678C74.4674 59.6013 74.8336 59.3921 75.2271 59.2491C75.7061 59.0927 76.2083 59.0195 76.7119 59.0326C77.7017 59.0326 78.5058 59.2491 79.0937 59.6823C79.6984 60.1547 80.1415 60.8032 80.3618 61.5383L79.4338 61.9712C79.3374 61.6567 79.2022 61.3553 79.0312 61.0743C78.8698 60.8109 78.672 60.5717 78.4435 60.3637C78.2078 60.1654 77.9337 60.018 77.6382 59.9308C77.3074 59.8295 76.9634 59.7774 76.6174 59.7761C76.3216 59.774 76.028 59.8264 75.7513 59.9308C75.5213 60.0098 75.3106 60.1362 75.1326 60.3019C74.9817 60.4563 74.8564 60.6338 74.7615 60.8277C74.6763 61.0117 74.6341 61.2126 74.6378 61.4153C74.6393 61.6924 74.7257 61.9623 74.8853 62.1887C75.0729 62.4429 75.3031 62.6626 75.5658 62.8381C75.8696 63.0587 76.1902 63.2551 76.5246 63.4257C76.8957 63.6112 77.2351 63.8284 77.6072 64.0134C77.9784 64.2011 78.3397 64.4076 78.6899 64.632C79.0325 64.8361 79.3537 65.0741 79.6486 65.3426C79.9258 65.5758 80.1566 65.8591 80.3291 66.1777C80.4906 66.4938 80.5754 66.8435 80.5766 67.1985C80.5753 67.6131 80.4911 68.0232 80.3291 68.4048C80.1681 68.7831 79.9255 69.1211 79.6186 69.3946C79.268 69.6955 78.8565 69.917 78.4123 70.0441C77.8724 70.2156 77.3084 70.2992 76.742 70.2916C76.2817 70.2971 75.8231 70.2345 75.3811 70.1059C75.0065 69.9979 74.6515 69.8309 74.3294 69.6111C74.0275 69.4013 73.7658 69.1389 73.5568 68.8364C73.3285 68.5101 73.1415 68.1569 73 67.7847L73.9588 67.3821C74.134 68.0386 74.5264 68.6165 75.072 69.0216C75.6435 69.3298 76.2795 69.4994 76.9286 69.5166Z" fill="white"/>
<path d="M91.0644 59.2164V59.8968H87.2288V69.9187H85.4347V59.8968H81.5994V59.2164H91.0644Z" fill="white"/>
<path d="M95.8587 59L100.839 69.9498H99.0445L97.4361 66.3618H92.8582L91.188 69.9498H90.291L95.3951 59H95.8587ZM93.1688 65.6813H97.0661L95.1476 61.4436L93.1688 65.6813Z" fill="white"/>
<path d="M102.231 59.2163H103.22L110.18 67.0421H110.242V59.2163H111.015V70.1969H110.613L103.096 61.4742H103.034V69.9184H102.229L102.231 59.2163Z" fill="white"/>
<path d="M113.675 59.2165H117.202C118.149 59.1947 119.096 59.2987 120.016 59.5258C120.733 59.7029 121.399 60.0414 121.965 60.5156C122.531 61.007 122.994 61.6063 123.326 62.2787C123.639 62.968 123.798 63.7176 123.79 64.4748C123.797 65.2057 123.66 65.9309 123.387 66.609C123.109 67.2559 122.71 67.8437 122.212 68.3411C121.657 68.8562 121.004 69.2558 120.293 69.5166C119.449 69.813 118.559 69.9596 117.664 69.9496H113.675V59.2165ZM115.469 69.1455H117.356C117.938 69.1535 118.516 69.0485 119.057 68.8361C119.583 68.6456 120.059 68.339 120.449 67.9392C120.863 67.5296 121.18 67.033 121.377 66.4854C121.608 65.8512 121.724 65.1807 121.718 64.5058C121.729 63.8836 121.624 63.2648 121.408 62.6809C121.202 62.1539 120.898 61.671 120.512 61.2579C120.131 60.853 119.667 60.5363 119.151 60.3301C118.601 60.1047 118.013 59.9891 117.418 59.9898H115.532V69.1455H115.469Z" fill="white"/>
<path d="M129.76 59L134.74 69.9498H132.946L131.337 66.3618H126.79L125.12 69.9498H124.223L129.327 59H129.76ZM127.101 65.6813H130.997L129.079 61.4436L127.101 65.6813Z" fill="white"/>
<path d="M136.132 59.2166H139.782C140.347 59.1999 140.91 59.273 141.452 59.433C141.892 59.5397 142.303 59.7402 142.658 60.0207C142.962 60.26 143.205 60.5672 143.369 60.9176C143.531 61.2665 143.615 61.6462 143.616 62.0308C143.621 62.3497 143.558 62.666 143.431 62.9588C143.304 63.2459 143.126 63.5078 142.906 63.7321C142.666 63.9863 142.383 64.1958 142.071 64.3508C141.741 64.5351 141.387 64.6707 141.019 64.7534L144.885 69.9499H142.813L139.132 64.9078H137.895V69.9497H136.101V59.2166H136.132ZM137.926 64.382H138.947C139.323 64.3805 139.698 64.3285 140.06 64.2274C140.39 64.1425 140.697 63.9838 140.957 63.7634C141.201 63.5708 141.401 63.3286 141.545 63.0528C141.699 62.7576 141.774 62.4271 141.761 62.0941C141.76 61.7985 141.708 61.5054 141.607 61.2279C141.496 60.9739 141.339 60.743 141.143 60.5474C140.936 60.3511 140.695 60.1939 140.432 60.0834C140.147 59.9698 139.842 59.9171 139.535 59.9288H137.958L137.927 64.383L137.926 64.382Z" fill="white"/>
<path d="M146.247 59.2165H149.773C150.721 59.1947 151.667 59.2987 152.588 59.5258C153.304 59.7029 153.971 60.0414 154.536 60.5156C155.102 61.007 155.565 61.6063 155.897 62.2787C156.21 62.968 156.369 63.7176 156.361 64.4748C156.377 65.193 156.246 65.9068 155.974 66.5719C155.703 67.2371 155.298 67.8393 154.784 68.3411C154.228 68.8562 153.576 69.2558 152.865 69.5166C152.021 69.813 151.131 69.9596 150.236 69.9496H146.278V59.2165H146.247ZM148.041 69.1455H149.927C150.509 69.1535 151.087 69.0485 151.629 68.8361C152.154 68.6456 152.63 68.339 153.021 67.9392C153.434 67.5296 153.751 67.033 153.949 66.4854C154.18 65.8512 154.295 65.1807 154.289 64.5058C154.3 63.8836 154.195 63.2648 153.98 62.6809C153.774 62.1539 153.469 61.671 153.083 61.2579C152.702 60.853 152.238 60.5363 151.722 60.3301C151.172 60.1047 150.584 59.9891 149.99 59.9898H148.103V69.1455H148.041Z" fill="white"/>
<path d="M166.507 59L171.487 69.9498H169.693L168.084 66.3618H163.537L161.866 69.9498H160.97L166.074 59H166.507ZM163.848 65.6813H167.744L165.825 61.4436L163.848 65.6813Z" fill="white"/>
<path d="M172.878 59.2163H174.673V69.2382H179.993V69.9186H172.878V59.2163Z" fill="white"/>
<path d="M181.477 59.2164H184.817C185.341 59.2058 185.863 59.2789 186.364 59.4329C186.818 59.5529 187.248 59.7522 187.633 60.0217C187.99 60.2632 188.278 60.5936 188.468 60.9805C188.686 61.3779 188.793 61.8266 188.777 62.2796C188.797 62.7232 188.69 63.1631 188.468 63.5479C188.277 63.9085 188.001 64.2166 187.663 64.4449C187.324 64.6814 186.948 64.8591 186.55 64.9707C186.138 65.095 185.711 65.1576 185.282 65.1564H184.694C184.477 65.1564 184.291 65.1254 184.106 65.1254C183.921 65.0943 183.735 65.0943 183.58 65.0635C183.426 65.0327 183.302 65.0327 183.209 65.0017V69.9519H181.416V59.2164H181.477ZM183.241 64.3819C183.451 64.455 183.669 64.5068 183.89 64.5365C184.122 64.5997 184.361 64.6309 184.601 64.6294C184.95 64.6335 185.296 64.5704 185.621 64.4437C185.884 64.3332 186.125 64.176 186.332 63.9797C186.529 63.7791 186.677 63.536 186.765 63.2692C186.864 62.9909 186.916 62.6983 186.92 62.403C186.924 62.064 186.861 61.7276 186.734 61.4132C186.624 61.133 186.456 60.8797 186.239 60.6709C186.032 60.46 185.777 60.301 185.497 60.2069C185.202 60.0906 184.886 60.0379 184.569 60.0523H183.301V64.3826L183.241 64.3819Z" fill="white"/>
<path d="M192.149 64.815V69.9497H190.386V59.2164H192.18V64.1035H197.5V59.2164H199.294V69.9187H197.5V64.784H192.149V64.815Z" fill="white"/>
<path d="M206.192 59L211.172 69.9498H209.378L207.77 66.3618H203.222L201.552 69.9498H200.655L205.759 59H206.192ZM203.501 65.6813H207.398L205.48 61.4436L203.501 65.6813Z" fill="white"/>
</svg>
