<svg width="233" height="129" viewBox="0 0 233 129" fill="none" xmlns="http://www.w3.org/2000/svg">
<path d="M91.7216 87.4951L95.8857 78.367L82.8787 51.4435H90.7953L99.6857 71.0344L107.998 51.4435H115.432L96.0757 94.3511C92.5687 94.3511 90.2728 90.7126 91.7216 87.4951Z" fill="white"/>
<path d="M129.713 51.4435C131.946 51.4435 133.941 51.8645 135.817 52.659C137.693 53.4534 139.261 54.5418 140.654 55.9321C142.048 57.3303 143.069 58.9668 143.861 60.8417C144.644 62.7245 145.008 64.8457 145.008 67.086C145.008 69.3263 144.644 71.4554 143.861 73.3303C143.077 75.2687 142.048 76.9053 140.654 78.3035C139.261 79.7017 137.693 80.7901 135.817 81.5766C133.941 82.3631 131.946 82.7921 129.713 82.7921C127.536 82.7921 125.541 82.371 123.673 81.5766C121.797 80.7901 120.166 79.6937 118.836 78.3035C117.506 76.9132 116.421 75.2687 115.693 73.3303C114.909 71.3918 114.545 69.3263 114.545 67.086C114.545 64.8457 114.909 62.7166 115.693 60.8417C116.477 58.9589 117.506 57.3223 118.836 55.9321C120.166 54.5338 121.797 53.4455 123.673 52.659C125.541 51.8089 127.536 51.4435 129.713 51.4435ZM129.713 76.4921C130.798 76.4921 131.827 76.3094 132.793 75.8884C133.759 75.4673 134.669 74.8556 135.453 74.0691C136.237 73.2826 136.846 72.3134 137.266 71.0979C137.686 69.946 137.931 68.5478 137.931 67.0383C137.931 65.5289 137.686 64.1307 137.266 62.9787C136.846 61.8268 136.237 60.8576 135.453 60.0711C134.669 59.2846 133.822 58.6729 132.793 58.3154C131.827 57.9499 130.798 57.7116 129.713 57.7116C128.629 57.7116 127.6 57.8943 126.634 58.3154C125.668 58.6808 124.758 59.2846 124.037 60.0711C123.309 60.8576 122.707 61.8268 122.224 62.9787C121.741 64.1307 121.496 65.4653 121.496 67.0383C121.496 68.5557 121.741 69.946 122.224 71.0979C122.707 72.2498 123.309 73.2826 124.037 74.0691C124.766 74.8556 125.668 75.4673 126.634 75.8884C127.592 76.2459 128.621 76.4921 129.713 76.4921Z" fill="white"/>
<path d="M149.355 82.7999V42.5218C149.355 39.3679 151.896 36.8177 155.039 36.8177H156.369V77.2785C156.369 80.3133 153.891 82.7999 150.867 82.7999H149.355Z" fill="white"/>
<path d="M175.939 51.4435C178.172 51.4435 180.167 51.8645 182.043 52.659C183.919 53.4534 185.487 54.5418 186.88 55.9321C188.273 57.3303 189.295 58.9668 190.086 60.8417C190.87 62.7245 191.234 64.8457 191.234 67.086C191.234 69.3263 190.87 71.4554 190.086 73.3303C189.302 75.2687 188.273 76.9053 186.88 78.3035C185.487 79.7017 183.919 80.7901 182.043 81.5766C180.167 82.3631 178.172 82.7921 175.939 82.7921C173.762 82.7921 171.767 82.371 169.899 81.5766C168.022 80.7901 166.392 79.6937 165.062 78.3035C163.732 76.9053 162.647 75.2687 161.919 73.3303C161.135 71.3918 160.771 69.3263 160.771 67.086C160.771 64.8457 161.135 62.7166 161.919 60.8417C162.702 58.9589 163.732 57.3223 165.062 55.9321C166.392 54.5338 168.022 53.4455 169.899 52.659C171.775 51.8089 173.77 51.4435 175.939 51.4435ZM175.939 76.4921C177.024 76.4921 178.053 76.3094 179.019 75.8884C179.984 75.4673 180.895 74.8556 181.679 74.0691C182.462 73.2826 183.072 72.3134 183.492 71.0979C183.911 69.946 184.157 68.5478 184.157 67.0383C184.157 65.5289 183.911 64.1307 183.492 62.9787C183.072 61.8268 182.462 60.8576 181.679 60.0711C180.895 59.2846 180.048 58.6729 179.019 58.3154C178.053 57.9499 177.024 57.7116 175.939 57.7116C174.855 57.7116 173.825 57.8943 172.86 58.3154C171.894 58.6808 170.983 59.2846 170.263 60.0711C169.535 60.8576 168.933 61.8268 168.45 62.9787C167.967 64.1307 167.722 65.4653 167.722 67.0383C167.722 68.5557 167.967 69.946 168.45 71.0979C168.933 72.2498 169.535 73.2826 170.263 74.0691C170.991 74.8556 171.894 75.4673 172.86 75.8884C173.825 76.2459 174.855 76.4921 175.939 76.4921Z" fill="white"/>
<path d="M61.8598 66.8157C58.5586 66.8793 55.859 64.067 55.859 60.7541V50.7998C55.859 49.5605 55.2019 48.4086 54.1252 47.7889L43.984 41.9101C41.1261 40.2497 40.0494 36.4999 41.7515 33.6638C43.4061 30.915 46.9527 29.9855 49.7394 31.5982L65.0344 40.4642C66.6415 41.3937 67.6311 43.1176 67.6311 44.9766V60.9051C67.6311 64.1305 65.0581 66.7522 61.8598 66.8157Z" fill="white"/>
<path d="M76.6957 42.6251C79.9486 42.6251 82.5856 39.9788 82.5856 36.7145C82.5856 33.4501 79.9486 30.8038 76.6957 30.8038C73.4427 30.8038 70.8057 33.4501 70.8057 36.7145C70.8057 39.9788 73.4427 42.6251 76.6957 42.6251Z" fill="white"/>
<path d="M114.537 88.5437C114.537 88.2339 114.64 87.9797 114.854 87.7731C115.068 87.5665 115.313 87.4553 115.614 87.4553C115.915 87.4553 116.176 87.5586 116.382 87.7731C116.588 87.9876 116.699 88.2418 116.699 88.5437C116.699 88.8456 116.596 89.1077 116.382 89.3143C116.176 89.5209 115.915 89.6241 115.614 89.6241C115.321 89.6241 115.068 89.5209 114.854 89.3143C114.648 89.1077 114.537 88.8535 114.537 88.5437ZM114.799 97.9737V90.9906H116.445V97.9737H114.799Z" fill="white"/>
<path d="M119.667 97.9737H118.013V90.9906H119.628V91.9201C119.857 91.5149 120.158 91.2289 120.538 91.0542C120.91 90.8794 121.298 90.792 121.686 90.792C122.114 90.792 122.486 90.8635 122.802 91.0065C123.119 91.1495 123.372 91.3481 123.578 91.6023C123.784 91.8565 123.934 92.1505 124.045 92.4841C124.148 92.8178 124.204 93.1753 124.204 93.5566V97.9737H122.549V93.8426C122.549 93.4136 122.438 93.0482 122.224 92.7463C122.011 92.4444 121.639 92.2935 121.116 92.2935C120.641 92.2935 120.277 92.4524 120.039 92.7701C119.794 93.0879 119.675 93.4772 119.675 93.938V97.9737H119.667Z" fill="white"/>
<path d="M129.199 97.9736H127.545L124.719 90.9905H126.547L128.392 95.9795L130.189 90.9905H131.931L129.199 97.9736Z" fill="white"/>
<path d="M138.509 95.9876C138.414 96.2975 138.272 96.5834 138.097 96.8456C137.915 97.1157 137.694 97.3461 137.424 97.5447C137.155 97.7433 136.854 97.9022 136.506 98.0214C136.166 98.1326 135.786 98.1962 135.366 98.1962C134.891 98.1962 134.44 98.1088 134.012 97.9419C133.585 97.7751 133.205 97.5288 132.88 97.2111C132.556 96.8933 132.294 96.4961 132.104 96.0353C131.907 95.5745 131.812 95.0422 131.812 94.4544C131.812 93.8982 131.907 93.3977 132.089 92.9529C132.271 92.508 132.524 92.1187 132.841 91.8009C133.157 91.4832 133.514 91.2289 133.925 91.0542C134.337 90.8794 134.757 90.792 135.2 90.792C135.73 90.792 136.213 90.8794 136.633 91.0462C137.06 91.221 137.417 91.4593 137.702 91.7771C137.994 92.0949 138.216 92.4762 138.367 92.9131C138.517 93.358 138.596 93.8585 138.596 94.4146C138.596 94.5497 138.588 94.6689 138.58 94.7642C138.572 94.8675 138.564 94.9231 138.549 94.9469H133.466C133.474 95.217 133.529 95.4553 133.64 95.6778C133.743 95.9002 133.886 96.0909 134.052 96.2498C134.226 96.4087 134.424 96.5358 134.646 96.6311C134.867 96.7185 135.113 96.7662 135.366 96.7662C135.873 96.7662 136.261 96.647 136.53 96.4166C136.799 96.1862 136.997 95.8923 137.108 95.5507L138.509 95.9876ZM136.926 93.7235C136.918 93.5249 136.878 93.3263 136.807 93.1435C136.736 92.9608 136.625 92.794 136.482 92.651C136.34 92.508 136.166 92.3968 135.952 92.3094C135.738 92.222 135.493 92.1823 135.208 92.1823C134.954 92.1823 134.717 92.2299 134.511 92.3173C134.305 92.4047 134.131 92.5239 133.989 92.6748C133.846 92.8258 133.735 92.9926 133.648 93.1753C133.561 93.358 133.514 93.5487 133.506 93.7235H136.926Z" fill="white"/>
<path d="M140.441 95.6857C140.472 96.0035 140.599 96.2816 140.837 96.5199C141.074 96.7582 141.407 96.8774 141.858 96.8774C142.198 96.8774 142.459 96.7979 142.634 96.639C142.808 96.4802 142.895 96.2895 142.895 96.075C142.895 95.8843 142.832 95.7254 142.697 95.5904C142.562 95.4553 142.357 95.36 142.079 95.3044L141.05 95.074C140.433 94.939 139.966 94.6927 139.649 94.3193C139.332 93.9539 139.174 93.5249 139.174 93.0323C139.174 92.7304 139.237 92.4365 139.372 92.1664C139.507 91.8963 139.689 91.6579 139.918 91.4514C140.148 91.2448 140.417 91.0859 140.726 90.9668C141.034 90.8476 141.367 90.7841 141.731 90.7841C142.214 90.7841 142.626 90.8556 142.95 90.9906C143.283 91.1257 143.544 91.3004 143.758 91.499C143.972 91.6977 144.122 91.9122 144.225 92.1346C144.328 92.357 144.391 92.5556 144.415 92.7304L143.014 93.1356C142.998 93.0403 142.958 92.929 142.911 92.8019C142.863 92.6748 142.792 92.5636 142.689 92.4603C142.586 92.357 142.459 92.2697 142.301 92.1982C142.143 92.1267 141.953 92.0869 141.723 92.0869C141.43 92.0869 141.185 92.1664 141.003 92.3253C140.821 92.4842 140.726 92.6748 140.726 92.8893C140.726 93.08 140.789 93.2389 140.908 93.366C141.034 93.4931 141.201 93.5725 141.422 93.6202L142.483 93.8347C143.14 93.9777 143.639 94.2399 143.979 94.6132C144.32 94.9946 144.486 95.4395 144.486 95.9558C144.486 96.2259 144.431 96.4881 144.32 96.7503C144.209 97.0124 144.051 97.2508 143.837 97.4653C143.623 97.6798 143.346 97.8545 143.014 97.9896C142.681 98.1246 142.293 98.1882 141.858 98.1882C141.351 98.1882 140.924 98.1167 140.575 97.9737C140.219 97.8307 139.934 97.648 139.704 97.4335C139.475 97.219 139.301 96.9886 139.19 96.7423C139.079 96.496 139.008 96.2736 138.992 96.075L140.441 95.6857Z" fill="white"/>
<path d="M147.669 90.9985H149.109V92.4762H147.669V95.7175C147.669 96.0273 147.74 96.2418 147.882 96.3848C148.025 96.5198 148.246 96.5914 148.555 96.5914C148.666 96.5914 148.785 96.5834 148.896 96.5675C149.006 96.5516 149.086 96.5437 149.125 96.5278V97.9022C149.078 97.9181 148.975 97.9498 148.809 97.9975C148.65 98.0372 148.413 98.0611 148.112 98.0611C147.463 98.0611 146.956 97.8783 146.584 97.5129C146.212 97.1475 146.03 96.639 146.03 95.9796V92.4682H144.747V90.9906H145.104C145.476 90.9906 145.745 90.8873 145.919 90.6728C146.093 90.4662 146.172 90.2041 146.172 89.9022V88.8535H147.669V90.9985Z" fill="white"/>
<path d="M150.21 97.9737V90.9906H151.793V91.8804C151.991 91.5308 152.292 91.2607 152.68 91.07C153.068 90.8794 153.463 90.792 153.851 90.792C154.311 90.792 154.722 90.8953 155.094 91.1018C155.466 91.3084 155.743 91.6182 155.933 92.0234C156.211 91.5626 156.543 91.2448 156.923 91.0621C157.311 90.8794 157.731 90.792 158.19 90.792C158.506 90.792 158.807 90.8476 159.1 90.9509C159.393 91.0542 159.654 91.213 159.884 91.4275C160.113 91.642 160.296 91.9201 160.43 92.2537C160.565 92.5874 160.636 92.9846 160.636 93.4454V97.9737H159.053V93.7155C159.053 93.3024 158.942 92.9608 158.728 92.6907C158.514 92.4206 158.174 92.2855 157.707 92.2855C157.271 92.2855 156.915 92.4365 156.654 92.7384C156.393 93.0402 156.258 93.4057 156.258 93.8347V97.9737H154.627V93.7155C154.627 93.3103 154.524 92.9767 154.311 92.6986C154.105 92.4206 153.756 92.2855 153.281 92.2855C152.83 92.2855 152.482 92.4285 152.221 92.7225C151.967 93.0164 151.833 93.3818 151.833 93.8347V97.9737H150.21Z" fill="white"/>
<path d="M168.268 95.9876C168.173 96.2975 168.03 96.5834 167.856 96.8456C167.674 97.1157 167.452 97.3461 167.183 97.5447C166.914 97.7433 166.613 97.9022 166.265 98.0214C165.924 98.1326 165.544 98.1962 165.125 98.1962C164.65 98.1962 164.199 98.1088 163.771 97.9419C163.344 97.7751 162.964 97.5288 162.639 97.2111C162.314 96.8933 162.053 96.4961 161.863 96.0353C161.665 95.5745 161.57 95.0422 161.57 94.4544C161.57 93.8982 161.665 93.3977 161.847 92.9529C162.029 92.508 162.283 92.1187 162.599 91.8009C162.916 91.4832 163.272 91.2289 163.684 91.0542C164.096 90.8794 164.515 90.792 164.959 90.792C165.489 90.792 165.972 90.8794 166.392 91.0462C166.819 91.221 167.175 91.4593 167.46 91.7771C167.753 92.0949 167.975 92.4762 168.125 92.9131C168.276 93.358 168.355 93.8585 168.355 94.4146C168.355 94.5497 168.347 94.6689 168.339 94.7642C168.331 94.8675 168.323 94.9231 168.307 94.9469H163.225C163.233 95.217 163.288 95.4553 163.399 95.6778C163.502 95.9002 163.644 96.0909 163.811 96.2498C163.985 96.4087 164.183 96.5358 164.404 96.6311C164.626 96.7185 164.872 96.7662 165.125 96.7662C165.632 96.7662 166.019 96.647 166.289 96.4166C166.558 96.1862 166.756 95.8923 166.867 95.5507L168.268 95.9876ZM166.677 93.7235C166.669 93.5249 166.629 93.3263 166.558 93.1435C166.487 92.9608 166.376 92.794 166.233 92.651C166.091 92.508 165.917 92.3968 165.703 92.3094C165.497 92.222 165.244 92.1823 164.959 92.1823C164.705 92.1823 164.468 92.2299 164.262 92.3173C164.056 92.4047 163.882 92.5239 163.739 92.6748C163.597 92.8258 163.486 92.9926 163.399 93.1753C163.312 93.358 163.264 93.5487 163.257 93.7235H166.677Z" fill="white"/>
<path d="M171.023 97.9737H169.368V90.9906H170.983V91.9201C171.213 91.5149 171.514 91.2289 171.894 91.0542C172.266 90.8794 172.654 90.792 173.041 90.792C173.469 90.792 173.841 90.8635 174.158 91.0065C174.474 91.1495 174.728 91.3481 174.934 91.6023C175.139 91.8565 175.29 92.1505 175.401 92.4841C175.504 92.8178 175.559 93.1753 175.559 93.5566V97.9737H173.904V93.8426C173.904 93.4136 173.794 93.0482 173.58 92.7463C173.366 92.4444 172.994 92.2935 172.471 92.2935C171.996 92.2935 171.632 92.4524 171.395 92.7701C171.149 93.0879 171.031 93.4772 171.031 93.938V97.9737H171.023Z" fill="white"/>
<path d="M179.09 90.9985H180.531V92.4762H179.09V95.7175C179.09 96.0273 179.161 96.2418 179.304 96.3848C179.446 96.5198 179.668 96.5914 179.977 96.5914C180.087 96.5914 180.206 96.5834 180.317 96.5675C180.428 96.5516 180.507 96.5437 180.547 96.5278V97.9022C180.499 97.9181 180.396 97.9498 180.23 97.9975C180.072 98.0372 179.834 98.0611 179.533 98.0611C178.884 98.0611 178.377 97.8783 178.005 97.5129C177.633 97.1475 177.451 96.639 177.451 95.9796V92.4682H176.169V90.9906H176.525C176.897 90.9906 177.166 90.8873 177.34 90.6728C177.515 90.4662 177.594 90.2041 177.594 89.9022V88.8535H179.09V90.9985Z" fill="white"/>
<path d="M182.462 95.6857C182.494 96.0035 182.621 96.2816 182.858 96.5199C183.096 96.7582 183.428 96.8774 183.879 96.8774C184.22 96.8774 184.481 96.7979 184.655 96.639C184.829 96.4802 184.916 96.2895 184.916 96.075C184.916 95.8843 184.853 95.7254 184.719 95.5904C184.584 95.4553 184.378 95.36 184.101 95.3044L183.072 95.074C182.454 94.939 181.987 94.6927 181.671 94.3193C181.354 93.9539 181.196 93.5249 181.196 93.0323C181.196 92.7304 181.259 92.4365 181.394 92.1664C181.528 91.8963 181.71 91.6579 181.94 91.4514C182.169 91.2448 182.439 91.0859 182.747 90.9668C183.056 90.8476 183.389 90.7841 183.753 90.7841C184.236 90.7841 184.647 90.8556 184.972 90.9906C185.304 91.1257 185.566 91.3004 185.779 91.499C185.993 91.6977 186.144 91.9122 186.246 92.1346C186.349 92.357 186.413 92.5556 186.436 92.7304L185.035 93.1356C185.019 93.0403 184.98 92.929 184.932 92.8019C184.885 92.6748 184.814 92.5636 184.711 92.4603C184.608 92.357 184.481 92.2697 184.323 92.1982C184.164 92.1267 183.974 92.0869 183.745 92.0869C183.452 92.0869 183.206 92.1664 183.024 92.3253C182.842 92.4842 182.747 92.6748 182.747 92.8893C182.747 93.08 182.811 93.2389 182.929 93.366C183.056 93.4931 183.222 93.5725 183.444 93.6202L184.505 93.8347C185.162 93.9777 185.661 94.2399 186.001 94.6132C186.341 94.9946 186.508 95.4395 186.508 95.9558C186.508 96.2259 186.452 96.4881 186.341 96.7503C186.231 97.0124 186.072 97.2508 185.859 97.4653C185.645 97.6798 185.368 97.8545 185.035 97.9896C184.703 98.1246 184.315 98.1882 183.879 98.1882C183.373 98.1882 182.945 98.1167 182.597 97.9737C182.241 97.8307 181.956 97.648 181.726 97.4335C181.496 97.219 181.322 96.9886 181.211 96.7423C181.101 96.496 181.029 96.2736 181.014 96.075L182.462 95.6857Z" fill="white"/>
</svg>
