<svg width="659" height="321" viewBox="0 0 659 321" fill="none" xmlns="http://www.w3.org/2000/svg">
<path d="M657.902 49.1222C657.859 22.5431 636.447 1.18069 609.892 1.22395L48.5914 2.13818C22.0368 2.18143 0.694035 23.6135 0.737247 50.1926L1.09779 271.96C1.141 298.539 22.5533 319.902 49.108 319.858L610.409 318.944C636.963 318.901 658.306 297.469 658.263 270.89L658.131 189.782C658.13 189.278 657.948 188.79 657.619 188.408C657.29 188.026 656.836 187.774 656.337 187.699L656.245 187.699L656.245 187.686L656.157 134.079C656.674 134.022 657.152 133.776 657.499 133.388C657.846 133 658.038 132.498 658.037 131.977L657.902 49.1222Z" fill="black" stroke="#434343" stroke-width="0.500001"/>
</svg>
