<svg width="343" height="169" viewBox="0 0 343 169" fill="none" xmlns="http://www.w3.org/2000/svg">
<path d="M240.544 164.277L240.55 168.231C240.55 168.441 240.381 168.611 240.17 168.611L200.791 168.675C200.58 168.676 200.41 168.506 200.41 168.296L200.403 164.342C200.403 164.131 200.572 163.962 200.783 163.961L240.163 163.897C240.373 163.897 240.543 164.066 240.544 164.277Z" fill="#3F4B5B"/>
<path d="M248.444 0.531905L248.45 4.48573C248.451 4.69635 248.281 4.86617 248.071 4.86652L223.751 4.90606C223.54 4.9064 223.37 4.73706 223.37 4.52651L223.364 0.572686C223.363 0.362064 223.533 0.192239 223.743 0.191896L248.063 0.152352C248.274 0.152009 248.444 0.321353 248.444 0.531905Z" fill="#3F4B5B"/>
<path d="M215.724 0.585127L215.73 4.53895C215.731 4.74957 215.561 4.9194 215.35 4.91974L191.031 4.95928C190.82 4.95963 190.65 4.79028 190.65 4.57973L190.643 0.625908C190.643 0.415287 190.812 0.245461 191.023 0.245119L215.343 0.205574C215.554 0.205232 215.723 0.374576 215.724 0.585127Z" fill="#3F4B5B"/>
<path d="M273.29 4.44533L273.284 0.491503C273.283 0.281538 273.113 0.111605 272.903 0.111946L260.631 0.131889C260.421 0.13223 260.251 0.302717 260.251 0.512682L260.258 4.4665C260.258 4.67647 260.429 4.8464 260.639 4.84606L272.911 4.82612C273.121 4.82578 273.291 4.65529 273.29 4.44533Z" fill="#3F4B5B"/>
<path d="M240.049 164.278L240.055 168.231C240.056 168.442 239.886 168.612 239.676 168.612L201.133 168.675C200.922 168.675 200.752 168.506 200.752 168.295L200.745 164.341C200.745 164.131 200.914 163.961 201.125 163.961L239.668 163.898C239.879 163.898 240.049 164.067 240.049 164.278Z" fill="url(#paint0_linear_4408_7579)"/>
<path d="M247.949 0.57475L247.956 4.52856C247.956 4.73918 247.787 4.90901 247.576 4.90935L224.093 4.94755C223.882 4.94789 223.712 4.77855 223.712 4.568L223.706 0.614186C223.705 0.403565 223.875 0.23374 224.085 0.233397L247.568 0.195199C247.779 0.194856 247.949 0.3642 247.949 0.57475Z" fill="url(#paint1_linear_4408_7579)"/>
<path d="M215.23 0.585858L215.236 4.53967C215.236 4.75029 215.067 4.92011 214.856 4.92046L191.373 4.95865C191.163 4.959 190.993 4.78965 190.992 4.5791L190.986 0.625294C190.986 0.414673 191.155 0.244848 191.366 0.244506L214.849 0.206307C215.059 0.205964 215.229 0.375308 215.23 0.585858Z" fill="url(#paint2_linear_4408_7579)"/>
<path d="M272.796 4.44605L272.79 0.492235C272.789 0.282271 272.619 0.112338 272.409 0.112679L260.974 0.13128C260.764 0.131622 260.594 0.302109 260.594 0.512073L260.6 4.46589C260.601 4.67585 260.771 4.84579 260.981 4.84544L272.416 4.82684C272.626 4.8265 272.796 4.65602 272.796 4.44605Z" fill="url(#paint3_linear_4408_7579)"/>
<path d="M341.723 141.296L341.537 27.1925C341.514 12.8418 329.856 1.22706 315.5 1.25041L27.23 1.71933C12.8736 1.74268 1.25434 13.3952 1.2777 27.746L1.46345 141.849C1.48681 156.2 13.1439 167.815 27.5003 167.791L315.77 167.323C330.127 167.299 341.746 155.647 341.723 141.296Z" fill="#C8E1F8" stroke="#3F4B5B" stroke-width="0.999999" stroke-linecap="round" stroke-linejoin="round"/>
<g filter="url(#filter0_f_4408_7579)">
<path d="M340.625 27.1927C340.603 13.2861 329.414 2.13804 315.502 2.16067L27.2307 2.62959C13.3186 2.65222 2.16712 13.8366 2.18976 27.7432L2.37551 141.849C2.39815 155.756 13.586 166.904 27.4981 166.881L315.769 166.412C329.681 166.39 340.834 155.205 340.811 141.299L340.625 27.1927Z" fill="#A0B8CE"/>
</g>
<path d="M341.94 131.523L336.352 131.532L336.356 133.853L341.944 133.844L341.94 131.523ZM307.781 1.02934L305.459 1.03312L305.731 167.573L308.052 167.569L307.781 1.02934ZM36.6776 1.47033L34.3558 1.47411L34.6269 168.013L36.9487 168.01L36.6776 1.47033ZM5.8679 35.19L1.05654 35.1978L1.06032 37.5187L5.87168 37.5108L5.8679 35.19Z" fill="#819ABB"/>
<path d="M339.628 99.4623L339.58 69.9247L337.226 69.9285L337.274 99.4661L339.628 99.4623Z" fill="black"/>
<path d="M339.394 27.6333C339.372 14.0627 328.425 3.1556 314.849 3.17768L27.8872 3.64446C14.3112 3.66655 3.39988 14.6092 3.42197 28.1798L3.6063 141.408C3.62839 154.979 14.5753 165.886 28.1512 165.864L315.113 165.397C328.689 165.375 339.6 154.433 339.578 140.862L339.511 99.4506C339.51 99.193 339.417 98.9442 339.249 98.749C339.081 98.5539 338.849 98.4254 338.594 98.3868L338.546 98.3868L338.546 98.3804L338.502 71.01C338.766 70.981 339.011 70.8553 339.188 70.6573C339.365 70.4592 339.463 70.2026 339.463 69.9367L339.394 27.6333Z" fill="black" stroke="#434343" stroke-width="0.500001"/>
<path d="M339.508 97.3067L339.467 72.0806C339.466 71.4852 338.982 71.0032 338.386 71.0042L337.231 71.0061C336.635 71.007 336.153 71.4905 336.154 72.086L336.195 97.3121C336.196 97.9075 336.68 98.3895 337.275 98.3885L338.431 98.3866C339.027 98.3856 339.509 97.9021 339.508 97.3067Z" fill="black" stroke="#1A1A1A" stroke-width="0.500001" stroke-linecap="round" stroke-linejoin="round"/>
<path d="M338.789 72.7238C338.788 72.182 338.351 71.7467 337.809 71.7476C337.267 71.7484 336.832 72.1852 336.833 72.727L336.872 96.6692C336.873 97.211 337.31 97.6463 337.852 97.6454C338.394 97.6446 338.829 97.2079 338.828 96.666L338.789 72.7238Z" stroke="#292929" stroke-width="0.153809" stroke-linecap="round"/>
<g filter="url(#filter1_f_4408_7579)">
<path d="M337.852 97.6454C337.68 97.6456 337.54 97.5462 337.54 97.4234C337.539 97.3005 337.679 97.2006 337.851 97.2003C338.023 97.2001 338.163 97.2995 338.163 97.4223C338.164 97.5452 338.024 97.6451 337.852 97.6454Z" fill="white"/>
<path d="M337.81 71.7475C337.637 71.7477 337.498 71.8476 337.498 71.9705C337.498 72.0934 337.638 72.1928 337.81 72.1925C337.983 72.1922 338.122 72.0924 338.122 71.9695C338.122 71.8466 337.982 71.7472 337.81 71.7475Z" fill="white"/>
</g>
<path d="M326.888 62.8035C326.89 64.2783 328.088 65.4719 329.563 65.4695C331.039 65.4671 332.233 64.2696 332.23 62.7948C332.228 61.3201 331.03 60.1265 329.555 60.1289C328.079 60.1313 326.885 61.3287 326.888 62.8035Z" fill="#161616"/>
<path d="M327.911 62.8019C327.913 63.7115 328.652 64.4478 329.562 64.4463C330.472 64.4448 331.208 63.7062 331.207 62.7965C331.205 61.8868 330.466 61.1506 329.556 61.1521C328.646 61.1536 327.91 61.8922 327.911 62.8019Z" fill="#0A0D13"/>
<path d="M328.304 62.8013C328.305 63.4944 328.868 64.0553 329.561 64.0542C330.255 64.0531 330.816 63.4903 330.815 62.7972C330.813 62.1041 330.25 61.5432 329.557 61.5443C328.864 61.5454 328.303 62.1082 328.304 62.8013Z" fill="#091427"/>
<g filter="url(#filter2_f_4408_7579)">
<path fill-rule="evenodd" clip-rule="evenodd" d="M330.398 61.934C330.382 61.7852 330.154 61.5741 329.707 61.5591C329.261 61.5442 329.018 61.7404 329.018 61.8501C329.019 61.9597 329.67 62.4129 330.398 61.934L330.398 61.934Z" fill="#235A91" fill-opacity="0.556075"/>
</g>
<g filter="url(#filter3_f_4408_7579)">
<path fill-rule="evenodd" clip-rule="evenodd" d="M330.556 63.0024C330.483 62.7678 330.103 62.7233 329.887 62.7327C329.67 62.742 329.101 63.05 329.229 63.4199C329.356 63.7899 329.825 63.8523 330.141 63.6983C330.457 63.5443 330.682 63.2641 330.556 63.0024Z" fill="#235A91" fill-opacity="0.556075"/>
</g>
<path d="M333.865 49.9817C333.869 52.0606 333.655 53.1361 330.356 53.1415C327.058 53.1468 321.503 55.1993 321.514 62.5113L321.586 106.404C321.598 113.716 327.16 115.75 330.458 115.745C333.757 115.739 333.974 116.814 333.977 118.893L333.865 49.9817Z" fill="black"/>
<defs>
<filter id="filter0_f_4408_7579" x="0.252888" y="0.223592" width="342.495" height="168.595" filterUnits="userSpaceOnUse" color-interpolation-filters="sRGB">
<feFlood flood-opacity="0" result="BackgroundImageFix"/>
<feBlend mode="normal" in="SourceGraphic" in2="BackgroundImageFix" result="shape"/>
<feGaussianBlur stdDeviation="0.968526" result="effect1_foregroundBlur_4408_7579"/>
</filter>
<filter id="filter1_f_4408_7579" x="333.987" y="68.2368" width="7.68673" height="32.9192" filterUnits="userSpaceOnUse" color-interpolation-filters="sRGB">
<feFlood flood-opacity="0" result="BackgroundImageFix"/>
<feBlend mode="normal" in="SourceGraphic" in2="BackgroundImageFix" result="shape"/>
<feGaussianBlur stdDeviation="1.7553" result="effect1_foregroundBlur_4408_7579"/>
</filter>
<filter id="filter2_f_4408_7579" x="328.816" y="61.3555" width="1.78461" height="0.996767" filterUnits="userSpaceOnUse" color-interpolation-filters="sRGB">
<feFlood flood-opacity="0" result="BackgroundImageFix"/>
<feBlend mode="normal" in="SourceGraphic" in2="BackgroundImageFix" result="shape"/>
<feGaussianBlur stdDeviation="0.101426" result="effect1_foregroundBlur_4408_7579"/>
</filter>
<filter id="filter3_f_4408_7579" x="329.008" y="62.5287" width="1.78656" height="1.45087" filterUnits="userSpaceOnUse" color-interpolation-filters="sRGB">
<feFlood flood-opacity="0" result="BackgroundImageFix"/>
<feBlend mode="normal" in="SourceGraphic" in2="BackgroundImageFix" result="shape"/>
<feGaussianBlur stdDeviation="0.101426" result="effect1_foregroundBlur_4408_7579"/>
</filter>
<linearGradient id="paint0_linear_4408_7579" x1="240.056" y1="168.611" x2="200.734" y2="168.675" gradientUnits="userSpaceOnUse">
<stop stop-color="#81AACE"/>
<stop offset="0.1" stop-color="#B9D2E8"/>
<stop offset="0.9" stop-color="#B9D2E8"/>
<stop offset="1" stop-color="#81AACE"/>
</linearGradient>
<linearGradient id="paint1_linear_4408_7579" x1="247.956" y1="4.90873" x2="223.713" y2="4.9482" gradientUnits="userSpaceOnUse">
<stop stop-color="#81AACE"/>
<stop offset="0.1" stop-color="#B9D2E8"/>
<stop offset="0.9" stop-color="#B9D2E8"/>
<stop offset="1" stop-color="#81AACE"/>
</linearGradient>
<linearGradient id="paint2_linear_4408_7579" x1="215.237" y1="4.91984" x2="190.993" y2="4.95931" gradientUnits="userSpaceOnUse">
<stop stop-color="#81AACE"/>
<stop offset="0.1" stop-color="#B9D2E8"/>
<stop offset="0.9" stop-color="#B9D2E8"/>
<stop offset="1" stop-color="#81AACE"/>
</linearGradient>
<linearGradient id="paint3_linear_4408_7579" x1="272.797" y1="4.82622" x2="260.601" y2="4.84607" gradientUnits="userSpaceOnUse">
<stop stop-color="#81AACE"/>
<stop offset="0.1" stop-color="#B9D2E8"/>
<stop offset="0.9" stop-color="#B9D2E8"/>
<stop offset="1" stop-color="#81AACE"/>
</linearGradient>
</defs>
</svg>
