<svg width="667" height="331" viewBox="0 0 667 331" fill="none" xmlns="http://www.w3.org/2000/svg">
<path d="M468.55 321.749L468.563 329.493C468.563 329.906 468.232 330.238 467.82 330.239L390.793 330.364C390.38 330.365 390.048 330.033 390.047 329.621L390.035 321.877C390.034 321.465 390.365 321.132 390.778 321.132L467.805 321.006C468.217 321.005 468.549 321.337 468.55 321.749Z" fill="#3F4B5B"/>
<path d="M484.003 1.04183L484.016 8.78562C484.016 9.19813 483.685 9.53075 483.273 9.53142L435.703 9.60897C435.291 9.60964 434.959 9.27797 434.958 8.8656L434.946 1.12181C434.945 0.709291 435.276 0.376677 435.688 0.376006L483.258 0.298454C483.67 0.297782 484.002 0.629452 484.003 1.04183Z" fill="#3F4B5B"/>
<path d="M420.003 1.14608L420.015 8.88987C420.016 9.30238 419.685 9.63499 419.273 9.63567L371.703 9.71322C371.291 9.71389 370.958 9.38222 370.958 8.96984L370.945 1.22605C370.944 0.813539 371.276 0.480925 371.688 0.480254L419.258 0.402702C419.67 0.40203 420.002 0.7337 420.003 1.14608Z" fill="#3F4B5B"/>
<path d="M532.603 8.70657L532.591 0.962739C532.59 0.551508 532.256 0.218682 531.845 0.219351L507.842 0.258448C507.431 0.259117 507.098 0.593028 507.099 1.00426L507.112 8.74809C507.112 9.15932 507.446 9.49215 507.857 9.49148L531.86 9.45238C532.271 9.45171 532.604 9.1178 532.603 8.70657Z" fill="#3F4B5B"/>
<path d="M467.583 321.751L467.595 329.495C467.596 329.907 467.265 330.24 466.853 330.241L391.462 330.363C391.05 330.364 390.717 330.032 390.717 329.62L390.704 321.876C390.703 321.464 391.035 321.131 391.447 321.13L466.838 321.007C467.25 321.007 467.582 321.338 467.583 321.751Z" fill="url(#paint0_linear_4408_7514)"/>
<path d="M483.036 1.1257L483.048 8.86955C483.049 9.28207 482.718 9.61468 482.306 9.61535L436.373 9.69017C435.96 9.69084 435.628 9.35917 435.627 8.94679L435.615 1.20294C435.614 0.790417 435.945 0.457801 436.358 0.45713L482.291 0.382315C482.703 0.381644 483.035 0.713317 483.036 1.1257Z" fill="url(#paint1_linear_4408_7514)"/>
<path d="M419.035 1.14767L419.048 8.89152C419.049 9.30404 418.717 9.63665 418.305 9.63733L372.372 9.71214C371.96 9.71281 371.628 9.38114 371.627 8.96876L371.614 1.22491C371.614 0.812389 371.945 0.479774 372.357 0.479103L418.29 0.404288C418.702 0.403617 419.035 0.735289 419.035 1.14767Z" fill="url(#paint2_linear_4408_7514)"/>
<path d="M531.636 8.70819L531.623 0.964329C531.623 0.553096 531.289 0.220269 530.878 0.220938L508.511 0.257369C508.1 0.258039 507.768 0.591951 507.768 1.00318L507.781 8.74705C507.782 9.15828 508.115 9.49111 508.526 9.49044L530.893 9.45401C531.304 9.45334 531.637 9.11942 531.636 8.70819Z" fill="url(#paint3_linear_4408_7514)"/>
<path d="M666.457 276.739L666.094 53.2589C666.048 25.1517 643.247 2.40341 615.166 2.44915L51.3059 3.36755C23.2246 3.41329 0.497206 26.2357 0.542903 54.3429L0.906233 277.823C0.951929 305.931 23.7534 328.679 51.8347 328.633L615.694 327.715C643.776 327.669 666.503 304.847 666.457 276.739Z" fill="#C8E1F8" stroke="#3F4B5B" stroke-width="0.999999" stroke-linecap="round" stroke-linejoin="round"/>
<g filter="url(#filter0_f_4408_7514)">
<path d="M664.31 53.2591C664.266 26.0219 642.381 4.18757 615.169 4.23189L51.3068 5.1503C24.0947 5.19462 2.28215 27.1001 2.32643 54.3374L2.68977 277.823C2.73405 305.061 24.6177 326.895 51.8298 326.851L615.692 325.932C642.904 325.888 664.718 303.982 664.674 276.745L664.31 53.2591Z" fill="#A0B8CE"/>
</g>
<path d="M666.882 257.599L655.952 257.617L655.96 262.162L666.89 262.144L666.882 257.599ZM600.067 2.01623L595.526 2.02363L596.056 328.204L600.598 328.197L600.067 2.01623ZM69.7855 2.87994L65.2441 2.88734L65.7744 329.068L70.3158 329.061L69.7855 2.87994ZM9.52146 68.9226L0.110343 68.9379L0.117733 73.4835L9.52885 73.4682L9.52146 68.9226Z" fill="#819ABB"/>
<path d="M662.36 194.805L662.266 136.953L657.662 136.961L657.756 194.812L662.36 194.805Z" fill="black"/>
<path d="M661.902 54.1222C661.859 27.5431 640.447 6.18069 613.892 6.22395L52.5914 7.13818C26.0368 7.18143 4.69404 28.6135 4.73725 55.1926L5.09779 276.96C5.141 303.539 26.5533 324.902 53.108 324.858L614.409 323.944C640.963 323.901 662.306 302.469 662.263 275.89L662.131 194.782C662.13 194.278 661.948 193.79 661.619 193.408C661.29 193.026 660.836 192.774 660.337 192.699L660.245 192.699L660.245 192.686L660.157 139.079C660.674 139.022 661.152 138.776 661.499 138.388C661.846 138 662.038 137.498 662.037 136.977L661.902 54.1222Z" fill="black" stroke="#434343" stroke-width="0.500001"/>
<path d="M662.124 190.583L662.044 141.176C662.042 140.01 661.096 139.066 659.931 139.068L657.67 139.071C656.505 139.073 655.562 140.02 655.564 141.186L655.644 190.594C655.646 191.76 656.592 192.704 657.758 192.702L660.018 192.698C661.183 192.696 662.126 191.749 662.124 190.583Z" fill="black" stroke="#1A1A1A" stroke-width="0.500001" stroke-linecap="round" stroke-linejoin="round"/>
<path d="M660.72 142.435C660.718 141.374 659.864 140.522 658.803 140.523C657.743 140.525 656.891 141.38 656.893 142.442L656.969 189.334C656.971 190.395 657.826 191.248 658.886 191.246C659.946 191.245 660.798 190.389 660.796 189.328L660.72 142.435Z" stroke="#292929" stroke-width="0.153809" stroke-linecap="round"/>
<g filter="url(#filter1_f_4408_7514)">
<path d="M658.886 191.246C658.549 191.247 658.276 191.052 658.275 190.811C658.275 190.571 658.548 190.375 658.885 190.375C659.221 190.374 659.495 190.569 659.495 190.809C659.496 191.05 659.223 191.246 658.886 191.246Z" fill="white"/>
<path d="M658.804 140.523C658.467 140.524 658.194 140.719 658.194 140.96C658.195 141.201 658.468 141.395 658.805 141.395C659.142 141.394 659.415 141.199 659.414 140.958C659.414 140.717 659.14 140.523 658.804 140.523Z" fill="white"/>
</g>
<path d="M637.44 123.006C637.445 125.894 639.788 128.232 642.674 128.227C645.56 128.223 647.896 125.877 647.891 122.989C647.886 120.1 645.543 117.763 642.657 117.767C639.771 117.772 637.436 120.117 637.44 123.006Z" fill="#161616"/>
<path d="M639.443 123.003C639.445 124.784 640.891 126.226 642.671 126.223C644.451 126.22 645.891 124.774 645.889 122.992C645.886 121.21 644.44 119.768 642.66 119.771C640.88 119.774 639.44 121.221 639.443 123.003Z" fill="#0A0D13"/>
<path d="M640.21 123.001C640.212 124.359 641.313 125.457 642.67 125.455C644.026 125.453 645.123 124.351 645.121 122.993C645.119 121.636 644.018 120.537 642.662 120.539C641.305 120.542 640.208 121.644 640.21 123.001Z" fill="#091427"/>
<g filter="url(#filter2_f_4408_7514)">
<path fill-rule="evenodd" clip-rule="evenodd" d="M644.306 121.303C644.275 121.011 643.83 120.598 642.956 120.569C642.082 120.539 641.608 120.924 641.608 121.138C641.609 121.353 642.882 122.241 644.306 121.303L644.306 121.303Z" fill="#235A91" fill-opacity="0.556075"/>
</g>
<g filter="url(#filter3_f_4408_7514)">
<path fill-rule="evenodd" clip-rule="evenodd" d="M644.615 123.395C644.473 122.936 643.731 122.849 643.307 122.867C642.883 122.885 641.771 123.488 642.019 124.213C642.268 124.938 643.187 125.06 643.805 124.758C644.422 124.457 644.863 123.908 644.615 123.395Z" fill="#235A91" fill-opacity="0.556075"/>
</g>
<path d="M651.088 97.8932C651.095 101.965 650.678 104.071 644.225 104.082C637.773 104.092 626.907 108.112 626.93 122.433L627.07 208.4C627.093 222.721 637.972 226.706 644.425 226.695C650.877 226.685 651.301 228.79 651.308 232.862L651.088 97.8932Z" fill="black"/>
<defs>
<filter id="filter0_f_4408_7514" x="0.389119" y="2.29476" width="666.222" height="326.493" filterUnits="userSpaceOnUse" color-interpolation-filters="sRGB">
<feFlood flood-opacity="0" result="BackgroundImageFix"/>
<feBlend mode="normal" in="SourceGraphic" in2="BackgroundImageFix" result="shape"/>
<feGaussianBlur stdDeviation="0.968526" result="effect1_foregroundBlur_4408_7514"/>
</filter>
<filter id="filter1_f_4408_7514" x="654.684" y="137.013" width="8.32199" height="57.7443" filterUnits="userSpaceOnUse" color-interpolation-filters="sRGB">
<feFlood flood-opacity="0" result="BackgroundImageFix"/>
<feBlend mode="normal" in="SourceGraphic" in2="BackgroundImageFix" result="shape"/>
<feGaussianBlur stdDeviation="1.7553" result="effect1_foregroundBlur_4408_7514"/>
</filter>
<filter id="filter2_f_4408_7514" x="641.406" y="120.364" width="3.10297" height="1.56354" filterUnits="userSpaceOnUse" color-interpolation-filters="sRGB">
<feFlood flood-opacity="0" result="BackgroundImageFix"/>
<feBlend mode="normal" in="SourceGraphic" in2="BackgroundImageFix" result="shape"/>
<feGaussianBlur stdDeviation="0.101426" result="effect1_foregroundBlur_4408_7514"/>
</filter>
<filter id="filter3_f_4408_7514" x="641.781" y="122.662" width="3.10785" height="2.45294" filterUnits="userSpaceOnUse" color-interpolation-filters="sRGB">
<feFlood flood-opacity="0" result="BackgroundImageFix"/>
<feBlend mode="normal" in="SourceGraphic" in2="BackgroundImageFix" result="shape"/>
<feGaussianBlur stdDeviation="0.101426" result="effect1_foregroundBlur_4408_7514"/>
</filter>
<linearGradient id="paint0_linear_4408_7514" x1="467.597" y1="330.239" x2="390.683" y2="330.364" gradientUnits="userSpaceOnUse">
<stop stop-color="#81AACE"/>
<stop offset="0.1" stop-color="#B9D2E8"/>
<stop offset="0.9" stop-color="#B9D2E8"/>
<stop offset="1" stop-color="#81AACE"/>
</linearGradient>
<linearGradient id="paint1_linear_4408_7514" x1="483.05" y1="9.61415" x2="435.629" y2="9.69125" gradientUnits="userSpaceOnUse">
<stop stop-color="#81AACE"/>
<stop offset="0.1" stop-color="#B9D2E8"/>
<stop offset="0.9" stop-color="#B9D2E8"/>
<stop offset="1" stop-color="#81AACE"/>
</linearGradient>
<linearGradient id="paint2_linear_4408_7514" x1="419.049" y1="9.63612" x2="371.628" y2="9.71322" gradientUnits="userSpaceOnUse">
<stop stop-color="#81AACE"/>
<stop offset="0.1" stop-color="#B9D2E8"/>
<stop offset="0.9" stop-color="#B9D2E8"/>
<stop offset="1" stop-color="#81AACE"/>
</linearGradient>
<linearGradient id="paint3_linear_4408_7514" x1="531.637" y1="9.45278" x2="507.782" y2="9.49157" gradientUnits="userSpaceOnUse">
<stop stop-color="#81AACE"/>
<stop offset="0.1" stop-color="#B9D2E8"/>
<stop offset="0.9" stop-color="#B9D2E8"/>
<stop offset="1" stop-color="#81AACE"/>
</linearGradient>
</defs>
</svg>
