<svg width="139" height="139" viewBox="0 0 139 139" fill="none" xmlns="http://www.w3.org/2000/svg">
<circle cx="69.5298" cy="69.3433" r="58.0547" fill="url(#paint0_linear_4145_11831)" fill-opacity="0.2"/>
<circle cx="69.5297" cy="69.3432" r="69.3432" fill="url(#paint1_linear_4145_11831)" fill-opacity="0.2"/>
<circle cx="69.5297" cy="69.3431" r="45.1537" fill="url(#paint2_linear_4145_11831)" fill-opacity="0.8"/>
<g clip-path="url(#clip0_4145_11831)">
<path d="M76.8239 82.3208C83.8712 82.3208 89.5842 76.7067 89.5842 69.7813C89.5842 62.8559 83.8712 57.2417 76.8239 57.2417C69.7767 57.2417 64.0637 62.8559 64.0637 69.7813C64.0637 76.7067 69.7767 82.3208 76.8239 82.3208Z" fill="white"/>
<path d="M74.4515 52.7046C75.1964 54.6658 78.333 54.916 79.2853 52.7293C87.8151 53.5169 94.8395 61.6213 94.4844 70.2662C94.1041 79.5257 86.5234 86.8641 77.1984 87C67.6754 87.1359 59.9407 80.1372 59.2555 70.7634C58.6112 61.9394 65.3873 53.8597 74.4515 52.7077V52.7046ZM76.8118 83.5038C84.5402 83.5316 90.8575 77.4038 90.8952 69.8461C90.9329 62.2174 84.6848 56.0464 76.8935 56.0186C69.1148 55.9908 62.8102 62.1463 62.807 69.7689C62.807 77.3328 69.0708 83.4791 76.8118 83.5068V83.5038Z" fill="white"/>
<path d="M50.2258 70.4701C48.5412 70.4701 46.8535 70.4732 45.1689 70.4701C44.1286 70.467 43.5 69.9852 43.5 69.2131C43.5 68.4687 44.0972 67.9993 45.0966 67.9993C48.5318 67.9931 51.967 67.99 55.4053 67.9993C56.4079 67.9993 56.9862 68.478 56.9705 69.2378C56.9579 69.9945 56.3608 70.4639 55.3802 70.467C53.661 70.4732 51.945 70.467 50.2258 70.467V70.4701Z" fill="white"/>
<path d="M52.2312 76.851C50.798 76.851 49.368 76.8572 47.9348 76.851C46.9542 76.8448 46.3508 76.3754 46.3225 75.6249C46.2942 74.8712 46.8788 74.3307 47.8594 74.3246C50.7854 74.3029 53.7146 74.3029 56.6407 74.3246C57.6181 74.3338 58.1901 74.8774 58.1524 75.6434C58.1147 76.3692 57.5427 76.8387 56.6218 76.8479C55.1572 76.8634 53.6958 76.851 52.2312 76.851Z" fill="white"/>
<path d="M52.237 64.1231C50.7755 64.1231 49.3109 64.1354 47.8495 64.12C46.8783 64.1107 46.2906 63.5949 46.3252 62.8351C46.3597 62.1124 46.938 61.646 47.8589 61.6429C50.785 61.6337 53.711 61.6337 56.6371 61.6429C57.5674 61.6429 58.1268 62.1093 58.1519 62.8444C58.1802 63.6196 57.6145 64.1076 56.6245 64.12C55.163 64.1354 53.6984 64.1231 52.237 64.1231Z" fill="white"/>
<path d="M56.4296 55.4534C57.6397 55.4534 58.8528 55.4411 60.0628 55.4565C60.9931 55.4719 61.5683 55.9414 61.6029 56.661C61.6374 57.4147 61.034 57.9829 60.0848 57.9922C57.6302 58.0138 55.1788 58.0138 52.7241 57.9922C51.7498 57.9829 51.1778 57.4548 51.1998 56.6796C51.2187 55.9352 51.7656 55.4689 52.7053 55.4565C53.9467 55.438 55.1913 55.4503 56.4328 55.4503L56.4296 55.4534Z" fill="white"/>
<path d="M56.4453 80.4491C57.6553 80.4491 58.8654 80.4399 60.0754 80.4522C60.9931 80.4615 61.5714 80.934 61.5997 81.6568C61.628 82.4227 61.0497 82.9262 60.0628 82.9323C57.6113 82.9447 55.1599 82.9447 52.7053 82.9323C51.7404 82.9262 51.2187 82.4938 51.1967 81.7402C51.1747 80.9526 51.7341 80.4646 52.7178 80.4522C53.9593 80.4399 55.2007 80.4491 56.4422 80.4491H56.4453Z" fill="white"/>
<path d="M76.9282 50.0205C76.0042 50.0205 75.0801 50.0391 74.1593 50.0144C73.1755 49.9896 72.899 49.6499 72.8927 48.5596C72.8864 47.4045 73.1693 47.0277 74.1718 47.0154C76.0482 46.9906 77.9276 46.9906 79.8071 47.0154C80.794 47.0277 81.102 47.4385 81.0925 48.5689C81.0831 49.6283 80.7751 49.9866 79.7945 50.0113C78.8391 50.0329 77.8836 50.0174 76.9313 50.0174L76.9282 50.0205Z" fill="white"/>
<path d="M75.3347 50.5642H78.2482C78.1225 51.5124 78.7259 52.581 77.7642 53.2513C77.3525 53.5385 76.4567 53.5509 76.001 53.3007C74.8916 52.6922 75.6647 51.568 75.3347 50.5673V50.5642Z" fill="white"/>
<path d="M76.601 63.5176C76.601 62.205 76.579 60.8924 76.6198 59.5797C76.6292 59.311 76.8681 59.0454 77.0032 58.7798C77.1195 59.0578 77.3301 59.3326 77.3333 59.6137C77.3584 62.2081 77.3553 64.7994 77.3427 67.3938C77.3427 67.9158 77.3773 68.2957 77.9556 68.6014C78.6941 68.9906 78.9519 69.7164 78.6721 70.541C78.3924 71.3564 77.7607 71.7456 76.9215 71.7271C76.1201 71.7085 75.5104 71.2947 75.2809 70.5225C75.0421 69.7226 75.2526 68.9844 76.0258 68.586C76.5601 68.3111 76.6167 67.9497 76.6104 67.4556C76.5915 66.1429 76.6041 64.8303 76.6041 63.5176H76.601Z" fill="#8B31C4"/>
<path d="M81.7365 64.5244L82.472 65.5004C81.6045 66.3745 80.646 67.3412 79.8005 68.1936C79.5239 67.9157 79.1719 67.5667 78.9048 67.2979C79.7157 66.5042 80.6648 65.5745 81.7365 64.5244Z" fill="#8B31C4"/>
</g>
<defs>
<linearGradient id="paint0_linear_4145_11831" x1="69.5298" y1="11.2886" x2="69.5298" y2="127.398" gradientUnits="userSpaceOnUse">
<stop stop-color="#BE3FF8"/>
<stop offset="1" stop-color="#491D92"/>
</linearGradient>
<linearGradient id="paint1_linear_4145_11831" x1="69.5297" y1="0" x2="69.5297" y2="138.686" gradientUnits="userSpaceOnUse">
<stop stop-color="#BE3FF8"/>
<stop offset="1" stop-color="#491D92"/>
</linearGradient>
<linearGradient id="paint2_linear_4145_11831" x1="69.5297" y1="24.1895" x2="69.5297" y2="114.497" gradientUnits="userSpaceOnUse">
<stop stop-color="#BE3FF8"/>
<stop offset="1" stop-color="#491D92"/>
</linearGradient>
<clipPath id="clip0_4145_11831">
<rect width="51" height="40" fill="white" transform="translate(43.5 47)"/>
</clipPath>
</defs>
</svg>
