<svg width="139" height="139" viewBox="0 0 139 139" fill="none" xmlns="http://www.w3.org/2000/svg">
<circle cx="69.3431" cy="69.3431" r="58.0547" fill="url(#paint0_linear_4145_11852)" fill-opacity="0.2"/>
<circle cx="69.3432" cy="69.3432" r="69.3432" fill="url(#paint1_linear_4145_11852)" fill-opacity="0.2"/>
<circle cx="69.3431" cy="69.3431" r="45.1537" fill="url(#paint2_linear_4145_11852)" fill-opacity="0.8"/>
<g clip-path="url(#clip0_4145_11852)">
<g clip-path="url(#clip1_4145_11852)">
<path d="M79.0295 61.677C79.234 61.677 79.3795 61.677 79.525 61.677C82.3129 61.677 85.1008 61.6996 87.8847 61.6732C90.9322 61.6431 93.492 64.0482 93.8459 66.585C94.1133 68.497 93.6336 70.2283 92.3713 71.7451C92.2219 71.9258 92.1826 72.0688 92.2573 72.2909C92.9729 74.4174 92.7488 76.4273 91.4119 78.2979C91.345 78.392 91.3175 78.5463 91.3411 78.6554C91.8484 80.9438 91.3568 82.9763 89.7093 84.734C89.6149 84.8356 89.5795 85.0275 89.5874 85.1743C89.6424 86.3524 89.548 87.5079 89.088 88.6144C88.274 90.5754 86.768 91.8136 84.6564 92.3331C83.7914 92.5476 82.887 92.6793 81.9944 92.6981C80.0873 92.7395 78.1762 92.7546 76.277 92.653C73.7722 92.5175 71.3304 91.9793 68.9396 91.2641C66.7769 90.6168 64.6339 89.9054 62.4712 89.2618C61.7595 89.051 61.0084 88.9343 60.2692 88.8327C59.1485 88.6746 58.3936 87.8955 58.3936 86.8078C58.3936 80.4169 58.3936 74.026 58.3936 67.6351C58.3936 66.4796 59.0738 65.7607 60.2535 65.5236C60.6585 65.4408 61.0949 65.2375 61.3859 64.9628C62.3926 64.0068 63.3835 63.0319 64.3036 62.0007C65.727 60.4048 67.0836 58.7525 68.4677 57.1265C68.4953 57.0964 68.5189 57.0626 68.5503 57.0362C69.962 55.8356 70.5675 54.2435 70.9293 52.5347C71.1102 51.6691 71.2832 50.8034 71.4994 49.9452C71.7826 48.8312 72.2387 47.7886 73.0251 46.9003C73.4852 46.3659 74.0671 46.1062 74.7985 46.1212C75.986 46.1438 77.1382 46.3395 78.2392 46.7724C79.9536 47.4461 80.913 48.7559 81.3338 50.4007C82.1359 53.5397 81.7663 56.5582 80.1069 59.4074C79.757 60.0096 79.466 60.6382 79.1553 61.2592C79.1003 61.3646 79.0806 61.4888 79.0256 61.6732L79.0295 61.677Z" fill="white"/>
<path d="M56.3135 77.1914C56.3135 80.3643 56.3135 83.5409 56.3135 86.7138C56.3135 88.0236 55.4995 88.8215 54.1232 88.8253C51.1977 88.8328 48.2761 88.8328 45.3506 88.8253C43.9625 88.8253 43.125 88.0198 43.125 86.7025C43.125 80.3605 43.125 74.0223 43.125 67.6878C43.125 66.5888 43.7856 65.7607 44.7922 65.5801C44.9259 65.5575 45.0675 65.5537 45.2012 65.5537C48.1896 65.5537 51.1781 65.5726 54.1626 65.5387C55.2754 65.5274 56.3253 66.3818 56.3174 67.5824C56.2899 70.7854 56.3095 73.9922 56.3095 77.1951L56.3135 77.1914ZM49.2356 81.0606C48.0874 81.0568 47.1633 81.9225 47.1594 83.0064C47.1555 84.0866 48.0559 84.9636 49.1805 84.9711C50.3444 84.9787 51.2646 84.1318 51.2724 83.0441C51.2803 81.9488 50.3759 81.0643 49.2316 81.0606H49.2356Z" fill="white"/>
</g>
</g>
<defs>
<linearGradient id="paint0_linear_4145_11852" x1="69.3431" y1="11.2883" x2="69.3431" y2="127.398" gradientUnits="userSpaceOnUse">
<stop stop-color="#2BDAF8"/>
<stop offset="1" stop-color="#5078C2"/>
</linearGradient>
<linearGradient id="paint1_linear_4145_11852" x1="69.3432" y1="0" x2="69.3432" y2="138.686" gradientUnits="userSpaceOnUse">
<stop stop-color="#2BDAF8"/>
<stop offset="1" stop-color="#5078C2"/>
</linearGradient>
<linearGradient id="paint2_linear_4145_11852" x1="69.3431" y1="24.1895" x2="69.3431" y2="114.497" gradientUnits="userSpaceOnUse">
<stop stop-color="#2BDAF8"/>
<stop offset="1" stop-color="#5078C2"/>
</linearGradient>
<clipPath id="clip0_4145_11852">
<rect width="46" height="49" fill="white" transform="translate(46 45)"/>
</clipPath>
<clipPath id="clip1_4145_11852">
<rect width="50.7917" height="46.6033" fill="white" transform="translate(43.125 46.1213)"/>
</clipPath>
</defs>
</svg>
